<?xml version="1.0" standalone="no"?>
<!DOCTYPE svg PUBLIC "-//W3C//DTD SVG 20010904//EN"
 "http://www.w3.org/TR/2001/REC-SVG-20010904/DTD/svg10.dtd">
<svg version="1.0" xmlns="http://www.w3.org/2000/svg"
 width="700.000000pt" height="700.000000pt" viewBox="0 0 700.000000 700.000000"
 preserveAspectRatio="xMidYMid meet">
<metadata>
Created by potrace 1.14, written by Peter Selinger 2001-2017
</metadata>
<g transform="translate(0.000000,700.000000) scale(0.100000,-0.100000)"
fill="#000000" stroke="none">
<path d="M595 6680 c-120 -39 -220 -130 -266 -247 l-24 -58 -3 -2850 c-1
-1852 1 -2866 8 -2897 34 -162 175 -299 335 -325 65 -11 5689 -9 5735 1 137
33 252 137 302 274 l21 57 1 2835 c1 1559 -2 2858 -7 2885 -26 158 -161 299
-319 334 -33 8 -924 11 -2885 10 -2767 0 -2840 -1 -2898 -19z"/>
</g>
</svg>
