<?xml version="1.0" encoding="UTF-8"?><svg xmlns="http://www.w3.org/2000/svg" xmlns:xlink="http://www.w3.org/1999/xlink" contentScriptType="text/ecmascript" width="375" zoomAndPan="magnify" contentStyleType="text/css" viewBox="0 0 375 374.999991" height="374.999991" preserveAspectRatio="xMidYMid meet" version="1.0"><defs><clipPath id="clip-0"><path d="M 47 37.5 L 370 37.5 L 370 235 L 47 235 Z M 47 37.5 " clip-rule="nonzero"/></clipPath></defs><g clip-path="url(#clip-0)"><path fill="rgb(100%, 100%, 100%)" d="M 303.863281 70.179688 C 298.582031 70.179688 293.300781 70.660156 288.015625 72.101562 C 276.972656 51.4375 254.882812 37.5 229.910156 37.5 C 210.222656 37.5 192.933594 46.148438 180.929688 59.605469 C 171.324219 51.917969 159.320312 47.589844 146.355469 47.589844 C 115.621094 47.589844 90.648438 72.582031 90.648438 103.335938 C 90.648438 105.257812 90.648438 107.179688 91.128906 109.101562 C 91.128906 109.101562 91.128906 109.101562 90.648438 109.101562 C 66.636719 109.101562 47.429688 128.324219 47.429688 152.351562 C 47.429688 176.378906 66.636719 195.601562 90.648438 195.601562 C 90.648438 195.601562 91.128906 195.601562 91.128906 195.601562 C 94.492188 215.785156 112.257812 231.644531 133.867188 231.644531 C 149.234375 231.644531 162.679688 223.476562 170.363281 211.460938 C 180.929688 225.398438 197.257812 234.046875 215.984375 234.046875 C 241.917969 234.046875 263.527344 216.746094 270.730469 193.199219 C 280.332031 198.964844 291.859375 202.332031 303.863281 202.332031 C 340.359375 202.332031 369.652344 173.015625 369.652344 136.496094 C 369.652344 99.972656 340.359375 70.179688 303.863281 70.179688 Z M 176.605469 116.792969 L 173.726562 120.15625 C 173.246094 120.636719 172.765625 121.597656 172.285156 122.078125 L 157.398438 140.339844 L 144.433594 156.195312 L 147.792969 156.195312 C 157.398438 156.195312 163.160156 156.195312 166.042969 156.195312 C 168.921875 156.195312 171.804688 156.195312 174.6875 155.714844 C 174.6875 159.5625 174.207031 162.925781 174.207031 164.847656 C 166.042969 164.847656 158.839844 164.847656 152.117188 164.847656 L 128.585938 164.847656 C 129.066406 161.003906 129.066406 158.121094 129.066406 155.234375 L 130.988281 152.832031 C 130.988281 152.832031 132.425781 151.390625 134.347656 148.507812 L 154.996094 124 L 161.242188 115.832031 L 147.3125 115.832031 C 142.03125 115.832031 136.75 115.832031 131.945312 116.3125 C 131.945312 113.910156 132.425781 111.984375 132.425781 109.101562 C 132.425781 108.621094 132.425781 108.140625 132.425781 107.179688 C 139.628906 107.179688 147.3125 107.179688 155.476562 107.179688 L 177.085938 107.179688 C 176.605469 110.542969 176.605469 113.429688 176.605469 116.792969 Z M 229.429688 116.792969 L 226.550781 120.15625 C 226.070312 120.636719 225.589844 121.597656 225.109375 122.078125 L 210.222656 140.339844 L 197.257812 156.195312 L 200.617188 156.195312 C 210.222656 156.195312 215.984375 156.195312 218.867188 156.195312 C 221.746094 156.195312 224.628906 156.195312 227.511719 155.714844 C 227.511719 159.5625 227.03125 162.925781 227.03125 164.847656 C 218.867188 164.847656 211.664062 164.847656 204.941406 164.847656 L 181.410156 164.847656 C 181.890625 161.003906 181.890625 158.121094 181.890625 155.234375 L 183.808594 152.832031 C 183.808594 152.832031 185.25 151.390625 187.171875 148.507812 L 207.820312 124 L 214.0625 115.832031 L 200.136719 115.832031 C 194.855469 115.832031 189.574219 115.832031 184.769531 116.3125 C 184.769531 113.910156 185.25 111.984375 185.25 109.101562 C 185.25 108.621094 185.25 108.140625 185.25 107.179688 C 192.453125 107.179688 200.136719 107.179688 208.300781 107.179688 L 229.910156 107.179688 C 229.429688 110.542969 229.429688 113.429688 229.429688 116.792969 Z M 282.253906 116.792969 L 279.375 120.15625 C 278.894531 120.636719 278.414062 121.597656 277.933594 122.078125 L 263.046875 140.339844 L 250.082031 155.714844 L 253.441406 155.714844 C 263.046875 155.714844 268.808594 155.714844 271.691406 155.714844 C 274.570312 155.714844 277.453125 155.714844 280.332031 155.234375 C 280.332031 159.082031 279.855469 162.445312 279.855469 164.367188 C 271.691406 164.367188 264.488281 164.367188 257.765625 164.367188 L 234.234375 164.367188 C 234.714844 160.523438 234.714844 157.640625 234.714844 154.753906 L 236.632812 152.351562 C 236.632812 152.351562 238.074219 150.910156 239.996094 148.027344 L 260.644531 123.519531 L 266.886719 115.351562 L 252.960938 115.351562 C 247.679688 115.351562 242.398438 115.351562 237.59375 115.832031 C 237.59375 113.429688 238.074219 111.503906 238.074219 108.621094 C 238.074219 108.140625 238.074219 107.660156 238.074219 106.699219 C 245.277344 106.699219 252.960938 106.699219 261.125 106.699219 L 282.734375 106.699219 C 282.734375 110.542969 282.253906 113.429688 282.253906 116.792969 Z M 282.253906 116.792969 " fill-opacity="1" fill-rule="nonzero"/></g><path fill="rgb(100%, 100%, 100%)" d="M 121.382812 252.789062 C 121.382812 253.480469 121.347656 254.171875 121.28125 254.863281 C 121.210938 255.550781 121.113281 256.234375 120.976562 256.914062 C 120.839844 257.59375 120.671875 258.265625 120.472656 258.925781 C 120.273438 259.589844 120.039062 260.242188 119.773438 260.878906 C 119.507812 261.519531 119.214844 262.144531 118.886719 262.757812 C 118.5625 263.367188 118.207031 263.960938 117.820312 264.535156 C 117.4375 265.113281 117.023438 265.667969 116.585938 266.203125 C 116.148438 266.738281 115.683594 267.25 115.195312 267.742188 C 114.703125 268.230469 114.191406 268.695312 113.65625 269.132812 C 113.121094 269.574219 112.566406 269.984375 111.992188 270.371094 C 111.417969 270.753906 110.824219 271.109375 110.214844 271.4375 C 109.601562 271.761719 108.976562 272.058594 108.339844 272.324219 C 107.699219 272.589844 107.046875 272.820312 106.386719 273.023438 C 105.722656 273.222656 105.054688 273.390625 104.375 273.527344 C 103.695312 273.664062 103.011719 273.761719 102.324219 273.832031 C 101.636719 273.898438 100.945312 273.933594 100.253906 273.933594 C 99.5625 273.933594 98.871094 273.898438 98.183594 273.832031 C 97.492188 273.761719 96.808594 273.664062 96.128906 273.527344 C 95.453125 273.390625 94.78125 273.222656 94.121094 273.023438 C 93.457031 272.820312 92.804688 272.589844 92.167969 272.324219 C 91.527344 272.058594 90.902344 271.761719 90.292969 271.4375 C 89.683594 271.109375 89.089844 270.753906 88.515625 270.371094 C 87.9375 269.984375 87.382812 269.574219 86.847656 269.132812 C 86.3125 268.695312 85.800781 268.230469 85.3125 267.742188 C 84.824219 267.25 84.359375 266.738281 83.917969 266.203125 C 83.480469 265.667969 83.070312 265.113281 82.683594 264.535156 C 82.300781 263.960938 81.945312 263.367188 81.617188 262.757812 C 81.292969 262.144531 80.996094 261.519531 80.730469 260.878906 C 80.46875 260.242188 80.234375 259.589844 80.035156 258.925781 C 79.832031 258.265625 79.664062 257.59375 79.53125 256.914062 C 79.394531 256.234375 79.292969 255.550781 79.226562 254.863281 C 79.15625 254.171875 79.125 253.480469 79.125 252.789062 C 79.125 252.097656 79.15625 251.40625 79.226562 250.714844 C 79.292969 250.027344 79.394531 249.34375 79.53125 248.664062 C 79.664062 247.984375 79.832031 247.3125 80.035156 246.652344 C 80.234375 245.988281 80.46875 245.335938 80.730469 244.695312 C 80.996094 244.058594 81.292969 243.433594 81.617188 242.820312 C 81.945312 242.210938 82.300781 241.617188 82.683594 241.042969 C 83.070312 240.464844 83.480469 239.910156 83.917969 239.375 C 84.359375 238.839844 84.824219 238.328125 85.3125 237.835938 C 85.800781 237.347656 86.3125 236.882812 86.847656 236.445312 C 87.382812 236.003906 87.9375 235.59375 88.515625 235.207031 C 89.089844 234.824219 89.683594 234.46875 90.292969 234.140625 C 90.902344 233.816406 91.527344 233.519531 92.167969 233.253906 C 92.804688 232.988281 93.457031 232.757812 94.121094 232.554688 C 94.78125 232.355469 95.453125 232.1875 96.128906 232.050781 C 96.808594 231.914062 97.492188 231.8125 98.183594 231.746094 C 98.871094 231.679688 99.5625 231.644531 100.253906 231.644531 C 100.945312 231.644531 101.636719 231.679688 102.324219 231.746094 C 103.011719 231.8125 103.695312 231.914062 104.375 232.050781 C 105.054688 232.1875 105.722656 232.355469 106.386719 232.554688 C 107.046875 232.757812 107.699219 232.988281 108.339844 233.253906 C 108.976562 233.519531 109.601562 233.816406 110.214844 234.140625 C 110.824219 234.46875 111.417969 234.824219 111.992188 235.207031 C 112.566406 235.59375 113.121094 236.003906 113.65625 236.445312 C 114.191406 236.882812 114.703125 237.347656 115.195312 237.835938 C 115.683594 238.328125 116.148438 238.839844 116.585938 239.375 C 117.023438 239.910156 117.4375 240.464844 117.820312 241.042969 C 118.207031 241.617188 118.5625 242.210938 118.886719 242.820312 C 119.214844 243.433594 119.507812 244.058594 119.773438 244.695312 C 120.039062 245.335938 120.273438 245.988281 120.472656 246.652344 C 120.671875 247.3125 120.839844 247.984375 120.976562 248.664062 C 121.113281 249.34375 121.210938 250.027344 121.28125 250.714844 C 121.347656 251.40625 121.382812 252.097656 121.382812 252.789062 Z M 121.382812 252.789062 " fill-opacity="1" fill-rule="nonzero"/><path fill="rgb(100%, 100%, 100%)" d="M 76.242188 280.179688 C 76.242188 280.730469 76.214844 281.28125 76.160156 281.828125 C 76.105469 282.378906 76.027344 282.921875 75.917969 283.460938 C 75.8125 284.003906 75.679688 284.535156 75.519531 285.0625 C 75.359375 285.589844 75.171875 286.109375 74.960938 286.617188 C 74.753906 287.125 74.515625 287.625 74.257812 288.109375 C 73.996094 288.59375 73.714844 289.066406 73.410156 289.523438 C 73.105469 289.984375 72.777344 290.425781 72.425781 290.851562 C 72.078125 291.277344 71.707031 291.683594 71.320312 292.074219 C 70.929688 292.464844 70.523438 292.832031 70.097656 293.183594 C 69.671875 293.53125 69.230469 293.859375 68.773438 294.164062 C 68.316406 294.472656 67.84375 294.753906 67.359375 295.015625 C 66.871094 295.273438 66.375 295.507812 65.867188 295.71875 C 65.359375 295.929688 64.839844 296.117188 64.3125 296.277344 C 63.785156 296.4375 63.253906 296.570312 62.714844 296.675781 C 62.171875 296.785156 61.628906 296.863281 61.082031 296.917969 C 60.535156 296.972656 59.984375 297 59.433594 297 C 58.882812 297 58.335938 296.972656 57.789062 296.917969 C 57.238281 296.863281 56.695312 296.785156 56.15625 296.675781 C 55.617188 296.570312 55.082031 296.4375 54.554688 296.277344 C 54.027344 296.117188 53.511719 295.929688 53.003906 295.71875 C 52.492188 295.507812 51.996094 295.273438 51.511719 295.015625 C 51.027344 294.753906 50.554688 294.472656 50.097656 294.164062 C 49.640625 293.859375 49.199219 293.53125 48.773438 293.183594 C 48.347656 292.832031 47.9375 292.464844 47.550781 292.074219 C 47.160156 291.683594 46.792969 291.277344 46.441406 290.851562 C 46.09375 290.425781 45.765625 289.984375 45.460938 289.523438 C 45.152344 289.066406 44.871094 288.59375 44.613281 288.109375 C 44.351562 287.625 44.117188 287.125 43.90625 286.617188 C 43.695312 286.109375 43.511719 285.589844 43.351562 285.0625 C 43.191406 284.535156 43.058594 284.003906 42.949219 283.460938 C 42.84375 282.921875 42.761719 282.378906 42.707031 281.828125 C 42.652344 281.28125 42.628906 280.730469 42.628906 280.179688 C 42.628906 279.628906 42.652344 279.082031 42.707031 278.53125 C 42.761719 277.984375 42.84375 277.441406 42.949219 276.898438 C 43.058594 276.359375 43.191406 275.824219 43.351562 275.296875 C 43.511719 274.769531 43.695312 274.253906 43.90625 273.742188 C 44.117188 273.234375 44.351562 272.738281 44.613281 272.25 C 44.871094 271.765625 45.152344 271.292969 45.460938 270.835938 C 45.765625 270.378906 46.09375 269.9375 46.441406 269.511719 C 46.792969 269.085938 47.160156 268.675781 47.550781 268.289062 C 47.9375 267.898438 48.347656 267.527344 48.773438 267.179688 C 49.199219 266.828125 49.640625 266.5 50.097656 266.195312 C 50.554688 265.890625 51.027344 265.605469 51.511719 265.347656 C 51.996094 265.085938 52.492188 264.851562 53.003906 264.640625 C 53.511719 264.429688 54.027344 264.246094 54.554688 264.085938 C 55.082031 263.925781 55.617188 263.792969 56.15625 263.683594 C 56.695312 263.578125 57.238281 263.496094 57.785156 263.441406 C 58.335938 263.386719 58.882812 263.359375 59.433594 263.359375 C 59.984375 263.359375 60.535156 263.386719 61.082031 263.441406 C 61.628906 263.496094 62.171875 263.578125 62.714844 263.683594 C 63.253906 263.792969 63.785156 263.925781 64.3125 264.085938 C 64.839844 264.246094 65.359375 264.429688 65.867188 264.640625 C 66.375 264.851562 66.871094 265.085938 67.359375 265.347656 C 67.84375 265.605469 68.316406 265.890625 68.773438 266.195312 C 69.230469 266.5 69.671875 266.828125 70.097656 267.179688 C 70.523438 267.527344 70.929688 267.898438 71.320312 268.289062 C 71.707031 268.675781 72.078125 269.085938 72.425781 269.511719 C 72.777344 269.9375 73.105469 270.378906 73.410156 270.835938 C 73.714844 271.292969 73.996094 271.765625 74.257812 272.25 C 74.515625 272.738281 74.753906 273.234375 74.960938 273.742188 C 75.171875 274.253906 75.359375 274.769531 75.519531 275.296875 C 75.679688 275.824219 75.8125 276.359375 75.917969 276.898438 C 76.027344 277.441406 76.105469 277.984375 76.160156 278.53125 C 76.214844 279.082031 76.242188 279.628906 76.242188 280.179688 Z M 76.242188 280.179688 " fill-opacity="1" fill-rule="nonzero"/><path fill="rgb(100%, 100%, 100%)" d="M 28.21875 285.464844 C 28.21875 286.222656 28.148438 286.972656 28 287.714844 C 27.851562 288.460938 27.632812 289.179688 27.34375 289.878906 C 27.054688 290.578125 26.699219 291.246094 26.277344 291.875 C 25.859375 292.503906 25.378906 293.085938 24.84375 293.621094 C 24.308594 294.15625 23.726562 294.636719 23.097656 295.054688 C 22.46875 295.476562 21.804688 295.832031 21.105469 296.121094 C 20.40625 296.410156 19.6875 296.628906 18.945312 296.777344 C 18.203125 296.925781 17.453125 297 16.695312 297 C 15.9375 297 15.1875 296.925781 14.445312 296.777344 C 13.703125 296.628906 12.984375 296.410156 12.285156 296.121094 C 11.585938 295.832031 10.921875 295.476562 10.292969 295.054688 C 9.664062 294.636719 9.082031 294.15625 8.546875 293.621094 C 8.011719 293.085938 7.53125 292.503906 7.113281 291.875 C 6.691406 291.246094 6.335938 290.578125 6.046875 289.878906 C 5.757812 289.179688 5.539062 288.460938 5.390625 287.714844 C 5.242188 286.972656 5.171875 286.222656 5.171875 285.464844 C 5.171875 284.710938 5.242188 283.960938 5.390625 283.214844 C 5.539062 282.472656 5.757812 281.753906 6.046875 281.054688 C 6.335938 280.351562 6.691406 279.6875 7.113281 279.058594 C 7.53125 278.429688 8.011719 277.847656 8.546875 277.3125 C 9.082031 276.777344 9.664062 276.296875 10.292969 275.875 C 10.921875 275.457031 11.585938 275.101562 12.285156 274.8125 C 12.984375 274.519531 13.703125 274.300781 14.445312 274.15625 C 15.1875 274.007812 15.9375 273.933594 16.695312 273.933594 C 17.453125 273.933594 18.203125 274.007812 18.945312 274.15625 C 19.6875 274.300781 20.40625 274.519531 21.105469 274.8125 C 21.804688 275.101562 22.46875 275.457031 23.097656 275.878906 C 23.726562 276.296875 24.308594 276.777344 24.84375 277.3125 C 25.378906 277.847656 25.859375 278.429688 26.277344 279.058594 C 26.699219 279.6875 27.054688 280.351562 27.34375 281.054688 C 27.632812 281.753906 27.851562 282.472656 28 283.214844 C 28.148438 283.960938 28.21875 284.710938 28.21875 285.464844 Z M 28.21875 285.464844 " fill-opacity="1" fill-rule="nonzero"/></svg>