<?xml version="1.0" encoding="UTF-8"?><svg xmlns="http://www.w3.org/2000/svg" xmlns:xlink="http://www.w3.org/1999/xlink" contentScriptType="text/ecmascript" width="150" zoomAndPan="magnify" contentStyleType="text/css" viewBox="0 0 150 149.999998" height="149.999998" preserveAspectRatio="xMidYMid meet" version="1.0"><defs><clipPath id="clip-0"><path d="M 111 108 L 142 108 L 142 146.40625 L 111 146.40625 Z M 111 108 " clip-rule="nonzero"/></clipPath><clipPath id="clip-1"><path d="M 95 53 L 146.113281 53 L 146.113281 105 L 95 105 Z M 95 53 " clip-rule="nonzero"/></clipPath><clipPath id="clip-2"><path d="M 2.863281 95 L 54 95 L 54 146.40625 L 2.863281 146.40625 Z M 2.863281 95 " clip-rule="nonzero"/></clipPath><clipPath id="clip-3"><path d="M 62 125 L 96 125 L 96 146.40625 L 62 146.40625 Z M 62 125 " clip-rule="nonzero"/></clipPath></defs><path fill="rgb(99.21875%, 69.799805%, 69.018555%)" d="M 84.445312 115.992188 C 82.648438 116.359375 80.71875 116.144531 78.957031 115.25 C 78.171875 114.851562 59.816406 105.152344 64.289062 75.339844 C 64.976562 70.75 69.257812 67.578125 73.851562 68.277344 C 78.441406 68.964844 81.609375 73.246094 80.917969 77.832031 C 78.308594 95.230469 86.496094 100.234375 86.582031 100.273438 C 90.722656 102.378906 92.371094 107.4375 90.265625 111.570312 C 89.054688 113.945312 86.871094 115.496094 84.445312 115.992188 " fill-opacity="1" fill-rule="nonzero"/><path fill="rgb(99.21875%, 24.308777%, 37.249756%)" d="M 72.578125 71.164062 C 71.433594 71.164062 70.324219 71.527344 69.390625 72.21875 C 68.21875 73.078125 67.457031 74.347656 67.238281 75.785156 C 63.082031 103.488281 79.605469 112.234375 80.308594 112.59375 C 81.414062 113.152344 82.636719 113.3125 83.851562 113.074219 C 85.480469 112.738281 86.851562 111.699219 87.605469 110.21875 C 88.960938 107.554688 87.894531 104.285156 85.230469 102.933594 C 85.179688 102.910156 74.96875 97.382812 77.96875 77.386719 C 78.183594 75.957031 77.828125 74.527344 76.964844 73.363281 C 76.105469 72.199219 74.839844 71.441406 73.410156 71.226562 C 73.132812 71.183594 72.855469 71.164062 72.578125 71.164062 Z M 84.449219 115.992188 L 84.476562 115.992188 Z M 82.777344 119.144531 C 80.992188 119.144531 79.210938 118.722656 77.605469 117.910156 C 76.738281 117.46875 56.550781 106.800781 61.335938 74.898438 C 61.789062 71.882812 63.390625 69.226562 65.84375 67.417969 C 68.292969 65.617188 71.292969 64.867188 74.300781 65.332031 C 77.304688 65.78125 79.957031 67.378906 81.765625 69.820312 C 83.578125 72.265625 84.324219 75.265625 83.871094 78.273438 C 81.699219 92.746094 87.46875 97.257812 88.101562 97.707031 C 93.59375 100.648438 95.734375 107.402344 92.925781 112.921875 C 91.34375 116.03125 88.46875 118.214844 85.046875 118.914062 C 84.296875 119.066406 83.535156 119.144531 82.777344 119.144531 " fill-opacity="1" fill-rule="nonzero"/><path fill="rgb(99.21875%, 69.799805%, 69.018555%)" d="M 35.007812 11.679688 C 36.042969 12.46875 36.828125 13.601562 37.171875 14.960938 C 37.320312 15.566406 40.691406 29.898438 22.640625 41.417969 C 19.863281 43.191406 16.167969 42.382812 14.398438 39.601562 C 12.625 36.828125 13.4375 33.140625 16.214844 31.367188 C 26.75 24.644531 25.609375 17.933594 25.59375 17.871094 C 24.789062 14.675781 26.726562 11.4375 29.925781 10.632812 C 31.761719 10.171875 33.609375 10.613281 35.007812 11.679688 " fill-opacity="1" fill-rule="nonzero"/><path fill="rgb(99.21875%, 24.308777%, 37.249756%)" d="M 31.382812 13.433594 C 31.140625 13.433594 30.894531 13.460938 30.648438 13.523438 C 29.058594 13.925781 28.085938 15.546875 28.488281 17.140625 C 28.496094 17.171875 30.445312 25.828125 17.820312 33.878906 C 16.4375 34.765625 16.027344 36.613281 16.914062 38 C 17.34375 38.671875 18.003906 39.132812 18.777344 39.304688 C 19.558594 39.480469 20.363281 39.335938 21.035156 38.90625 C 37.261719 28.550781 34.40625 16.203125 34.277344 15.679688 C 34.066406 14.855469 33.574219 14.335938 33.199219 14.046875 C 32.667969 13.644531 32.03125 13.433594 31.382812 13.433594 Z M 19.441406 45.339844 C 18.789062 45.339844 18.136719 45.269531 17.484375 45.125 C 15.152344 44.609375 13.160156 43.214844 11.882812 41.203125 C 9.226562 37.050781 10.449219 31.507812 14.609375 28.855469 C 22.722656 23.679688 22.691406 18.988281 22.648438 18.382812 C 21.605469 13.632812 24.5 8.921875 29.195312 7.742188 C 31.859375 7.066406 34.636719 7.644531 36.816406 9.308594 C 38.417969 10.527344 39.570312 12.273438 40.066406 14.226562 C 40.238281 14.925781 44.070312 31.28125 24.246094 43.929688 C 22.789062 44.859375 21.128906 45.339844 19.441406 45.339844 " fill-opacity="1" fill-rule="nonzero"/><path fill="rgb(99.21875%, 69.799805%, 69.018555%)" d="M 136.476562 112.746094 C 137.511719 113.539062 138.296875 114.667969 138.636719 116.027344 C 138.792969 116.632812 142.164062 130.96875 124.109375 142.484375 C 121.332031 144.257812 117.636719 143.453125 115.867188 140.671875 C 114.09375 137.894531 114.90625 134.207031 117.683594 132.4375 C 128.21875 125.714844 127.078125 119.003906 127.0625 118.941406 C 126.257812 115.746094 128.195312 112.503906 131.394531 111.703125 C 133.226562 111.242188 135.078125 111.683594 136.476562 112.746094 " fill-opacity="1" fill-rule="nonzero"/><g clip-path="url(#clip-0)"><path fill="rgb(99.21875%, 24.308777%, 37.249756%)" d="M 132.851562 114.5 C 132.605469 114.5 132.363281 114.53125 132.117188 114.59375 C 130.527344 114.996094 129.554688 116.617188 129.957031 118.210938 C 129.964844 118.242188 131.914062 126.894531 119.289062 134.949219 C 117.902344 135.832031 117.496094 137.679688 118.382812 139.066406 C 118.8125 139.738281 119.472656 140.203125 120.246094 140.371094 C 121.03125 140.550781 121.828125 140.402344 122.503906 139.972656 C 138.734375 129.617188 135.875 117.269531 135.746094 116.75 C 135.535156 115.921875 135.042969 115.40625 134.667969 115.117188 C 134.136719 114.714844 133.5 114.5 132.851562 114.5 Z M 120.910156 146.410156 C 120.257812 146.410156 119.605469 146.335938 118.953125 146.195312 C 116.621094 145.675781 114.628906 144.285156 113.347656 142.269531 C 110.695312 138.117188 111.917969 132.578125 116.078125 129.921875 C 124.191406 124.746094 124.160156 120.058594 124.117188 119.449219 C 123.074219 114.703125 125.96875 109.988281 130.664062 108.8125 C 133.328125 108.136719 136.101562 108.714844 138.285156 110.375 C 139.886719 111.597656 141.039062 113.34375 141.535156 115.296875 C 141.707031 115.996094 145.535156 132.347656 125.71875 145 C 124.257812 145.929688 122.597656 146.410156 120.910156 146.410156 " fill-opacity="1" fill-rule="nonzero"/></g><path fill="rgb(99.21875%, 69.799805%, 69.018555%)" d="M 50.613281 73.367188 C 50.613281 80.777344 41.261719 86.785156 29.722656 86.785156 C 18.1875 86.785156 8.835938 80.777344 8.835938 73.367188 C 8.835938 65.960938 18.1875 59.953125 29.722656 59.953125 C 41.261719 59.953125 50.613281 65.960938 50.613281 73.367188 " fill-opacity="1" fill-rule="nonzero"/><path fill="rgb(99.21875%, 24.308777%, 37.249756%)" d="M 29.722656 62.933594 C 20.019531 62.933594 11.816406 67.710938 11.816406 73.367188 C 11.816406 79.023438 20.019531 83.800781 29.722656 83.800781 C 39.429688 83.800781 47.628906 79.023438 47.628906 73.367188 C 47.628906 67.710938 39.429688 62.933594 29.722656 62.933594 Z M 29.722656 89.765625 C 16.335938 89.765625 5.851562 82.5625 5.851562 73.367188 C 5.851562 64.175781 16.335938 56.972656 29.722656 56.972656 C 43.113281 56.972656 53.597656 64.175781 53.597656 73.367188 C 53.597656 82.5625 43.113281 89.765625 29.722656 89.765625 " fill-opacity="1" fill-rule="nonzero"/><path fill="rgb(99.21875%, 24.308777%, 37.249756%)" d="M 35.691406 76.351562 L 23.753906 76.351562 C 22.109375 76.351562 20.773438 75.015625 20.773438 73.367188 C 20.773438 71.71875 22.109375 70.386719 23.753906 70.386719 L 35.691406 70.386719 C 37.339844 70.386719 38.679688 71.71875 38.679688 73.367188 C 38.679688 75.015625 37.339844 76.351562 35.691406 76.351562 " fill-opacity="1" fill-rule="nonzero"/><path fill="rgb(99.21875%, 69.799805%, 69.018555%)" d="M 132.714844 8.652344 C 137.960938 13.890625 134.179688 26.160156 124.277344 36.054688 C 114.367188 45.953125 102.085938 49.726562 96.84375 44.488281 C 91.597656 39.25 95.375 26.980469 105.285156 17.082031 C 115.1875 7.1875 127.472656 3.414062 132.714844 8.652344 " fill-opacity="1" fill-rule="nonzero"/><path fill="rgb(99.21875%, 24.308777%, 37.249756%)" d="M 126.195312 9.273438 C 124.839844 9.273438 123.296875 9.527344 121.625 10.039062 C 116.902344 11.492188 111.847656 14.742188 107.394531 19.191406 C 98.066406 28.507812 95.460938 38.890625 98.953125 42.378906 C 100.644531 44.070312 103.917969 44.328125 107.933594 43.097656 C 112.65625 41.648438 117.710938 38.398438 122.164062 33.949219 C 126.621094 29.5 129.871094 24.453125 131.324219 19.730469 C 132.558594 15.722656 132.296875 12.453125 130.605469 10.761719 C 129.621094 9.773438 128.089844 9.273438 126.195312 9.273438 Z M 103.332031 49.835938 C 99.832031 49.835938 96.882812 48.742188 94.734375 46.59375 C 88.222656 40.09375 91.933594 26.203125 103.171875 14.976562 C 108.300781 9.851562 114.234375 6.078125 119.871094 4.34375 C 126.15625 2.40625 131.46875 3.191406 134.828125 6.542969 C 138.183594 9.894531 138.964844 15.203125 137.03125 21.484375 C 135.296875 27.117188 131.515625 33.042969 126.386719 38.164062 C 121.257812 43.289062 115.324219 47.066406 109.6875 48.796875 C 107.429688 49.492188 105.292969 49.835938 103.332031 49.835938 " fill-opacity="1" fill-rule="nonzero"/><path fill="rgb(99.21875%, 24.308777%, 37.249756%)" d="M 107.394531 36.929688 C 106.367188 36.929688 105.371094 36.402344 104.816406 35.453125 C 103.984375 34.035156 104.464844 32.207031 105.886719 31.375 C 111.621094 28.023438 116.234375 23.417969 119.589844 17.6875 C 120.417969 16.261719 122.246094 15.785156 123.671875 16.617188 C 125.09375 17.449219 125.574219 19.277344 124.742188 20.695312 C 120.863281 27.324219 115.53125 32.648438 108.898438 36.523438 C 108.425781 36.800781 107.90625 36.929688 107.394531 36.929688 " fill-opacity="1" fill-rule="nonzero"/><path fill="rgb(99.21875%, 69.799805%, 69.018555%)" d="M 136.574219 95.140625 C 127.835938 103.871094 113.664062 103.871094 104.921875 95.140625 C 96.179688 86.40625 96.179688 72.25 104.921875 63.519531 C 113.664062 54.789062 127.835938 54.789062 136.574219 63.519531 C 145.316406 72.25 145.316406 86.40625 136.574219 95.140625 " fill-opacity="1" fill-rule="nonzero"/><g clip-path="url(#clip-1)"><path fill="rgb(99.21875%, 24.308777%, 37.249756%)" d="M 105.855469 65.613281 C 105.019531 65.613281 104.183594 65.261719 103.617188 64.601562 C 102.542969 63.378906 102.660156 61.5 103.886719 60.398438 C 105.050781 59.355469 107.019531 59.476562 108.09375 60.636719 C 109.167969 61.859375 109.078125 63.769531 107.855469 64.839844 C 107.289062 65.347656 106.601562 65.613281 105.855469 65.613281 Z M 120.777344 104.671875 L 120.71875 104.523438 L 120.71875 104.671875 C 113.972656 104.671875 107.585938 102.015625 102.8125 97.246094 C 98.007812 92.445312 95.382812 86.097656 95.382812 79.332031 C 95.382812 76.707031 95.769531 74.113281 96.574219 71.609375 C 97.082031 70.058594 98.78125 69.164062 100.335938 69.671875 C 101.886719 70.175781 102.75 71.847656 102.273438 73.398438 C 101.648438 75.304688 101.351562 77.300781 101.351562 79.332031 C 101.351562 84.519531 103.378906 89.378906 107.019531 93.042969 C 110.691406 96.679688 115.554688 98.707031 120.75 98.707031 C 125.941406 98.707031 130.804688 96.679688 134.445312 93.042969 C 138.117188 89.378906 140.148438 84.488281 140.148438 79.332031 C 140.148438 74.140625 138.117188 69.285156 134.476562 65.613281 C 130.804688 61.949219 125.910156 59.953125 120.75 59.953125 C 119.492188 59.953125 118.210938 60.074219 116.988281 60.308594 C 115.40625 60.636719 113.792969 59.535156 113.496094 57.953125 C 113.167969 56.34375 114.242188 54.792969 115.855469 54.46875 C 124.207031 52.824219 132.746094 55.480469 138.683594 61.414062 C 143.488281 66.210938 146.117188 72.5625 146.117188 79.332031 C 146.117188 86.097656 143.488281 92.445312 138.683594 97.246094 C 133.910156 102.015625 127.523438 104.671875 120.777344 104.671875 " fill-opacity="1" fill-rule="nonzero"/></g><path fill="rgb(99.21875%, 24.308777%, 37.249756%)" d="M 120.75 92.738281 C 117.308594 92.738281 113.871094 91.433594 111.25 88.816406 C 110.085938 87.652344 110.085938 85.765625 111.25 84.597656 C 112.417969 83.4375 114.304688 83.4375 115.472656 84.597656 C 118.378906 87.503906 123.117188 87.503906 126.023438 84.597656 C 127.433594 83.195312 128.207031 81.324219 128.207031 79.332031 C 128.207031 77.339844 127.433594 75.46875 126.023438 74.0625 C 124.859375 72.898438 124.859375 71.007812 126.023438 69.847656 C 127.1875 68.679688 129.078125 68.679688 130.246094 69.847656 C 132.78125 72.378906 134.175781 75.746094 134.175781 79.332031 C 134.175781 82.914062 132.78125 86.28125 130.246094 88.816406 C 127.625 91.429688 124.1875 92.738281 120.75 92.738281 " fill-opacity="1" fill-rule="nonzero"/><path fill="rgb(99.21875%, 69.799805%, 69.018555%)" d="M 12.40625 136.878906 C 3.664062 128.144531 3.664062 113.988281 12.40625 105.257812 C 21.144531 96.527344 35.316406 96.527344 44.058594 105.257812 C 52.800781 113.988281 52.800781 128.144531 44.058594 136.878906 C 35.316406 145.609375 21.144531 145.609375 12.40625 136.878906 " fill-opacity="1" fill-rule="nonzero"/><g clip-path="url(#clip-2)"><path fill="rgb(99.21875%, 24.308777%, 37.249756%)" d="M 44.945312 109.171875 C 44.109375 109.171875 43.273438 108.8125 42.707031 108.15625 C 42.167969 107.589844 41.929688 106.816406 41.960938 106.011719 C 42.019531 105.234375 42.347656 104.492188 42.945312 103.953125 C 44.136719 102.910156 46.109375 103.03125 47.152344 104.191406 C 47.691406 104.789062 47.957031 105.566406 47.929688 106.339844 C 47.867188 107.144531 47.511719 107.890625 46.914062 108.398438 C 46.375 108.902344 45.691406 109.171875 44.945312 109.171875 Z M 28.203125 146.40625 C 21.425781 146.40625 15.070312 143.75 10.296875 138.984375 C 5.492188 134.183594 2.863281 127.832031 2.863281 121.066406 C 2.863281 114.296875 5.492188 107.921875 10.296875 103.152344 C 15.070312 98.351562 21.457031 95.726562 28.230469 95.726562 C 30.859375 95.726562 33.484375 96.113281 35.960938 96.917969 C 37.542969 97.425781 38.410156 99.09375 37.902344 100.675781 C 37.394531 102.195312 35.691406 103.089844 34.140625 102.613281 C 32.230469 101.984375 30.230469 101.6875 28.230469 101.6875 C 23.039062 101.6875 18.175781 103.714844 14.503906 107.351562 C 10.863281 111.019531 8.835938 115.878906 8.835938 121.066406 C 8.835938 126.253906 10.863281 131.113281 14.503906 134.78125 C 18.175781 138.414062 23.039062 140.445312 28.230469 140.445312 C 33.425781 140.445312 38.289062 138.414062 41.960938 134.78125 C 45.601562 131.113281 47.628906 126.253906 47.628906 121.066406 C 47.628906 119.816406 47.511719 118.53125 47.273438 117.3125 C 46.945312 115.703125 48.019531 114.121094 49.628906 113.820312 C 51.242188 113.496094 52.824219 114.566406 53.121094 116.175781 C 53.449219 117.757812 53.597656 119.394531 53.597656 121.066406 C 53.597656 127.832031 50.972656 134.183594 46.167969 138.984375 C 41.363281 143.75 35.007812 146.40625 28.261719 146.40625 L 28.203125 146.257812 L 28.203125 146.40625 " fill-opacity="1" fill-rule="nonzero"/></g><path fill="rgb(99.21875%, 24.308777%, 37.249756%)" d="M 28.230469 134.476562 C 24.792969 134.476562 21.355469 133.167969 18.734375 130.550781 C 16.199219 128.019531 14.800781 124.652344 14.800781 121.066406 C 14.800781 117.484375 16.199219 114.117188 18.734375 111.582031 C 19.902344 110.417969 21.789062 110.417969 22.957031 111.582031 C 24.121094 112.746094 24.121094 114.632812 22.957031 115.796875 C 21.546875 117.203125 20.773438 119.074219 20.773438 121.066406 C 20.773438 123.058594 21.546875 124.929688 22.957031 126.335938 C 25.863281 129.242188 30.601562 129.242188 33.507812 126.335938 C 34.675781 125.171875 36.5625 125.171875 37.726562 126.335938 C 38.894531 127.5 38.894531 129.386719 37.726562 130.550781 C 35.109375 133.167969 31.671875 134.476562 28.230469 134.476562 " fill-opacity="1" fill-rule="nonzero"/><path fill="rgb(99.21875%, 69.799805%, 69.018555%)" d="M 63.300781 57.71875 C 53.820312 57.304688 45.804688 49.296875 45.394531 39.828125 C 44.980469 30.363281 52.328125 23.019531 61.804688 23.433594 C 71.285156 23.84375 79.300781 31.851562 79.710938 41.320312 C 80.125 50.789062 72.777344 58.128906 63.300781 57.71875 " fill-opacity="1" fill-rule="nonzero"/><path fill="rgb(99.21875%, 24.308777%, 37.249756%)" d="M 61.050781 26.398438 C 57.554688 26.398438 54.363281 27.679688 52 30.035156 C 49.5 32.535156 48.210938 35.964844 48.375 39.699219 C 48.71875 47.644531 55.472656 54.394531 63.429688 54.738281 C 67.148438 54.882812 70.601562 53.613281 73.105469 51.113281 C 75.605469 48.617188 76.894531 45.183594 76.730469 41.453125 C 76.386719 33.503906 69.632812 26.753906 61.675781 26.414062 C 61.46875 26.402344 61.257812 26.398438 61.050781 26.398438 Z M 64.066406 60.714844 C 63.769531 60.714844 63.46875 60.710938 63.167969 60.695312 C 52.199219 60.21875 42.890625 50.917969 42.410156 39.960938 C 42.175781 34.539062 44.082031 29.515625 47.78125 25.820312 C 51.476562 22.125 56.496094 20.195312 61.9375 20.457031 C 72.90625 20.929688 82.21875 30.230469 82.695312 41.191406 C 82.929688 46.613281 81.023438 51.636719 77.324219 55.328125 C 73.832031 58.820312 69.152344 60.714844 64.066406 60.714844 " fill-opacity="1" fill-rule="nonzero"/><path fill="rgb(99.21875%, 24.308777%, 37.249756%)" d="M 65.71875 46.71875 C 64.953125 46.71875 64.191406 46.425781 63.609375 45.84375 L 57.277344 39.519531 C 56.113281 38.355469 56.113281 36.46875 57.277344 35.304688 C 58.445312 34.140625 60.332031 34.140625 61.496094 35.304688 L 67.828125 41.628906 C 68.992188 42.792969 68.992188 44.679688 67.828125 45.84375 C 67.246094 46.425781 66.480469 46.71875 65.71875 46.71875 " fill-opacity="1" fill-rule="nonzero"/><path fill="rgb(99.21875%, 69.799805%, 69.018555%)" d="M 92.398438 135.972656 C 92.398438 140.089844 86.382812 143.425781 78.96875 143.425781 C 71.550781 143.425781 65.539062 140.089844 65.539062 135.972656 C 65.539062 131.855469 71.550781 128.519531 78.96875 128.519531 C 86.382812 128.519531 92.398438 131.855469 92.398438 135.972656 " fill-opacity="1" fill-rule="nonzero"/><g clip-path="url(#clip-3)"><path fill="rgb(99.21875%, 24.308777%, 37.249756%)" d="M 78.96875 131.5 C 72.6875 131.5 68.519531 134.191406 68.519531 135.972656 C 68.519531 137.753906 72.6875 140.445312 78.96875 140.445312 C 85.246094 140.445312 89.414062 137.753906 89.414062 135.972656 C 89.414062 134.191406 85.246094 131.5 78.96875 131.5 Z M 78.96875 146.40625 C 69.609375 146.40625 62.554688 141.921875 62.554688 135.972656 C 62.554688 130.027344 69.609375 125.539062 78.96875 125.539062 C 88.324219 125.539062 95.382812 130.027344 95.382812 135.972656 C 95.382812 141.921875 88.324219 146.40625 78.96875 146.40625 " fill-opacity="1" fill-rule="nonzero"/></g></svg>