<svg xmlns="http://www.w3.org/2000/svg" width="375" viewBox="0 0 375 375" height="375" version="1.0"><defs><clipPath id="a"><path d="M 50.671875 37.5 L 370.351562 37.5 L 370.351562 281 L 50.671875 281 Z M 50.671875 37.5"/></clipPath><clipPath id="b"><path d="M 4.660156 329.070312 L 40 329.070312 L 40 364.484375 L 4.660156 364.484375 Z M 4.660156 329.070312"/></clipPath></defs><g clip-path="url(#a)"><path fill="#3EBEE9" d="M 340.613281 133.667969 C 341.242188 129.773438 341.574219 125.777344 341.574219 121.703125 C 341.574219 80.625 308.265625 47.324219 267.175781 47.324219 C 251.617188 47.324219 237.179688 52.101562 225.238281 60.257812 C 214.179688 46.394531 197.148438 37.5 178.03125 37.5 C 146.34375 37.5 120.378906 61.914062 117.882812 92.949219 C 80.828125 93.582031 50.988281 123.804688 50.988281 160.996094 C 50.988281 193.324219 73.53125 220.386719 103.761719 227.332031 C 110.375 258 137.652344 280.984375 170.3125 280.984375 C 189.796875 280.984375 207.363281 272.800781 219.773438 259.6875 C 230.292969 268.589844 243.890625 273.96875 258.75 273.96875 C 289.375 273.96875 314.65625 251.164062 318.570312 221.617188 C 320.585938 221.890625 322.640625 222.042969 324.730469 222.042969 C 349.925781 222.042969 370.351562 201.621094 370.351562 176.433594 C 370.351562 156.828125 357.976562 140.117188 340.613281 133.667969"/></g><path fill="#3EBEE9" d="M 95.207031 286.597656 C 95.207031 300.550781 83.894531 311.859375 69.9375 311.859375 C 55.984375 311.859375 44.671875 300.550781 44.671875 286.597656 C 44.671875 272.648438 55.984375 261.335938 69.9375 261.335938 C 83.894531 261.335938 95.207031 272.648438 95.207031 286.597656"/><g clip-path="url(#b)"><path fill="#3EBEE9" d="M 39.757812 346.941406 C 39.757812 356.632812 31.902344 364.484375 22.207031 364.484375 C 12.519531 364.484375 4.660156 356.632812 4.660156 346.941406 C 4.660156 337.253906 12.519531 329.398438 22.207031 329.398438 C 31.902344 329.398438 39.757812 337.253906 39.757812 346.941406"/></g><path fill="#FFF" d="M 174.605469 183.097656 L 174.605469 194.921875 L 132.671875 194.921875 L 132.671875 184.59375 L 152.699219 158.839844 C 150.304688 158.933594 148.6875 158.980469 147.84375 158.980469 L 134.304688 158.980469 L 134.304688 147.390625 L 173.859375 147.390625 L 173.859375 157.390625 L 153.433594 183.191406 L 155.902344 183.144531 C 156.402344 183.113281 156.851562 183.097656 157.257812 183.097656 L 174.605469 183.097656"/><path fill="#FFF" d="M 231.640625 171.183594 L 231.640625 183.007812 L 189.703125 183.007812 L 189.703125 172.679688 L 209.730469 146.929688 C 207.335938 147.023438 205.71875 147.066406 204.878906 147.066406 L 191.339844 147.066406 L 191.339844 135.476562 L 230.890625 135.476562 L 230.890625 145.480469 L 210.464844 171.277344 L 212.9375 171.230469 C 213.433594 171.199219 213.882812 171.183594 214.289062 171.183594 L 231.640625 171.183594"/><path fill="#FFF" d="M 288.667969 159.269531 L 288.667969 171.097656 L 246.734375 171.097656 L 246.734375 160.769531 L 266.765625 135.015625 C 264.367188 135.109375 262.75 135.15625 261.910156 135.15625 L 248.371094 135.15625 L 248.371094 123.5625 L 287.921875 123.5625 L 287.921875 133.566406 L 267.496094 159.363281 L 269.96875 159.320312 C 270.464844 159.289062 270.914062 159.269531 271.320312 159.269531 L 288.667969 159.269531"/></svg>