<svg xmlns="http://www.w3.org/2000/svg" width="375" viewBox="0 0 375 375" height="375" version="1.0"><defs><clipPath id="a"><path d="M 30.03125 4.925781 L 343 4.925781 L 343 370.175781 L 30.03125 370.175781 Z M 30.03125 4.925781"/></clipPath></defs><g clip-path="url(#a)"><path fill="#FFABAB" d="M 333.355469 208.34375 C 332.070312 209.375 331.269531 210.855469 331.132812 212.488281 C 330.390625 220.945312 329.175781 231.300781 326.933594 241.613281 C 324.976562 250.441406 322.28125 259.210938 318.429688 266.699219 C 296.121094 310.070312 265.527344 325.273438 240.847656 329.589844 C 226.429688 332.113281 212.914062 336.554688 201.632812 357.175781 C 197.722656 364.316406 190.398438 368.933594 182.230469 368.992188 L 45.257812 370.125 C 37.027344 370.207031 30.328125 363.539062 30.328125 355.3125 L 30.328125 20.804688 C 30.328125 12.695312 36.855469 6.085938 44.933594 5.996094 L 127.199219 4.953125 C 135.75 4.871094 143.628906 9.730469 147.238281 17.519531 C 159.480469 43.972656 181.871094 66.8125 204.828125 84.402344 C 228.375 102.476562 271.417969 113.433594 305.214844 155.648438 C 309.542969 161.003906 313.683594 166.90625 317.628906 173.363281 C 323.613281 183.199219 337.414062 174.160156 341.40625 187.433594 C 344.683594 198.347656 338.339844 204.386719 333.355469 208.34375"/></g><path fill="#FFDCDC" d="M 201.84375 215.796875 C 201.910156 209.8125 200.015625 203.484375 194.136719 197.964844 C 187.136719 191.378906 176.351562 192.304688 168.414062 186.519531 C 163.761719 183.128906 156.183594 172.230469 147.066406 174.253906 C 142.890625 175.191406 139.246094 179.136719 139.164062 183.464844 C 139.035156 191.855469 144.140625 198.21875 136.375 201.261719 C 132.789062 202.675781 120.570312 205.058594 120.570312 215.796875 C 120.570312 226.535156 132.789062 228.917969 136.375 230.328125 C 144.140625 233.375 139.035156 239.75 139.164062 248.136719 C 139.246094 252.453125 142.890625 256.410156 147.066406 257.335938 C 156.183594 259.375 163.761719 248.472656 168.414062 245.082031 C 176.351562 239.285156 187.136719 240.210938 194.136719 233.628906 C 200.015625 228.109375 201.910156 221.789062 201.84375 215.796875"/><path fill="#FFDCDC" d="M 228.894531 158.484375 C 230.480469 154.480469 230.804688 149.746094 228.257812 144.539062 C 225.226562 138.335938 217.738281 136.207031 213.886719 130.292969 C 211.617188 126.835938 209.304688 117.578125 202.652344 116.617188 C 199.621094 116.175781 196.148438 117.914062 195.003906 120.792969 C 192.769531 126.394531 194.585938 131.984375 188.59375 132.054688 C 185.828125 132.089844 177.011719 130.585938 174.269531 137.804688 C 171.539062 145.011719 179.140625 149.722656 181.199219 151.585938 C 185.644531 155.613281 180.585938 158.585938 178.539062 164.269531 C 177.484375 167.195312 178.945312 170.773438 181.511719 172.460938 C 187.125 176.152344 194.992188 170.761719 198.984375 169.660156 C 205.789062 167.785156 212.800781 171.152344 219.1875 168.515625 C 224.542969 166.292969 227.425781 162.53125 228.894531 158.484375"/><path fill="#FF667C" d="M 214.859375 223.851562 C 213.46875 223.851562 212.09375 223.203125 211.226562 221.976562 C 209.8125 219.972656 210.289062 217.207031 212.277344 215.785156 C 213.019531 215.265625 230.503906 203.054688 249.835938 206.132812 C 253.957031 206.792969 257.589844 207.753906 261.117188 208.679688 C 273.152344 211.851562 282.664062 214.359375 304.058594 202.859375 C 306.222656 201.703125 308.90625 202.5 310.074219 204.664062 C 311.242188 206.828125 310.433594 209.523438 308.269531 210.679688 C 283.785156 223.851562 271.671875 220.65625 258.851562 217.265625 C 255.542969 216.398438 252.128906 215.496094 248.449219 214.917969 C 232.746094 212.40625 217.566406 222.9375 217.414062 223.039062 C 216.640625 223.582031 215.738281 223.851562 214.859375 223.851562"/><path fill="#FF667C" d="M 304.878906 196.03125 C 304.695312 196.03125 304.496094 196.019531 304.3125 195.996094 C 290.230469 194.214844 283.992188 192.792969 270.769531 175.191406 C 261.664062 163.066406 241.761719 167.183594 241.5625 167.242188 C 239.191406 167.738281 236.808594 166.234375 236.277344 163.828125 C 235.765625 161.433594 237.292969 159.0625 239.691406 158.539062 C 240.730469 158.332031 265.386719 153.230469 277.871094 169.847656 C 289.375 185.144531 293.414062 185.652344 305.421875 187.179688 C 307.863281 187.492188 309.589844 189.714844 309.277344 192.144531 C 308.996094 194.390625 307.078125 196.03125 304.878906 196.03125"/><path fill="#FFDCDC" d="M 228.894531 273.203125 C 230.480469 277.207031 230.804688 281.9375 228.257812 287.144531 C 225.226562 293.347656 217.738281 295.476562 213.886719 301.390625 C 211.617188 304.851562 209.304688 314.105469 202.652344 315.066406 C 199.621094 315.507812 196.148438 313.78125 195.003906 310.890625 C 192.769531 305.277344 194.585938 299.699219 188.59375 299.632812 C 185.828125 299.597656 177.011719 301.101562 174.269531 293.878906 C 171.539062 286.671875 179.140625 281.960938 181.199219 280.097656 C 185.644531 276.070312 180.585938 273.097656 178.539062 267.417969 C 177.484375 264.488281 178.945312 260.914062 181.511719 259.222656 C 187.125 255.53125 194.992188 260.925781 198.984375 262.023438 C 205.789062 263.898438 212.800781 260.53125 219.1875 263.167969 C 224.542969 265.390625 227.425781 269.152344 228.894531 273.203125"/><path fill="#FF667C" d="M 249.476562 274.046875 C 244.050781 274.046875 240.09375 273.226562 239.691406 273.144531 C 237.292969 272.625 235.765625 270.25 236.277344 267.855469 C 236.808594 265.449219 239.167969 263.945312 241.5625 264.441406 C 241.75 264.488281 261.707031 268.539062 270.769531 256.492188 C 272.734375 253.878906 274.585938 251.320312 276.367188 248.867188 C 285.890625 235.722656 294.105469 224.371094 307.089844 222.726562 C 309.519531 222.4375 311.75 224.140625 312.050781 226.582031 C 312.363281 229.011719 310.640625 231.230469 308.199219 231.542969 C 299.046875 232.703125 292.554688 241.667969 283.554688 254.085938 C 281.75 256.585938 279.875 259.175781 277.871094 261.839844 C 270.222656 272.011719 258.027344 274.046875 249.476562 274.046875"/></svg>