<svg xmlns="http://www.w3.org/2000/svg" width="375" viewBox="0 0 375 375" height="375" version="1.0"><defs><clipPath id="a"><path d="M 6.894531 11 L 361 11 L 361 364.878906 L 6.894531 364.878906 Z M 6.894531 11"/></clipPath></defs><g clip-path="url(#a)"><path fill="#FF3D00" d="M 183.804688 11.058594 C 86.039062 11.058594 6.894531 90.203125 6.894531 187.96875 C 6.894531 285.734375 86.039062 364.878906 183.804688 364.878906 C 281.570312 364.878906 360.714844 285.734375 360.714844 187.96875 C 360.714844 90.203125 281.570312 11.058594 183.804688 11.058594 Z M 183.804688 11.058594"/></g><path fill="#FFF" d="M 183.804688 48.304688 C 106.523438 48.304688 44.140625 110.6875 44.140625 187.96875 C 44.140625 265.25 106.523438 327.632812 183.804688 327.632812 C 261.085938 327.632812 323.46875 265.25 323.46875 187.96875 C 323.46875 110.6875 261.085938 48.304688 183.804688 48.304688 Z M 183.804688 290.390625 C 127.007812 290.390625 81.382812 244.765625 81.382812 187.96875 C 81.382812 131.171875 127.007812 85.546875 183.804688 85.546875 C 240.601562 85.546875 286.226562 131.171875 286.226562 187.96875 C 286.226562 244.765625 240.601562 290.390625 183.804688 290.390625 Z M 183.804688 122.792969 C 147.492188 122.792969 118.628906 151.65625 118.628906 187.96875 C 118.628906 224.28125 147.492188 253.144531 183.804688 253.144531 C 220.117188 253.144531 248.980469 224.28125 248.980469 187.96875 C 248.980469 151.65625 220.117188 122.792969 183.804688 122.792969 Z M 183.804688 215.902344 C 167.976562 215.902344 155.871094 203.796875 155.871094 187.96875 C 155.871094 172.140625 167.976562 160.035156 183.804688 160.035156 C 199.632812 160.035156 211.738281 172.140625 211.738281 187.96875 C 211.738281 203.796875 199.632812 215.902344 183.804688 215.902344 Z M 183.804688 215.902344"/><path fill="#1976D2" d="M 360.714844 48.304688 C 360.714844 48.304688 355.128906 69.71875 340.230469 83.683594 C 325.332031 98.582031 265.742188 106.03125 265.742188 106.03125 C 265.742188 106.03125 273.191406 45.507812 288.085938 31.542969 C 302.054688 16.644531 323.46875 11.058594 323.46875 11.058594 L 323.46875 48.304688 Z M 360.714844 48.304688"/><path fill="#37474F" d="M 357.921875 13.851562 C 354.195312 10.128906 348.609375 10.128906 344.886719 13.851562 L 177.285156 181.449219 C 173.5625 185.175781 173.5625 190.761719 177.285156 194.484375 C 179.148438 196.347656 181.941406 197.28125 183.804688 197.28125 C 185.667969 197.28125 188.460938 196.347656 190.320312 194.484375 L 357.921875 26.886719 C 361.644531 23.164062 361.644531 17.578125 357.921875 13.851562 Z M 357.921875 13.851562"/><path fill="#42A5F5" d="M 323.265625 36.457031 L 336.433594 49.625 L 281.785156 104.269531 L 268.617188 91.101562 Z M 323.265625 36.457031"/></svg>