<svg xmlns="http://www.w3.org/2000/svg" width="375" viewBox="0 0 375 375" height="375" version="1.0"><defs><clipPath id="a"><path d="M 87.207031 10.773438 L 287.457031 10.773438 L 287.457031 364.023438 L 87.207031 364.023438 Z M 87.207031 10.773438"/></clipPath></defs><g clip-path="url(#a)"><path fill="#FFF" d="M 104.996094 134.410156 L 104.996094 104.972656 C 114.738281 104.972656 122.640625 112.886719 122.640625 122.636719 L 122.640625 128.523438 C 122.640625 130.59375 123.078125 132.546875 123.71875 134.410156 Z M 163.808594 43.15625 C 163.808594 38.277344 167.757812 34.324219 172.628906 34.324219 C 177.5 34.324219 181.453125 38.277344 181.453125 43.15625 L 181.453125 87.3125 L 163.808594 87.3125 Z M 193.214844 31.378906 C 193.214844 26.503906 197.164062 22.546875 202.035156 22.546875 C 206.90625 22.546875 210.859375 26.503906 210.859375 31.378906 L 210.859375 87.3125 L 193.214844 87.3125 Z M 231.441406 40.210938 C 236.3125 40.210938 240.261719 44.167969 240.261719 49.042969 L 240.261719 87.3125 L 222.621094 87.3125 L 222.621094 49.042969 C 222.621094 44.167969 226.570312 40.210938 231.441406 40.210938 Z M 260.847656 57.875 C 265.71875 57.875 269.667969 61.828125 269.667969 66.703125 L 269.667969 87.3125 L 252.027344 87.3125 L 252.027344 66.703125 C 252.027344 61.828125 255.976562 57.875 260.847656 57.875 Z M 254 217.6875 C 249.890625 222.058594 245.292969 228.496094 242.605469 237.050781 C 213.546875 252.644531 178.96875 253.195312 157.859375 251.539062 C 157.558594 241.121094 149.519531 230.636719 133.230469 219.550781 C 120.894531 211.15625 111.542969 199.679688 105.753906 186.707031 C 126.339844 191.835938 160.386719 199.171875 187.332031 199.171875 C 224.871094 199.171875 252.851562 187.652344 270.152344 177.601562 C 269.300781 183.257812 268.359375 188.6875 267.234375 193.515625 C 265.210938 202.300781 260.640625 210.648438 254 217.6875 Z M 234.382812 352.25 L 163.808594 352.25 C 160.570312 352.25 157.925781 349.605469 157.925781 346.359375 L 157.925781 333.988281 C 162.683594 334.332031 168.035156 334.585938 173.871094 334.585938 C 193.351562 334.585938 217.75 331.917969 240.261719 321.960938 L 240.261719 346.359375 C 240.261719 349.605469 237.621094 352.25 234.382812 352.25 Z M 240.261719 252.160156 L 240.261719 273.617188 C 211.777344 287.945312 178.394531 288.429688 157.925781 286.863281 L 157.925781 263.359375 C 162.726562 263.707031 168.105469 263.960938 173.984375 263.960938 C 193.464844 263.960938 217.820312 261.269531 240.308594 251.289062 C 240.308594 251.585938 240.261719 251.863281 240.261719 252.160156 Z M 157.925781 298.664062 C 162.683594 299.007812 168.035156 299.238281 173.871094 299.238281 C 193.351562 299.238281 217.75 296.59375 240.261719 286.636719 L 240.261719 308.941406 C 211.777344 323.269531 178.394531 323.753906 157.925781 322.191406 Z M 135.320312 146.1875 C 136.929688 154.167969 141.269531 169.898438 152.046875 184.226562 C 131.988281 181.097656 112.625 176.40625 101.183594 173.371094 C 99.875 167.828125 99.113281 162.125 99.113281 156.328125 L 99.113281 146.1875 Z M 187.332031 99.085938 L 275.503906 99.085938 C 275.414062 105.089844 275.160156 117.046875 274.425781 131.097656 C 264.777344 135.03125 246.375 140.296875 216.738281 140.296875 C 185.355469 140.296875 164.636719 129.445312 157.925781 125.351562 L 157.925781 99.085938 Z M 155.398438 137.492188 C 165.53125 143.058594 186.597656 152.074219 216.738281 152.074219 C 243.617188 152.074219 262.15625 147.886719 273.621094 143.957031 C 273.207031 150.074219 272.679688 156.328125 272.035156 162.515625 C 257.492188 172.449219 228.753906 187.398438 187.332031 187.398438 C 181.863281 187.398438 176.03125 187.054688 170.101562 186.5 C 154.964844 173.117188 149.082031 153.9375 147.082031 144.828125 C 150.574219 143.355469 153.46875 140.734375 155.398438 137.492188 Z M 104.996094 93.199219 C 98.519531 93.199219 93.234375 98.488281 93.234375 104.972656 L 93.234375 136.042969 C 89.742188 138.089844 87.351562 141.863281 87.351562 146.1875 L 87.351562 156.328125 C 87.351562 185.28125 102.03125 212.558594 126.613281 229.277344 C 139.226562 237.878906 146.164062 245.996094 146.164062 252.160156 L 146.164062 256.230469 C 146.164062 256.277344 146.140625 256.300781 146.140625 256.324219 C 146.117188 256.414062 146.164062 256.507812 146.164062 256.621094 L 146.164062 346.359375 C 146.164062 356.113281 154.066406 364.023438 163.808594 364.023438 L 234.382812 364.023438 C 244.121094 364.023438 252.027344 356.113281 252.027344 346.359375 L 252.027344 252.160156 C 252.027344 248.710938 252.484375 245.582031 253.21875 242.6875 C 253.21875 242.6875 253.21875 242.664062 253.21875 242.640625 C 255.148438 235.074219 259.078125 229.460938 262.570312 225.757812 C 270.609375 217.203125 276.195312 206.96875 278.699219 196.160156 C 285.636719 166.078125 287.015625 118.335938 287.265625 99.222656 C 287.3125 96.050781 286.09375 93.0625 283.890625 90.808594 C 283.15625 90.070312 282.304688 89.472656 281.433594 88.96875 L 281.433594 66.703125 C 281.433594 55.34375 272.195312 46.097656 260.847656 46.097656 C 257.652344 46.097656 254.644531 46.902344 251.933594 48.214844 C 251.496094 37.246094 242.515625 28.4375 231.441406 28.4375 C 228.25 28.4375 225.238281 29.242188 222.527344 30.550781 C 222.089844 19.582031 213.109375 10.773438 202.035156 10.773438 C 192.871094 10.773438 185.148438 16.867188 182.507812 25.195312 C 179.566406 23.558594 176.214844 22.546875 172.628906 22.546875 C 161.28125 22.546875 152.046875 31.792969 152.046875 43.15625 L 152.046875 88.945312 C 148.554688 90.992188 146.164062 94.761719 146.164062 99.085938 L 146.164062 128.523438 C 146.164062 131.765625 143.523438 134.410156 140.285156 134.410156 C 137.042969 134.410156 134.402344 131.765625 134.402344 128.523438 L 134.402344 122.636719 C 134.402344 106.398438 121.214844 93.199219 104.996094 93.199219"/></g></svg>