<svg xmlns="http://www.w3.org/2000/svg" width="375" viewBox="0 0 375 375" height="375" version="1.0"><defs><clipPath id="a"><path d="M 10.59375 55 L 364 55 L 364 316 L 10.59375 316 Z M 10.59375 55"/></clipPath><clipPath id="b"><path d="M 10.59375 54.820312 L 364.59375 54.820312 L 364.59375 320 L 10.59375 320 Z M 10.59375 54.820312"/></clipPath></defs><g clip-path="url(#a)"><path fill="#FFF" d="M 10.953125 207.226562 C 10.953125 207.226562 32.976562 180.648438 57.851562 172.648438 C 64.589844 177.699219 102.773438 254.011719 109.507812 253.164062 C 117.085938 252.320312 167 182.777344 274.945312 55.203125 C 274.945312 55.203125 306.183594 69.386719 363.660156 72.347656 C 213.371094 190.238281 135.628906 305.152344 128.816406 310.707031 C 109.449219 319.96875 99.523438 314.609375 92.789062 310.402344 C 76.789062 296.085938 11.792969 210.589844 10.953125 207.222656 Z M 10.953125 207.226562" fill-rule="evenodd"/></g><g clip-path="url(#b)"><path transform="matrix(.63199 0 0 .632 -32.268 -165.126)" fill="none" d="M 68.38975 589.171953 C 68.38975 589.171953 103.23777 547.117446 142.59786 534.459065 C 153.259945 542.450904 213.678426 663.199999 224.33433 661.858754 C 236.325312 660.52369 315.305092 550.48601 486.108601 348.625615 C 486.108601 348.625615 535.537408 371.068283 626.483446 375.753368 C 388.678778 562.291434 265.666134 744.119693 254.886611 752.908862 C 224.241616 767.563658 208.535902 759.083531 197.879998 752.426755 C 172.562954 729.773939 69.718648 594.493665 68.38975 589.165772 Z M 68.38975 589.171953" stroke="#000"/></g></svg>