<svg xmlns="http://www.w3.org/2000/svg" width="150" viewBox="0 0 150 150" height="150" version="1.0"><defs><clipPath id="a"><path d="M 7.390625 7.390625 L 142.390625 7.390625 L 142.390625 142.390625 L 7.390625 142.390625 Z M 7.390625 7.390625"/></clipPath></defs><path fill="#F98C96" d="M 140.03125 140.144531 L 9.75 140.144531 L 9.75 39.0625 L 140.03125 39.0625 L 140.03125 140.144531"/><path fill="#FCF05A" d="M 9.75 113.191406 C 25.472656 113.191406 27.71875 119.929688 43.433594 119.929688 C 59.160156 119.929688 59.160156 113.191406 74.875 113.191406 C 90.597656 113.191406 90.597656 119.929688 106.332031 119.929688 C 122.054688 119.929688 124.300781 113.191406 140.03125 113.191406 L 140.03125 140.144531 L 9.75 140.144531 L 9.75 113.191406"/><path fill="#FFD782" d="M 9.75 39.0625 L 9.75 54.789062 C 17.894531 54.789062 15.085938 59.28125 23.226562 59.28125 C 31.363281 59.28125 28.5625 54.789062 36.707031 54.789062 C 44.847656 54.789062 44.285156 59.28125 52.429688 59.28125 C 57.105469 59.28125 58.5625 58.296875 61.414062 57.035156 C 59.167969 75.003906 59.167969 82.679688 59.167969 88.480469 C 59.167969 97.167969 66.203125 104.207031 74.890625 104.207031 C 83.578125 104.207031 90.617188 97.167969 90.617188 88.480469 C 90.617188 82.679688 88.371094 72.757812 88.371094 57.035156 C 88.371094 57.035156 90.449219 59.28125 95.109375 59.28125 C 103.25 59.28125 102.6875 54.789062 110.832031 54.789062 C 118.984375 54.789062 118.402344 59.28125 126.554688 59.28125 C 134.707031 59.28125 131.882812 54.789062 140.03125 54.789062 L 140.03125 39.0625 L 9.75 39.0625"/><path fill="#394D5C" d="M 81.628906 86.234375 C 82.296875 89.894531 81.628906 95.21875 74.890625 95.21875 C 71.171875 95.21875 68.152344 92.203125 68.152344 88.480469 C 68.152344 41.308594 81.628906 9.863281 81.628906 9.863281 C 81.628906 9.863281 77.136719 61.527344 81.628906 86.234375"/><path fill="#D9176C" d="M 41.199219 106.453125 C 41.199219 108.933594 39.1875 110.945312 36.707031 110.945312 C 34.222656 110.945312 32.210938 108.933594 32.210938 106.453125 C 32.210938 103.96875 34.222656 101.960938 36.707031 101.960938 C 39.1875 101.960938 41.199219 103.96875 41.199219 106.453125"/><path fill="#D9176C" d="M 27.71875 108.699219 C 27.71875 111.179688 25.710938 113.191406 23.226562 113.191406 C 20.746094 113.191406 18.734375 111.179688 18.734375 108.699219 C 18.734375 106.214844 20.746094 104.207031 23.226562 104.207031 C 25.710938 104.207031 27.71875 106.214844 27.71875 108.699219"/><path fill="#D9176C" d="M 59.167969 113.191406 C 59.167969 115.671875 57.160156 117.683594 54.675781 117.683594 C 52.191406 117.683594 50.183594 115.671875 50.183594 113.191406 C 50.183594 110.707031 52.191406 108.699219 54.675781 108.699219 C 57.160156 108.699219 59.167969 110.707031 59.167969 113.191406"/><path fill="#D9176C" d="M 108.585938 115.4375 C 108.585938 117.917969 106.574219 119.929688 104.09375 119.929688 C 101.609375 119.929688 99.601562 117.917969 99.601562 115.4375 C 99.601562 112.953125 101.609375 110.945312 104.09375 110.945312 C 106.574219 110.945312 108.585938 112.953125 108.585938 115.4375"/><path fill="#D9176C" d="M 131.046875 108.699219 C 131.046875 111.179688 129.039062 113.191406 126.554688 113.191406 C 124.074219 113.191406 122.0625 111.179688 122.0625 108.699219 C 122.0625 106.214844 124.074219 104.207031 126.554688 104.207031 C 129.039062 104.207031 131.046875 106.214844 131.046875 108.699219"/><path fill="#D9176C" d="M 95.109375 110.945312 C 95.109375 113.425781 93.097656 115.4375 90.617188 115.4375 C 88.132812 115.4375 86.121094 113.425781 86.121094 110.945312 C 86.121094 108.460938 88.132812 106.453125 90.617188 106.453125 C 93.097656 106.453125 95.109375 108.460938 95.109375 110.945312"/><path fill="#E97424" d="M 23.226562 50.296875 L 18.734375 50.296875 L 18.734375 45.800781 L 23.226562 45.800781 L 23.226562 50.296875"/><path fill="#E97424" d="M 32.210938 52.542969 L 27.71875 52.542969 L 27.71875 48.050781 L 32.210938 48.050781 L 32.210938 52.542969"/><path fill="#E97424" d="M 47.9375 50.296875 L 43.445312 50.296875 L 43.445312 45.800781 L 47.9375 45.800781 L 47.9375 50.296875"/><path fill="#E97424" d="M 56.921875 52.542969 L 52.429688 52.542969 L 52.429688 48.050781 L 56.921875 48.050781 L 56.921875 52.542969"/><path fill="#E97424" d="M 65.90625 50.296875 L 61.414062 50.296875 L 61.414062 45.800781 L 65.90625 45.800781 L 65.90625 50.296875"/><path fill="#E97424" d="M 90.617188 50.296875 L 86.121094 50.296875 L 86.121094 45.800781 L 90.617188 45.800781 L 90.617188 50.296875"/><path fill="#E97424" d="M 99.601562 52.542969 L 95.109375 52.542969 L 95.109375 48.050781 L 99.601562 48.050781 L 99.601562 52.542969"/><path fill="#E97424" d="M 128.800781 50.296875 L 124.308594 50.296875 L 124.308594 45.800781 L 128.800781 45.800781 L 128.800781 50.296875"/><path fill="#E97424" d="M 119.816406 52.542969 L 115.324219 52.542969 L 115.324219 48.050781 L 119.816406 48.050781 L 119.816406 52.542969"/><path fill="#DD3E46" d="M 27.71875 79.496094 L 23.226562 79.496094 L 23.226562 75.003906 L 27.71875 75.003906 L 27.71875 79.496094"/><path fill="#DD3E46" d="M 45.691406 90.726562 L 41.199219 90.726562 L 41.199219 86.234375 L 45.691406 86.234375 L 45.691406 90.726562"/><path fill="#DD3E46" d="M 50.183594 72.757812 L 45.691406 72.757812 L 45.691406 68.265625 L 50.183594 68.265625 L 50.183594 72.757812"/><path fill="#DD3E46" d="M 23.226562 95.21875 L 18.734375 95.21875 L 18.734375 90.726562 L 23.226562 90.726562 L 23.226562 95.21875"/><path fill="#DD3E46" d="M 104.09375 90.726562 L 99.601562 90.726562 L 99.601562 86.234375 L 104.09375 86.234375 L 104.09375 90.726562"/><path fill="#DD3E46" d="M 117.570312 79.496094 L 113.078125 79.496094 L 113.078125 75.003906 L 117.570312 75.003906 L 117.570312 79.496094"/><path fill="#DD3E46" d="M 117.570312 101.960938 L 113.078125 101.960938 L 113.078125 97.464844 L 117.570312 97.464844 L 117.570312 101.960938"/><path fill="#DD3E46" d="M 133.292969 86.234375 L 128.800781 86.234375 L 128.800781 81.742188 L 133.292969 81.742188 L 133.292969 86.234375"/><path fill="#DD3E46" d="M 101.847656 70.511719 L 97.355469 70.511719 L 97.355469 66.019531 L 101.847656 66.019531 L 101.847656 70.511719"/><path d="M 36.707031 108.699219 C 35.46875 108.699219 34.460938 107.6875 34.460938 106.453125 C 34.460938 105.214844 35.46875 104.207031 36.707031 104.207031 C 37.941406 104.207031 38.953125 105.214844 38.953125 106.453125 C 38.953125 107.6875 37.941406 108.699219 36.707031 108.699219 Z M 36.707031 99.710938 C 32.984375 99.710938 29.964844 102.730469 29.964844 106.453125 C 29.964844 110.171875 32.984375 113.191406 36.707031 113.191406 C 40.425781 113.191406 43.445312 110.171875 43.445312 106.453125 C 43.445312 102.730469 40.425781 99.710938 36.707031 99.710938"/><g clip-path="url(#a)"><path d="M 11.996094 137.898438 L 11.996094 115.496094 C 18.078125 115.777344 21.851562 117.183594 25.808594 118.664062 C 30.414062 120.394531 35.167969 122.175781 43.433594 122.175781 C 51.761719 122.175781 55.972656 120.367188 60.046875 118.621094 C 63.863281 116.988281 67.476562 115.4375 74.875 115.4375 C 82.28125 115.4375 85.894531 116.988281 89.71875 118.621094 C 93.152344 120.097656 96.714844 121.597656 102.734375 122.035156 C 103.171875 122.121094 105.707031 122.175781 106.332031 122.175781 C 114.605469 122.175781 119.359375 120.394531 123.96875 118.664062 C 127.925781 117.183594 131.707031 115.777344 137.785156 115.496094 L 137.785156 137.898438 Z M 20.980469 108.699219 C 20.980469 107.460938 21.992188 106.453125 23.226562 106.453125 C 24.464844 106.453125 25.472656 107.460938 25.472656 108.699219 C 25.472656 109.933594 24.464844 110.945312 23.226562 110.945312 C 21.992188 110.945312 20.980469 109.933594 20.980469 108.699219 Z M 52.429688 113.191406 C 52.429688 111.953125 53.4375 110.945312 54.675781 110.945312 C 55.914062 110.945312 56.921875 111.953125 56.921875 113.191406 C 56.921875 114.425781 55.914062 115.4375 54.675781 115.4375 C 53.4375 115.4375 52.429688 114.425781 52.429688 113.191406 Z M 90.617188 113.191406 C 89.378906 113.191406 88.371094 112.179688 88.371094 110.945312 C 88.371094 109.707031 89.378906 108.699219 90.617188 108.699219 C 91.851562 108.699219 92.863281 109.707031 92.863281 110.945312 C 92.863281 112.179688 91.851562 113.191406 90.617188 113.191406 Z M 103.75 117.613281 C 102.679688 117.445312 101.847656 116.550781 101.847656 115.4375 C 101.847656 114.199219 102.855469 113.191406 104.09375 113.191406 C 105.332031 113.191406 106.339844 114.199219 106.339844 115.4375 C 106.339844 116.585938 105.460938 117.488281 104.355469 117.628906 C 104.164062 117.621094 103.933594 117.621094 103.75 117.613281 Z M 126.554688 101.960938 C 122.835938 101.960938 119.816406 104.976562 119.816406 108.699219 C 119.816406 111.03125 121.011719 113.09375 122.816406 114.296875 C 122.675781 114.347656 122.535156 114.402344 122.394531 114.453125 C 118.871094 115.777344 115.472656 117.023438 110.480469 117.488281 C 110.691406 116.832031 110.832031 116.15625 110.832031 115.4375 C 110.832031 111.714844 107.8125 108.699219 104.09375 108.699219 C 100.371094 108.699219 97.355469 111.714844 97.355469 115.4375 C 97.355469 115.867188 97.40625 116.269531 97.476562 116.671875 C 96.632812 116.453125 95.855469 116.207031 95.097656 115.9375 C 96.46875 114.699219 97.355469 112.9375 97.355469 110.945312 C 97.355469 107.222656 94.335938 104.207031 90.617188 104.207031 C 86.894531 104.207031 83.875 107.222656 83.875 110.945312 C 83.875 111.269531 83.929688 111.574219 83.972656 111.882812 C 81.523438 111.320312 78.628906 110.945312 74.875 110.945312 C 68.636719 110.945312 64.703125 111.960938 61.414062 113.207031 C 61.414062 113.199219 61.414062 113.199219 61.414062 113.191406 C 61.414062 109.46875 58.394531 106.453125 54.675781 106.453125 C 50.953125 106.453125 47.9375 109.46875 47.9375 113.191406 C 47.9375 114.726562 48.472656 116.128906 49.339844 117.261719 C 47.648438 117.515625 45.742188 117.683594 43.433594 117.683594 C 35.984375 117.683594 31.808594 116.113281 27.386719 114.453125 C 27.246094 114.402344 27.105469 114.347656 26.964844 114.296875 C 28.773438 113.09375 29.964844 111.03125 29.964844 108.699219 C 29.964844 104.976562 26.949219 101.960938 23.226562 101.960938 C 19.507812 101.960938 16.488281 104.976562 16.488281 108.699219 C 16.488281 109.707031 16.726562 110.644531 17.121094 111.503906 C 15.578125 111.261719 13.882812 111.085938 11.996094 111.003906 L 11.996094 57.210938 C 13.496094 57.472656 14.199219 58.042969 15.042969 58.753906 C 16.515625 59.992188 18.339844 61.527344 23.226562 61.527344 C 28.113281 61.527344 29.941406 59.992188 31.414062 58.753906 C 32.597656 57.753906 33.449219 57.035156 36.707031 57.035156 C 40.164062 57.035156 41.671875 57.929688 43.417969 58.964844 C 45.445312 60.167969 47.742188 61.527344 52.429688 61.527344 C 55.296875 61.527344 57.160156 61.167969 58.710938 60.632812 C 56.921875 76.023438 56.921875 83.164062 56.921875 88.480469 C 56.921875 98.386719 64.984375 106.453125 74.890625 106.453125 C 84.796875 106.453125 92.863281 98.386719 92.863281 88.480469 C 92.863281 86.164062 92.535156 83.347656 92.125 79.792969 C 91.570312 75.011719 90.84375 68.710938 90.660156 60.859375 C 91.851562 61.246094 93.335938 61.527344 95.109375 61.527344 C 99.792969 61.527344 102.09375 60.167969 104.121094 58.964844 C 105.867188 57.929688 107.375 57.035156 110.832031 57.035156 C 114.289062 57.035156 115.796875 57.929688 117.542969 58.964844 C 119.570312 60.167969 121.859375 61.527344 126.554688 61.527344 C 131.453125 61.527344 133.277344 59.992188 134.742188 58.753906 C 135.585938 58.042969 136.277344 57.472656 137.785156 57.210938 L 137.785156 111.003906 C 135.898438 111.085938 134.207031 111.261719 132.664062 111.503906 C 133.058594 110.644531 133.292969 109.707031 133.292969 108.699219 C 133.292969 104.976562 130.277344 101.960938 126.554688 101.960938 Z M 124.308594 108.699219 C 124.308594 107.460938 125.320312 106.453125 126.554688 106.453125 C 127.792969 106.453125 128.800781 107.460938 128.800781 108.699219 C 128.800781 109.933594 127.792969 110.945312 126.554688 110.945312 C 125.320312 110.945312 124.308594 109.933594 124.308594 108.699219 Z M 70.40625 41.308594 C 67.925781 54.023438 65.90625 70.019531 65.90625 88.480469 C 65.90625 93.4375 69.933594 97.464844 74.890625 97.464844 C 78.050781 97.464844 80.480469 96.484375 82.105469 94.535156 C 84.472656 91.691406 84.210938 87.859375 83.839844 85.832031 C 81.746094 74.328125 81.648438 56.683594 82.121094 41.308594 L 137.785156 41.308594 L 137.785156 52.683594 C 134.550781 53.078125 133.066406 54.296875 131.847656 55.3125 C 130.660156 56.3125 129.8125 57.035156 126.554688 57.035156 C 123.097656 57.035156 121.589844 56.140625 119.84375 55.105469 C 117.816406 53.902344 115.527344 52.542969 110.832031 52.542969 C 106.144531 52.542969 103.847656 53.902344 101.820312 55.105469 C 100.074219 56.140625 98.566406 57.035156 95.109375 57.035156 C 91.605469 57.035156 90.046875 55.535156 90.019531 55.507812 C 89.386719 54.832031 88.40625 54.601562 87.554688 54.945312 C 86.691406 55.277344 86.121094 56.113281 86.121094 57.035156 C 86.121094 66.949219 87.019531 74.671875 87.667969 80.304688 C 88.054688 83.726562 88.371094 86.417969 88.371094 88.480469 C 88.371094 95.914062 82.324219 101.960938 74.890625 101.960938 C 67.460938 101.960938 61.414062 95.914062 61.414062 88.480469 C 61.414062 82.847656 61.414062 75.144531 63.644531 57.316406 C 63.738281 56.507812 63.40625 55.71875 62.757812 55.234375 C 62.097656 54.742188 61.246094 54.65625 60.5 54.980469 L 59.429688 55.464844 C 57.300781 56.445312 56.007812 57.035156 52.429688 57.035156 C 48.972656 57.035156 47.460938 56.140625 45.714844 55.105469 C 43.691406 53.902344 41.390625 52.542969 36.707031 52.542969 C 31.816406 52.542969 29.992188 54.078125 28.519531 55.3125 C 27.335938 56.3125 26.484375 57.035156 23.226562 57.035156 C 19.972656 57.035156 19.121094 56.3125 17.9375 55.3125 C 16.726562 54.296875 15.226562 53.078125 11.996094 52.683594 L 11.996094 41.308594 Z M 79.417969 86.640625 C 79.804688 88.746094 79.515625 90.621094 78.65625 91.65625 C 77.925781 92.535156 76.65625 92.972656 74.890625 92.972656 C 72.417969 92.972656 70.398438 90.957031 70.398438 88.480469 C 70.398438 62.703125 74.515625 41.546875 78.164062 27.851562 C 77.242188 45.230469 76.578125 71.011719 79.417969 86.640625 Z M 140.03125 36.816406 L 133.375 36.816406 C 133.582031 32.859375 134.382812 24.628906 137.410156 20.09375 L 133.671875 17.601562 C 129.960938 23.164062 129.082031 32.535156 128.871094 36.816406 L 117.789062 36.816406 C 118.160156 34.492188 119.125 30.675781 121.6875 26.832031 L 117.949219 24.339844 C 114.691406 29.21875 113.613281 34.078125 113.261719 36.816406 L 99.707031 36.816406 C 99.953125 33.21875 100.820312 25.929688 103.855469 19.855469 L 99.835938 17.839844 C 96.34375 24.832031 95.433594 32.957031 95.195312 36.816406 L 82.28125 36.816406 C 82.851562 22.015625 83.839844 10.300781 83.867188 10.054688 C 83.964844 8.957031 83.246094 7.949219 82.175781 7.6875 C 81.105469 7.40625 80 7.96875 79.570312 8.976562 C 79.253906 9.703125 75.003906 19.804688 71.320312 36.816406 L 54.84375 36.816406 C 55.210938 33.429688 56.472656 26.957031 60.757812 22.683594 L 57.578125 19.503906 C 52.09375 24.988281 50.675781 32.957031 50.304688 36.816406 L 34.546875 36.816406 C 35.449219 25.71875 42.707031 18.269531 42.792969 18.191406 L 41.199219 16.601562 L 39.609375 15.011719 C 39.242188 15.390625 30.949219 23.839844 30.054688 36.816406 L 16.71875 36.816406 C 17.078125 34.492188 18.042969 30.675781 20.605469 26.832031 L 16.867188 24.339844 C 13.609375 29.21875 12.53125 34.078125 12.179688 36.816406 L 9.75 36.816406 C 8.511719 36.816406 7.503906 37.828125 7.503906 39.0625 L 7.503906 140.144531 C 7.503906 141.382812 8.511719 142.390625 9.75 142.390625 L 140.03125 142.390625 C 141.269531 142.390625 142.28125 141.382812 142.28125 140.144531 L 142.28125 39.0625 C 142.28125 37.828125 141.269531 36.816406 140.03125 36.816406"/></g><path d="M 18.734375 133.40625 L 27.71875 133.40625 L 27.71875 128.914062 L 18.734375 128.914062 L 18.734375 133.40625"/><path d="M 45.691406 133.40625 L 54.675781 133.40625 L 54.675781 128.914062 L 45.691406 128.914062 L 45.691406 133.40625"/><path d="M 59.167969 126.667969 L 68.152344 126.667969 L 68.152344 122.175781 L 59.167969 122.175781 L 59.167969 126.667969"/><path d="M 74.890625 133.40625 L 83.875 133.40625 L 83.875 128.914062 L 74.890625 128.914062 L 74.890625 133.40625"/><path d="M 81.628906 124.421875 L 90.617188 124.421875 L 90.617188 119.929688 L 81.628906 119.929688 L 81.628906 124.421875"/><path d="M 110.832031 133.40625 L 119.816406 133.40625 L 119.816406 128.914062 L 110.832031 128.914062 L 110.832031 133.40625"/><path d="M 97.355469 131.160156 L 106.339844 131.160156 L 106.339844 126.667969 L 97.355469 126.667969 L 97.355469 131.160156"/><path d="M 124.308594 128.914062 L 133.292969 128.914062 L 133.292969 124.421875 L 124.308594 124.421875 L 124.308594 128.914062"/><path d="M 23.226562 45.800781 L 18.734375 45.800781 L 18.734375 50.296875 L 23.226562 50.296875 L 23.226562 45.800781"/><path d="M 32.210938 48.050781 L 27.71875 48.050781 L 27.71875 52.542969 L 32.210938 52.542969 L 32.210938 48.050781"/><path d="M 47.9375 45.800781 L 43.445312 45.800781 L 43.445312 50.296875 L 47.9375 50.296875 L 47.9375 45.800781"/><path d="M 56.921875 48.050781 L 52.429688 48.050781 L 52.429688 52.542969 L 56.921875 52.542969 L 56.921875 48.050781"/><path d="M 65.90625 45.800781 L 61.414062 45.800781 L 61.414062 50.296875 L 65.90625 50.296875 L 65.90625 45.800781"/><path d="M 90.617188 45.800781 L 86.121094 45.800781 L 86.121094 50.296875 L 90.617188 50.296875 L 90.617188 45.800781"/><path d="M 99.601562 48.050781 L 95.109375 48.050781 L 95.109375 52.542969 L 99.601562 52.542969 L 99.601562 48.050781"/><path d="M 128.800781 45.800781 L 124.308594 45.800781 L 124.308594 50.296875 L 128.800781 50.296875 L 128.800781 45.800781"/><path d="M 119.816406 48.050781 L 115.324219 48.050781 L 115.324219 52.542969 L 119.816406 52.542969 L 119.816406 48.050781"/><path d="M 23.226562 79.496094 L 27.71875 79.496094 L 27.71875 75.003906 L 23.226562 75.003906 L 23.226562 79.496094"/><path d="M 41.199219 90.726562 L 45.691406 90.726562 L 45.691406 86.234375 L 41.199219 86.234375 L 41.199219 90.726562"/><path d="M 45.691406 72.757812 L 50.183594 72.757812 L 50.183594 68.265625 L 45.691406 68.265625 L 45.691406 72.757812"/><path d="M 18.734375 95.21875 L 23.226562 95.21875 L 23.226562 90.726562 L 18.734375 90.726562 L 18.734375 95.21875"/><path d="M 99.601562 90.726562 L 104.09375 90.726562 L 104.09375 86.234375 L 99.601562 86.234375 L 99.601562 90.726562"/><path d="M 113.078125 79.496094 L 117.570312 79.496094 L 117.570312 75.003906 L 113.078125 75.003906 L 113.078125 79.496094"/><path d="M 113.078125 101.960938 L 117.570312 101.960938 L 117.570312 97.464844 L 113.078125 97.464844 L 113.078125 101.960938"/><path d="M 133.292969 81.742188 L 128.800781 81.742188 L 128.800781 86.234375 L 133.292969 86.234375 L 133.292969 81.742188"/><path d="M 101.847656 66.019531 L 97.355469 66.019531 L 97.355469 70.511719 L 101.847656 70.511719 L 101.847656 66.019531"/></svg>