<svg xmlns="http://www.w3.org/2000/svg" width="150" viewBox="0 0 150 150" height="150" version="1.0"><defs><clipPath id="a"><path d="M 28 3.886719 L 119 3.886719 L 119 146.386719 L 28 146.386719 Z M 28 3.886719"/></clipPath></defs><path fill="#FBC197" d="M 30.542969 30.011719 C 37.792969 15.457031 52.597656 6.261719 68.796875 6.261719 L 72.996094 6.261719 C 88.59375 6.261719 102.957031 14.796875 110.464844 28.519531 C 118.996094 44.097656 118.421875 63.085938 108.976562 78.117188 L 74.566406 132.84375 C 70.199219 139.800781 62.578125 144.011719 54.398438 144.011719 C 41.230469 144.011719 30.542969 133.277344 30.542969 120.050781 L 30.542969 30.011719"/><path fill="#F6B17E" d="M 53.363281 75.136719 L 53.363281 67.742188 C 53.363281 64.878906 52.226562 62.121094 50.203125 60.089844 C 44.894531 54.753906 43.039062 46.859375 45.421875 39.707031 C 48.753906 29.660156 58.109375 22.886719 68.648438 22.886719 C 79.617188 22.886719 89.703125 28.9375 94.902344 38.648438 C 99.925781 48.011719 99.628906 59.347656 94.125 68.429688 L 77.292969 96.214844 C 72.710938 103.777344 64.539062 108.386719 55.726562 108.386719 C 54.417969 108.386719 53.363281 107.320312 53.363281 106.011719 L 53.363281 75.136719"/><path fill="#E89D68" d="M 73.847656 38.445312 C 78.484375 46.433594 78.527344 56.386719 73.957031 64.421875 L 63.132812 83.460938 C 62.488281 84.601562 62.875 86.046875 64.011719 86.699219 C 64.378906 86.910156 64.785156 87.011719 65.183594 87.011719 C 65.996094 87.011719 66.800781 86.585938 67.234375 85.816406 L 78.066406 66.777344 C 83.46875 57.277344 83.414062 45.507812 77.929688 36.050781 C 75.195312 31.347656 69.230469 26.625 63.476562 23.453125 C 61.296875 23.925781 59.21875 24.6875 57.269531 25.71875 C 63.144531 28.148438 70.917969 33.410156 73.847656 38.445312"/><g clip-path="url(#a)"><path fill="#100F0D" d="M 112.542969 27.378906 C 104.609375 12.886719 89.453125 3.886719 72.996094 3.886719 L 68.796875 3.886719 C 51.589844 3.886719 36.121094 13.488281 28.429688 28.945312 L 32.660156 31.078125 C 39.546875 17.238281 53.390625 8.636719 68.796875 8.636719 L 72.996094 8.636719 C 87.726562 8.636719 101.292969 16.699219 108.394531 29.660156 C 116.503906 44.476562 115.957031 62.558594 106.972656 76.84375 L 72.570312 131.570312 C 68.609375 137.878906 61.8125 141.636719 54.398438 141.636719 C 42.550781 141.636719 32.90625 131.953125 32.90625 120.050781 L 32.90625 108.386719 L 28.179688 108.386719 L 28.179688 120.050781 C 28.179688 134.570312 39.945312 146.386719 54.398438 146.386719 C 63.449219 146.386719 71.730469 141.804688 76.570312 134.113281 L 110.972656 79.386719 C 120.878906 63.632812 121.480469 43.707031 112.542969 27.378906"/></g><path fill="#100F0D" d="M 75.269531 94.980469 C 71.140625 101.78125 63.660156 106.011719 55.726562 106.011719 L 55.726562 110.761719 C 65.296875 110.761719 74.335938 105.660156 79.304688 97.449219 L 96.140625 69.664062 C 102.058594 59.90625 102.382812 47.585938 96.988281 37.519531 C 91.367188 27.027344 80.503906 20.511719 68.648438 20.511719 C 57.066406 20.511719 46.835938 27.925781 43.175781 38.957031 C 40.5 47.019531 42.558594 55.765625 48.535156 61.769531 C 50.121094 63.363281 51 65.488281 51 67.742188 L 51 75.136719 L 55.726562 75.136719 L 55.726562 67.742188 C 55.726562 64.21875 54.359375 60.90625 51.875 58.421875 C 47.167969 53.6875 45.550781 46.804688 47.65625 40.460938 C 49.734375 34.195312 54.386719 29.34375 60.195312 26.941406 C 65.921875 29.074219 70.761719 33.140625 73.847656 38.445312 C 78.484375 46.433594 78.527344 56.386719 73.957031 64.421875 L 63.132812 83.460938 L 67.234375 85.816406 L 78.066406 66.777344 C 83.46875 57.277344 83.414062 45.507812 77.929688 36.050781 C 75.371094 31.644531 71.769531 27.980469 67.519531 25.308594 C 67.890625 25.289062 68.269531 25.261719 68.648438 25.261719 C 78.757812 25.261719 88.03125 30.820312 92.824219 39.773438 C 97.421875 48.355469 97.144531 58.867188 92.105469 67.195312 L 75.269531 94.980469"/></svg>