<svg xmlns="http://www.w3.org/2000/svg" width="375" viewBox="0 0 375 375" height="375" version="1.0"><defs><clipPath id="a"><path d="M 326 316 L 352.585938 316 L 352.585938 359 L 326 359 Z M 326 316"/></clipPath></defs><path fill="#FFF" d="M 78.820312 117.976562 C 76.65625 119.878906 79.328125 123.289062 73.839844 124.324219 C 71.433594 124.777344 67.882812 127.890625 68.804688 130.566406 C 69.929688 133.839844 72.335938 134.503906 75.242188 135.765625 C 82.351562 138.847656 79.933594 138.910156 85.371094 142.53125 C 86.714844 143.429688 87.839844 143.589844 89.015625 144.277344 C 91.320312 145.632812 93.699219 147.132812 95.957031 148.578125 C 97.972656 149.867188 100.703125 151.933594 102.757812 152.871094 C 105.390625 154.070312 103.71875 157.773438 107.894531 160.035156 C 109.625 160.976562 110.121094 160.851562 111.578125 159.789062 C 113.730469 158.210938 113.371094 159.304688 114.738281 156.726562 C 115.597656 155.101562 116.515625 155.457031 116.4375 153.046875 C 116.390625 151.617188 115.371094 149.660156 114.34375 148.679688 C 113.730469 148.089844 108.277344 145.445312 107.230469 145.058594 C 105.054688 144.253906 102.226562 142.136719 100.28125 140.78125 C 98.601562 139.609375 95.148438 138.273438 93.15625 137.265625 C 91.949219 136.652344 87.214844 133.421875 86.421875 132.484375 C 82.671875 128.042969 87.675781 125.414062 81.949219 119.902344 C 81.335938 119.316406 79.707031 117.195312 78.820312 117.976562 Z M 78.820312 117.976562" fill-rule="evenodd"/><path fill="#FFF" d="M 30.464844 76.953125 C 28.53125 78.875 24.242188 76.964844 28.605469 84.363281 C 29.09375 85.195312 29.988281 86.496094 30.371094 87.261719 C 31 88.507812 31.066406 88.976562 31.910156 90.136719 C 32.472656 90.910156 33.28125 91.871094 33.691406 92.703125 C 34.417969 94.179688 34.417969 94.144531 35.652344 95.101562 C 38.921875 97.644531 38.84375 94.582031 39.683594 93.824219 C 40.648438 92.949219 41.523438 93.769531 42.476562 92.695312 C 44.691406 90.195312 37.0625 79.195312 36.023438 78.324219 C 35.222656 77.65625 34.371094 77.65625 33.621094 77.027344 C 33.726562 75.089844 35.71875 76.023438 33.429688 72.007812 C 32.746094 70.8125 31.007812 67.511719 30.332031 66.644531 C 29.140625 65.113281 27.765625 63.324219 27.046875 61.519531 C 26.648438 60.515625 25.144531 56.167969 23.472656 57.769531 C 22.5625 58.644531 23.375 64.332031 23.703125 65.738281 C 24.226562 68.003906 24.058594 71.355469 25.941406 74.898438 C 27.074219 77.03125 29.765625 75.671875 30.464844 76.953125 Z M 30.464844 76.953125" fill-rule="evenodd"/><path fill="#FFF" d="M 43.253906 93.570312 C 42.484375 94.046875 40.492188 94.699219 40.105469 95.339844 C 39.800781 95.847656 39.375 97.585938 39.492188 98.164062 C 39.757812 99.492188 40.445312 100.015625 41.433594 100.777344 C 42.375 101.507812 42.792969 102.359375 43.589844 103.238281 C 45.128906 104.929688 46.171875 106.339844 47.878906 107.941406 C 49.644531 109.597656 50.65625 110.824219 52.117188 112.722656 C 52.777344 113.585938 53.53125 114.171875 54.277344 114.917969 L 58.398438 119.660156 C 59.28125 120.878906 59.539062 121.878906 60.21875 122.90625 C 61.050781 124.164062 63.332031 126.558594 64.769531 127.035156 C 65.917969 127.414062 66.769531 126.347656 67.746094 125.867188 C 70.5 124.515625 74.324219 124.253906 74.96875 119.589844 C 75.175781 118.082031 73.382812 114.027344 72.125 113.121094 C 67.957031 110.128906 64.230469 111.519531 61.378906 108.867188 L 54.726562 102.792969 C 53.539062 101.621094 50.746094 97.15625 48.484375 95.132812 C 47.699219 94.429688 46.917969 94.191406 46.078125 93.585938 C 44.84375 92.695312 44.464844 92.816406 43.253906 93.570312 Z M 43.253906 93.570312" fill-rule="evenodd"/><path fill="#FFF" d="M 116.679688 90.910156 C 114.023438 92.71875 115.273438 93.082031 116.652344 95.617188 C 117.042969 96.339844 117.261719 97.140625 117.589844 97.902344 C 118.671875 100.449219 120.609375 102.21875 121.933594 104.578125 C 123.648438 107.640625 123.554688 109.785156 124.433594 112.8125 C 125.65625 117.019531 129.03125 120.230469 130.539062 123.816406 C 131.132812 125.234375 131.632812 126.828125 132.347656 128.175781 C 134.539062 132.324219 133.515625 132.492188 136.378906 135.984375 C 137.617188 137.492188 140.164062 140.761719 142.027344 138.039062 C 144.230469 134.8125 147.3125 136.273438 147.875 133.207031 C 148.371094 130.511719 143.980469 130.828125 141.324219 124.167969 C 140.765625 122.761719 139.972656 121.839844 139.355469 120.265625 C 137.476562 115.488281 133.917969 108.507812 133.878906 103.472656 C 133.867188 102.21875 133.644531 101.097656 133.546875 99.847656 C 133.445312 98.558594 133.613281 97.496094 133.566406 96.191406 C 133.488281 94.183594 133.746094 94.328125 132.894531 92.3125 C 132.324219 90.964844 131.96875 89.476562 130.933594 88.433594 C 126.910156 84.398438 122.921875 89.628906 120.296875 90.085938 C 118.507812 90.398438 118.464844 89.695312 116.679688 90.910156 Z M 116.679688 90.910156" fill-rule="evenodd"/><path fill="#FFF" d="M 75.917969 62.410156 C 74.578125 63.308594 73.539062 65.214844 73.078125 66.792969 C 72.25 69.640625 73.8125 69.800781 75.191406 71.8125 C 75.554688 72.347656 75.625 72.726562 75.914062 73.265625 C 76.210938 73.832031 76.488281 74 76.820312 74.492188 C 77.894531 76.074219 80.789062 81.40625 81.75 82.742188 C 83.84375 85.644531 85.804688 92.222656 87.25 95.816406 C 88.476562 98.859375 88.320312 98.515625 91.351562 99.128906 C 92.609375 99.382812 92.457031 99.628906 93.984375 99.441406 C 95.402344 99.265625 94.953125 98.359375 95.558594 97.472656 C 96.734375 95.757812 103.910156 97.644531 96.890625 89.210938 C 95.632812 87.699219 93.867188 87.296875 92.980469 85.09375 C 92.429688 83.726562 91.980469 83.339844 91.457031 82.222656 C 90.46875 80.125 88.332031 74.46875 87.308594 71.988281 C 86.261719 69.460938 86.34375 66.046875 83.867188 62.933594 C 83.378906 62.324219 82.558594 61.523438 81.75 61.453125 C 80.5625 61.351562 79.742188 62.277344 78.652344 62.234375 C 77.367188 62.183594 77.375 61.433594 75.917969 62.410156 Z M 75.917969 62.410156" fill-rule="evenodd"/><path fill="#FFF" d="M 123.449219 85.511719 C 125.738281 82.9375 129.332031 83.097656 126.769531 79.296875 C 125.703125 77.71875 124.5625 76.863281 123.527344 75.191406 C 122.535156 73.59375 121.203125 72.96875 120.171875 70.976562 C 119.691406 70.050781 119.402344 68.925781 118.941406 68.015625 C 117.246094 64.699219 116.335938 63.875 114.78125 60.039062 C 113.53125 56.949219 112.4375 51.421875 108.269531 51.597656 C 106.417969 51.671875 104.570312 53.074219 103.085938 54.027344 C 101.40625 55.105469 103.257812 57.867188 103.925781 59.515625 C 104.613281 61.210938 105.535156 63.953125 106.367188 65.453125 L 110.601562 73.214844 C 111.695312 75.902344 113.558594 79.183594 114.265625 82.070312 C 114.679688 83.769531 116.058594 89.023438 118.585938 88.601562 C 121.417969 88.128906 121.683594 87.503906 123.449219 85.511719 Z M 123.449219 85.511719" fill-rule="evenodd"/><path fill="#FFF" d="M 66.410156 45.855469 C 65.136719 46.789062 65.007812 50.015625 65.542969 51.453125 C 66.457031 53.902344 67.730469 56.28125 68.394531 58.796875 C 68.703125 59.972656 69.292969 61.136719 69.746094 62.285156 C 70.171875 63.363281 70.527344 64.332031 71.941406 64.265625 C 72.691406 64.230469 73.683594 63.011719 74.128906 62.410156 C 75.140625 61.042969 75.496094 62.078125 76.960938 61.15625 C 78.230469 60.351562 80.542969 58.085938 80.082031 56.449219 C 78.714844 51.566406 77.480469 52.40625 76.488281 50.320312 C 75.566406 48.382812 74.648438 45.933594 73.007812 44.511719 C 71.964844 43.609375 70.835938 44.328125 69.777344 44.726562 C 68.515625 45.207031 67.550781 45.019531 66.410156 45.855469 Z M 66.410156 45.855469" fill-rule="evenodd"/><path fill="#FFF" d="M 98.792969 34.949219 C 99.355469 31.753906 102.007812 33.574219 101.886719 30.324219 C 101.867188 29.785156 101.621094 27.746094 101.480469 27.246094 C 100.59375 24.074219 93.746094 17.894531 90.960938 16.601562 C 88.746094 15.574219 88.542969 17.28125 89.195312 20.621094 C 89.730469 23.347656 91.25 25 91.804688 27.414062 C 92.921875 32.277344 92.230469 36.167969 98.792969 34.949219 Z M 98.792969 34.949219" fill-rule="evenodd"/><path fill="#FFF" d="M 58.421875 24.363281 C 56.5 27.078125 60.792969 33.398438 61.488281 38.074219 C 61.800781 40.167969 62.148438 43.335938 64.367188 44.199219 C 67.4375 45.398438 67.691406 44.351562 69.925781 42.550781 C 71.382812 41.375 72.925781 40.144531 71.695312 37.082031 C 70.707031 34.628906 69.949219 32.183594 68.335938 30.132812 C 64.519531 25.269531 64.816406 26.214844 61.21875 24.746094 C 60.167969 24.316406 59.222656 23.226562 58.421875 24.363281 Z M 58.421875 24.363281" fill-rule="evenodd"/><path fill="#FFF" d="M 96.207031 39.03125 C 96.707031 41.085938 99.914062 49.496094 101.109375 50.910156 C 102.132812 52.117188 104.976562 51.25 106.160156 50.394531 C 107.554688 49.378906 111.046875 46.671875 110.585938 44.6875 C 109.890625 41.695312 108.03125 40.863281 105.804688 37.777344 C 105.28125 37.050781 104.816406 36.503906 104.070312 35.972656 C 102.636719 34.953125 100.464844 36.761719 98.894531 37.582031 C 97.671875 38.222656 97.34375 38.046875 96.207031 39.03125 Z M 96.207031 39.03125" fill-rule="evenodd"/><path fill="#FFF" d="M 135.183594 38.042969 L 137.167969 43.382812 C 137.816406 44.984375 138.988281 47.449219 139.414062 49.007812 C 140.042969 51.300781 139.667969 51.085938 141.308594 53.964844 C 141.585938 54.453125 142.4375 55.367188 142.898438 55.691406 C 143.960938 56.441406 144.03125 55.5625 144.664062 56.605469 C 143.785156 57.515625 143.265625 56.492188 142.992188 59.597656 C 142.855469 61.136719 145.457031 66.464844 146.136719 68.277344 C 146.453125 69.121094 146.363281 69.449219 146.523438 70.289062 C 146.699219 71.207031 147.011719 71.65625 147.253906 72.5 C 147.441406 73.164062 147.402344 73.664062 147.679688 74.410156 C 149.410156 79.148438 148.042969 81.355469 149.753906 84.335938 C 150.539062 85.707031 150.710938 86.953125 152.039062 87.925781 C 154.035156 87.402344 155.398438 85.386719 157.105469 87.324219 C 157.613281 87.894531 158.015625 88.964844 158.832031 89.128906 C 161.59375 89.671875 160.976562 84.019531 160.398438 82.894531 C 159.246094 80.648438 158.21875 81.664062 157.339844 78.210938 C 156.441406 74.667969 153.914062 69.183594 153.484375 66.175781 C 153.066406 63.285156 151.546875 57.320312 147.804688 56.957031 C 148.328125 55.6875 149.5625 56.445312 149.253906 51.292969 C 149.050781 47.945312 145.152344 40.550781 142.992188 38.25 C 141.109375 36.242188 139.75 36.277344 137.132812 37.207031 C 137.96875 35.921875 138.566406 35.253906 137.832031 33.476562 C 137.308594 32.203125 136.378906 29.488281 135.722656 28.46875 C 134.246094 26.179688 131.140625 24.960938 128.539062 25.507812 C 127.164062 25.796875 125.402344 26.96875 126.839844 28.429688 C 127.289062 28.882812 127.835938 29.386719 128.328125 29.789062 C 129.097656 30.414062 130.519531 32.5625 130.960938 33.585938 C 131.417969 34.65625 131.90625 34.820312 132.296875 35.542969 C 132.730469 36.355469 132.40625 36.789062 133.269531 37.386719 C 133.882812 37.820312 134.601562 37.816406 135.183594 38.042969 Z M 135.183594 38.042969" fill-rule="evenodd"/><path fill="#FFF" d="M 150.925781 88.976562 C 149.152344 90.730469 151.457031 101.972656 151.9375 104.574219 L 153.160156 112.648438 C 153.003906 116.148438 152.261719 116.464844 153.25 120.417969 C 153.628906 121.9375 154.136719 123.160156 154.515625 124.726562 C 155.074219 127.070312 156.339844 130.867188 156.109375 133.070312 C 155.757812 136.46875 155.617188 137.214844 159.007812 139.046875 C 161.320312 140.296875 164.507812 146.421875 168.5625 139.9375 C 169.519531 138.410156 168.308594 137.644531 167.894531 136.128906 C 167.542969 134.851562 166.855469 132.96875 166.382812 131.679688 C 164.90625 127.675781 165.085938 124.273438 164.164062 119.878906 C 163.269531 115.617188 162.75 113.117188 162.269531 107.871094 C 162.097656 106.035156 162.144531 105.761719 161.722656 103.875 C 161.027344 100.78125 164.078125 96.238281 163.957031 93.4375 C 163.910156 92.34375 163.140625 90.320312 161.964844 90 C 160.328125 89.558594 158.832031 91.582031 157.875 90.71875 C 156.914062 89.847656 156.839844 88.765625 154.929688 88.664062 C 153.515625 88.589844 151.953125 87.960938 150.925781 88.976562 Z M 150.925781 88.976562" fill-rule="evenodd"/><path fill="#FFF" d="M 107.082031 183.613281 C 107.96875 183.535156 108.542969 183.769531 109.367188 183.808594 C 110.277344 183.847656 110.859375 183.652344 111.867188 183.75 C 113.128906 183.871094 113.234375 184.292969 113.929688 184.410156 C 114.210938 184.457031 116.046875 184.101562 116.226562 183.910156 C 118.476562 181.546875 113.257812 179.820312 112.429688 179.347656 C 110.652344 178.335938 110.382812 176.472656 109.625 174.566406 C 108.6875 172.222656 107.734375 172.558594 105.523438 172.882812 C 104.289062 173.0625 102.601562 172.066406 101.179688 171.753906 C 99.332031 171.347656 98.46875 171.457031 96.613281 170.816406 C 95.859375 170.558594 95.164062 170.542969 94.378906 170.230469 C 93.582031 169.910156 93.199219 169.734375 92.347656 169.507812 C 90.800781 169.101562 89.277344 168.230469 88.050781 169.824219 C 87.015625 171.167969 86.332031 172.621094 87.097656 174.261719 C 88.28125 176.785156 89.0625 175.050781 88.636719 178.683594 C 88.152344 182.78125 90.058594 182.226562 95.175781 182.832031 C 96.664062 183.007812 98.226562 183.558594 99.65625 183.621094 C 103.492188 183.785156 103.433594 183.953125 107.082031 183.613281 Z M 107.082031 183.613281" fill-rule="evenodd"/><path fill="#FFF" d="M 111.980469 177.109375 C 112.980469 178.621094 118.246094 180.773438 120.257812 181.917969 C 121.449219 182.597656 124.667969 181.492188 123.847656 179.589844 C 120.582031 171.996094 118.574219 175.265625 116.277344 172.949219 C 115.015625 171.675781 114.316406 168.074219 113.367188 167.820312 C 112.703125 167.644531 109.75 168.378906 109.914062 171.183594 C 109.984375 172.410156 111.300781 176.085938 111.980469 177.109375 Z M 111.980469 177.109375" fill-rule="evenodd"/><path fill="#FFF" d="M 59.175781 157.796875 C 59.0625 157.945312 56.03125 160.054688 57.664062 162.34375 C 58.304688 163.238281 58.554688 162.847656 59.457031 164.449219 C 60.074219 165.542969 60.230469 166.136719 61.066406 167.148438 C 62.851562 169.316406 67.03125 171.367188 69.425781 172.9375 C 70.25 173.476562 75.160156 176.898438 75.695312 177.101562 C 77.007812 177.589844 78.941406 178.816406 80.007812 179.683594 C 81.601562 180.980469 81.796875 182.847656 84.210938 182.570312 C 84.945312 182.484375 84.851562 182.3125 85.617188 182.328125 C 89.515625 182.417969 87.976562 178.960938 86.671875 176.808594 C 84.90625 173.894531 85.996094 173.367188 86.265625 172.875 C 86.714844 172.058594 86.25 169.738281 85.675781 168.464844 C 85.121094 167.226562 84.804688 167.0625 83.59375 166.722656 C 81.714844 166.195312 80.714844 165.644531 79 164.816406 C 78.066406 164.363281 74.066406 163.238281 72.976562 163.167969 C 71.921875 163.097656 69.179688 160.171875 67.988281 159.089844 C 63.957031 155.425781 64.375 158.492188 60.761719 157.097656 C 61.664062 156.074219 61.046875 157.445312 64.011719 156.152344 C 65.304688 155.585938 65.699219 154.722656 65.203125 153.386719 C 64.476562 151.425781 62.203125 150.265625 60.5 149.179688 C 56.414062 146.570312 52.78125 140.03125 51.777344 139.089844 C 49.921875 137.34375 47.53125 138.777344 48.230469 141.414062 C 48.871094 143.832031 50.566406 146.949219 51.082031 149.1875 C 51.65625 151.664062 51.960938 153.796875 53.613281 155.8125 C 54.148438 156.460938 55.019531 158.425781 55.65625 158.5625 C 56.800781 158.800781 58.21875 157.121094 59.175781 157.796875 Z M 59.175781 157.796875" fill-rule="evenodd"/><g clip-path="url(#a)"><path fill="#FFF" d="M 352.015625 320.78125 C 351.8125 319.191406 351.09375 318.976562 349.71875 318.425781 C 349.003906 318.140625 347.351562 317.511719 346.65625 317.378906 C 338.851562 315.863281 339.980469 317.78125 336.546875 320.164062 C 334.242188 321.765625 334.832031 324.558594 332.71875 325.21875 C 329.4375 326.238281 329.160156 343.023438 327.835938 348.015625 C 326.929688 351.414062 326.621094 351.070312 327.066406 354.828125 C 327.28125 356.636719 326.863281 357.625 332.0625 358.023438 C 335.394531 358.277344 335.640625 359.660156 339.167969 358.261719 C 340.535156 357.71875 344.460938 354.890625 345.070312 353.5625 C 345.675781 352.25 345.390625 351.898438 346.332031 350.433594 C 347.449219 348.699219 346.515625 345.03125 346.511719 343.382812 C 346.507812 342.113281 346.4375 341.046875 346.378906 339.800781 C 345.925781 329.835938 352.601562 325.328125 352.015625 320.78125 Z M 352.015625 320.78125" fill-rule="evenodd"/></g><path fill="#FFF" d="M 168.6875 163.539062 C 166.148438 165.011719 162.214844 164.703125 159.5625 166.125 C 156.328125 167.859375 160.113281 171.714844 161.378906 173.371094 C 163.542969 176.1875 168.050781 173.652344 173.261719 178.839844 C 174.179688 179.753906 175.320312 180.410156 176.296875 181.308594 C 179.109375 183.902344 187.875 193.46875 190.023438 196.136719 C 193.28125 200.179688 197.550781 204.3125 201.152344 208.152344 C 204.851562 212.089844 208.699219 215.289062 212.679688 218.875 C 214.828125 220.804688 216.390625 221.957031 218.46875 224.132812 C 219.507812 225.21875 231.90625 237.1875 232.8125 237.894531 C 242.320312 245.316406 250.65625 253.875 259.460938 260.503906 C 261.230469 261.832031 263.421875 264.371094 265.160156 265.984375 C 266.785156 267.492188 269.339844 269.527344 271.175781 270.773438 C 273.324219 272.234375 275.128906 274.046875 277.164062 275.59375 C 287.753906 283.652344 296.921875 291.417969 307.234375 299.765625 C 312.355469 303.90625 325.121094 309.042969 326.738281 310.570312 C 327.808594 311.582031 328.234375 313.359375 329.128906 314.589844 C 329.59375 315.234375 331.324219 316.796875 332.050781 317.039062 C 333.214844 317.425781 333.3125 316.777344 333.980469 316.339844 C 335.625 315.253906 338.226562 315.332031 340.605469 314.769531 C 342.117188 314.414062 348.929688 314.035156 348.726562 311.867188 C 348.371094 308.136719 340.707031 302.675781 337.289062 301.566406 C 336.15625 301.199219 334.796875 300.777344 333.636719 300.53125 C 332.40625 300.269531 330.972656 300.316406 329.824219 299.871094 C 328.722656 299.449219 327.671875 298.441406 326.621094 297.804688 C 325.578125 297.171875 324.496094 296.605469 323.441406 295.992188 C 315.453125 291.351562 317.710938 292.441406 310.996094 287.449219 C 304.691406 282.765625 299.554688 278.164062 292.398438 274.113281 C 287.769531 271.492188 284.46875 267.976562 280.300781 264.746094 C 278.378906 263.253906 276.136719 261.828125 274.125 260.371094 C 269.945312 257.332031 266.046875 254.132812 262.113281 250.792969 C 256.558594 246.078125 250.8125 239.753906 244.761719 234.515625 C 242.792969 232.8125 240.742188 231.335938 238.84375 229.535156 C 236.933594 227.722656 234.851562 226.292969 232.902344 224.558594 C 230.941406 222.8125 229.113281 220.894531 227.148438 219.191406 C 222.957031 215.550781 216.957031 209.121094 213.171875 204.632812 C 210.804688 201.824219 207.445312 198.253906 204.917969 195.472656 C 203.179688 193.5625 200.710938 191.71875 199.265625 189.78125 C 194.582031 183.503906 183.6875 173.554688 180.53125 167.390625 C 179.773438 165.910156 179.277344 164.730469 178.347656 163.308594 C 171.21875 152.390625 173.269531 160.886719 168.6875 163.539062 Z M 168.6875 163.539062" fill-rule="evenodd"/><path fill="#FFF" d="M 129.316406 187.121094 C 129.816406 188.207031 135.429688 190.496094 136.714844 190.972656 C 140.609375 192.414062 147.378906 197.324219 150.683594 200.050781 C 155.972656 204.417969 164.472656 214.378906 169.304688 219.566406 C 176.1875 226.957031 187.003906 238.308594 194.363281 244.867188 C 196.511719 246.777344 198.65625 248.707031 200.867188 250.546875 C 203.195312 252.480469 205.253906 254.054688 207.339844 256.300781 C 209.496094 258.625 211.304688 260.566406 213.675781 262.703125 C 215.933594 264.746094 217.789062 266.910156 219.90625 269.046875 C 223.964844 273.148438 228.3125 277.359375 232.546875 281.277344 C 241.292969 289.382812 249.726562 296.835938 258.097656 305.417969 C 260.238281 307.609375 262.34375 309.308594 264.679688 311.253906 C 266.832031 313.046875 269.011719 315.035156 271.324219 316.609375 C 273.621094 318.167969 275.851562 319.945312 278.21875 321.363281 C 280.691406 322.84375 283.035156 323.886719 285.226562 325.84375 C 290.847656 330.871094 298.078125 340.976562 302.949219 347.492188 C 308.226562 354.546875 307.59375 357 317.050781 356.542969 C 319.429688 356.425781 323.539062 356.574219 325.230469 354.660156 C 327.832031 351.71875 325.746094 342.144531 326.921875 337.699219 C 328.074219 333.355469 327.476562 332.980469 327.570312 328.902344 C 327.644531 325.652344 330.03125 323.882812 329.914062 320.957031 C 329.800781 318.058594 327.269531 314.128906 325.089844 312.273438 C 323.132812 310.617188 320.242188 309.457031 317.9375 308.296875 C 312.46875 305.546875 308.089844 304.417969 302.4375 302.480469 C 296.652344 300.5 292.769531 298.375 287.957031 294.59375 C 285.652344 292.78125 283.609375 290.5625 281.457031 288.566406 C 274.132812 281.769531 256.675781 273.488281 246.414062 265.777344 C 241.921875 262.402344 237.523438 258.792969 232.996094 255.375 C 220.878906 246.234375 217.597656 241.289062 207.851562 230.300781 C 200.246094 221.726562 188.746094 212.027344 182.886719 204.695312 C 180.816406 202.105469 179.214844 199.914062 176.910156 197.46875 C 174.773438 195.199219 172.941406 192.925781 170.894531 190.617188 C 168.542969 187.96875 166.917969 186.839844 164.949219 183.652344 C 163.324219 181.011719 161.847656 177.683594 159.316406 175.847656 C 149.769531 168.914062 147.941406 175.765625 143.785156 177.371094 C 139.679688 178.960938 141.640625 177.011719 135.339844 180.65625 C 133.878906 181.503906 131.976562 182.328125 130.738281 183.4375 C 129.988281 184.105469 128.90625 186.238281 129.316406 187.121094 Z M 129.316406 187.121094" fill-rule="evenodd"/><path fill="#FFF" d="M 129.546875 144.492188 L 129.511719 144.546875 L 127.355469 146.742188 C 126.867188 147.277344 125.742188 148.703125 125.246094 149.023438 C 123.003906 150.484375 122.082031 148.382812 120.214844 152.761719 C 119.589844 154.226562 120.042969 156.621094 119.1875 158.609375 C 118.953125 159.152344 118.71875 159.214844 118.410156 159.894531 C 118.054688 160.683594 118.265625 160.617188 117.398438 160.699219 C 114.839844 160.9375 115.625 162.570312 114.671875 165.613281 C 114.183594 167.164062 114.5 167.296875 115.488281 168.308594 C 117.070312 169.925781 118.949219 170.742188 120.308594 172.113281 C 121.742188 173.5625 121.261719 173.503906 122.152344 175.011719 C 122.519531 175.632812 126.726562 178.953125 127.554688 180.457031 C 128.074219 181.398438 127.941406 180.945312 128.757812 181.453125 C 132.433594 179.714844 130.101562 178.960938 135.515625 177.914062 C 138.101562 177.410156 140.761719 176.011719 142.894531 174.476562 C 148.878906 170.160156 146.976562 169.707031 155.847656 166 C 157.917969 165.136719 162.628906 164.214844 163.953125 163.28125 C 165.023438 162.527344 165.078125 161.378906 166.289062 160.898438 C 167.792969 160.296875 168.679688 160.648438 170.183594 159.464844 C 172.429688 157.707031 171.367188 155.515625 171.675781 153.082031 C 172.027344 150.292969 172.320312 148.429688 170.007812 146.15625 C 167.910156 144.089844 165.976562 145.570312 163.609375 144.730469 C 156.261719 142.121094 159.945312 142.035156 153.785156 140.46875 C 150.984375 139.753906 151.589844 138.289062 148.257812 137.519531 C 144.277344 136.597656 140.519531 141.183594 137.582031 142.308594 C 135.707031 143.027344 135.394531 142.300781 133.957031 142.355469 C 132.816406 142.398438 131.019531 143.789062 130.472656 143.441406 C 130.375 143.382812 129.195312 140.835938 128.945312 140.417969 C 127.421875 137.835938 127.617188 135.464844 124.480469 133.992188 C 118.992188 131.410156 119.851562 129.3125 117.386719 125.875 C 102.480469 105.101562 108.636719 105.59375 105.878906 100.851562 C 105.09375 99.5 104.542969 99.25 103.070312 99.03125 C 97.691406 98.230469 99.351562 98.414062 97.171875 101.027344 C 96.292969 102.082031 95.324219 101.273438 94.347656 100.90625 C 92.019531 100.019531 90.042969 103.21875 91.074219 105.25 C 91.992188 107.070312 96.964844 112.460938 97.933594 113.875 C 98.679688 114.960938 99.214844 116.214844 99.964844 117.332031 L 104.449219 123.308594 C 106.667969 125.871094 106.542969 124.722656 109.035156 129.164062 C 111.542969 133.621094 112.804688 135.019531 115.457031 138.773438 C 118.222656 142.683594 117.808594 145.691406 121.816406 146.421875 C 123.277344 146.683594 124.78125 145.839844 125.960938 145.132812 C 127.164062 144.414062 128.179688 144.652344 129.546875 144.492188 Z M 129.546875 144.492188" fill-rule="evenodd"/><path fill="#FFF" d="M 131.585938 96.503906 L 131.65625 97.105469 Z M 131.585938 96.503906" fill-rule="evenodd"/><path fill="#FFF" d="M 145.714844 178.695312 C 143.296875 179.574219 139.75 179.53125 132.992188 183.734375 C 129.472656 185.957031 130.894531 187.234375 134.132812 188.539062 C 144.046875 192.546875 139.980469 190.714844 148.53125 196.519531 C 154.898438 200.847656 162.121094 209.160156 167.351562 214.863281 C 173.5625 221.632812 185.429688 234.054688 191.96875 240.152344 C 196.027344 243.9375 200.542969 247.988281 204.851562 251.46875 C 217.191406 261.417969 228.640625 275.421875 241.417969 286.886719 C 245.664062 290.699219 249.96875 294.734375 254.085938 298.691406 C 256.195312 300.722656 258.128906 302.878906 260.203125 304.925781 C 262.296875 306.988281 264.5 308.664062 266.75 310.527344 C 271.144531 314.175781 275.371094 317.40625 280.207031 320.46875 C 290.617188 327.0625 297.054688 336.585938 304.566406 346.433594 C 310.585938 354.328125 308.296875 354.917969 318.910156 354.550781 C 322.046875 354.445312 324.578125 354.148438 324.765625 350.433594 C 324.90625 347.726562 324.292969 344.265625 324.296875 341.277344 C 324.296875 337.972656 325.59375 335.902344 325.640625 333.066406 C 325.695312 329.765625 324.261719 327.976562 326.273438 324.878906 C 328.261719 321.824219 328.074219 320.066406 326.136719 316.839844 C 324.421875 313.972656 322.285156 312.800781 319.429688 311.324219 C 313.953125 308.5 310.378906 306.820312 304.453125 304.949219 C 298.71875 303.136719 293.527344 301.742188 288.785156 297.996094 C 286.523438 296.210938 284.613281 294.148438 282.414062 292.363281 C 280.25 290.605469 278.910156 288.792969 276.625 287.199219 C 266.945312 280.464844 257.164062 275.761719 248.671875 269.757812 C 244.003906 266.457031 239.882812 262.890625 235.335938 259.515625 C 221.886719 249.523438 220.960938 247.875 210.046875 235.730469 C 205.988281 231.214844 202.308594 226.925781 197.925781 222.664062 C 191.316406 216.238281 185.058594 210.894531 179.617188 203.519531 C 177.714844 200.945312 175.773438 198.929688 173.644531 196.574219 C 171.632812 194.34375 169.847656 191.992188 167.691406 189.878906 C 160.863281 183.1875 162.859375 179.257812 156.757812 176.019531 C 149.53125 172.179688 149.246094 177.410156 145.714844 178.695312 Z M 145.714844 178.695312" fill-rule="evenodd"/><path fill="#FFF" d="M 174.285156 160.222656 C 171.28125 162 172.722656 165.421875 164.125 166.484375 C 163.003906 166.625 160.582031 166.6875 160.015625 167.808594 C 159.410156 169.007812 160.675781 170.691406 161.570312 171.421875 C 162.828125 172.449219 169.039062 173.808594 171.6875 175.300781 C 172.75 175.902344 173.5625 176.910156 174.472656 177.714844 C 175.414062 178.546875 176.480469 179.214844 177.40625 180.054688 C 182.34375 184.527344 189.074219 192.597656 193.523438 197.535156 C 196.90625 201.285156 200.863281 205.097656 204.386719 208.792969 C 209.316406 213.957031 213.171875 216.460938 218.164062 222.105469 C 219.136719 223.207031 225.292969 228.707031 226.664062 230.011719 C 227.578125 230.882812 228.367188 231.863281 229.289062 232.722656 C 230.242188 233.605469 231.210938 234.351562 232.152344 235.285156 L 237.949219 240.234375 C 244.617188 245.09375 249.417969 250.257812 255.164062 254.761719 C 256.292969 255.644531 256.988281 256.390625 258.011719 257.324219 C 258.976562 258.207031 260.023438 258.800781 261.023438 259.59375 C 264.550781 262.394531 266.4375 265.636719 272.410156 269.582031 C 274.25 270.800781 276.453125 272.691406 278.226562 274.117188 C 280.261719 275.75 282.269531 276.921875 284.25 278.515625 C 288.25 281.742188 291.960938 284.640625 295.8125 288.085938 C 304.96875 296.277344 311.964844 301.28125 322.890625 306.929688 C 325.917969 308.492188 327.988281 308.808594 329.089844 310.828125 C 331.054688 314.421875 330.675781 315.210938 335.71875 313.65625 C 336.820312 313.316406 338.6875 313.15625 339.9375 312.917969 C 345.757812 311.8125 350 312.507812 339.519531 304.601562 C 338.351562 303.722656 334.222656 302.105469 332.777344 301.867188 C 331.515625 301.664062 330.414062 301.957031 329.171875 301.410156 C 328.296875 301.027344 327.015625 299.988281 326.070312 299.429688 C 318.121094 294.726562 315.335938 292.847656 307.828125 287 C 305.894531 285.492188 303.972656 283.785156 302.054688 282.335938 C 296.484375 278.132812 289.742188 274.015625 283.800781 269.90625 C 281.871094 268.570312 279.996094 266.800781 277.996094 265.363281 C 271.417969 260.652344 266.636719 257.390625 260.25 251.746094 C 254.867188 246.988281 249.183594 241.152344 243.546875 236.015625 C 241.683594 234.320312 239.601562 232.890625 237.703125 231.148438 C 233.96875 227.726562 230.117188 224.539062 226.351562 221.066406 C 222.464844 217.480469 219.085938 213.765625 215.410156 209.988281 C 209.875 204.292969 205.039062 198.300781 199.40625 192.609375 C 197.554688 190.738281 196.082031 188.378906 194.152344 186.347656 C 192.316406 184.417969 190.652344 182.535156 188.910156 180.527344 C 187.246094 178.613281 185.039062 176.507812 183.539062 174.636719 C 178.878906 168.816406 177.390625 162.9375 174.285156 160.222656 Z M 174.285156 160.222656" fill-rule="evenodd"/><path fill="#FFF" d="M 139.648438 170.570312 C 138.683594 169.894531 137.691406 167.882812 138.328125 166.820312 C 139.242188 167.445312 139.085938 167.542969 139.519531 168.625 C 139.859375 169.46875 140.195312 169.910156 139.648438 170.570312 Z M 145.480469 161.675781 C 146.839844 161.519531 148.628906 162.136719 149.167969 163.414062 C 148.375 163.675781 147.675781 163.257812 146.960938 162.996094 C 146.222656 162.726562 145.425781 162.664062 145.480469 161.675781 Z M 164.753906 155.035156 C 163.425781 154.511719 162.691406 152.589844 162.804688 151.839844 C 163.71875 151.667969 163.601562 152.019531 164.109375 152.941406 C 164.503906 153.648438 164.863281 154.34375 164.753906 155.035156 Z M 162.191406 154.855469 C 161.75 154.785156 161.949219 155.164062 161.214844 153.820312 C 160.800781 153.0625 159.246094 150.226562 160.523438 150.046875 C 161.167969 150.554688 161.40625 151.667969 161.722656 152.449219 C 161.871094 152.808594 162.132812 153.347656 162.246094 153.691406 C 162.542969 154.5625 162.585938 154.265625 162.191406 154.855469 Z M 146.214844 154.121094 C 144.59375 155.523438 141.199219 153.496094 140.003906 152.179688 C 139.714844 151.863281 138.191406 149.222656 137.988281 148.734375 C 137.53125 147.648438 136.417969 145.785156 137.222656 144.894531 C 138.402344 145.011719 138.84375 147.164062 139.273438 148.214844 C 141.671875 154.125 145.625 152.625 146.214844 154.121094 Z M 157.652344 163.398438 C 159.117188 162.800781 161.207031 162.660156 162.335938 161.699219 C 163.46875 160.730469 163.457031 159.402344 165.511719 158.859375 C 166.253906 158.664062 167.21875 158.597656 167.914062 158.324219 C 170.523438 157.300781 169.09375 155.507812 169.5625 152.769531 C 169.914062 150.695312 170.082031 150.328125 168.984375 148.269531 C 167.601562 145.660156 166.167969 148.300781 161.015625 146.722656 C 157.675781 145.703125 155.628906 142.453125 154.195312 143.347656 C 154.375 144.320312 154.910156 145.304688 155.289062 146.234375 C 155.707031 147.253906 155.796875 147.964844 156.1875 148.9375 C 156.566406 149.890625 157.089844 150.976562 157.375 151.941406 C 158.761719 156.621094 155.847656 153.808594 154.691406 149.511719 C 154.082031 147.246094 153.265625 145.222656 152.855469 143.769531 C 152.476562 142.429688 152.191406 142.894531 151.203125 141.886719 C 150.183594 140.851562 149.851562 139.566406 147.332031 139.378906 C 145.214844 139.21875 140.5 143.085938 139.535156 143.484375 C 136.566406 144.710938 137.457031 144.953125 134.488281 144.179688 C 132.027344 143.539062 126.75 149.25 126.667969 150.242188 C 127.871094 150.890625 131.964844 152.003906 131.628906 153.695312 C 129.996094 152.644531 126.898438 150.671875 124.855469 150.996094 C 119.332031 151.875 122.207031 153.496094 120.148438 158.867188 C 119.863281 159.617188 119.328125 160.226562 119.109375 161.082031 C 121.226562 162.054688 122.734375 161.113281 125.039062 162.695312 C 126.027344 163.378906 129.375 166.113281 129.414062 167.167969 C 128.523438 168.296875 127.246094 166.515625 126.613281 165.871094 C 124.476562 163.695312 123.328125 163.097656 120.597656 162.828125 C 118.949219 162.664062 118.632812 162.542969 116.964844 163.28125 C 116.523438 165.519531 115.507812 166.183594 117.417969 167.90625 C 118.75 169.109375 120.21875 169.769531 121.496094 170.996094 C 122.398438 171.871094 122.730469 172.40625 123.222656 173.589844 C 123.761719 174.875 128.355469 179.363281 128.695312 179.507812 C 130.128906 177.851562 129.414062 177.550781 132.003906 176.585938 C 133.511719 176.023438 135.242188 176.035156 136.664062 175.464844 C 137.863281 174.980469 144.59375 171.507812 145.125 170.90625 C 147.144531 168.625 149.683594 166.621094 152.53125 165.476562 C 154.238281 164.789062 155.945312 164.097656 157.652344 163.398438 Z M 157.652344 163.398438" fill-rule="evenodd"/><path fill="#FFF" d="M 329.253906 355.695312 C 330.945312 356.042969 333.707031 356.167969 335.132812 356.660156 C 337.570312 357.496094 338.871094 356.523438 341.34375 354.660156 C 344.257812 352.46875 343.109375 352.570312 344.609375 349.710938 C 345.53125 347.945312 344.078125 340.570312 344.4375 336.925781 C 344.570312 335.574219 345.230469 332.40625 345.742188 331.199219 C 346.457031 329.515625 347.394531 327.59375 348.222656 325.964844 C 351.273438 319.976562 351.15625 320.5625 344.097656 318.960938 C 342.625 318.628906 342.230469 318.671875 340.828125 319.300781 C 338.472656 320.355469 336.140625 324.15625 335.109375 326.40625 C 334.105469 328.609375 332.414062 328.105469 331.871094 331.464844 C 331.585938 333.230469 330.9375 335.597656 330.796875 337.289062 C 330.527344 340.550781 330.203125 346.125 329.269531 349.203125 C 328.664062 351.195312 328.25 353.738281 329.253906 355.695312 Z M 329.253906 355.695312" fill-rule="evenodd"/><path fill="#FFF" d="M 140.300781 137.386719 C 141.117188 136.738281 140.875 136.390625 141.578125 135.660156 C 142.402344 134.804688 143.101562 134.96875 143.832031 134.28125 C 143.671875 133.628906 143.234375 134.679688 142.910156 133.4375 C 143.835938 133.121094 144.308594 133.539062 145.507812 132.851562 C 145.617188 131.484375 143.535156 131.535156 141.65625 128.890625 C 140.324219 127.015625 139.632812 125.023438 138.476562 123.011719 C 137.453125 121.214844 134.222656 112.375 132.855469 109.347656 C 132.527344 109.410156 132.96875 109.484375 132.160156 109.796875 C 132.253906 107.667969 132.066406 105.792969 132.054688 103.71875 C 132.050781 103.066406 131.664062 97.71875 131.542969 97.402344 C 131.007812 98.042969 130.621094 102.273438 128.957031 105.519531 C 128.199219 104.675781 129.414062 102.734375 129.667969 101.695312 C 129.964844 100.472656 131.351562 94.152344 131.203125 93.332031 C 130.960938 92.011719 130.019531 89.691406 128.835938 88.910156 C 126.667969 87.484375 123.226562 91.796875 119.121094 91.859375 C 115.746094 91.910156 117.722656 93.710938 118.269531 94.9375 C 118.675781 95.851562 119.019531 96.855469 119.40625 97.78125 C 120.203125 99.683594 124.792969 104.242188 125.425781 109.140625 C 125.898438 112.777344 127.757812 116.0625 129.71875 119.074219 C 134.121094 125.832031 136.058594 136.660156 140.300781 137.386719 Z M 140.300781 137.386719" fill-rule="evenodd"/><path fill="#FFF" d="M 105.988281 122.789062 C 109.089844 125.640625 110.433594 128.304688 112.339844 131.820312 C 112.757812 132.589844 113.875 134.742188 114.3125 135.289062 C 118.101562 140.03125 116.796875 140.007812 120.53125 143.988281 C 121.539062 145.066406 123.289062 145.03125 123.320312 145.019531 C 124.023438 144.375 124.335938 143.550781 125.242188 143.097656 C 126.433594 142.507812 127.175781 143.117188 127.871094 142.414062 C 127.550781 141.167969 125.429688 136.515625 124.167969 135.773438 C 121.472656 134.183594 121.261719 134.976562 119.035156 132.042969 C 116.007812 128.066406 116.992188 128.425781 116.082031 127.042969 C 115.753906 126.546875 115.332031 126.28125 114.964844 125.75 C 113.882812 124.1875 111.746094 121.15625 110.921875 119.613281 C 109.546875 117.050781 108.257812 115.394531 107.117188 112.59375 C 106.003906 109.859375 104.8125 108.019531 105.070312 105.007812 C 105.167969 103.882812 104.875 102.339844 104.105469 101.476562 C 103.355469 100.628906 102.1875 100.722656 101.160156 100.457031 C 98.050781 99.652344 99.398438 104.160156 95.855469 103.296875 C 94.734375 103.023438 93.917969 101.953125 92.996094 102.664062 C 91.773438 103.605469 92.351562 104.640625 93.179688 105.535156 C 94.691406 107.171875 96.042969 109.558594 97.53125 111.046875 C 99.496094 113.007812 100.179688 115.386719 101.679688 117.136719 C 103.007812 118.691406 104.726562 121.625 105.988281 122.789062 Z M 105.988281 122.789062" fill-rule="evenodd"/><path fill="#FFF" d="M 79.609375 120.304688 C 77.765625 122.808594 79.738281 124.761719 74.480469 125.769531 C 72.390625 126.171875 72.273438 126.414062 71.035156 127.996094 C 69.90625 129.429688 69.867188 130.292969 71.222656 131.851562 C 72.398438 133.203125 76.066406 134.515625 77.792969 135.253906 C 81.800781 136.972656 84.136719 140.222656 86.984375 141.816406 C 88.300781 142.554688 88.851562 142.40625 90.382812 143.460938 C 91.421875 144.175781 92.566406 144.582031 93.523438 145.355469 C 96.597656 147.839844 99.890625 149.332031 103.269531 150.957031 C 104.472656 151.535156 105.394531 152.410156 106.566406 152.839844 C 109.035156 153.746094 106.890625 154.984375 106.910156 155.921875 C 106.925781 156.902344 108.59375 158.457031 109.726562 158.25 C 111.164062 157.984375 118.054688 152.871094 111.328125 149.898438 C 110.691406 149.617188 107.558594 147.292969 105.4375 146.1875 C 103.445312 145.144531 101.195312 143.085938 99.160156 142.042969 C 94.53125 139.675781 90.410156 137.882812 86.289062 134.535156 C 80.976562 130.21875 84.988281 126.957031 82.386719 122.664062 C 81.964844 121.964844 80.4375 120.289062 79.609375 120.304688 Z M 79.609375 120.304688" fill-rule="evenodd"/><path fill="#FFF" d="M 161.425781 91.980469 C 160.105469 91.777344 159.230469 92.78125 157.910156 93.066406 C 155.828125 93.515625 156.859375 91.710938 155.472656 90.851562 C 155.019531 90.570312 152.90625 90.210938 152.519531 90.535156 C 151.859375 91.085938 151.878906 92.851562 151.984375 93.644531 C 152.507812 97.515625 153.558594 104.648438 154.289062 108.234375 C 154.921875 111.332031 155.019531 111.914062 154.546875 115.015625 C 153.828125 119.699219 156.796875 123.253906 157.335938 129.769531 C 157.464844 131.292969 158.289062 132.25 158.203125 133.488281 C 158.046875 135.652344 157.921875 135.019531 159.289062 136.78125 C 160.496094 138.339844 162.816406 139.453125 164.753906 139.535156 C 166.402344 139.605469 166.851562 139.78125 166.609375 137.761719 C 166.398438 136.046875 166.054688 135.488281 165.421875 133.917969 C 162.832031 127.488281 164.304688 131.335938 163.390625 126.300781 C 162.949219 123.871094 163.242188 121.535156 162.203125 119.023438 C 161.308594 116.863281 160.65625 110.890625 160.359375 108.09375 C 160.296875 107.480469 160.355469 106.886719 160.285156 106.332031 C 159.933594 103.566406 158.796875 104.652344 160.78125 98.078125 C 161.347656 96.199219 162.925781 93.179688 161.425781 91.980469 Z M 161.425781 91.980469" fill-rule="evenodd"/><path fill="#FFF" d="M 53.132812 111.386719 C 55.050781 114.015625 58.46875 116.695312 60.558594 120.425781 C 61.714844 122.492188 62.074219 123.632812 64.140625 125.078125 C 66.453125 126.699219 64.4375 125.128906 68.777344 123.378906 C 71.597656 122.246094 72.117188 122.667969 73.125 119.683594 C 73.5 118.578125 71.816406 114.742188 70.53125 114.125 C 63 110.527344 64.828125 114.761719 56.773438 106.976562 C 53.765625 104.070312 51.632812 102.25 49.144531 98.46875 C 48.257812 97.125 46.566406 95.257812 44.929688 94.863281 C 44.644531 94.792969 39.796875 96.03125 41.558594 98.726562 C 41.890625 99.234375 43.128906 99.871094 43.695312 100.628906 L 47.289062 105.105469 C 47.859375 105.769531 48.660156 106.382812 49.289062 107.019531 C 50.738281 108.496094 51.910156 109.707031 53.132812 111.386719 Z M 53.132812 111.386719" fill-rule="evenodd"/><path fill="#FFF" d="M 97.761719 94.347656 C 97.1875 90.980469 92.425781 88.464844 91.507812 86.511719 C 88.960938 81.09375 87.660156 78.058594 85.46875 72.523438 L 84.1875 68.328125 C 84.082031 67.898438 84.113281 67.519531 84.007812 67.105469 C 83.71875 65.957031 83.164062 65.648438 82.664062 64.648438 C 81.332031 61.992188 80.820312 64.558594 78.1875 64.003906 C 77.152344 63.785156 76.707031 63.671875 76.140625 64.71875 C 73.71875 69.207031 74.628906 67.898438 76.648438 70.851562 C 77.25 71.726562 77.484375 72.230469 77.996094 73.144531 C 78.503906 74.046875 78.980469 74.605469 79.484375 75.429688 C 79.789062 75.929688 79.839844 76.257812 80.109375 76.71875 L 85.109375 84.980469 C 85.621094 86.261719 87.203125 89.707031 87.402344 90.800781 C 87.640625 92.101562 87.207031 91.609375 87.902344 93.289062 C 89.347656 96.78125 89.015625 97.335938 90.800781 97.652344 C 91.878906 97.839844 92.304688 97.863281 92.980469 96.980469 C 94.84375 94.554688 96.042969 95.621094 97.761719 94.347656 Z M 97.761719 94.347656" fill-rule="evenodd"/><path fill="#FFF" d="M 109.753906 62.261719 C 109.578125 61.449219 110.035156 61.289062 110.355469 59.550781 L 110.640625 59.65625 C 110.246094 60.222656 110.332031 60.386719 110.175781 61.027344 C 109.984375 61.808594 109.886719 61.625 109.753906 62.261719 Z M 120.660156 86.457031 C 120.964844 85.105469 121.160156 84.707031 122.082031 83.585938 C 123.441406 81.9375 124.167969 82.234375 125.511719 81.246094 C 125.214844 79.621094 124.203125 79.132812 122.59375 77.03125 C 122.042969 76.308594 121.648438 75.507812 121.011719 74.957031 C 120.335938 74.371094 119.84375 73.671875 119.316406 72.996094 C 118.429688 71.859375 115.089844 64.148438 113.917969 62.757812 C 113.765625 63.28125 113.734375 63.988281 113.789062 64.566406 C 113.882812 65.507812 113.722656 65.601562 113.714844 66.433594 C 111.949219 63.203125 115.339844 63.089844 111.480469 56.753906 C 110.984375 55.9375 110.796875 52.042969 106.832031 53.609375 C 106.074219 53.90625 104.019531 54.914062 104.058594 55.621094 C 104.078125 56.011719 106.503906 62.222656 106.84375 63.058594 C 107.566406 64.828125 108.980469 66.488281 110.203125 69.480469 C 111.386719 72.367188 111.082031 70.980469 111.949219 72.53125 C 112.46875 73.457031 115.335938 80.996094 115.472656 81.816406 C 115.621094 82.726562 115.511719 82.613281 115.902344 83.582031 C 117.164062 86.703125 117.050781 88 120.660156 86.457031 Z M 120.660156 86.457031" fill-rule="evenodd"/><path fill="#FFF" d="M 60.675781 163.007812 C 60.941406 163.632812 63.132812 167.324219 63.496094 167.617188 C 65.832031 169.480469 68.425781 170.800781 70.964844 172.417969 C 72.390625 173.324219 73.335938 173.632812 74.800781 174.71875 C 76.863281 176.246094 81.578125 178.308594 82.3125 179.40625 C 83.214844 180.753906 83.46875 181.253906 86.867188 179.730469 C 86.183594 177.953125 84.738281 176.304688 84.433594 174.417969 C 83.804688 170.527344 85.132812 171.214844 84.1875 169.542969 C 83.503906 168.339844 77.8125 166.148438 76.292969 165.6875 C 74.816406 165.238281 73.050781 165.121094 71.890625 164.703125 C 67.347656 163.074219 70.027344 159.019531 62.582031 159.449219 C 61.652344 159.503906 61.492188 158.78125 60.363281 159.28125 C 57.675781 160.472656 60.058594 161.546875 60.675781 163.007812 Z M 60.675781 163.007812" fill-rule="evenodd"/><path fill="#FFF" d="M 114.300781 182.085938 C 111.867188 179.253906 111.089844 181.96875 108.765625 176.152344 C 107.640625 173.34375 108.191406 173.984375 105.679688 174.28125 C 103.960938 174.484375 103.515625 173.859375 101.921875 173.4375 C 100.378906 173.027344 99.714844 173.066406 98.210938 172.929688 C 96.445312 172.773438 92.652344 171.210938 91.070312 170.800781 C 89.449219 170.386719 88.261719 171.835938 88.808594 173.363281 C 89.328125 174.808594 90.851562 175.453125 90.726562 176.960938 C 90.457031 180.191406 88.890625 180.785156 94.648438 180.980469 C 95.933594 181.023438 97.175781 181.488281 98.441406 181.671875 L 104.265625 182.050781 C 105.171875 182.074219 105.535156 181.902344 106.378906 181.835938 C 107.773438 181.726562 108.792969 181.984375 110.316406 181.871094 C 111.46875 181.78125 113.378906 182.351562 114.300781 182.085938 Z M 114.300781 182.085938" fill-rule="evenodd"/><path fill="#FFF" d="M 158.777344 86.503906 C 159.5 85.601562 159.066406 84.144531 158.503906 83.234375 C 157.824219 82.140625 156.609375 82.289062 154.730469 77.09375 C 154.351562 76.046875 151.753906 66.6875 151.664062 66.132812 C 151.40625 64.550781 149.910156 59.957031 148.675781 58.996094 C 148.109375 58.550781 146.46875 58.265625 145.742188 58.289062 C 144.492188 58.328125 144.40625 59.617188 144.710938 60.628906 C 145.5 63.246094 147.105469 65.683594 147.730469 68.324219 C 147.878906 68.949219 147.871094 69.515625 147.988281 70.015625 L 149.667969 75.523438 C 150.109375 77.339844 150.105469 81.046875 150.875 82.101562 C 151.027344 81.628906 151.367188 81.261719 151.835938 81.664062 C 152.070312 81.859375 151.949219 82.632812 151.917969 82.933594 C 151.394531 87.96875 154.046875 84.25 156.160156 84.714844 C 157.597656 85.027344 157.78125 85.820312 158.777344 86.503906 Z M 158.777344 86.503906" fill-rule="evenodd"/><path fill="#FFF" d="M 37.5 94.539062 C 37.816406 94.320312 38.371094 93.351562 39.027344 92.859375 C 39.875 92.226562 41.164062 92.152344 41.484375 91.699219 C 41.90625 91.109375 39.855469 86.464844 39.398438 85.664062 C 38.535156 84.15625 37.324219 82.558594 36.375 80.964844 C 33.628906 76.332031 27.707031 78.683594 28.152344 80.792969 C 28.269531 81.347656 33.300781 89.816406 34.007812 90.703125 C 35.085938 92.054688 35.53125 94.144531 37.5 94.539062 Z M 37.5 94.539062" fill-rule="evenodd"/><path fill="#FFF" d="M 71.679688 62.746094 C 72.308594 62.621094 73.09375 61.8125 73.507812 61.273438 C 75.328125 58.871094 74.527344 61.792969 77.601562 58.339844 C 78.464844 57.367188 78.476562 57.117188 77.996094 55.871094 C 77.632812 54.933594 77.253906 53.890625 76.597656 53.230469 C 72.902344 49.511719 74.175781 47.734375 71.859375 45.878906 C 70.929688 45.996094 70.316406 46.460938 69.316406 46.617188 C 64.136719 47.433594 67.816406 51.707031 69.671875 57.992188 C 70.105469 59.46875 70.375 61.898438 71.679688 62.746094 Z M 71.679688 62.746094" fill-rule="evenodd"/><path fill="#FFF" d="M 59.683594 25.757812 C 58.515625 27.492188 60.777344 31.855469 61.789062 34.3125 C 62.917969 37.058594 62.515625 40.828125 64.015625 42.65625 C 65.414062 44.367188 67.453125 42.378906 68.546875 41.515625 C 69.617188 40.667969 71.386719 40.3125 70.191406 37.074219 C 68.898438 33.558594 66.972656 29.9375 63.96875 27.582031 C 63.261719 27.027344 60.472656 25.71875 59.683594 25.757812 Z M 59.683594 25.757812" fill-rule="evenodd"/><path fill="#FFF" d="M 63.789062 154.445312 C 63.636719 152.570312 62.046875 152.136719 60.683594 151.167969 C 59.15625 150.085938 58.625 149.800781 57.300781 148.460938 C 56.3125 147.460938 53.515625 144.308594 52.632812 142.988281 C 52.179688 142.308594 51.835938 141.488281 51.359375 140.835938 C 50.953125 140.285156 50.042969 139.285156 49.578125 140.226562 C 49.238281 140.914062 50.050781 142.300781 50.335938 142.992188 C 50.757812 144.027344 50.785156 144.628906 51.046875 145.585938 C 51.296875 146.496094 51.757812 147.34375 52.082031 148.230469 C 52.648438 149.777344 53.351562 153.09375 53.394531 153.207031 C 53.726562 154.003906 55.644531 156.574219 56.246094 157.164062 C 61.28125 155.933594 60.132812 155.214844 60.871094 154.972656 C 62.195312 154.953125 62.242188 155.558594 63.789062 154.445312 Z M 63.789062 154.445312" fill-rule="evenodd"/><path fill="#FFF" d="M 137.28125 39.195312 C 137.351562 40.210938 139.878906 45.796875 140.546875 47.5625 C 140.949219 48.628906 140.789062 49.167969 141.023438 50.074219 C 142.425781 55.492188 144.851562 54.558594 145.898438 54.847656 C 146.835938 55.109375 147.238281 55.09375 147.441406 54.019531 C 148.105469 50.507812 144.898438 44.226562 143.125 41.324219 C 141.828125 39.207031 139.835938 36.882812 137.28125 39.195312 Z M 137.28125 39.195312" fill-rule="evenodd"/><path fill="#FFF" d="M 104.113281 49.894531 C 104.300781 48.714844 104.375 48.792969 105.621094 48.367188 C 106.871094 47.945312 109.730469 46.175781 108.546875 43.699219 C 108.136719 42.839844 104.230469 38.394531 103.164062 37.179688 C 102.273438 37.414062 98.515625 39.070312 98.074219 39.691406 C 97.769531 40.789062 99.792969 44.699219 100.316406 45.996094 C 101.765625 49.570312 101.621094 50.769531 104.113281 49.894531 Z M 104.113281 49.894531" fill-rule="evenodd"/><path fill="#FFF" d="M 94.640625 33.71875 C 97.417969 33.921875 99.808594 31.949219 100.183594 30.039062 C 100.652344 27.648438 98.605469 25.078125 97.589844 23.988281 C 96.695312 23.035156 95.785156 21.988281 94.597656 21.125 C 93.824219 20.554688 93.226562 20.109375 92.507812 19.496094 C 91.691406 18.800781 91.371094 18.222656 90.324219 18.371094 C 90.589844 21.960938 91.183594 22.546875 92.722656 26.300781 C 93.726562 28.75 93.003906 31.433594 94.640625 33.71875 Z M 94.640625 33.71875" fill-rule="evenodd"/><path fill="#FFF" d="M 24.769531 59.742188 C 24.199219 60.648438 24.535156 60.652344 24.582031 61.742188 C 24.699219 64.644531 25.726562 69.855469 25.746094 70.414062 C 25.789062 71.582031 25.882812 71.558594 26.335938 72.675781 C 27.121094 74.605469 27.351562 75.359375 29.570312 74.941406 C 30.558594 74.753906 32.554688 74.375 31.8125 72.316406 C 31.539062 71.558594 31.195312 70.605469 30.769531 69.984375 C 30.210938 69.167969 30.066406 68.792969 29.585938 67.980469 C 28.898438 66.8125 27.824219 65.667969 27.042969 64.441406 C 26 62.796875 25.644531 61.300781 24.769531 59.742188 Z M 24.769531 59.742188" fill-rule="evenodd"/><path fill="#FFF" d="M 121.582031 180.261719 C 121.652344 179.988281 121.824219 180.019531 121.507812 179.289062 C 121.429688 179.101562 121.175781 178.628906 121.054688 178.359375 C 119.089844 174.050781 116.636719 177.4375 114.335938 173.210938 C 114.105469 172.785156 114.089844 170.710938 112.976562 169.417969 C 112.125 169.367188 111.375 169.839844 111.28125 170.769531 C 111.199219 171.589844 111.496094 172.316406 111.804688 173.074219 C 113.636719 177.546875 113.023438 176.53125 116.160156 178.121094 C 117.4375 178.765625 119.925781 180.515625 121.582031 180.261719 Z M 121.582031 180.261719" fill-rule="evenodd"/><path fill="#FFF" d="M 128.40625 27.546875 C 128.128906 28.109375 129.152344 28.417969 130.09375 29.484375 C 131.136719 30.65625 132.808594 34.824219 133.632812 35.53125 C 134.347656 36.148438 135.839844 35.980469 136.296875 35.140625 C 136.644531 34.503906 134.433594 29.339844 133.640625 28.597656 C 132.683594 27.699219 129.292969 25.765625 128.40625 27.546875 Z M 128.40625 27.546875" fill-rule="evenodd"/><path fill="#FFF" d="M 131.65625 97.105469 L 131.585938 96.503906 Z M 131.65625 97.105469" fill-rule="evenodd"/></svg>