<svg xmlns="http://www.w3.org/2000/svg" xmlns:xlink="http://www.w3.org/1999/xlink" width="150" viewBox="0 0 150 150" height="150" version="1.0"><defs><g id="a"><path d="M 45.453125 0 L 7 0 L 7 -64.765625 L 45.453125 -64.765625 L 45.453125 -50.71875 L 24.5 -50.71875 L 24.5 -40.53125 L 43.890625 -40.53125 L 43.890625 -26.484375 L 24.5 -26.484375 L 24.5 -14.265625 L 45.453125 -14.265625 Z M 45.453125 0"/></g><g id="b"><path d="M 24.5 -23.5625 L 24.5 0 L 7 0 L 7 -64.765625 L 28.21875 -64.765625 C 45.820312 -64.765625 54.625 -58.382812 54.625 -45.625 C 54.625 -38.125 50.957031 -32.320312 43.625 -28.21875 L 62.5 0 L 42.65625 0 L 28.921875 -23.5625 Z M 24.5 -36.71875 L 27.78125 -36.71875 C 33.882812 -36.71875 36.9375 -39.421875 36.9375 -44.828125 C 36.9375 -49.285156 33.941406 -51.515625 27.953125 -51.515625 L 24.5 -51.515625 Z M 24.5 -36.71875"/></g></defs><path fill="#FF1616" d="M 134.757812 143.683594 L 15.359375 143.683594 C 10.441406 143.683594 6.433594 139.675781 6.433594 134.757812 L 6.433594 15.359375 C 6.433594 10.441406 10.441406 6.433594 15.359375 6.433594 L 134.757812 6.433594 C 139.675781 6.433594 143.683594 10.441406 143.683594 15.359375 L 143.683594 134.757812 C 143.683594 139.675781 139.675781 143.683594 134.757812 143.683594 Z M 134.757812 143.683594"/><g fill="#FFF"><use x="19.401" y="109.741" xmlns:xlink="http://www.w3.org/1999/xlink" xlink:href="#a" xlink:type="simple" xlink:actuate="onLoad" xlink:show="embed"/></g><g fill="#FFF"><use x="69.188" y="109.741" xmlns:xlink="http://www.w3.org/1999/xlink" xlink:href="#b" xlink:type="simple" xlink:actuate="onLoad" xlink:show="embed"/></g></svg>