<svg xmlns="http://www.w3.org/2000/svg" width="150" viewBox="0 0 150 150" height="150" version="1.0"><defs><clipPath id="a"><path d="M 7.011719 7.011719 L 142.761719 7.011719 L 142.761719 142.761719 L 7.011719 142.761719 Z M 7.011719 7.011719"/></clipPath><clipPath id="b"><path d="M 72 125 L 81 125 L 81 142.761719 L 72 142.761719 Z M 72 125"/></clipPath><clipPath id="c"><path d="M 129 61 L 142.761719 61 L 142.761719 72 L 129 72 Z M 129 61"/></clipPath></defs><g clip-path="url(#a)"><path fill="#E4E4E2" d="M 74.886719 7.007812 C 112.371094 7.007812 142.761719 37.398438 142.761719 74.882812 C 142.761719 120.664062 112.371094 142.757812 74.886719 142.757812 C 34.78125 142.757812 7.011719 112.371094 7.011719 74.882812 C 7.011719 37.398438 44.933594 7.007812 74.886719 7.007812"/></g><path fill="#617957" d="M 62.042969 33.230469 C 77.75 33.230469 90.480469 48.398438 90.480469 61.664062 C 90.480469 77.371094 77.75 90.101562 62.042969 90.101562 C 49.550781 90.101562 33.609375 77.371094 33.609375 61.664062 C 33.609375 49.628906 46.339844 33.230469 62.042969 33.230469"/><path fill="#100F0D" d="M 62.042969 52.953125 C 66.855469 52.953125 70.757812 59.21875 70.757812 61.664062 C 70.757812 66.476562 68.621094 70.382812 62.042969 70.382812 C 57.230469 70.382812 53.332031 66.476562 53.332031 61.664062 C 53.332031 59.21875 57.230469 52.953125 62.042969 52.953125"/><path fill="#F3F5F1" d="M 70.683594 61.019531 C 70.152344 58.367188 66.730469 53.324219 62.511719 52.972656 C 63.09375 51.828125 64.398438 51.097656 67.328125 51.097656 C 70.246094 51.097656 72.613281 51.097656 72.613281 56.382812 C 72.613281 58.382812 72.371094 60.121094 70.683594 61.019531"/><path fill="#E7E7E5" d="M 67.328125 61.664062 C 64.410156 61.664062 62.042969 59.300781 62.042969 56.382812 C 62.042969 55.082031 62.042969 53.894531 62.511719 52.972656 C 66.730469 53.324219 70.152344 58.367188 70.683594 61.019531 C 69.910156 61.433594 68.828125 61.664062 67.328125 61.664062"/><path fill="#C11D2C" d="M 51.695312 138.851562 C 51.695312 138.851562 51.695312 138.761719 51.699219 138.597656 C 51.710938 138.433594 51.714844 138.191406 51.746094 137.886719 C 51.773438 137.582031 51.804688 137.210938 51.863281 136.792969 C 51.917969 136.371094 51.988281 135.898438 52.085938 135.386719 C 52.179688 134.875 52.300781 134.320312 52.441406 133.738281 C 52.589844 133.160156 52.753906 132.550781 52.960938 131.925781 C 53.164062 131.300781 53.394531 130.660156 53.671875 130.015625 C 53.800781 129.691406 53.964844 129.367188 54.121094 129.046875 C 54.28125 128.722656 54.476562 128.402344 54.65625 128.078125 C 54.761719 127.917969 54.875 127.761719 54.988281 127.601562 L 55.15625 127.363281 C 55.222656 127.285156 55.296875 127.207031 55.367188 127.128906 C 55.511719 126.972656 55.636719 126.816406 55.808594 126.671875 L 56.195312 126.34375 C 56.710938 125.910156 57.234375 125.496094 57.738281 125.101562 C 58.246094 124.707031 58.777344 124.347656 59.265625 124.007812 C 59.761719 123.671875 60.234375 123.359375 60.671875 123.082031 C 61.558594 122.539062 62.320312 122.117188 62.863281 121.839844 C 63.132812 121.695312 63.351562 121.597656 63.5 121.523438 C 63.652344 121.457031 63.730469 121.421875 63.730469 121.421875 C 63.730469 121.421875 63.675781 121.488281 63.574219 121.617188 C 63.46875 121.746094 63.320312 121.9375 63.117188 122.160156 C 62.917969 122.390625 62.679688 122.675781 62.394531 122.984375 C 62.113281 123.300781 61.785156 123.644531 61.425781 124.015625 C 61.070312 124.386719 60.6875 124.78125 60.273438 125.195312 C 59.859375 125.601562 59.417969 126.027344 58.960938 126.46875 C 58.503906 126.921875 58.027344 127.386719 57.535156 127.84375 L 57.164062 128.1875 C 57.082031 128.269531 56.996094 128.382812 56.910156 128.476562 C 56.867188 128.527344 56.824219 128.570312 56.78125 128.625 L 56.40625 129.175781 C 56.085938 129.707031 55.777344 130.273438 55.492188 130.855469 C 55.203125 131.433594 54.929688 132.019531 54.664062 132.589844 C 54.136719 133.742188 53.644531 134.820312 53.226562 135.746094 C 53.003906 136.214844 52.800781 136.636719 52.621094 137.019531 C 52.445312 137.398438 52.273438 137.726562 52.136719 137.996094 C 52.007812 138.273438 51.886719 138.480469 51.816406 138.625 C 51.734375 138.773438 51.695312 138.851562 51.695312 138.851562"/><g clip-path="url(#b)"><path fill="#C11D2C" d="M 72.613281 125.253906 C 72.980469 125.507812 73.324219 125.78125 73.667969 126.058594 C 74.007812 126.332031 74.335938 126.625 74.664062 126.914062 C 75.316406 127.492188 75.941406 128.09375 76.542969 128.710938 C 76.851562 129.019531 77.144531 129.335938 77.441406 129.648438 C 77.734375 129.96875 78.027344 130.285156 78.308594 130.609375 C 78.59375 130.933594 78.882812 131.253906 79.15625 131.585938 C 79.433594 131.917969 79.710938 132.246094 79.980469 132.585938 L 80.214844 132.878906 L 80.214844 133.214844 C 80.214844 133.449219 80.207031 133.640625 80.199219 133.84375 C 80.1875 134.046875 80.167969 134.25 80.152344 134.445312 C 80.117188 134.84375 80.058594 135.242188 79.996094 135.632812 C 79.929688 136.027344 79.84375 136.417969 79.75 136.808594 C 79.703125 137 79.644531 137.191406 79.589844 137.382812 C 79.535156 137.570312 79.480469 137.765625 79.414062 137.953125 C 79.34375 138.140625 79.28125 138.332031 79.207031 138.515625 C 79.132812 138.699219 79.054688 138.882812 78.976562 139.066406 C 78.90625 139.253906 78.808594 139.429688 78.722656 139.609375 C 78.632812 139.789062 78.546875 139.964844 78.441406 140.136719 C 78.339844 140.308594 78.238281 140.480469 78.132812 140.648438 C 78.023438 140.8125 77.90625 140.976562 77.789062 141.136719 C 77.671875 141.292969 77.554688 141.449219 77.417969 141.597656 C 77.28125 141.746094 77.15625 141.894531 77.015625 142.035156 C 77.0625 141.839844 77.109375 141.652344 77.15625 141.460938 C 77.210938 141.277344 77.261719 141.09375 77.296875 140.902344 C 77.339844 140.714844 77.382812 140.53125 77.425781 140.347656 L 77.535156 139.792969 C 77.578125 139.613281 77.605469 139.425781 77.640625 139.242188 C 77.667969 139.058594 77.707031 138.878906 77.730469 138.695312 C 77.785156 138.324219 77.847656 137.960938 77.886719 137.59375 C 77.933594 137.230469 77.96875 136.867188 78.003906 136.5 C 78.042969 136.136719 78.0625 135.769531 78.09375 135.40625 C 78.113281 135.042969 78.132812 134.675781 78.148438 134.316406 C 78.152344 134.136719 78.15625 133.953125 78.15625 133.773438 C 78.164062 133.597656 78.164062 133.410156 78.160156 133.261719 L 78.394531 133.890625 C 78.113281 133.5625 77.839844 133.230469 77.570312 132.890625 C 77.300781 132.558594 77.039062 132.210938 76.773438 131.871094 C 76.511719 131.535156 76.257812 131.183594 76 130.835938 C 75.75 130.484375 75.496094 130.136719 75.253906 129.777344 C 74.765625 129.0625 74.296875 128.332031 73.847656 127.582031 C 73.628906 127.207031 73.410156 126.828125 73.203125 126.441406 C 72.996094 126.054688 72.792969 125.664062 72.613281 125.253906"/></g><path fill="#C11D2C" d="M 96.011719 109.300781 C 96.132812 110.148438 96.203125 110.996094 96.277344 111.84375 C 96.34375 112.691406 96.394531 113.542969 96.425781 114.390625 C 96.492188 116.089844 96.5 117.792969 96.445312 119.496094 C 96.414062 120.34375 96.382812 121.199219 96.3125 122.050781 C 96.277344 122.476562 96.253906 122.902344 96.203125 123.328125 C 96.164062 123.753906 96.113281 124.183594 96.0625 124.609375 C 96.011719 125.039062 95.949219 125.464844 95.878906 125.894531 C 95.804688 126.324219 95.730469 126.753906 95.632812 127.183594 C 95.589844 127.398438 95.539062 127.617188 95.480469 127.832031 C 95.429688 128.050781 95.371094 128.265625 95.300781 128.488281 C 95.175781 128.921875 95.011719 129.371094 94.796875 129.824219 L 94.738281 128.835938 C 94.859375 129.011719 95.003906 129.207031 95.199219 129.394531 C 95.292969 129.488281 95.390625 129.585938 95.5 129.675781 C 95.605469 129.769531 95.714844 129.859375 95.832031 129.949219 C 96.058594 130.132812 96.300781 130.308594 96.554688 130.476562 C 96.800781 130.648438 97.066406 130.808594 97.324219 130.976562 C 97.847656 131.300781 98.398438 131.597656 98.949219 131.902344 C 99.503906 132.199219 100.070312 132.488281 100.640625 132.773438 C 101.210938 133.050781 101.78125 133.335938 102.363281 133.605469 L 104.105469 134.425781 L 107.625 136.054688 C 106.980469 135.96875 106.339844 135.847656 105.703125 135.714844 C 105.066406 135.589844 104.433594 135.441406 103.800781 135.28125 C 103.171875 135.121094 102.546875 134.941406 101.917969 134.757812 C 101.296875 134.5625 100.675781 134.371094 100.058594 134.148438 C 99.441406 133.929688 98.828125 133.691406 98.21875 133.4375 C 97.609375 133.183594 97.007812 132.894531 96.410156 132.589844 C 96.109375 132.4375 95.816406 132.273438 95.527344 132.09375 C 95.230469 131.917969 94.9375 131.734375 94.652344 131.523438 C 94.507812 131.425781 94.363281 131.316406 94.226562 131.203125 C 94.082031 131.09375 93.945312 130.964844 93.804688 130.839844 C 93.53125 130.585938 93.261719 130.28125 93.015625 129.925781 L 92.726562 129.507812 L 92.960938 128.9375 C 93.09375 128.625 93.230469 128.28125 93.332031 127.902344 C 93.441406 127.53125 93.53125 127.140625 93.617188 126.746094 C 93.707031 126.355469 93.78125 125.953125 93.851562 125.546875 L 94.058594 124.328125 C 94.183594 123.507812 94.296875 122.683594 94.410156 121.855469 C 94.511719 121.027344 94.621094 120.199219 94.71875 119.363281 L 95.320312 114.347656 C 95.417969 113.507812 95.527344 112.667969 95.640625 111.828125 C 95.757812 110.988281 95.871094 110.148438 96.011719 109.300781"/><path fill="#C11D2C" d="M 74.886719 113.679688 C 75.121094 113.695312 75.359375 113.71875 75.59375 113.734375 C 75.832031 113.757812 76.0625 113.789062 76.296875 113.8125 C 76.769531 113.863281 77.234375 113.925781 77.699219 113.988281 C 78.628906 114.125 79.550781 114.28125 80.472656 114.453125 C 81.390625 114.621094 82.304688 114.816406 83.21875 115.019531 C 84.128906 115.21875 85.035156 115.4375 85.9375 115.667969 L 86.261719 115.75 L 86.488281 116.046875 C 87.246094 117.046875 87.984375 118.0625 88.707031 119.085938 C 89.0625 119.601562 89.425781 120.113281 89.773438 120.636719 C 90.125 121.15625 90.464844 121.679688 90.808594 122.210938 C 91.148438 122.738281 91.484375 123.269531 91.808594 123.808594 C 92.136719 124.34375 92.457031 124.882812 92.773438 125.433594 C 93.089844 125.980469 93.390625 126.535156 93.6875 127.09375 C 93.976562 127.65625 94.269531 128.21875 94.53125 128.804688 C 94.058594 128.375 93.609375 127.921875 93.160156 127.472656 C 92.722656 127.019531 92.285156 126.5625 91.863281 126.09375 C 91.4375 125.628906 91.019531 125.15625 90.609375 124.683594 C 90.195312 124.207031 89.792969 123.722656 89.390625 123.242188 C 88.996094 122.753906 88.597656 122.265625 88.214844 121.773438 C 87.824219 121.28125 87.445312 120.78125 87.0625 120.28125 C 86.308594 119.28125 85.570312 118.269531 84.851562 117.238281 L 85.402344 117.617188 C 84.507812 117.355469 83.617188 117.082031 82.730469 116.789062 C 81.84375 116.5 80.960938 116.195312 80.082031 115.871094 C 79.207031 115.550781 78.332031 115.214844 77.460938 114.851562 C 77.03125 114.671875 76.597656 114.488281 76.167969 114.289062 C 75.953125 114.191406 75.738281 114.097656 75.523438 113.992188 C 75.3125 113.890625 75.097656 113.792969 74.886719 113.679688"/><path fill="#C11D2C" d="M 101.253906 106.945312 C 101.253906 106.945312 101.308594 106.988281 101.410156 107.074219 C 101.515625 107.152344 101.664062 107.273438 101.855469 107.425781 C 102.242188 107.722656 102.789062 108.132812 103.441406 108.582031 C 104.105469 109.035156 104.878906 109.53125 105.726562 109.996094 C 105.941406 110.109375 106.160156 110.226562 106.375 110.339844 C 106.597656 110.449219 106.824219 110.5625 107.050781 110.675781 C 107.511719 110.882812 107.972656 111.097656 108.453125 111.273438 C 108.921875 111.472656 109.410156 111.625 109.890625 111.785156 C 110.128906 111.867188 110.375 111.925781 110.609375 112 C 110.847656 112.074219 111.089844 112.125 111.324219 112.191406 C 111.796875 112.304688 112.253906 112.417969 112.695312 112.5 C 112.917969 112.550781 113.136719 112.589844 113.347656 112.625 C 113.558594 112.660156 113.761719 112.707031 113.964844 112.734375 C 114.359375 112.789062 114.730469 112.863281 115.058594 112.898438 C 115.386719 112.941406 115.675781 113.007812 115.917969 113.027344 C 116.160156 113.054688 116.355469 113.09375 116.484375 113.109375 C 116.617188 113.132812 116.6875 113.144531 116.6875 113.144531 C 116.6875 113.144531 116.621094 113.175781 116.5 113.226562 C 116.378906 113.273438 116.195312 113.359375 115.960938 113.4375 C 115.726562 113.527344 115.4375 113.609375 115.105469 113.699219 C 114.765625 113.796875 114.382812 113.855469 113.957031 113.929688 C 113.53125 113.984375 113.070312 114.046875 112.574219 114.050781 C 112.078125 114.070312 111.554688 114.050781 111.015625 114 C 110.472656 113.941406 109.914062 113.855469 109.359375 113.722656 C 108.800781 113.589844 108.242188 113.410156 107.699219 113.199219 C 107.152344 112.984375 106.625 112.730469 106.125 112.449219 C 105.625 112.164062 105.152344 111.855469 104.722656 111.519531 C 103.855469 110.863281 103.148438 110.125 102.617188 109.445312 C 102.359375 109.105469 102.132812 108.777344 101.957031 108.476562 C 101.773438 108.179688 101.640625 107.902344 101.535156 107.675781 C 101.421875 107.457031 101.359375 107.261719 101.3125 107.140625 C 101.269531 107.015625 101.253906 106.945312 101.253906 106.945312"/><path fill="#C11D2C" d="M 105.914062 90.136719 C 105.914062 90.136719 106.046875 90.234375 106.292969 90.417969 C 106.535156 90.609375 106.898438 90.882812 107.335938 91.246094 C 108.222656 91.972656 109.46875 93.042969 110.875 94.425781 C 111.578125 95.117188 112.324219 95.890625 113.082031 96.742188 C 113.832031 97.597656 114.597656 98.53125 115.3125 99.597656 C 115.671875 100.125 116.003906 100.699219 116.300781 101.339844 C 116.378906 101.492188 116.441406 101.664062 116.503906 101.839844 C 116.574219 102.003906 116.628906 102.195312 116.679688 102.386719 C 116.738281 102.566406 116.753906 102.792969 116.789062 103 L 116.839844 103.480469 C 116.964844 104.746094 117.09375 106.027344 117.242188 107.3125 C 117.382812 108.597656 117.542969 109.878906 117.695312 111.144531 C 117.859375 112.40625 118.015625 113.648438 118.191406 114.84375 C 118.363281 116.042969 118.542969 117.199219 118.722656 118.292969 C 118.816406 118.839844 118.914062 119.371094 119 119.882812 C 119.101562 120.394531 119.199219 120.886719 119.289062 121.363281 C 119.378906 121.839844 119.496094 122.28125 119.589844 122.71875 C 119.636719 122.933594 119.679688 123.144531 119.730469 123.347656 C 119.785156 123.546875 119.832031 123.742188 119.886719 123.933594 C 119.988281 124.308594 120.074219 124.671875 120.171875 124.996094 C 120.273438 125.320312 120.367188 125.621094 120.453125 125.890625 C 120.496094 126.027344 120.535156 126.152344 120.574219 126.273438 C 120.621094 126.394531 120.664062 126.5 120.703125 126.605469 C 120.785156 126.808594 120.851562 126.988281 120.90625 127.128906 C 121.015625 127.414062 121.074219 127.570312 121.074219 127.570312 C 121.074219 127.570312 120.980469 127.433594 120.804688 127.183594 C 120.71875 127.058594 120.609375 126.902344 120.476562 126.71875 C 120.414062 126.625 120.347656 126.523438 120.273438 126.417969 C 120.210938 126.304688 120.148438 126.1875 120.078125 126.058594 C 119.9375 125.804688 119.78125 125.523438 119.613281 125.21875 C 119.445312 124.910156 119.304688 124.5625 119.132812 124.199219 C 119.046875 124.011719 118.964844 123.824219 118.875 123.628906 C 118.792969 123.429688 118.71875 123.222656 118.632812 123.011719 C 118.476562 122.589844 118.292969 122.148438 118.136719 121.679688 C 117.980469 121.207031 117.820312 120.71875 117.652344 120.210938 C 117.507812 119.699219 117.355469 119.167969 117.203125 118.621094 C 116.910156 117.53125 116.632812 116.367188 116.382812 115.160156 C 116.132812 113.953125 115.90625 112.699219 115.710938 111.421875 C 115.503906 110.148438 115.339844 108.84375 115.1875 107.539062 C 115.046875 106.238281 114.921875 104.925781 114.839844 103.636719 L 114.808594 103.164062 C 114.785156 103.054688 114.792969 102.960938 114.753906 102.835938 C 114.730469 102.71875 114.707031 102.601562 114.660156 102.472656 C 114.621094 102.347656 114.582031 102.222656 114.523438 102.09375 C 114.316406 101.582031 114.050781 101.066406 113.761719 100.558594 C 113.171875 99.558594 112.515625 98.601562 111.867188 97.710938 C 111.222656 96.816406 110.582031 95.984375 109.988281 95.21875 C 108.789062 93.6875 107.761719 92.425781 107.046875 91.535156 C 106.328125 90.644531 105.914062 90.136719 105.914062 90.136719"/><path fill="#C11D2C" d="M 110.578125 84.371094 C 110.578125 84.371094 110.398438 84.472656 110.078125 84.613281 C 109.761719 84.75 109.304688 84.925781 108.753906 85.089844 C 108.207031 85.257812 107.558594 85.414062 106.867188 85.535156 C 106.523438 85.597656 106.160156 85.644531 105.796875 85.695312 C 105.433594 85.75 105.066406 85.78125 104.695312 85.816406 C 104.328125 85.84375 103.957031 85.871094 103.589844 85.878906 C 103.226562 85.894531 102.863281 85.886719 102.515625 85.878906 C 101.816406 85.863281 101.15625 85.800781 100.585938 85.722656 C 100.019531 85.636719 99.539062 85.535156 99.199219 85.441406 C 98.863281 85.351562 98.667969 85.28125 98.667969 85.28125 C 98.667969 85.28125 98.84375 85.171875 99.15625 85.027344 C 99.46875 84.882812 99.921875 84.703125 100.46875 84.53125 C 101.019531 84.351562 101.660156 84.1875 102.351562 84.054688 C 102.703125 83.988281 103.0625 83.921875 103.429688 83.878906 C 103.792969 83.824219 104.167969 83.792969 104.546875 83.753906 C 104.921875 83.730469 105.292969 83.703125 105.664062 83.695312 C 105.847656 83.6875 106.03125 83.691406 106.210938 83.691406 C 106.390625 83.695312 106.570312 83.699219 106.746094 83.707031 C 107.449219 83.738281 108.109375 83.808594 108.675781 83.898438 C 109.242188 83.992188 109.71875 84.105469 110.050781 84.203125 C 110.386719 84.300781 110.578125 84.371094 110.578125 84.371094"/><path fill="#C11D2C" d="M 113.496094 84.421875 C 113.707031 84.578125 113.914062 84.730469 114.132812 84.863281 C 114.347656 85.003906 114.570312 85.128906 114.789062 85.253906 C 115.019531 85.367188 115.238281 85.492188 115.46875 85.59375 C 115.699219 85.699219 115.925781 85.804688 116.160156 85.890625 C 116.390625 85.984375 116.621094 86.078125 116.859375 86.148438 C 117.09375 86.226562 117.324219 86.3125 117.566406 86.363281 C 117.808594 86.421875 118.039062 86.496094 118.277344 86.542969 L 118.996094 86.675781 C 119.238281 86.714844 119.480469 86.734375 119.722656 86.765625 L 120.082031 86.808594 L 120.445312 86.820312 C 120.6875 86.832031 120.925781 86.847656 121.167969 86.847656 L 121.894531 86.828125 L 122.257812 86.816406 L 122.617188 86.773438 L 123.335938 86.703125 C 123.582031 86.683594 123.816406 86.621094 124.054688 86.582031 L 124.773438 86.457031 L 125.015625 86.417969 L 125.21875 86.472656 L 126.332031 86.785156 C 126.707031 86.890625 127.054688 87.039062 127.414062 87.160156 L 127.957031 87.355469 L 128.476562 87.585938 C 128.824219 87.738281 129.175781 87.875 129.515625 88.042969 L 130.527344 88.546875 C 130.863281 88.714844 131.1875 88.902344 131.515625 89.085938 C 131.84375 89.265625 132.167969 89.453125 132.484375 89.648438 C 132.804688 89.847656 133.125 90.035156 133.4375 90.242188 C 133.75 90.445312 134.058594 90.652344 134.367188 90.859375 C 134.671875 91.070312 134.976562 91.289062 135.277344 91.507812 C 135.582031 91.722656 135.878906 91.949219 136.171875 92.175781 C 136.46875 92.402344 136.757812 92.628906 137.046875 92.867188 C 137.625 93.332031 138.183594 93.820312 138.734375 94.324219 C 139.277344 94.832031 139.8125 95.34375 140.3125 95.902344 C 139.648438 95.5625 139 95.207031 138.347656 94.863281 L 136.410156 93.820312 L 134.480469 92.785156 L 133.515625 92.277344 C 133.195312 92.109375 132.867188 91.949219 132.550781 91.777344 C 132.230469 91.605469 131.902344 91.453125 131.582031 91.289062 C 131.261719 91.125 130.9375 90.960938 130.613281 90.808594 C 130.285156 90.660156 129.964844 90.496094 129.640625 90.34375 L 128.664062 89.902344 C 128.339844 89.75 128.007812 89.625 127.679688 89.484375 L 127.191406 89.28125 L 126.695312 89.09375 C 126.367188 88.980469 126.039062 88.832031 125.703125 88.738281 L 124.707031 88.421875 L 125.15625 88.433594 L 124.34375 88.542969 C 124.070312 88.566406 123.800781 88.613281 123.53125 88.625 L 122.707031 88.652344 L 122.296875 88.664062 L 121.886719 88.640625 L 121.070312 88.585938 C 120.796875 88.554688 120.523438 88.503906 120.257812 88.460938 L 119.851562 88.394531 C 119.714844 88.367188 119.585938 88.328125 119.449219 88.292969 C 119.1875 88.222656 118.921875 88.160156 118.65625 88.082031 L 117.890625 87.800781 C 117.636719 87.707031 117.390625 87.585938 117.144531 87.472656 C 116.898438 87.363281 116.664062 87.222656 116.425781 87.089844 C 116.191406 86.960938 115.964844 86.808594 115.746094 86.65625 C 115.519531 86.511719 115.3125 86.339844 115.101562 86.175781 C 114.886719 86.011719 114.703125 85.816406 114.507812 85.640625 C 114.320312 85.449219 114.125 85.269531 113.964844 85.058594 C 113.792969 84.855469 113.632812 84.640625 113.496094 84.421875"/><g clip-path="url(#c)"><path fill="#C11D2C" d="M 129.84375 61.664062 C 129.84375 61.664062 129.882812 61.722656 129.964844 61.820312 C 130.035156 61.921875 130.160156 62.0625 130.296875 62.246094 C 130.441406 62.421875 130.621094 62.636719 130.824219 62.875 C 130.929688 62.996094 131.035156 63.121094 131.144531 63.253906 C 131.265625 63.386719 131.386719 63.519531 131.515625 63.664062 C 131.578125 63.734375 131.640625 63.804688 131.703125 63.878906 C 131.773438 63.949219 131.84375 64.019531 131.914062 64.09375 C 132.054688 64.242188 132.195312 64.390625 132.339844 64.550781 C 132.65625 64.84375 132.949219 65.179688 133.296875 65.484375 C 133.472656 65.636719 133.636719 65.796875 133.808594 65.960938 C 133.992188 66.113281 134.175781 66.265625 134.355469 66.425781 C 134.53125 66.585938 134.71875 66.742188 134.914062 66.886719 C 135.101562 67.035156 135.292969 67.183594 135.484375 67.335938 C 135.667969 67.496094 135.878906 67.621094 136.074219 67.761719 C 136.273438 67.902344 136.46875 68.050781 136.660156 68.191406 C 137.070312 68.449219 137.472656 68.699219 137.855469 68.960938 C 138.253906 69.191406 138.648438 69.414062 139.015625 69.640625 C 139.195312 69.761719 139.382812 69.855469 139.5625 69.949219 C 139.742188 70.042969 139.921875 70.136719 140.085938 70.226562 C 140.421875 70.410156 140.726562 70.605469 141.015625 70.734375 C 141.296875 70.871094 141.542969 71.007812 141.75 71.117188 C 141.953125 71.222656 142.113281 71.328125 142.226562 71.386719 C 142.335938 71.457031 142.394531 71.492188 142.394531 71.492188 C 142.394531 71.492188 142.324219 71.496094 142.199219 71.503906 C 142.070312 71.507812 141.886719 71.519531 141.652344 71.519531 C 141.414062 71.515625 141.125 71.519531 140.796875 71.503906 C 140.460938 71.5 140.101562 71.429688 139.699219 71.363281 C 139.5 71.328125 139.292969 71.285156 139.074219 71.246094 C 138.855469 71.207031 138.636719 71.15625 138.414062 71.078125 C 137.972656 70.9375 137.5 70.785156 137.019531 70.597656 C 136.785156 70.492188 136.550781 70.375 136.3125 70.257812 C 136.078125 70.140625 135.832031 70.03125 135.597656 69.890625 C 135.140625 69.601562 134.671875 69.3125 134.230469 68.980469 C 133.8125 68.621094 133.363281 68.296875 132.992188 67.894531 C 132.800781 67.703125 132.613281 67.511719 132.433594 67.316406 C 132.261719 67.113281 132.09375 66.910156 131.9375 66.707031 C 131.777344 66.503906 131.621094 66.308594 131.492188 66.089844 C 131.355469 65.882812 131.21875 65.683594 131.097656 65.484375 C 130.878906 65.066406 130.65625 64.683594 130.503906 64.296875 C 130.429688 64.109375 130.347656 63.929688 130.285156 63.753906 C 130.226562 63.574219 130.167969 63.410156 130.121094 63.25 C 130.023438 62.933594 129.96875 62.644531 129.921875 62.414062 C 129.835938 61.941406 129.84375 61.664062 129.84375 61.664062"/></g><path fill="#C11D2C" d="M 112.257812 68.355469 C 112.644531 68.3125 113.027344 68.28125 113.410156 68.257812 C 113.792969 68.238281 114.175781 68.21875 114.558594 68.210938 C 115.324219 68.195312 116.085938 68.191406 116.851562 68.214844 C 117.613281 68.234375 118.371094 68.269531 119.128906 68.324219 C 119.894531 68.378906 120.652344 68.441406 121.410156 68.527344 C 121.785156 68.570312 122.164062 68.617188 122.542969 68.671875 C 122.921875 68.722656 123.300781 68.769531 123.675781 68.835938 C 124.433594 68.957031 125.1875 69.089844 125.945312 69.257812 C 126.695312 69.421875 127.449219 69.609375 128.210938 69.859375 C 128.59375 69.984375 128.976562 70.113281 129.375 70.308594 C 129.574219 70.402344 129.777344 70.507812 130.007812 70.671875 C 130.066406 70.707031 130.125 70.757812 130.191406 70.8125 C 130.25 70.855469 130.328125 70.9375 130.394531 71.011719 C 130.421875 71.042969 130.46875 71.109375 130.503906 71.160156 C 130.539062 71.21875 130.574219 71.265625 130.609375 71.355469 C 130.640625 71.441406 130.671875 71.515625 130.6875 71.617188 C 130.703125 71.71875 130.707031 71.824219 130.699219 71.925781 L 129.246094 71.230469 L 129.632812 70.929688 C 129.761719 70.824219 129.898438 70.746094 130.03125 70.65625 C 130.167969 70.570312 130.300781 70.476562 130.441406 70.40625 L 130.859375 70.1875 C 131.140625 70.054688 131.425781 69.925781 131.714844 69.824219 C 131.859375 69.773438 131.996094 69.714844 132.144531 69.671875 L 132.582031 69.539062 C 132.871094 69.460938 133.164062 69.386719 133.460938 69.324219 C 133.605469 69.292969 133.75 69.265625 133.898438 69.246094 C 134.046875 69.222656 134.191406 69.191406 134.34375 69.179688 C 134.933594 69.109375 135.523438 69.058594 136.117188 69.089844 C 135.84375 69.203125 135.574219 69.3125 135.308594 69.429688 C 135.039062 69.542969 134.773438 69.660156 134.515625 69.785156 C 134.253906 69.90625 133.996094 70.027344 133.742188 70.160156 C 133.488281 70.28125 133.242188 70.421875 132.996094 70.550781 C 132.753906 70.695312 132.511719 70.828125 132.28125 70.980469 C 132.042969 71.121094 131.824219 71.289062 131.605469 71.4375 L 131.289062 71.679688 C 131.179688 71.757812 131.085938 71.851562 130.988281 71.9375 C 130.890625 72.019531 130.789062 72.101562 130.703125 72.199219 L 130.441406 72.46875 L 128.988281 71.773438 C 128.976562 71.824219 128.976562 71.886719 128.988281 71.945312 C 129 71.992188 129.003906 72.027344 129.023438 72.066406 L 129.058594 72.140625 L 129.082031 72.179688 C 129.09375 72.199219 129.074219 72.183594 129.027344 72.164062 C 128.9375 72.117188 128.804688 72.058594 128.65625 72.011719 C 128.355469 71.910156 128.015625 71.8125 127.667969 71.726562 C 126.976562 71.554688 126.253906 71.410156 125.527344 71.265625 L 121.117188 70.441406 C 120.378906 70.300781 119.640625 70.152344 118.902344 70.003906 C 118.164062 69.847656 117.421875 69.695312 116.683594 69.523438 C 115.945312 69.359375 115.207031 69.179688 114.46875 68.988281 C 114.097656 68.894531 113.734375 68.789062 113.363281 68.683594 C 112.996094 68.585938 112.625 68.472656 112.257812 68.355469"/><path fill="#C11D2C" d="M 116.691406 49.425781 C 117.109375 49.214844 117.539062 49.03125 117.964844 48.847656 C 118.390625 48.664062 118.824219 48.496094 119.253906 48.332031 C 119.6875 48.171875 120.117188 48.011719 120.550781 47.863281 C 120.984375 47.710938 121.421875 47.570312 121.859375 47.425781 C 122.734375 47.152344 123.613281 46.882812 124.496094 46.644531 C 124.9375 46.519531 125.378906 46.40625 125.824219 46.292969 C 126.265625 46.175781 126.710938 46.074219 127.15625 45.964844 L 127.480469 45.890625 L 127.8125 46.03125 C 128.257812 46.222656 128.707031 46.429688 129.15625 46.628906 C 129.605469 46.824219 130.050781 47.042969 130.5 47.242188 C 131.390625 47.660156 132.28125 48.082031 133.164062 48.519531 L 134.488281 49.175781 L 137.128906 50.519531 C 137.351562 50.636719 137.570312 50.738281 137.800781 50.839844 C 138.023438 50.960938 138.253906 51.03125 138.492188 51.140625 C 138.242188 51.15625 137.976562 51.175781 137.726562 51.15625 C 137.472656 51.140625 137.210938 51.121094 136.964844 51.089844 C 136.453125 51.03125 135.957031 50.933594 135.460938 50.835938 C 134.96875 50.726562 134.476562 50.613281 133.992188 50.484375 C 133.507812 50.351562 133.023438 50.210938 132.550781 50.0625 C 132.070312 49.914062 131.59375 49.753906 131.125 49.589844 C 130.890625 49.507812 130.65625 49.417969 130.421875 49.335938 C 130.1875 49.246094 129.953125 49.164062 129.722656 49.070312 C 129.261719 48.886719 128.792969 48.707031 128.335938 48.507812 C 127.878906 48.3125 127.421875 48.121094 126.960938 47.90625 L 127.617188 47.972656 C 127.167969 48.074219 126.722656 48.171875 126.277344 48.257812 C 125.828125 48.351562 125.378906 48.441406 124.925781 48.523438 C 124.027344 48.691406 123.121094 48.835938 122.214844 48.96875 C 121.761719 49.03125 121.304688 49.09375 120.847656 49.144531 C 120.390625 49.199219 119.929688 49.246094 119.472656 49.285156 C 119.011719 49.324219 118.550781 49.363281 118.089844 49.382812 C 117.625 49.410156 117.160156 49.429688 116.691406 49.425781"/></svg>