<svg xmlns="http://www.w3.org/2000/svg" width="375" viewBox="0 0 375 375" height="375" version="1.0"><defs><clipPath id="a"><path d="M 20 15.128906 L 337 15.128906 L 337 360.128906 L 20 360.128906 Z M 20 15.128906"/></clipPath></defs><g clip-path="url(#a)"><path fill="#FFF" d="M 56.0625 64.339844 C 56.835938 50.183594 59.914062 47.308594 62.261719 34.246094 C 64.238281 23.222656 58.597656 17.464844 43.382812 17.625 C 29.753906 17.765625 24.167969 29.273438 27.390625 38.335938 C 30.882812 48.144531 35.601562 46.820312 34.839844 63.800781 C 29.671875 115.429688 32.875 171.574219 35.320312 199.457031 C 36.15625 216.382812 31.230469 215.554688 27.78125 225.613281 C 24.59375 234.914062 30.230469 246.007812 43.855469 245.160156 C 59.066406 244.214844 64.683594 238.046875 62.65625 227.171875 C 60.253906 214.28125 57.421875 211.773438 56.59375 197.675781 C 54.242188 170.738281 50.996094 114.457031 56.0625 64.339844 Z M 105.273438 35.507812 C 108.464844 26.207031 102.828125 15.109375 89.203125 15.957031 C 73.988281 16.90625 68.375 23.074219 70.402344 33.945312 C 72.800781 46.839844 76.238281 49.464844 77.070312 63.5625 C 82.347656 113.335938 79.332031 169.820312 77.09375 196.917969 C 76.320312 211.074219 73.144531 213.8125 70.796875 226.875 C 68.816406 237.898438 74.457031 243.652344 89.671875 243.496094 C 103.296875 243.355469 108.886719 231.847656 105.660156 222.78125 C 102.171875 212.976562 97.25 214.160156 98.015625 197.179688 C 100.347656 169.121094 103.320312 112.753906 97.9375 61.507812 C 97.101562 44.585938 101.828125 45.566406 105.273438 35.507812 Z M 335.832031 351.378906 C 335.980469 350.671875 336.054688 349.964844 336.0625 349.246094 C 336.066406 348.527344 336.003906 347.816406 335.867188 347.109375 C 335.734375 346.402344 335.53125 345.71875 335.265625 345.050781 C 334.996094 344.386719 334.664062 343.753906 334.269531 343.152344 C 333.878906 342.550781 333.429688 341.996094 332.925781 341.484375 C 332.425781 340.972656 331.878906 340.511719 331.285156 340.109375 C 330.691406 339.703125 330.066406 339.363281 329.40625 339.082031 C 328.746094 338.800781 328.066406 338.585938 327.363281 338.441406 L 304.453125 333.660156 C 303.75 333.515625 303.039062 333.441406 302.324219 333.433594 C 301.605469 333.425781 300.894531 333.492188 300.191406 333.625 C 299.484375 333.757812 298.800781 333.960938 298.136719 334.230469 C 297.472656 334.5 296.839844 334.832031 296.238281 335.226562 C 295.640625 335.621094 295.085938 336.066406 294.574219 336.570312 C 294.0625 337.074219 293.605469 337.625 293.203125 338.21875 C 292.796875 338.8125 292.457031 339.4375 292.175781 340.101562 C 291.894531 340.761719 291.683594 341.445312 291.539062 342.148438 C 291.390625 342.851562 291.316406 343.5625 291.308594 344.28125 C 291.304688 345 291.367188 345.710938 291.5 346.417969 C 291.636719 347.121094 291.835938 347.808594 292.105469 348.472656 C 292.375 349.140625 292.703125 349.773438 293.097656 350.375 C 293.492188 350.976562 293.9375 351.53125 294.441406 352.042969 C 294.945312 352.554688 295.492188 353.015625 296.085938 353.417969 C 296.675781 353.824219 297.304688 354.164062 297.964844 354.445312 C 298.625 354.726562 299.304688 354.941406 300.007812 355.085938 L 322.917969 359.863281 C 323.652344 360.015625 324.398438 360.089844 325.152344 360.09375 C 325.773438 360.09375 326.390625 360.039062 327.003906 359.933594 C 327.617188 359.824219 328.21875 359.667969 328.804688 359.457031 C 329.390625 359.25 329.957031 358.992188 330.5 358.683594 C 331.042969 358.378906 331.554688 358.027344 332.035156 357.636719 C 332.519531 357.242188 332.964844 356.808594 333.375 356.339844 C 333.785156 355.867188 334.148438 355.367188 334.472656 354.832031 C 334.796875 354.300781 335.074219 353.742188 335.300781 353.164062 C 335.53125 352.582031 335.707031 351.988281 335.832031 351.378906 Z M 210.652344 316.269531 C 210.476562 316.742188 210.332031 317.226562 210.210938 317.71875 C 210.089844 318.210938 209.996094 318.703125 209.929688 319.207031 C 209.859375 319.707031 209.820312 320.210938 209.804688 320.714844 C 209.792969 321.222656 209.804688 321.726562 209.84375 322.230469 C 209.882812 322.734375 209.949219 323.234375 210.042969 323.730469 C 210.136719 324.226562 210.257812 324.71875 210.402344 325.203125 C 210.546875 325.6875 210.71875 326.160156 210.914062 326.628906 C 211.109375 327.09375 211.332031 327.546875 211.574219 327.988281 C 211.820312 328.433594 212.085938 328.859375 212.378906 329.273438 C 212.667969 329.6875 212.980469 330.085938 213.3125 330.464844 C 213.644531 330.84375 213.996094 331.207031 214.367188 331.546875 C 214.738281 331.890625 215.128906 332.210938 215.535156 332.511719 C 215.9375 332.816406 216.359375 333.09375 216.792969 333.347656 C 217.230469 333.605469 217.675781 333.835938 218.136719 334.042969 C 218.597656 334.253906 219.066406 334.433594 219.546875 334.59375 C 220.027344 334.75 220.511719 334.882812 221.007812 334.988281 L 267.71875 345.148438 C 268.390625 345.402344 269.082031 345.589844 269.792969 345.703125 C 270.503906 345.820312 271.214844 345.867188 271.933594 345.839844 C 272.65625 345.816406 273.363281 345.71875 274.0625 345.554688 C 274.765625 345.386719 275.441406 345.15625 276.09375 344.855469 C 276.75 344.554688 277.367188 344.195312 277.949219 343.773438 C 278.535156 343.351562 279.070312 342.875 279.558594 342.347656 C 280.046875 341.820312 280.480469 341.246094 280.855469 340.632812 C 281.234375 340.019531 281.546875 339.375 281.796875 338.699219 C 282.042969 338.023438 282.226562 337.328125 282.335938 336.617188 C 282.449219 335.902344 282.492188 335.1875 282.464844 334.46875 C 282.433594 333.746094 282.335938 333.039062 282.164062 332.335938 C 281.996094 331.636719 281.761719 330.960938 281.457031 330.304688 C 281.15625 329.652344 280.792969 329.035156 280.367188 328.453125 C 279.941406 327.871094 279.464844 327.335938 278.9375 326.847656 C 278.40625 326.363281 277.832031 325.929688 277.21875 325.558594 C 276.605469 325.183594 275.957031 324.871094 275.28125 324.625 L 233.753906 301.066406 C 228.59375 298.425781 222.121094 299.054688 218.066406 303.203125 C 214.839844 306.503906 212.507812 311.226562 210.652344 316.269531 Z M 143.574219 320.699219 L 178.210938 326.285156 C 179.160156 326.484375 180.121094 326.59375 181.089844 326.609375 C 182.058594 326.625 183.023438 326.550781 183.976562 326.382812 C 184.933594 326.214844 185.863281 325.960938 186.769531 325.617188 C 187.679688 325.273438 188.542969 324.847656 189.371094 324.339844 C 190.195312 323.828125 190.96875 323.246094 191.683594 322.59375 C 192.398438 321.9375 193.046875 321.21875 193.628906 320.441406 C 194.207031 319.664062 194.710938 318.835938 195.132812 317.960938 C 195.558594 317.085938 195.894531 316.179688 196.144531 315.242188 C 197.425781 310.460938 198.761719 305.710938 200.46875 301.15625 C 200.773438 300.339844 201 299.5 201.144531 298.640625 C 201.292969 297.777344 201.359375 296.914062 201.347656 296.039062 C 201.332031 295.167969 201.238281 294.304688 201.0625 293.449219 C 200.890625 292.59375 200.636719 291.761719 200.308594 290.953125 C 199.980469 290.144531 199.578125 289.375 199.105469 288.640625 C 198.632812 287.90625 198.097656 287.222656 197.496094 286.589844 C 196.894531 285.957031 196.242188 285.386719 195.535156 284.875 C 194.832031 284.363281 194.082031 283.921875 193.292969 283.550781 L 167.324219 264.226562 C 149.050781 252.90625 132.734375 275.464844 129.882812 284.746094 C 123.261719 306.300781 137.917969 318.605469 143.574219 320.699219 Z M 44.171875 341.023438 C 46.238281 341.136719 48.277344 340.953125 50.292969 340.484375 C 52.308594 340.011719 54.21875 339.265625 56.019531 338.25 L 68.867188 329.917969 C 79.382812 324.003906 79.4375 311.753906 73.535156 301.21875 C 67.628906 290.683594 58.109375 284.003906 47.582031 289.925781 L 31.074219 294.148438 C 20.554688 300.066406 16.96875 319.945312 22.871094 330.484375 C 26.671875 337.261719 36.953125 340.632812 44.171875 341.023438 Z M 125.167969 248.332031 C 124.222656 247.507812 122.582031 246.972656 120.679688 246.671875 C 115.367188 245.828125 109.996094 247.324219 105.46875 250.234375 C 99.941406 253.789062 89.351562 259.242188 75.984375 259.5625 C 65.019531 259.824219 43.027344 255.488281 36.601562 255.757812 C 32.128906 255.945312 28.867188 260.023438 27.722656 264.359375 C 26.140625 270.371094 27.613281 275.691406 34.703125 278.578125 C 49.875 284.753906 73.777344 261.300781 89.746094 304.722656 C 93.070312 313.753906 96.550781 316.390625 102.703125 316.570312 C 107.011719 316.699219 112.996094 313.28125 112.996094 307.574219 C 112.996094 297.179688 112.980469 279.632812 126.21875 263.125 C 129.808594 258.640625 129.496094 252.109375 125.167969 248.332031 Z M 125.167969 248.332031"/></g></svg>