<?xml version="1.0" encoding="UTF-8"?><svg xmlns="http://www.w3.org/2000/svg" xmlns:xlink="http://www.w3.org/1999/xlink" contentScriptType="text/ecmascript" width="375" zoomAndPan="magnify" contentStyleType="text/css" viewBox="0 0 375 374.999991" height="374.999991" preserveAspectRatio="xMidYMid meet" version="1.0"><defs><clipPath id="clip-0"><path d="M 11.679688 11.898438 L 363.429688 11.898438 L 363.429688 362.898438 L 11.679688 362.898438 Z M 11.679688 11.898438 " clip-rule="nonzero"/></clipPath><clipPath id="clip-1"><path d="M 27 27.105469 L 313.589844 27.105469 L 313.589844 295.824219 L 27 295.824219 Z M 27 27.105469 " clip-rule="nonzero"/></clipPath><clipPath id="clip-2"><path d="M 345.539062 313.03125 C 345.539062 330.773438 331.144531 345.15625 313.386719 345.15625 L 59.738281 345.15625 C 41.980469 345.15625 27.585938 330.773438 27.585938 313.03125 L 27.585938 59.605469 C 27.585938 41.867188 41.980469 27.484375 59.738281 27.484375 L 313.386719 27.484375 C 331.144531 27.484375 345.539062 41.867188 345.539062 59.605469 L 345.539062 313.03125 " clip-rule="nonzero"/></clipPath><clipPath id="clip-3"><path d="M 28 28.148438 L 345.90625 28.148438 L 345.90625 345.816406 L 28 345.816406 Z M 28 28.148438 " clip-rule="nonzero"/></clipPath><clipPath id="clip-4"><path d="M 345.539062 313.03125 C 345.539062 330.773438 331.144531 345.15625 313.386719 345.15625 L 59.738281 345.15625 C 41.980469 345.15625 27.585938 330.773438 27.585938 313.03125 L 27.585938 59.605469 C 27.585938 41.867188 41.980469 27.484375 59.738281 27.484375 L 313.386719 27.484375 C 331.144531 27.484375 345.539062 41.867188 345.539062 59.605469 L 345.539062 313.03125 " clip-rule="nonzero"/></clipPath></defs><g clip-path="url(#clip-0)"><path fill="rgb(32.159424%, 70.199585%, 90.979004%)" d="M 363.261719 327.441406 C 363.261719 347 347.390625 362.859375 327.8125 362.859375 L 47.398438 362.859375 C 27.820312 362.859375 11.945312 347 11.945312 327.441406 L 11.945312 47.277344 C 11.945312 27.714844 27.820312 11.859375 47.398438 11.859375 L 327.8125 11.859375 C 347.390625 11.859375 363.261719 27.714844 363.261719 47.277344 L 363.261719 327.441406 " fill-opacity="1" fill-rule="nonzero"/></g><path fill="rgb(13.729858%, 16.468811%, 25.878906%)" d="M 347.625 315.113281 C 347.625 332.855469 333.230469 347.238281 315.472656 347.238281 L 60.78125 347.238281 C 43.023438 347.238281 28.625 332.855469 28.625 315.113281 L 28.625 60.652344 C 28.625 42.90625 43.023438 28.527344 60.78125 28.527344 L 315.472656 28.527344 C 333.230469 28.527344 347.625 42.90625 347.625 60.652344 L 347.625 315.113281 " fill-opacity="1" fill-rule="nonzero"/><g clip-path="url(#clip-1)"><g clip-path="url(#clip-2)"><path fill="rgb(40.779114%, 76.858521%, 93.728638%)" d="M 28.625 295.160156 L 27.585938 295.160156 L 27.585938 292.035156 L 28.625 292.035156 L 28.625 295.160156 M 28.625 255.582031 L 27.585938 255.582031 L 27.585938 253.5 L 28.625 253.5 L 28.625 255.582031 M 28.625 218.085938 L 27.585938 218.085938 L 27.585938 217.046875 L 28.625 217.046875 L 28.625 218.085938 M 28.625 142.054688 L 27.585938 142.054688 L 27.585938 141.011719 L 28.625 141.011719 L 28.625 142.054688 M 28.625 104.558594 L 27.585938 104.558594 L 27.585938 102.476562 L 28.625 102.476562 L 28.625 104.558594 M 28.625 64.980469 L 27.585938 64.980469 L 27.585938 63.9375 L 28.625 63.9375 L 28.625 64.980469 M 33.839844 43.105469 L 33.839844 40.566406 C 34.492188 39.683594 35.1875 38.835938 35.925781 38.023438 L 35.925781 40.273438 C 35.179688 41.175781 34.480469 42.121094 33.839844 43.105469 M 54.6875 29.097656 L 54.6875 27.875 L 54.6875 29.097656 M 302.800781 28.527344 L 301.757812 28.527344 L 301.757812 27.484375 L 282.992188 27.484375 L 282.992188 28.527344 L 282.992188 27.484375 L 264.226562 27.484375 L 264.226562 28.527344 L 263.183594 28.527344 L 263.183594 27.484375 L 244.421875 27.484375 L 244.421875 28.527344 L 244.421875 27.484375 L 225.65625 27.484375 L 225.65625 28.527344 L 224.613281 28.527344 L 224.613281 27.484375 L 206.890625 27.484375 L 206.890625 28.527344 L 206.890625 27.484375 L 188.125 27.484375 L 188.125 28.527344 L 187.082031 28.527344 L 187.082031 27.484375 L 168.320312 27.484375 L 168.320312 28.527344 L 168.320312 27.484375 L 150.597656 27.484375 L 150.597656 28.527344 L 149.554688 28.527344 L 149.554688 27.484375 L 130.789062 27.484375 L 130.789062 28.527344 L 130.789062 27.484375 L 112.023438 27.484375 L 112.023438 28.527344 L 110.984375 28.527344 L 110.984375 27.484375 L 92.21875 27.484375 L 92.21875 28.527344 L 92.21875 27.484375 L 73.453125 27.484375 L 73.453125 28.527344 L 72.410156 28.527344 L 72.410156 27.484375 L 59.738281 27.484375 L 313.386719 27.484375 L 302.800781 27.484375 L 302.800781 28.527344 " fill-opacity="1" fill-rule="nonzero"/></g></g><g clip-path="url(#clip-3)"><g clip-path="url(#clip-4)"><path fill="rgb(27.449036%, 41.178894%, 52.549744%)" d="M 302.800781 345.15625 L 301.757812 345.15625 L 301.757812 332.65625 L 264.226562 332.65625 L 264.226562 345.15625 L 263.183594 345.15625 L 263.183594 332.65625 L 225.65625 332.65625 L 225.65625 345.15625 L 224.613281 345.15625 L 224.613281 332.65625 L 188.125 332.65625 L 188.125 345.15625 L 187.082031 345.15625 L 187.082031 332.65625 L 150.597656 332.65625 L 150.597656 345.15625 L 149.554688 345.15625 L 149.554688 332.65625 L 112.023438 332.65625 L 112.023438 345.15625 L 110.984375 345.15625 L 110.984375 332.65625 L 73.453125 332.65625 L 73.453125 345.15625 L 72.410156 345.15625 L 72.410156 332.65625 L 35.925781 332.65625 L 35.925781 334.613281 C 35.0625 333.664062 34.253906 332.664062 33.507812 331.613281 L 33.839844 331.613281 L 33.839844 295.160156 L 28.625 295.160156 L 28.625 292.035156 L 33.839844 292.035156 L 33.839844 255.582031 L 28.625 255.582031 L 28.625 253.5 L 33.839844 253.5 L 33.839844 218.085938 L 28.625 218.085938 L 28.625 217.046875 L 33.839844 217.046875 L 33.839844 142.054688 L 28.625 142.054688 L 28.625 141.011719 L 33.839844 141.011719 L 33.839844 104.558594 L 28.625 104.558594 L 28.625 102.476562 L 33.839844 102.476562 L 33.839844 64.980469 L 28.625 64.980469 L 28.625 63.9375 L 33.839844 63.9375 L 33.839844 43.105469 C 34.480469 42.121094 35.179688 41.175781 35.925781 40.273438 L 35.925781 63.9375 L 54.6875 63.9375 L 54.6875 29.097656 L 54.6875 47.273438 L 72.410156 47.273438 L 72.410156 28.527344 L 73.453125 28.527344 L 73.453125 47.273438 L 92.21875 47.273438 L 92.21875 28.527344 L 92.21875 47.273438 L 110.984375 47.273438 L 110.984375 28.527344 L 112.023438 28.527344 L 112.023438 47.273438 L 130.789062 47.273438 L 130.789062 28.527344 L 130.789062 47.273438 L 149.554688 47.273438 L 149.554688 28.527344 L 150.597656 28.527344 L 150.597656 47.273438 L 168.320312 47.273438 L 168.320312 28.527344 L 168.320312 47.273438 L 187.082031 47.273438 L 187.082031 28.527344 L 188.125 28.527344 L 188.125 47.273438 L 206.890625 47.273438 L 206.890625 28.527344 L 206.890625 47.273438 L 224.613281 47.273438 L 224.613281 28.527344 L 225.65625 28.527344 L 225.65625 47.273438 L 244.421875 47.273438 L 244.421875 28.527344 L 244.421875 47.273438 L 263.183594 47.273438 L 263.183594 28.527344 L 264.226562 28.527344 L 264.226562 47.273438 L 282.992188 47.273438 L 282.992188 28.527344 L 282.992188 47.273438 L 301.757812 47.273438 L 301.757812 28.527344 L 302.800781 28.527344 L 302.800781 47.273438 L 320.519531 47.273438 L 302.800781 47.273438 L 302.800781 63.9375 L 339.285156 63.9375 L 339.285156 47.273438 L 320.519531 47.273438 L 339.285156 47.273438 L 339.285156 40.566406 C 340.042969 41.589844 340.738281 42.664062 341.371094 43.773438 L 341.371094 47.273438 L 343.085938 47.273438 L 341.371094 47.273438 L 341.371094 63.9375 L 345.539062 63.9375 L 345.539062 64.980469 L 341.371094 64.980469 L 341.371094 84.769531 L 345.539062 84.769531 L 341.371094 84.769531 L 341.371094 102.476562 L 345.539062 102.476562 L 345.539062 104.558594 L 341.371094 104.558594 L 341.371094 122.265625 L 345.539062 122.265625 L 341.371094 122.265625 L 341.371094 141.011719 L 345.539062 141.011719 L 345.539062 142.054688 L 341.371094 142.054688 L 341.371094 160.800781 L 345.539062 160.800781 L 341.371094 160.800781 L 341.371094 179.550781 L 345.539062 179.550781 L 341.371094 179.550781 L 341.371094 199.339844 L 345.539062 199.339844 L 341.371094 199.339844 L 341.371094 217.046875 L 345.539062 217.046875 L 345.539062 218.085938 L 341.371094 218.085938 L 341.371094 237.875 L 345.539062 237.875 L 341.371094 237.875 L 341.371094 253.5 L 345.539062 253.5 L 345.539062 255.582031 L 341.371094 255.582031 L 341.371094 274.328125 L 345.539062 274.328125 L 341.371094 274.328125 L 341.371094 292.035156 L 345.539062 292.035156 L 345.539062 295.160156 L 341.371094 295.160156 L 341.371094 311.824219 L 345.539062 311.824219 L 341.371094 311.824219 L 341.371094 328.863281 C 340.617188 330.1875 339.773438 331.457031 338.847656 332.65625 L 302.800781 332.65625 L 302.800781 345.15625 M 320.519531 331.613281 L 339.285156 331.613281 L 339.285156 311.824219 L 320.519531 311.824219 L 339.285156 311.824219 L 339.285156 295.160156 L 302.800781 295.160156 L 302.800781 331.613281 L 320.519531 331.613281 M 282.992188 331.613281 L 301.757812 331.613281 L 301.757812 295.160156 L 264.226562 295.160156 L 264.226562 331.613281 L 282.992188 331.613281 M 244.421875 331.613281 L 263.183594 331.613281 L 263.183594 295.160156 L 225.65625 295.160156 L 225.65625 331.613281 L 244.421875 331.613281 M 206.890625 331.613281 L 224.613281 331.613281 L 224.613281 295.160156 L 188.125 295.160156 L 188.125 331.613281 L 206.890625 331.613281 M 168.320312 331.613281 L 187.082031 331.613281 L 187.082031 295.160156 L 150.597656 295.160156 L 150.597656 331.613281 L 168.320312 331.613281 M 130.789062 331.613281 L 149.554688 331.613281 L 149.554688 295.160156 L 112.023438 295.160156 L 112.023438 331.613281 L 130.789062 331.613281 M 92.21875 331.613281 L 110.984375 331.613281 L 110.984375 295.160156 L 73.453125 295.160156 L 73.453125 331.613281 L 92.21875 331.613281 M 54.6875 331.613281 L 72.410156 331.613281 L 72.410156 295.160156 L 54.6875 295.160156 L 54.6875 311.824219 L 54.6875 295.160156 L 35.925781 295.160156 L 35.925781 331.613281 L 54.6875 331.613281 M 320.519531 292.035156 L 339.285156 292.035156 L 339.285156 274.328125 L 320.519531 274.328125 L 339.285156 274.328125 L 339.285156 255.582031 L 302.800781 255.582031 L 302.800781 274.328125 L 320.519531 274.328125 L 302.800781 274.328125 L 302.800781 292.035156 L 320.519531 292.035156 M 282.992188 292.035156 L 301.757812 292.035156 L 301.757812 274.328125 L 282.992188 274.328125 L 301.757812 274.328125 L 301.757812 255.582031 L 264.226562 255.582031 L 264.226562 292.035156 L 282.992188 292.035156 M 244.421875 292.035156 L 263.183594 292.035156 L 263.183594 255.582031 L 225.65625 255.582031 L 225.65625 292.035156 L 244.421875 292.035156 M 206.890625 292.035156 L 224.613281 292.035156 L 224.613281 255.582031 L 188.125 255.582031 L 188.125 292.035156 L 206.890625 292.035156 M 168.320312 292.035156 L 187.082031 292.035156 L 187.082031 255.582031 L 150.597656 255.582031 L 150.597656 292.035156 L 168.320312 292.035156 M 130.789062 292.035156 L 149.554688 292.035156 L 149.554688 255.582031 L 112.023438 255.582031 L 112.023438 292.035156 L 130.789062 292.035156 M 92.21875 292.035156 L 110.984375 292.035156 L 110.984375 255.582031 L 92.21875 255.582031 L 92.21875 274.328125 L 92.21875 255.582031 L 73.453125 255.582031 L 73.453125 292.035156 L 92.21875 292.035156 M 54.6875 274.328125 L 54.6875 292.035156 L 72.410156 292.035156 L 72.410156 255.582031 L 54.6875 255.582031 L 54.6875 274.328125 M 35.925781 274.328125 L 35.925781 292.035156 L 54.6875 292.035156 L 54.6875 255.582031 L 35.925781 255.582031 L 35.925781 274.328125 M 320.519531 253.5 L 339.285156 253.5 L 339.285156 237.875 L 320.519531 237.875 L 339.285156 237.875 L 339.285156 218.085938 L 302.800781 218.085938 L 302.800781 237.875 L 320.519531 237.875 L 302.800781 237.875 L 302.800781 253.5 L 320.519531 253.5 M 282.992188 253.5 L 301.757812 253.5 L 301.757812 237.875 L 282.992188 237.875 L 301.757812 237.875 L 301.757812 218.085938 L 264.226562 218.085938 L 264.226562 237.875 L 282.992188 237.875 L 264.226562 237.875 L 264.226562 253.5 L 282.992188 253.5 M 244.421875 253.5 L 263.183594 253.5 L 263.183594 237.875 L 244.421875 237.875 L 263.183594 237.875 L 263.183594 218.085938 L 225.65625 218.085938 L 225.65625 253.5 L 244.421875 253.5 M 206.890625 253.5 L 224.613281 253.5 L 224.613281 218.085938 L 188.125 218.085938 L 188.125 253.5 L 206.890625 253.5 M 168.320312 253.5 L 187.082031 253.5 L 187.082031 218.085938 L 150.597656 218.085938 L 150.597656 253.5 L 168.320312 253.5 M 130.789062 253.5 L 149.554688 253.5 L 149.554688 218.085938 L 130.789062 218.085938 L 130.789062 237.875 L 130.789062 218.085938 L 112.023438 218.085938 L 112.023438 253.5 L 130.789062 253.5 M 92.21875 237.875 L 92.21875 253.5 L 110.984375 253.5 L 110.984375 218.085938 L 92.21875 218.085938 L 92.21875 237.875 M 73.453125 237.875 L 73.453125 253.5 L 92.21875 253.5 L 92.21875 218.085938 L 73.453125 218.085938 L 73.453125 237.875 M 54.6875 237.875 L 54.6875 253.5 L 72.410156 253.5 L 72.410156 218.085938 L 54.6875 218.085938 L 54.6875 237.875 M 35.925781 237.875 L 35.925781 253.5 L 54.6875 253.5 L 54.6875 218.085938 L 35.925781 218.085938 L 35.925781 237.875 M 320.519531 217.046875 L 339.285156 217.046875 L 339.285156 199.339844 L 320.519531 199.339844 L 339.285156 199.339844 L 339.285156 179.550781 L 320.519531 179.550781 L 339.285156 179.550781 L 339.285156 160.800781 L 320.519531 160.800781 L 339.285156 160.800781 L 339.285156 142.054688 L 302.800781 142.054688 L 302.800781 160.800781 L 320.519531 160.800781 L 302.800781 160.800781 L 302.800781 179.550781 L 320.519531 179.550781 L 302.800781 179.550781 L 302.800781 199.339844 L 320.519531 199.339844 L 302.800781 199.339844 L 302.800781 217.046875 L 320.519531 217.046875 M 282.992188 217.046875 L 301.757812 217.046875 L 301.757812 199.339844 L 282.992188 199.339844 L 301.757812 199.339844 L 301.757812 179.550781 L 282.992188 179.550781 L 301.757812 179.550781 L 301.757812 160.800781 L 282.992188 160.800781 L 301.757812 160.800781 L 301.757812 142.054688 L 264.226562 142.054688 L 264.226562 160.800781 L 282.992188 160.800781 L 264.226562 160.800781 L 264.226562 179.550781 L 282.992188 179.550781 L 264.226562 179.550781 L 264.226562 199.339844 L 282.992188 199.339844 L 264.226562 199.339844 L 264.226562 217.046875 L 282.992188 217.046875 M 244.421875 217.046875 L 263.183594 217.046875 L 263.183594 199.339844 L 244.421875 199.339844 L 263.183594 199.339844 L 263.183594 179.550781 L 244.421875 179.550781 L 263.183594 179.550781 L 263.183594 160.800781 L 244.421875 160.800781 L 263.183594 160.800781 L 263.183594 142.054688 L 225.65625 142.054688 L 225.65625 160.800781 L 244.421875 160.800781 L 225.65625 160.800781 L 225.65625 179.550781 L 244.421875 179.550781 L 225.65625 179.550781 L 225.65625 199.339844 L 244.421875 199.339844 L 225.65625 199.339844 L 225.65625 217.046875 L 244.421875 217.046875 M 206.890625 217.046875 L 224.613281 217.046875 L 224.613281 199.339844 L 206.890625 199.339844 L 224.613281 199.339844 L 224.613281 179.550781 L 206.890625 179.550781 L 224.613281 179.550781 L 224.613281 160.800781 L 206.890625 160.800781 L 224.613281 160.800781 L 224.613281 142.054688 L 188.125 142.054688 L 188.125 160.800781 L 206.890625 160.800781 L 188.125 160.800781 L 188.125 179.550781 L 206.890625 179.550781 L 188.125 179.550781 L 188.125 217.046875 L 206.890625 217.046875 M 168.320312 217.046875 L 187.082031 217.046875 L 187.082031 179.550781 L 168.320312 179.550781 L 168.320312 199.339844 L 168.320312 142.054688 L 150.597656 142.054688 L 150.597656 217.046875 L 168.320312 217.046875 M 130.789062 199.339844 L 130.789062 217.046875 L 149.554688 217.046875 L 149.554688 142.054688 L 130.789062 142.054688 L 130.789062 199.339844 M 112.023438 199.339844 L 112.023438 217.046875 L 130.789062 217.046875 L 130.789062 142.054688 L 112.023438 142.054688 L 112.023438 199.339844 M 92.21875 199.339844 L 92.21875 217.046875 L 110.984375 217.046875 L 110.984375 142.054688 L 92.21875 142.054688 L 92.21875 199.339844 M 73.453125 199.339844 L 73.453125 217.046875 L 92.21875 217.046875 L 92.21875 142.054688 L 73.453125 142.054688 L 73.453125 199.339844 M 54.6875 199.339844 L 54.6875 217.046875 L 72.410156 217.046875 L 72.410156 142.054688 L 54.6875 142.054688 L 54.6875 199.339844 M 35.925781 199.339844 L 35.925781 217.046875 L 54.6875 217.046875 L 54.6875 142.054688 L 35.925781 142.054688 L 35.925781 199.339844 M 168.320312 160.800781 L 168.320312 179.550781 L 187.082031 179.550781 L 187.082031 160.800781 L 168.320312 160.800781 M 168.320312 142.054688 L 168.320312 160.800781 L 187.082031 160.800781 L 187.082031 142.054688 L 168.320312 142.054688 M 320.519531 141.011719 L 339.285156 141.011719 L 339.285156 122.265625 L 320.519531 122.265625 L 339.285156 122.265625 L 339.285156 104.558594 L 302.800781 104.558594 L 302.800781 122.265625 L 320.519531 122.265625 L 302.800781 122.265625 L 302.800781 141.011719 L 320.519531 141.011719 M 282.992188 141.011719 L 301.757812 141.011719 L 301.757812 122.265625 L 282.992188 122.265625 L 301.757812 122.265625 L 301.757812 104.558594 L 264.226562 104.558594 L 264.226562 122.265625 L 282.992188 122.265625 L 264.226562 122.265625 L 264.226562 141.011719 L 282.992188 141.011719 M 244.421875 141.011719 L 263.183594 141.011719 L 263.183594 122.265625 L 244.421875 122.265625 L 263.183594 122.265625 L 263.183594 104.558594 L 225.65625 104.558594 L 225.65625 122.265625 L 244.421875 122.265625 L 225.65625 122.265625 L 225.65625 141.011719 L 244.421875 141.011719 M 206.890625 122.265625 L 206.890625 141.011719 L 224.613281 141.011719 L 224.613281 122.265625 L 206.890625 122.265625 M 188.125 122.265625 L 188.125 141.011719 L 206.890625 141.011719 L 206.890625 122.265625 L 188.125 122.265625 M 168.320312 122.265625 L 168.320312 141.011719 L 187.082031 141.011719 L 187.082031 122.265625 L 168.320312 122.265625 M 150.597656 122.265625 L 150.597656 141.011719 L 168.320312 141.011719 L 168.320312 122.265625 L 150.597656 122.265625 M 130.789062 122.265625 L 130.789062 141.011719 L 149.554688 141.011719 L 149.554688 122.265625 L 130.789062 122.265625 M 112.023438 122.265625 L 112.023438 141.011719 L 130.789062 141.011719 L 130.789062 104.558594 L 112.023438 104.558594 L 112.023438 122.265625 M 92.21875 122.265625 L 92.21875 141.011719 L 110.984375 141.011719 L 110.984375 104.558594 L 92.21875 104.558594 L 92.21875 122.265625 M 73.453125 122.265625 L 73.453125 141.011719 L 92.21875 141.011719 L 92.21875 104.558594 L 73.453125 104.558594 L 73.453125 122.265625 M 54.6875 122.265625 L 54.6875 141.011719 L 72.410156 141.011719 L 72.410156 104.558594 L 54.6875 104.558594 L 54.6875 122.265625 M 35.925781 122.265625 L 35.925781 141.011719 L 54.6875 141.011719 L 54.6875 104.558594 L 35.925781 104.558594 L 35.925781 122.265625 M 206.890625 104.558594 L 206.890625 122.265625 L 224.613281 122.265625 L 224.613281 104.558594 L 206.890625 104.558594 M 188.125 104.558594 L 188.125 122.265625 L 206.890625 122.265625 L 206.890625 104.558594 L 188.125 104.558594 M 168.320312 104.558594 L 168.320312 122.265625 L 187.082031 122.265625 L 187.082031 104.558594 L 168.320312 104.558594 M 150.597656 104.558594 L 150.597656 122.265625 L 168.320312 122.265625 L 168.320312 104.558594 L 150.597656 104.558594 M 130.789062 104.558594 L 130.789062 122.265625 L 149.554688 122.265625 L 149.554688 104.558594 L 130.789062 104.558594 M 320.519531 102.476562 L 339.285156 102.476562 L 339.285156 84.769531 L 320.519531 84.769531 L 339.285156 84.769531 L 339.285156 64.980469 L 302.800781 64.980469 L 302.800781 84.769531 L 320.519531 84.769531 L 302.800781 84.769531 L 302.800781 102.476562 L 320.519531 102.476562 M 282.992188 102.476562 L 301.757812 102.476562 L 301.757812 84.769531 L 282.992188 84.769531 L 301.757812 84.769531 L 301.757812 64.980469 L 264.226562 64.980469 L 264.226562 84.769531 L 282.992188 84.769531 L 264.226562 84.769531 L 264.226562 102.476562 L 282.992188 102.476562 M 244.421875 84.769531 L 244.421875 102.476562 L 263.183594 102.476562 L 263.183594 84.769531 L 244.421875 84.769531 M 225.65625 84.769531 L 225.65625 102.476562 L 244.421875 102.476562 L 244.421875 84.769531 L 225.65625 84.769531 M 206.890625 84.769531 L 206.890625 102.476562 L 224.613281 102.476562 L 224.613281 84.769531 L 206.890625 84.769531 M 188.125 84.769531 L 188.125 102.476562 L 206.890625 102.476562 L 206.890625 84.769531 L 188.125 84.769531 M 168.320312 84.769531 L 168.320312 102.476562 L 187.082031 102.476562 L 187.082031 84.769531 L 168.320312 84.769531 M 150.597656 84.769531 L 150.597656 102.476562 L 168.320312 102.476562 L 168.320312 84.769531 L 150.597656 84.769531 M 130.789062 84.769531 L 130.789062 102.476562 L 149.554688 102.476562 L 149.554688 84.769531 L 130.789062 84.769531 M 112.023438 84.769531 L 112.023438 102.476562 L 130.789062 102.476562 L 130.789062 84.769531 L 112.023438 84.769531 M 92.21875 84.769531 L 92.21875 102.476562 L 110.984375 102.476562 L 110.984375 84.769531 L 92.21875 84.769531 M 73.453125 84.769531 L 73.453125 102.476562 L 92.21875 102.476562 L 92.21875 64.980469 L 73.453125 64.980469 L 73.453125 84.769531 M 54.6875 84.769531 L 54.6875 102.476562 L 72.410156 102.476562 L 72.410156 64.980469 L 54.6875 64.980469 L 54.6875 84.769531 M 35.925781 84.769531 L 35.925781 102.476562 L 54.6875 102.476562 L 54.6875 64.980469 L 35.925781 64.980469 L 35.925781 84.769531 M 244.421875 64.980469 L 244.421875 84.769531 L 263.183594 84.769531 L 263.183594 64.980469 L 244.421875 64.980469 M 225.65625 64.980469 L 225.65625 84.769531 L 244.421875 84.769531 L 244.421875 64.980469 L 225.65625 64.980469 M 206.890625 64.980469 L 206.890625 84.769531 L 224.613281 84.769531 L 224.613281 64.980469 L 206.890625 64.980469 M 188.125 64.980469 L 188.125 84.769531 L 206.890625 84.769531 L 206.890625 64.980469 L 188.125 64.980469 M 168.320312 64.980469 L 168.320312 84.769531 L 187.082031 84.769531 L 187.082031 64.980469 L 168.320312 64.980469 M 150.597656 64.980469 L 150.597656 84.769531 L 168.320312 84.769531 L 168.320312 64.980469 L 150.597656 64.980469 M 130.789062 64.980469 L 130.789062 84.769531 L 149.554688 84.769531 L 149.554688 64.980469 L 130.789062 64.980469 M 112.023438 64.980469 L 112.023438 84.769531 L 130.789062 84.769531 L 130.789062 64.980469 L 112.023438 64.980469 M 92.21875 64.980469 L 92.21875 84.769531 L 110.984375 84.769531 L 110.984375 64.980469 L 92.21875 64.980469 M 282.992188 47.273438 L 282.992188 63.9375 L 301.757812 63.9375 L 301.757812 47.273438 L 282.992188 47.273438 M 264.226562 47.273438 L 264.226562 63.9375 L 282.992188 63.9375 L 282.992188 47.273438 L 264.226562 47.273438 M 244.421875 47.273438 L 244.421875 63.9375 L 263.183594 63.9375 L 263.183594 47.273438 L 244.421875 47.273438 M 225.65625 47.273438 L 225.65625 63.9375 L 244.421875 63.9375 L 244.421875 47.273438 L 225.65625 47.273438 M 206.890625 47.273438 L 206.890625 63.9375 L 224.613281 63.9375 L 224.613281 47.273438 L 206.890625 47.273438 M 188.125 47.273438 L 188.125 63.9375 L 206.890625 63.9375 L 206.890625 47.273438 L 188.125 47.273438 M 168.320312 47.273438 L 168.320312 63.9375 L 187.082031 63.9375 L 187.082031 47.273438 L 168.320312 47.273438 M 150.597656 47.273438 L 150.597656 63.9375 L 168.320312 63.9375 L 168.320312 47.273438 L 150.597656 47.273438 M 130.789062 47.273438 L 130.789062 63.9375 L 149.554688 63.9375 L 149.554688 47.273438 L 130.789062 47.273438 M 112.023438 47.273438 L 112.023438 63.9375 L 130.789062 63.9375 L 130.789062 47.273438 L 112.023438 47.273438 M 92.21875 47.273438 L 92.21875 63.9375 L 110.984375 63.9375 L 110.984375 47.273438 L 92.21875 47.273438 M 73.453125 47.273438 L 73.453125 63.9375 L 92.21875 63.9375 L 92.21875 47.273438 L 73.453125 47.273438 M 54.6875 47.273438 L 54.6875 63.9375 L 72.410156 63.9375 L 72.410156 47.273438 L 54.6875 47.273438 M 282.992188 345.15625 L 282.992188 332.65625 L 282.992188 345.15625 M 244.421875 345.15625 L 244.421875 332.65625 L 244.421875 345.15625 M 206.890625 345.15625 L 206.890625 332.65625 L 206.890625 345.15625 M 168.320312 345.15625 L 168.320312 332.65625 L 168.320312 345.15625 M 130.789062 345.15625 L 130.789062 332.65625 L 130.789062 345.15625 M 92.21875 345.15625 L 92.21875 332.65625 L 92.21875 345.15625 M 54.6875 344.761719 L 54.6875 332.65625 L 54.6875 344.761719 M 320.519531 344.363281 L 320.519531 332.65625 L 320.519531 344.363281 M 320.519531 331.613281 L 320.519531 311.824219 L 302.800781 311.824219 L 320.519531 311.824219 L 320.519531 331.613281 M 282.992188 331.613281 L 282.992188 311.824219 L 264.226562 311.824219 L 282.992188 311.824219 L 282.992188 295.160156 L 282.992188 311.824219 L 301.757812 311.824219 L 282.992188 311.824219 L 282.992188 331.613281 M 244.421875 331.613281 L 244.421875 311.824219 L 225.65625 311.824219 L 244.421875 311.824219 L 244.421875 295.160156 L 244.421875 311.824219 L 263.183594 311.824219 L 244.421875 311.824219 L 244.421875 331.613281 M 206.890625 331.613281 L 206.890625 311.824219 L 188.125 311.824219 L 206.890625 311.824219 L 206.890625 295.160156 L 206.890625 311.824219 L 224.613281 311.824219 L 206.890625 311.824219 L 206.890625 331.613281 M 168.320312 331.613281 L 168.320312 311.824219 L 150.597656 311.824219 L 168.320312 311.824219 L 168.320312 295.160156 L 168.320312 311.824219 L 187.082031 311.824219 L 168.320312 311.824219 L 168.320312 331.613281 M 130.789062 331.613281 L 130.789062 311.824219 L 112.023438 311.824219 L 130.789062 311.824219 L 130.789062 295.160156 L 130.789062 311.824219 L 149.554688 311.824219 L 130.789062 311.824219 L 130.789062 331.613281 M 92.21875 331.613281 L 92.21875 311.824219 L 73.453125 311.824219 L 92.21875 311.824219 L 92.21875 295.160156 L 92.21875 311.824219 L 110.984375 311.824219 L 92.21875 311.824219 L 92.21875 331.613281 M 54.6875 331.613281 L 54.6875 311.824219 L 35.925781 311.824219 L 54.6875 311.824219 L 54.6875 331.613281 M 320.519531 311.824219 L 320.519531 295.160156 L 320.519531 311.824219 M 72.410156 311.824219 L 54.6875 311.824219 L 72.410156 311.824219 " fill-opacity="1" fill-rule="nonzero"/></g></g><path fill="rgb(18.429565%, 32.939148%, 45.098877%)" d="M 288.476562 91.320312 C 281.589844 91.320312 278.789062 99.5625 266.484375 129.40625 C 254.175781 159.242188 242.035156 185.226562 237.347656 184.074219 C 234.71875 183.429688 258.773438 118.792969 259.101562 78.324219 C 259.136719 73.988281 254.902344 65.601562 249.0625 65.640625 C 238.589844 65.699219 236.277344 82.820312 234.769531 89.640625 C 231.25 105.597656 228.175781 123.078125 225.460938 138.121094 C 223.5625 148.621094 214.628906 190.476562 213.203125 190.476562 C 209.261719 190.476562 211.769531 158.070312 211.769531 147.769531 C 211.769531 137.46875 212.738281 89.378906 212.9375 69.261719 C 212.980469 64.902344 213 53.949219 201.722656 53.949219 C 191.535156 53.949219 191.214844 68.617188 189.792969 82.019531 C 188.507812 94.125 191.089844 197.53125 188.386719 199.140625 C 184.761719 201.300781 168.179688 135.679688 162.929688 91.347656 C 161.867188 82.335938 160.472656 57.507812 150.410156 56.792969 C 139.570312 56.027344 136.019531 74.027344 137.332031 102.59375 C 138.867188 135.972656 152.609375 190 162.664062 208.484375 C 172.714844 226.972656 161.421875 221.40625 154.382812 219.878906 C 147.34375 218.347656 120.429688 206.105469 98.550781 191.898438 C 76.671875 177.6875 69.886719 176.15625 65.296875 183.804688 C 60.878906 191.160156 65.296875 211.570312 97.542969 229.09375 C 122.253906 242.515625 150.628906 251.3125 157.628906 277.984375 C 163.292969 299.574219 161.796875 333.699219 161.019531 347.238281 L 239.308594 347.238281 C 238.875 334.738281 238.847656 303.96875 249.0625 274.265625 C 264.996094 227.921875 254.390625 217.160156 266.863281 194.53125 C 279.332031 171.902344 285.101562 151.777344 293.238281 132.09375 C 303.085938 108.265625 299.140625 91.320312 288.476562 91.320312 " fill-opacity="1" fill-rule="nonzero"/><path fill="rgb(50.19989%, 83.918762%, 96.859741%)" d="M 188.15625 221.046875 C 187.882812 221.121094 187.585938 221.210938 187.585938 221.203125 L 172.695312 173.855469 C 172.691406 173.839844 172.988281 173.742188 173.253906 173.644531 C 175.140625 172.9375 176.730469 170.195312 176.019531 167.84375 C 175.261719 165.511719 172.199219 164.226562 170.242188 164.722656 C 166.445312 165.742188 162.671875 166.925781 158.976562 168.257812 C 157.082031 168.96875 155.363281 171.757812 156.070312 174.105469 C 156.835938 176.441406 159.574219 177.824219 161.535156 177.328125 C 161.804688 177.25 162.097656 177.164062 162.101562 177.175781 L 176.988281 224.527344 C 176.992188 224.539062 176.699219 224.632812 176.429688 224.730469 C 174.542969 225.441406 172.949219 228.183594 173.65625 230.53125 C 174.421875 232.867188 177.480469 234.152344 179.4375 233.65625 C 183.226562 232.640625 187.007812 231.453125 190.703125 230.117188 C 192.59375 229.410156 194.445312 226.582031 193.730469 224.234375 C 192.976562 221.898438 190.117188 220.550781 188.15625 221.046875 " fill-opacity="1" fill-rule="nonzero"/><path fill="rgb(50.19989%, 83.918762%, 96.859741%)" d="M 167.269531 152.855469 C 166.988281 152.910156 166.691406 152.976562 166.6875 152.96875 L 161.867188 130.765625 C 161.859375 130.753906 162.160156 130.675781 162.4375 130.597656 C 164.363281 130.011719 166.132812 127.378906 165.578125 124.992188 C 164.976562 122.605469 162.007812 121.125 160.019531 121.496094 C 156.164062 122.261719 152.320312 123.195312 148.542969 124.285156 C 146.609375 124.867188 144.703125 127.542969 145.261719 129.929688 C 145.863281 132.308594 148.511719 133.867188 150.5 133.5 C 150.78125 133.445312 151.074219 133.375 151.074219 133.386719 L 155.894531 155.59375 C 155.898438 155.601562 155.59375 155.679688 155.324219 155.761719 C 153.390625 156.347656 151.628906 158.980469 152.175781 161.367188 C 152.785156 163.746094 155.757812 165.230469 157.742188 164.863281 C 161.59375 164.097656 165.441406 163.160156 169.214844 162.070312 C 171.144531 161.484375 173.179688 158.789062 172.621094 156.398438 C 172.015625 154.019531 169.25 152.484375 167.269531 152.855469 " fill-opacity="1" fill-rule="nonzero"/><path fill="rgb(50.19989%, 83.918762%, 96.859741%)" d="M 162.695312 234.308594 C 162.566406 234.597656 162.417969 234.917969 162.410156 234.914062 L 136.78125 224.953125 C 136.773438 224.949219 136.90625 224.625 137.011719 224.328125 C 137.777344 222.179688 136.566406 218.8125 134.019531 217.707031 C 131.449219 216.660156 128.109375 218.359375 127.113281 220.414062 C 125.222656 224.425781 123.496094 228.542969 121.953125 232.699219 C 121.1875 234.847656 122.335938 238.371094 124.882812 239.464844 C 127.445312 240.515625 130.652344 239.15625 131.644531 237.109375 C 131.78125 236.816406 131.917969 236.503906 131.929688 236.507812 L 157.554688 246.46875 C 157.570312 246.472656 157.433594 246.796875 157.324219 247.097656 C 156.5625 249.246094 157.769531 252.621094 160.320312 253.714844 C 162.886719 254.765625 166.230469 253.0625 167.222656 251.011719 C 169.113281 247 170.84375 242.882812 172.386719 238.726562 C 173.148438 236.578125 172.058594 232.921875 169.507812 231.820312 C 166.941406 230.773438 163.691406 232.257812 162.695312 234.308594 " fill-opacity="1" fill-rule="nonzero"/><path fill="rgb(50.19989%, 83.918762%, 96.859741%)" d="M 116.542969 215.242188 C 116.382812 215.480469 116.210938 215.734375 116.203125 215.730469 L 101.800781 206.296875 C 101.789062 206.289062 101.949219 206.023438 102.089844 205.777344 C 103.074219 204.019531 102.503906 200.898438 100.441406 199.566406 C 98.351562 198.277344 95.1875 199.277344 94.019531 200.925781 C 91.78125 204.152344 89.671875 207.496094 87.71875 210.90625 C 86.738281 212.667969 87.226562 215.910156 89.292969 217.242188 C 91.382812 218.527344 94.371094 217.808594 95.546875 216.164062 C 95.703125 215.929688 95.867188 215.679688 95.875 215.683594 L 110.28125 225.117188 C 110.292969 225.121094 110.128906 225.390625 109.984375 225.632812 C 109.011719 227.394531 109.574219 230.519531 111.636719 231.847656 C 113.730469 233.136719 116.894531 232.136719 118.066406 230.488281 C 120.296875 227.265625 122.410156 223.917969 124.359375 220.511719 C 125.339844 218.746094 124.921875 215.394531 122.851562 214.066406 C 120.765625 212.773438 117.714844 213.597656 116.542969 215.242188 " fill-opacity="1" fill-rule="nonzero"/><path fill="rgb(50.19989%, 83.918762%, 96.859741%)" d="M 155.308594 112.519531 C 155.109375 112.53125 154.890625 112.558594 154.890625 112.550781 L 153.429688 96.46875 C 153.433594 96.464844 153.652344 96.4375 153.851562 96.40625 C 155.261719 96.160156 156.742188 94.457031 156.558594 92.722656 C 156.34375 90.992188 154.378906 89.6875 152.945312 89.777344 C 150.160156 89.976562 147.367188 90.300781 144.609375 90.738281 C 143.199219 90.980469 141.617188 92.699219 141.800781 94.433594 C 142.023438 96.160156 143.746094 97.492188 145.179688 97.40625 C 145.378906 97.394531 145.597656 97.371094 145.597656 97.378906 L 147.050781 113.457031 C 147.054688 113.464844 146.835938 113.492188 146.632812 113.519531 C 145.222656 113.765625 143.742188 115.46875 143.929688 117.203125 C 144.148438 118.933594 146.109375 120.238281 147.542969 120.152344 C 150.324219 119.949219 153.117188 119.625 155.875 119.1875 C 157.285156 118.945312 158.957031 117.21875 158.773438 115.488281 C 158.558594 113.753906 156.742188 112.433594 155.308594 112.519531 " fill-opacity="1" fill-rule="nonzero"/><path fill="rgb(50.19989%, 83.918762%, 96.859741%)" d="M 207.339844 109.417969 C 207.140625 109.402344 206.917969 109.398438 206.917969 109.386719 L 207.570312 93.261719 C 207.570312 93.25 207.789062 93.25 207.988281 93.246094 C 209.425781 93.191406 211.109375 91.695312 211.152344 89.949219 C 211.160156 88.203125 209.386719 86.65625 207.957031 86.554688 C 205.164062 86.394531 202.355469 86.355469 199.566406 86.433594 C 198.128906 86.488281 196.34375 87.984375 196.300781 89.722656 C 196.289062 91.46875 197.835938 93.015625 199.257812 93.113281 C 199.464844 93.125 199.679688 93.132812 199.679688 93.140625 L 199.027344 109.269531 C 199.027344 109.277344 198.808594 109.277344 198.609375 109.28125 C 197.171875 109.339844 195.488281 110.839844 195.441406 112.582031 C 195.4375 114.324219 197.210938 115.871094 198.644531 115.976562 C 201.425781 116.132812 204.238281 116.179688 207.03125 116.101562 C 208.460938 116.042969 210.347656 114.546875 210.390625 112.804688 C 210.398438 111.058594 208.769531 109.515625 207.339844 109.417969 " fill-opacity="1" fill-rule="nonzero"/><path fill="rgb(50.19989%, 83.918762%, 96.859741%)" d="M 248.292969 120.933594 C 248.09375 120.898438 247.878906 120.863281 247.878906 120.855469 L 250.441406 104.921875 C 250.445312 104.914062 250.664062 104.9375 250.859375 104.953125 C 252.292969 105.066406 254.140625 103.78125 254.394531 102.054688 C 254.617188 100.328125 253.027344 98.578125 251.621094 98.308594 C 248.875 97.820312 246.085938 97.441406 243.304688 97.1875 C 241.875 97.074219 239.925781 98.347656 239.671875 100.070312 C 239.457031 101.804688 240.804688 103.515625 242.210938 103.789062 C 242.414062 103.824219 242.625 103.855469 242.625 103.863281 L 240.058594 119.800781 C 240.058594 119.8125 239.839844 119.78125 239.640625 119.765625 C 238.207031 119.652344 236.355469 120.9375 236.105469 122.664062 C 235.894531 124.390625 237.46875 126.140625 238.882812 126.414062 C 241.625 126.902344 244.414062 127.277344 247.195312 127.535156 C 248.621094 127.648438 250.667969 126.386719 250.917969 124.660156 C 251.136719 122.933594 249.703125 121.203125 248.292969 120.933594 " fill-opacity="1" fill-rule="nonzero"/><path fill="rgb(50.19989%, 83.918762%, 96.859741%)" d="M 283.980469 139.730469 C 283.789062 139.660156 283.582031 139.597656 283.582031 139.589844 L 288.765625 124.300781 C 288.765625 124.292969 288.976562 124.355469 289.171875 124.40625 C 290.566406 124.753906 292.605469 123.792969 293.140625 122.132812 C 293.640625 120.464844 292.375 118.476562 291.03125 117.976562 C 288.402344 117.035156 285.714844 116.203125 283.019531 115.492188 C 281.628906 115.140625 279.488281 116.074219 278.953125 117.730469 C 278.457031 119.398438 279.503906 121.316406 280.84375 121.816406 C 281.027344 121.886719 281.234375 121.953125 281.234375 121.960938 L 276.042969 137.25 C 276.042969 137.257812 275.832031 137.191406 275.636719 137.144531 C 274.25 136.792969 272.203125 137.753906 271.671875 139.414062 C 271.175781 141.085938 272.4375 143.070312 273.785156 143.570312 C 276.410156 144.511719 279.09375 145.34375 281.789062 146.0625 C 283.1875 146.40625 285.414062 145.503906 285.945312 143.84375 C 286.453125 142.175781 285.324219 140.230469 283.980469 139.730469 " fill-opacity="1" fill-rule="nonzero"/><path fill="rgb(50.19989%, 83.918762%, 96.859741%)" d="M 206.921875 151.625 C 206.679688 151.617188 206.417969 151.617188 206.417969 151.609375 L 206.503906 127.070312 C 206.503906 127.0625 206.769531 127.054688 207.007812 127.035156 C 208.714844 126.90625 210.667969 125.046875 210.644531 122.960938 C 210.585938 120.882812 208.398438 119.101562 206.679688 119.046875 C 203.34375 118.972656 199.984375 119.042969 196.652344 119.253906 C 194.941406 119.382812 192.871094 121.246094 192.894531 123.332031 C 192.957031 125.414062 194.867188 127.191406 196.582031 127.25 C 196.824219 127.257812 197.074219 127.253906 197.078125 127.265625 L 196.988281 151.804688 C 196.992188 151.8125 196.722656 151.824219 196.480469 151.839844 C 194.777344 151.96875 192.824219 153.828125 192.847656 155.910156 C 192.914062 157.996094 195.101562 159.769531 196.8125 159.828125 C 200.148438 159.902344 203.507812 159.832031 206.839844 159.621094 C 208.546875 159.492188 210.730469 157.628906 210.707031 155.542969 C 210.644531 153.460938 208.632812 151.679688 206.921875 151.625 " fill-opacity="1" fill-rule="nonzero"/><path fill="rgb(50.19989%, 83.918762%, 96.859741%)" d="M 237.542969 162.59375 C 237.328125 162.539062 237.089844 162.484375 237.09375 162.476562 L 242.367188 140.121094 C 242.367188 140.117188 242.605469 140.160156 242.820312 140.195312 C 244.363281 140.421875 246.46875 139.164062 246.867188 137.308594 C 247.230469 135.445312 245.644531 133.433594 244.136719 133.035156 C 241.1875 132.300781 238.191406 131.6875 235.191406 131.207031 C 233.648438 130.980469 231.4375 132.214844 231.035156 134.066406 C 230.675781 135.929688 232.011719 137.894531 233.519531 138.289062 C 233.730469 138.34375 233.957031 138.394531 233.957031 138.402344 L 228.683594 160.757812 C 228.683594 160.765625 228.449219 160.71875 228.230469 160.6875 C 226.691406 160.460938 224.585938 161.71875 224.179688 163.574219 C 223.828125 165.433594 225.40625 167.449219 226.917969 167.84375 C 229.863281 168.582031 232.859375 169.191406 235.855469 169.675781 C 237.398438 169.902344 239.710938 168.6875 240.113281 166.832031 C 240.472656 164.96875 239.046875 162.988281 237.542969 162.59375 " fill-opacity="1" fill-rule="nonzero"/><path fill="rgb(50.19989%, 83.918762%, 96.859741%)" d="M 267.179688 179.367188 C 266.929688 179.25 266.664062 179.128906 266.667969 179.117188 L 275.777344 159.253906 C 275.777344 159.242188 276.050781 159.355469 276.300781 159.449219 C 278.128906 160.113281 281.007812 159.105469 281.960938 156.945312 C 282.867188 154.765625 281.441406 151.917969 279.699219 151.058594 C 276.289062 149.425781 272.789062 147.929688 269.261719 146.59375 C 267.4375 145.929688 264.421875 146.886719 263.472656 149.046875 C 262.570312 151.226562 263.703125 153.953125 265.441406 154.8125 C 265.695312 154.929688 265.957031 155.046875 265.953125 155.058594 L 256.84375 174.921875 C 256.84375 174.9375 256.566406 174.816406 256.3125 174.722656 C 254.488281 174.0625 251.609375 175.070312 250.65625 177.230469 C 249.75 179.40625 251.179688 182.261719 252.917969 183.121094 C 256.328125 184.75 259.824219 186.242188 263.359375 187.582031 C 265.179688 188.242188 268.308594 187.339844 269.261719 185.179688 C 270.167969 183 268.917969 180.230469 267.179688 179.367188 " fill-opacity="1" fill-rule="nonzero"/><path fill="rgb(50.19989%, 83.918762%, 96.859741%)" d="M 207.796875 221.75 C 207.503906 221.726562 207.199219 221.71875 207.199219 221.707031 L 208.035156 172.082031 C 208.035156 172.074219 208.347656 172.074219 208.625 172.066406 C 210.640625 171.988281 213.019531 169.886719 213.085938 167.433594 C 213.105469 164.980469 210.609375 162.796875 208.59375 162.652344 C 204.671875 162.417969 200.714844 162.351562 196.785156 162.453125 C 194.769531 162.53125 192.246094 164.628906 192.179688 167.082031 C 192.164062 169.535156 194.332031 171.71875 196.34375 171.859375 C 196.628906 171.875 196.929688 171.886719 196.929688 171.902344 L 196.09375 221.523438 C 196.09375 221.53125 195.78125 221.53125 195.5 221.539062 C 193.484375 221.617188 191.105469 223.722656 191.042969 226.175781 C 191.027344 228.628906 193.523438 230.8125 195.539062 230.960938 C 199.460938 231.1875 203.417969 231.257812 207.34375 231.15625 C 209.359375 231.078125 212.007812 228.976562 212.074219 226.523438 C 212.097656 224.070312 209.804688 221.890625 207.796875 221.75 " fill-opacity="1" fill-rule="nonzero"/><path fill="rgb(50.19989%, 83.918762%, 96.859741%)" d="M 223.738281 225.625 C 223.484375 225.554688 223.210938 225.492188 223.210938 225.484375 L 233.214844 181.410156 C 233.214844 181.402344 233.496094 181.457031 233.742188 181.503906 C 235.554688 181.8125 238.066406 180.378906 238.585938 178.203125 C 239.0625 176.023438 237.238281 173.605469 235.46875 173.105469 C 232.019531 172.164062 228.507812 171.371094 224.984375 170.730469 C 223.171875 170.417969 220.53125 171.824219 220.015625 173.996094 C 219.539062 176.179688 221.066406 178.527344 222.832031 179.03125 C 223.089844 179.101562 223.355469 179.164062 223.351562 179.171875 L 213.351562 223.25 C 213.347656 223.257812 213.070312 223.199219 212.820312 223.15625 C 211.007812 222.847656 208.496094 224.277344 207.972656 226.453125 C 207.503906 228.636719 209.320312 231.050781 211.09375 231.554688 C 214.542969 232.488281 218.058594 233.285156 221.578125 233.929688 C 223.386719 234.234375 226.144531 232.859375 226.660156 230.683594 C 227.132812 228.503906 225.5 226.128906 223.738281 225.625 " fill-opacity="1" fill-rule="nonzero"/><path fill="rgb(50.19989%, 83.918762%, 96.859741%)" d="M 237.710938 230.863281 C 237.5 230.761719 237.277344 230.660156 237.28125 230.648438 L 253.238281 193.96875 C 253.242188 193.960938 253.472656 194.054688 253.683594 194.136719 C 255.207031 194.699219 257.625 193.871094 258.433594 192.0625 C 259.210938 190.246094 258.019531 187.84375 256.566406 187.117188 C 253.722656 185.734375 250.796875 184.464844 247.839844 183.324219 C 246.316406 182.757812 243.792969 183.550781 242.984375 185.351562 C 242.210938 187.175781 243.148438 189.464844 244.601562 190.195312 C 244.8125 190.292969 245.035156 190.390625 245.03125 190.398438 L 229.070312 227.085938 C 229.066406 227.09375 228.832031 226.996094 228.625 226.914062 C 227.097656 226.351562 224.679688 227.183594 223.867188 228.984375 C 223.097656 230.808594 224.285156 233.207031 225.738281 233.933594 C 228.582031 235.316406 231.515625 236.589844 234.46875 237.726562 C 235.992188 238.289062 238.613281 237.546875 239.417969 235.738281 C 240.191406 233.921875 239.164062 231.589844 237.710938 230.863281 " fill-opacity="1" fill-rule="nonzero"/><path fill="rgb(50.19989%, 83.918762%, 96.859741%)" d="M 208.648438 78.773438 C 208.550781 81.429688 205.933594 83.492188 202.8125 83.375 C 199.683594 83.257812 197.226562 81.015625 197.324219 78.355469 C 197.324219 78.355469 197.707031 59.796875 203.21875 60 L 203.667969 60.015625 C 209.886719 60.242188 208.648438 78.773438 208.648438 78.773438 " fill-opacity="1" fill-rule="nonzero"/><path fill="rgb(50.19989%, 83.918762%, 96.859741%)" d="M 211.300781 81.734375 C 211.234375 83.574219 209.691406 85.003906 207.851562 84.9375 L 197.671875 84.5625 C 195.839844 84.496094 194.40625 82.949219 194.464844 81.117188 L 194.480469 80.839844 C 194.546875 79.003906 196.089844 77.566406 197.933594 77.636719 L 208.109375 78.015625 C 209.945312 78.082031 211.378906 79.621094 211.3125 81.457031 L 211.300781 81.734375 " fill-opacity="1" fill-rule="nonzero"/><path fill="rgb(50.19989%, 83.918762%, 96.859741%)" d="M 155.59375 82.46875 C 155.496094 85.128906 152.882812 87.191406 149.753906 87.070312 C 146.625 86.957031 144.171875 84.710938 144.265625 82.054688 C 144.265625 82.054688 144.652344 63.496094 150.160156 63.699219 L 150.613281 63.714844 C 156.835938 63.941406 155.59375 82.46875 155.59375 82.46875 " fill-opacity="1" fill-rule="nonzero"/><path fill="rgb(50.19989%, 83.918762%, 96.859741%)" d="M 158.246094 85.433594 C 158.179688 87.269531 156.636719 88.703125 154.796875 88.632812 L 144.613281 88.261719 C 142.777344 88.191406 141.34375 86.648438 141.414062 84.8125 L 141.421875 84.539062 C 141.492188 82.703125 143.035156 81.269531 144.871094 81.335938 L 155.054688 81.710938 C 156.886719 81.773438 158.320312 83.320312 158.257812 85.15625 L 158.246094 85.433594 " fill-opacity="1" fill-rule="nonzero"/><path fill="rgb(50.19989%, 83.918762%, 96.859741%)" d="M 253.789062 90.421875 C 253.699219 92.835938 251.320312 94.710938 248.46875 94.609375 C 245.621094 94.503906 243.382812 92.457031 243.476562 90.039062 C 243.476562 90.039062 243.820312 73.136719 248.84375 73.324219 L 249.25 73.335938 C 254.917969 73.546875 253.789062 90.421875 253.789062 90.421875 " fill-opacity="1" fill-rule="nonzero"/><path fill="rgb(50.19989%, 83.918762%, 96.859741%)" d="M 256.199219 93.117188 C 256.144531 94.789062 254.738281 96.089844 253.0625 96.03125 L 243.792969 95.691406 C 242.121094 95.628906 240.8125 94.222656 240.878906 92.550781 L 240.882812 92.300781 C 240.945312 90.628906 242.351562 89.320312 244.023438 89.386719 L 253.292969 89.722656 C 254.96875 89.785156 256.269531 91.191406 256.214844 92.867188 L 256.199219 93.117188 " fill-opacity="1" fill-rule="nonzero"/><path fill="rgb(50.19989%, 83.918762%, 96.859741%)" d="M 292.015625 110.257812 C 291.941406 112.097656 290.128906 113.519531 287.972656 113.445312 C 285.804688 113.363281 284.109375 111.808594 284.171875 109.96875 C 284.171875 109.96875 284.4375 97.125 288.253906 97.261719 L 288.566406 97.277344 C 292.871094 97.433594 292.015625 110.257812 292.015625 110.257812 " fill-opacity="1" fill-rule="nonzero"/><path fill="rgb(50.19989%, 83.918762%, 96.859741%)" d="M 293.847656 112.308594 C 293.804688 113.578125 292.734375 114.570312 291.457031 114.523438 L 284.417969 114.261719 C 283.148438 114.21875 282.152344 113.152344 282.203125 111.882812 L 282.207031 111.6875 C 282.25 110.417969 283.320312 109.425781 284.59375 109.46875 L 291.636719 109.730469 C 292.90625 109.777344 293.902344 110.84375 293.855469 112.113281 L 293.847656 112.308594 " fill-opacity="1" fill-rule="nonzero"/><path fill="rgb(50.19989%, 83.918762%, 96.859741%)" d="M 87.773438 196.609375 C 89.714844 198.488281 89.488281 201.859375 87.277344 204.140625 C 85.066406 206.421875 81.703125 206.746094 79.765625 204.867188 C 79.765625 204.867188 66.007812 191.96875 69.902344 187.953125 L 70.222656 187.621094 C 74.621094 183.09375 87.773438 196.609375 87.773438 196.609375 " fill-opacity="1" fill-rule="nonzero"/><path fill="rgb(50.19989%, 83.918762%, 96.859741%)" d="M 91.816406 196.621094 C 93.15625 197.921875 93.1875 200.058594 91.878906 201.402344 L 84.6875 208.820312 C 83.390625 210.160156 81.25 210.191406 79.910156 208.894531 L 79.707031 208.695312 C 78.367188 207.398438 78.332031 205.261719 79.636719 203.921875 L 86.832031 196.503906 C 88.128906 195.164062 90.265625 195.128906 91.609375 196.425781 L 91.816406 196.621094 " fill-opacity="1" fill-rule="nonzero"/><path fill="rgb(50.19989%, 83.918762%, 96.859741%)" d="M 182.386719 347.0625 L 204.832031 347.0625 L 204.832031 306.226562 C 204.832031 302.652344 197.550781 289.820312 206.65625 286.964844 C 218.328125 283.308594 209.804688 264.777344 201.722656 267.699219 C 194.503906 270.308594 201.359375 263.222656 184.523438 253.480469 C 167.683594 243.730469 161.875 266.320312 176.246094 290.460938 C 184.59375 304.480469 182.597656 343.386719 182.386719 347.0625 " fill-opacity="1" fill-rule="nonzero"/><path fill="rgb(50.19989%, 83.918762%, 96.859741%)" d="M 218.933594 299.261719 C 219.09375 313.847656 218.953125 343.789062 218.9375 347.0625 L 228.039062 347.0625 C 228.074219 343.445312 228.519531 305.941406 232.613281 291.28125 C 236.925781 275.871094 241.046875 267.445312 232.613281 270.941406 C 228.722656 272.554688 229.347656 272.894531 224.59375 268.328125 C 218.28125 262.273438 211.550781 273.664062 213.792969 280.289062 C 216.042969 286.914062 218.765625 283.820312 218.933594 299.261719 " fill-opacity="1" fill-rule="nonzero"/><path fill="rgb(50.19989%, 83.918762%, 96.859741%)" d="M 225.925781 264.296875 C 231.230469 262.871094 246.570312 254.433594 239.894531 247.34375 C 233.222656 240.261719 224.273438 232.175781 219.339844 239.144531 C 214.402344 246.113281 218.261719 266.347656 225.925781 264.296875 " fill-opacity="1" fill-rule="nonzero"/><path fill="rgb(50.19989%, 83.918762%, 96.859741%)" d="M 213.304688 262.550781 C 210.472656 264.910156 205.5625 267.273438 198.773438 260.085938 C 191.992188 252.894531 184.585938 247.550781 180.265625 246.527344 C 175.949219 245.496094 173.480469 234.792969 186.4375 235.214844 C 199.390625 235.632812 212.152344 232.347656 211.632812 243.03125 C 211.113281 253.714844 221.527344 255.675781 213.304688 262.550781 " fill-opacity="1" fill-rule="nonzero"/></svg>