<svg xmlns="http://www.w3.org/2000/svg" width="150" viewBox="0 0 150 150" height="150" version="1.0"><defs><clipPath id="a"><path d="M 1.484375 5.160156 L 148.484375 5.160156 L 148.484375 144.660156 L 1.484375 144.660156 Z M 1.484375 5.160156"/></clipPath><clipPath id="b"><path d="M 52 19 L 98 19 L 98 144.660156 L 52 144.660156 Z M 52 19"/></clipPath></defs><path fill="#E57373" d="M 137.460938 52.882812 C 137.460938 59.125 131.578125 63.898438 124.597656 63.898438 C 118.71875 63.898438 113.941406 60.59375 112.46875 55.820312 C 100.710938 52.515625 94.09375 36.367188 93.726562 35.632812 L 100.34375 32.695312 C 101.8125 36.367188 106.589844 45.175781 112.835938 48.113281 C 114.675781 44.441406 119.453125 41.503906 124.597656 41.503906 C 131.578125 41.871094 137.460938 46.644531 137.460938 52.882812 Z M 37.132812 48.480469 C 35.292969 44.808594 30.515625 41.871094 25.371094 41.871094 C 18.390625 41.871094 12.507812 46.644531 12.507812 52.882812 C 12.507812 59.125 18.390625 63.898438 25.371094 63.898438 C 31.253906 63.898438 36.03125 60.59375 37.5 55.820312 C 49.257812 52.515625 55.875 36.367188 56.242188 35.632812 L 49.628906 32.695312 C 48.15625 36.730469 43.011719 45.542969 37.132812 48.480469 Z M 37.132812 48.480469"/><g clip-path="url(#a)"><path fill="#EF9A9A" d="M 133.050781 5.164062 C 117.980469 5.164062 112.101562 16.175781 102.179688 16.175781 C 91.15625 16.175781 91.15625 8.832031 74.984375 8.832031 C 58.816406 8.832031 58.816406 16.175781 47.789062 16.175781 C 37.867188 16.175781 31.988281 5.164062 16.917969 5.164062 C 6.261719 5.164062 1.484375 17.644531 1.484375 28.289062 C 1.484375 36.367188 6.996094 52.882812 12.507812 56.554688 C 24.636719 53.984375 23.535156 41.871094 23.535156 41.871094 C 23.535156 41.871094 12.507812 33.429688 12.507812 24.617188 C 12.507812 20.214844 13.613281 16.175781 16.917969 16.175781 C 25.003906 16.175781 27.210938 26.820312 49.257812 34.53125 C 53.300781 55.085938 63.226562 63.898438 63.226562 73.441406 C 63.226562 80.785156 55.507812 85.921875 55.507812 98.40625 C 55.507812 110.886719 63.960938 144.660156 63.960938 144.660156 L 86.007812 144.660156 C 86.007812 144.660156 94.460938 110.519531 94.460938 98.039062 C 94.460938 85.554688 86.746094 80.417969 86.746094 73.074219 C 86.746094 63.53125 97.035156 55.085938 100.710938 34.164062 C 123.128906 26.820312 124.964844 15.808594 133.050781 15.808594 C 136.355469 15.808594 137.460938 19.847656 137.460938 24.25 C 137.460938 33.0625 126.433594 41.503906 126.433594 41.503906 C 126.433594 41.503906 125.332031 53.617188 137.460938 56.1875 C 142.972656 52.515625 148.484375 36 148.484375 27.921875 C 148.484375 17.644531 143.707031 5.164062 133.050781 5.164062 Z M 133.050781 5.164062"/></g><g clip-path="url(#b)"><path fill="#B71C1C" d="M 97.035156 27.1875 C 97.035156 27.1875 83.804688 19.847656 74.984375 19.847656 C 66.164062 19.847656 52.933594 27.1875 52.933594 27.1875 C 65.0625 27.1875 71.308594 33.429688 71.308594 85.921875 C 71.308594 85.921875 62.855469 85.1875 63.960938 98.039062 C 64.328125 105.011719 67.265625 144.660156 67.265625 144.660156 L 82.703125 144.660156 C 82.703125 144.660156 85.640625 105.011719 86.007812 98.039062 C 87.113281 85.1875 78.660156 85.921875 78.660156 85.921875 C 78.660156 33.429688 84.90625 27.1875 97.035156 27.1875 Z M 97.035156 27.1875"/></g><path fill="#D32F2F" d="M 79.027344 85.921875 C 80.496094 85.921875 84.90625 86.65625 85.640625 93.265625 L 63.960938 93.265625 C 65.0625 86.65625 69.472656 85.921875 70.574219 85.921875 Z M 83.804688 129.976562 L 66.164062 129.976562 C 66.53125 132.542969 66.53125 135.113281 66.53125 137.316406 L 83.070312 137.316406 C 83.4375 135.113281 83.4375 132.542969 83.804688 129.976562 Z M 65.0625 115.289062 C 65.0625 117.859375 65.429688 120.0625 65.429688 122.632812 L 84.171875 122.632812 C 84.171875 120.0625 84.539062 117.859375 84.539062 115.289062 Z M 63.960938 100.605469 C 63.960938 102.441406 64.328125 105.011719 64.328125 107.949219 L 84.90625 107.949219 C 85.273438 105.011719 85.273438 102.441406 85.273438 100.605469 Z M 63.960938 100.605469"/></svg>