<svg xmlns="http://www.w3.org/2000/svg" width="375" viewBox="0 0 375 375" height="375" version="1.0"><defs><clipPath id="a"><path d="M 168 304 L 242 304 L 242 364.0625 L 168 364.0625 Z M 168 304"/></clipPath></defs><path fill="#FFF" d="M 257.859375 113.171875 C 253.171875 106.027344 243.179688 106.929688 239.5 110.316406 C 234.003906 115.277344 240.972656 122.402344 240.972656 122.402344 C 240.972656 122.402344 241.085938 146.179688 235.265625 148.410156 C 229.757812 150.601562 229.464844 155.296875 231.609375 157.613281 C 237.253906 162.980469 245.449219 164.710938 248.886719 160.625 C 253.175781 155.789062 248.042969 151.585938 247.417969 148.539062 C 246.042969 142.414062 247.976562 127.550781 253.082031 123.710938 C 257.535156 120.371094 259.957031 116.152344 257.859375 113.171875" fill-rule="evenodd"/><path fill="#FFF" d="M 170.875 137.058594 C 168.910156 134.28125 169.730469 126.878906 169.558594 123.441406 C 168.925781 108.171875 170.746094 108.878906 172.332031 104.222656 C 176.171875 92.34375 155.160156 98.234375 155.160156 98.234375 C 141.726562 100.648438 153.355469 110.472656 153.355469 110.472656 C 157.773438 116.679688 158.761719 133.023438 156.96875 136.125 C 156.046875 137.839844 155.085938 140.503906 154.042969 142.082031 C 144.933594 158.777344 176.101562 148.792969 176.101562 148.792969 C 180.617188 141.710938 172.753906 139.679688 170.875 137.058594" fill-rule="evenodd"/><path fill="#FFF" d="M 193.542969 108.433594 C 197.488281 114.871094 197.722656 131.171875 195.699219 134.269531 C 194.777344 135.917969 193.410156 138.507812 192.65625 140.019531 C 182.5 156.191406 214.222656 147.976562 214.222656 147.976562 C 218.992188 141.015625 211.214844 138.605469 209.589844 135.972656 C 207.875 132.949219 209.027344 125.675781 208.992188 122.257812 C 209.222656 106.867188 211.015625 107.644531 212.679688 103.292969 C 217.167969 91.648438 196.035156 96.328125 196.035156 96.328125 C 182.292969 97.960938 193.542969 108.433594 193.542969 108.433594" fill-rule="evenodd"/><path fill="#FFF" d="M 301.273438 79.375 C 300.292969 80.734375 298.578125 81.261719 297.933594 82.429688 C 292.910156 91.722656 306.988281 91.382812 310.894531 89.226562 C 314.738281 86.933594 311.421875 82.351562 310.265625 79.835938 C 309.046875 77.191406 310.332031 72.578125 310.636719 69.640625 C 310.804688 66.507812 308.875 62.25 304.867188 63.03125 C 297.964844 64.363281 302.875 76.964844 301.273438 79.375" fill-rule="evenodd"/><path fill="#FFF" d="M 242.003906 51.738281 C 241.398438 53.210938 239.796875 53.882812 239.160156 55.257812 C 235.5625 65.191406 249.5625 62.882812 253.152344 60.042969 C 256.613281 57.207031 252.652344 53.171875 251.140625 50.875 C 249.515625 48.308594 250.128906 43.699219 249.957031 40.707031 C 249.703125 37.589844 247.289062 33.671875 243.273438 35.050781 C 236.652344 37.386719 243.394531 49.132812 242.003906 51.738281" fill-rule="evenodd"/><path fill="#FFF" d="M 184.933594 29.609375 C 184.566406 31.117188 183.066406 32.308594 182.925781 33.773438 C 181.867188 44.125 194.875 38.457031 197.511719 34.859375 C 200.3125 31.347656 195.34375 28.441406 193.414062 26.433594 C 191.222656 24.453125 190.527344 19.757812 189.625 16.902344 C 188.75 14.050781 185.3125 10.875 181.804688 13.195312 C 175.929688 17.109375 185.484375 26.628906 184.933594 29.609375" fill-rule="evenodd"/><path fill="#FFF" d="M 137.378906 34.023438 C 135.179688 32.125 134.476562 27.359375 133.4375 24.660156 C 132.394531 21.578125 128.867188 18.507812 125.417969 20.878906 C 119.648438 24.902344 129.394531 34.480469 128.761719 37.3125 C 128.542969 38.996094 127.128906 40.035156 127.011719 41.445312 C 126.078125 51.867188 140.972656 46.214844 143.640625 42.46875 C 147.59375 37.027344 139.335938 35.949219 137.378906 34.023438" fill-rule="evenodd"/><path fill="#FFF" d="M 161 80.125 C 158.789062 78.078125 157.417969 71.933594 156.457031 69.117188 C 151.925781 56.558594 153.578125 56.933594 153.523438 52.949219 C 153.515625 42.40625 138.816406 50.453125 138.816406 50.453125 C 128.945312 54.710938 140.660156 62.640625 140.660156 62.640625 C 147.308594 68.585938 151.171875 78.082031 150.582031 80.921875 C 150.34375 82.445312 150.25 85.015625 150.007812 86.441406 C 147.285156 101.792969 168.078125 88.914062 168.078125 88.914062 C 169.671875 82.304688 163.101562 82.035156 161 80.125" fill-rule="evenodd"/><path fill="#FFF" d="M 190.019531 55.410156 C 195.378906 62.511719 197.363281 72.414062 196.207031 75.238281 C 195.6875 76.710938 195.167969 79.214844 194.765625 80.53125 C 189.078125 95.050781 211.890625 86.265625 211.890625 86.265625 C 214.800781 80.03125 208.285156 78.476562 206.683594 76.28125 C 204.769531 74.015625 204.644531 67.578125 204.128906 64.644531 C 202.203125 51.523438 203.691406 52.140625 204.335938 48.203125 C 206.1875 37.941406 190.257812 43.078125 190.257812 43.078125 C 179.882812 45.503906 190.019531 55.410156 190.019531 55.410156" fill-rule="evenodd"/><path fill="#FFF" d="M 247.082031 66.371094 C 237.980469 67.113281 244.964844 75.683594 244.964844 75.683594 C 248.332031 81.660156 248.648438 89.570312 247.375 91.535156 C 246.644531 92.652344 245.78125 94.414062 245.195312 95.398438 C 238.242188 105.933594 258.757812 101.632812 258.757812 101.632812 C 262.144531 97.082031 256.828125 95.34375 255.753906 93.332031 C 254.585938 91.449219 255.414062 86.480469 255.546875 84.308594 C 255.773438 73.996094 256.890625 74.589844 258.257812 71.691406 C 261.304688 64.03125 247.082031 66.371094 247.082031 66.371094" fill-rule="evenodd"/><path fill="#FFF" d="M 295.0625 104.214844 C 295.964844 110.632812 293.511719 117.335938 291.507812 118.601562 C 290.4375 119.269531 288.9375 120.652344 288.15625 121.113281 C 277.835938 127.621094 298.492188 131.410156 298.492188 131.410156 C 303.21875 128.632812 299.101562 125.332031 298.660156 123.277344 C 298.445312 121.234375 300.808594 117.273438 301.773438 115.402344 C 305.738281 106.644531 306.558594 107.636719 308.769531 105.503906 C 314.640625 100.121094 300.546875 96.90625 300.546875 96.90625 C 291.65625 94.214844 295.0625 104.214844 295.0625 104.214844" fill-rule="evenodd"/><path fill="#FFF" d="M 277.695312 141.441406 C 277.628906 149.871094 272.824219 158.175781 270.050781 159.363281 C 268.433594 160.074219 266.527344 161.476562 265.066406 162.082031 C 250.375 168.5 276.609375 177.484375 276.609375 177.484375 C 283.253906 175.039062 278.511719 169.738281 278.472656 167.09375 C 278.429688 164.316406 282.527344 159.707031 283.996094 157.273438 C 290.875 146.84375 292.003906 148.28125 295.167969 145.964844 C 303.78125 140.121094 286.101562 133.089844 286.101562 133.089844 C 275.285156 127.714844 277.695312 141.441406 277.695312 141.441406" fill-rule="evenodd"/><path fill="#FFF" d="M 242.976562 184.753906 C 244.753906 180.53125 258.050781 170.890625 236.730469 167.496094 C 231.015625 166.597656 220.257812 160.964844 225.664062 188.21875 C 228.003906 199.964844 224.980469 225.929688 214.265625 235.222656 C 193.308594 221.5 222.78125 164.183594 210.703125 158.792969 C 205.269531 156.511719 190.214844 150.714844 188.90625 167.417969 C 188.828125 168.609375 198.984375 207.761719 197.835938 226.714844 C 196.871094 242.605469 191.292969 239.554688 187.722656 226.398438 C 184.261719 213.664062 177.191406 191.167969 176.234375 177.875 C 176.234375 177.875 185.925781 156.730469 163.292969 157.496094 C 161.539062 157.632812 142.957031 155.125 158.925781 181.203125 C 165.484375 191.917969 172.519531 217.273438 170.714844 233.753906 C 170.011719 240.988281 159.5625 254.324219 194.847656 250.332031 C 212.21875 250.140625 252.179688 263.144531 249.230469 243.589844 C 249.230469 243.589844 250.074219 213.8125 264.742188 198.160156 C 264.742188 198.160156 284.878906 178.320312 261.863281 178.484375 C 256.175781 178.507812 248.738281 179.210938 250.023438 198.496094 C 250.84375 208.851562 242.292969 239.910156 234.921875 236.78125 C 230.003906 234.585938 228.726562 218.84375 242.976562 184.753906" fill-rule="evenodd"/><path fill="#FFF" d="M 78.957031 161.871094 C 80.585938 158.015625 77.152344 150.328125 75.773438 145.414062 C 70.835938 127.28125 64 138.359375 63.886719 141.476562 C 62.738281 173.40625 76.457031 167.71875 78.957031 161.871094" fill-rule="evenodd"/><path fill="#FFF" d="M 101.859375 200.722656 L 89.136719 180.304688 C 89.136719 180.304688 98.382812 165.707031 82.277344 167.695312 C 82.277344 167.695312 60.457031 173.882812 69.636719 182.414062 C 69.636719 182.414062 74.960938 185.417969 78.878906 185.328125 L 90.644531 204.359375 C 90.644531 204.359375 83.976562 224.589844 103.984375 214.621094 C 103.984375 214.621094 122.464844 203.355469 101.859375 200.722656" fill-rule="evenodd"/><path fill="#FFF" d="M 158.316406 251 C 158.316406 251 151.167969 254.636719 124.355469 226.234375 C 124.355469 226.234375 126.644531 208.6875 112.128906 213.695312 C 112.128906 213.695312 90.53125 226.207031 104.8125 234.1875 C 104.8125 234.1875 110.574219 236.816406 115.078125 236.664062 L 140.019531 260.039062 C 140.019531 260.039062 142.921875 277.96875 154.460938 272.050781 C 154.492188 271.914062 174.863281 255.03125 158.316406 251" fill-rule="evenodd"/><path fill="#FFF" d="M 173.207031 294.515625 C 187.246094 303.492188 218.050781 300.019531 232.132812 296.226562 C 252.984375 290.566406 236.429688 272.78125 236.429688 272.78125 C 213.054688 249.972656 179.0625 262.121094 179.0625 262.121094 C 154.597656 272.199219 173.207031 294.515625 173.207031 294.515625" fill-rule="evenodd"/><g clip-path="url(#a)"><path fill="#FFF" d="M 222.136719 364.003906 L 184.929688 362.597656 C 184.078125 356.410156 183.144531 340.371094 172.855469 323.972656 C 156.0625 297.226562 187.132812 307.839844 206.742188 305.871094 C 225.128906 304.03125 254.878906 297.828125 234.425781 336.488281 C 228.996094 346.757812 222.136719 364.003906 222.136719 364.003906" fill-rule="evenodd"/></g></svg>