<svg xmlns="http://www.w3.org/2000/svg" width="150" viewBox="0 0 150 150" height="150" version="1.0"><path fill="#F4ABBA" d="M 50.332031 54.035156 C 50.78125 45.875 51.226562 42.65625 50.714844 36.632812 C 50.148438 31.109375 49.191406 27.0625 47.835938 23.121094 C 46.480469 19.183594 35.117188 20.722656 36.476562 27.488281 C 37.832031 34.253906 38.753906 53.605469 38.207031 59.898438 C 44.148438 56.125 50.332031 54.035156 50.332031 54.035156 Z M 50.332031 54.035156"/><path fill="#BE1931" d="M 44.148438 56.125 C 35.9375 60.230469 27.726562 68.433594 27.726562 80.738281 C 27.726562 114.242188 57.785156 121.96875 82.421875 130.171875 C 107.054688 138.378906 109.988281 136.226562 118.058594 129.96875 C 122.167969 121.765625 119.648438 77.527344 107.328125 61.117188 C 98.445312 49.285156 62.875 46.769531 44.148438 56.125 Z M 44.148438 56.125"/><path fill="#A0041E" d="M 44.148438 56.125 C 35.9375 60.230469 27.726562 68.433594 27.726562 80.738281 C 27.726562 114.242188 65.464844 132.832031 78.988281 136.03125 C 103.074219 141.730469 113.949219 138.175781 118.054688 129.96875 C 111.210938 134.238281 82.292969 127.613281 66.964844 113.96875 C 50.890625 99.652344 43.648438 74.695312 53.976562 61.984375 C 54.25 58.011719 53.523438 55.898438 53.523438 52.71875 C 50.125 53.59375 46.949219 54.722656 44.148438 56.125 Z M 44.148438 56.125"/><path fill="#EA596E" d="M 53.980469 61.984375 C 48.558594 53.78125 45.703125 38.777344 56.46875 27.40625 C 66.640625 16.660156 86.296875 16.503906 95.714844 31.136719 C 103.722656 43.578125 97.523438 68.429688 97.523438 68.429688 C 97.523438 68.429688 79.082031 49.328125 73.539062 58.269531 C 68.003906 67.214844 54.835938 63.277344 53.980469 61.984375 Z M 53.980469 61.984375"/><path fill="#F4ABBA" d="M 96.648438 72.125 C 101.085938 65.867188 101.085938 56.140625 101.085938 56.140625 C 101.085938 56.140625 102.328125 50.429688 115.292969 54.074219 C 116.5625 54.433594 120.433594 48.402344 118.007812 47.484375 C 109.195312 44.152344 102.921875 46.300781 102.921875 46.300781 C 102.921875 46.300781 107.257812 43.097656 113.5625 42.339844 C 116.066406 42.035156 114.035156 37.082031 111.546875 37.132812 C 108.859375 37.1875 106.414062 37.839844 103.515625 39.105469 C 102.164062 39.695312 100.753906 38.6875 100.246094 38.183594 C 92.613281 30.609375 84.035156 31.707031 78.800781 34.03125 C 73.214844 36.511719 70.890625 43.535156 74.328125 48.292969 C 77.761719 53.046875 74.375 56.644531 72.242188 60.445312 C 68.789062 66.59375 90.789062 80.398438 96.648438 72.125 Z M 96.648438 72.125"/><path fill="#EA596E" d="M 63.257812 30.289062 C 60.398438 23.738281 57.152344 20.804688 52.914062 16.738281 C 48.675781 12.671875 55.796875 7.59375 60.371094 12 C 64.949219 16.402344 69.1875 24.703125 69.867188 26.734375 C 70.546875 28.769531 64.960938 34.195312 63.257812 30.289062 Z M 63.257812 30.289062"/><path fill="#EA596E" d="M 66.96875 20.914062 C 71.320312 18.636719 72.75 12.339844 73.085938 10.308594 C 73.425781 8.273438 79.699219 8.105469 79.019531 12.507812 C 78.339844 16.910156 79.066406 19.871094 79.066406 19.871094 C 79.066406 19.871094 82.40625 14.179688 85.796875 11.300781 C 89.1875 8.417969 93.074219 13 91.210938 15.679688 C 89.34375 18.363281 88.988281 23.273438 89.867188 25.011719 C 90.746094 26.75 81.261719 28.933594 75.222656 27.746094 C 69.191406 26.566406 66.96875 20.914062 66.96875 20.914062 Z M 66.96875 20.914062"/><path fill="#F4ABBA" d="M 53.527344 45.988281 L 53.410156 45.984375 C 52.351562 45.917969 51.546875 45.007812 51.613281 43.949219 C 52.265625 33.394531 59.273438 24.945312 69.46875 22.425781 C 82.449219 19.234375 90.402344 26.816406 90.734375 27.140625 C 91.492188 27.882812 91.503906 29.09375 90.765625 29.855469 C 90.03125 30.605469 88.816406 30.625 88.058594 29.886719 C 87.785156 29.628906 81.234375 23.480469 70.386719 26.152344 C 61.726562 28.292969 56 35.199219 55.445312 44.1875 C 55.378906 45.203125 54.535156 45.988281 53.527344 45.988281 Z M 63.21875 22.46875 C 62.554688 22.46875 61.910156 22.128906 61.550781 21.511719 C 61.527344 21.46875 59.058594 17.253906 55.5 14.972656 C 54.609375 14.398438 54.351562 13.214844 54.921875 12.324219 C 55.492188 11.429688 56.679688 11.167969 57.574219 11.746094 C 61.929688 14.542969 64.761719 19.394531 64.875 19.597656 C 65.40625 20.511719 65.089844 21.683594 64.171875 22.210938 C 63.875 22.386719 63.542969 22.46875 63.21875 22.46875 Z M 74.261719 19.746094 C 74.066406 19.746094 73.871094 19.71875 73.675781 19.65625 C 72.664062 19.332031 72.113281 18.253906 72.429688 17.246094 C 72.433594 17.226562 73.097656 15.117188 73.496094 11.441406 C 73.613281 10.386719 74.578125 9.625 75.613281 9.742188 C 76.667969 9.859375 77.429688 10.800781 77.3125 11.855469 C 76.867188 15.960938 76.117188 18.324219 76.085938 18.417969 C 75.824219 19.234375 75.070312 19.746094 74.261719 19.746094 Z M 83.640625 20.425781 C 83.289062 20.425781 82.9375 20.328125 82.617188 20.128906 C 81.722656 19.566406 81.453125 18.382812 82.015625 17.492188 C 82.101562 17.355469 84.097656 14.214844 87.417969 11.808594 C 88.273438 11.191406 89.476562 11.378906 90.097656 12.234375 C 90.71875 13.089844 90.53125 14.292969 89.675781 14.914062 C 86.972656 16.871094 85.277344 19.507812 85.269531 19.535156 C 84.898438 20.109375 84.277344 20.425781 83.640625 20.425781 Z M 83.640625 20.425781"/><path fill="#F7DAE2" d="M 97.246094 59.722656 C 97.136719 59.722656 97.027344 59.714844 96.914062 59.695312 C 95.875 59.515625 95.171875 58.527344 95.347656 57.480469 L 95.523438 56.472656 C 96.886719 48.691406 98.066406 41.964844 87.785156 37.554688 C 86.8125 37.136719 86.363281 36.011719 86.78125 35.035156 C 87.195312 34.0625 88.328125 33.609375 89.296875 34.03125 C 102.367188 39.632812 100.667969 49.339844 99.300781 57.132812 L 99.128906 58.125 C 98.976562 59.0625 98.160156 59.722656 97.246094 59.722656 Z M 103.761719 43.144531 C 103.222656 43.144531 102.707031 42.835938 102.460938 42.320312 C 102.121094 41.597656 102.425781 40.742188 103.148438 40.40625 C 103.335938 40.316406 107.820312 38.214844 111.175781 38.128906 C 111.972656 38.238281 112.628906 38.738281 112.652344 39.527344 C 112.671875 40.320312 112.046875 40.980469 111.253906 41.003906 C 108.507812 41.078125 104.421875 42.988281 104.382812 43.007812 C 104.175781 43.097656 103.964844 43.144531 103.761719 43.144531 Z M 115.050781 51.472656 C 114.839844 51.472656 114.632812 51.441406 114.429688 51.367188 C 109.992188 49.851562 105.433594 50.945312 105.390625 50.957031 C 104.351562 51.210938 103.320312 50.582031 103.070312 49.558594 C 102.820312 48.53125 103.441406 47.492188 104.464844 47.238281 C 104.695312 47.179688 110.136719 45.851562 115.671875 47.738281 C 116.675781 48.082031 117.210938 49.171875 116.867188 50.175781 C 116.59375 50.96875 115.847656 51.472656 115.050781 51.472656 Z M 46.554688 53.070312 C 45.492188 53.070312 44.632812 52.210938 44.632812 51.152344 C 44.632812 50.988281 44.597656 34.476562 41.828125 25.972656 C 41.496094 24.964844 42.050781 23.882812 43.054688 23.554688 C 44.058594 23.226562 45.144531 23.777344 45.476562 24.785156 C 48.433594 33.875 48.46875 50.453125 48.46875 51.15625 C 48.472656 52.210938 47.613281 53.070312 46.554688 53.070312 Z M 46.554688 53.070312"/><path fill="#D84864" d="M 34.839844 102.601562 C 33.957031 102.601562 33.160156 101.988281 32.96875 101.089844 C 32.878906 100.683594 30.832031 91.035156 33.671875 84.742188 C 36.207031 79.109375 39.953125 76.945312 43.253906 75.039062 C 47.1875 72.765625 50.027344 71.128906 50.589844 64.085938 C 50.675781 63.03125 51.601562 62.261719 52.660156 62.332031 C 53.714844 62.414062 54.503906 63.339844 54.417969 64.398438 C 53.695312 73.445312 49.363281 75.949219 45.179688 78.363281 C 42.105469 80.140625 39.203125 81.8125 37.175781 86.320312 C 34.859375 91.457031 36.707031 100.1875 36.726562 100.28125 C 36.949219 101.316406 36.292969 102.335938 35.253906 102.558594 C 35.109375 102.585938 34.976562 102.601562 34.839844 102.601562 Z M 82.488281 115.078125 C 81.820312 115.078125 81.171875 114.730469 80.816406 114.109375 C 80.289062 113.191406 80.609375 112.019531 81.53125 111.492188 C 81.609375 111.449219 88.742188 107.335938 91.054688 102.195312 C 93.464844 96.847656 92.328125 94.496094 90.609375 90.9375 C 89.027344 87.652344 87.050781 83.5625 87.632812 76.363281 C 87.714844 75.308594 88.667969 74.523438 89.699219 74.605469 C 90.753906 74.6875 91.539062 75.613281 91.457031 76.671875 C 90.964844 82.835938 92.542969 86.109375 94.070312 89.277344 C 95.9375 93.148438 97.703125 96.796875 94.5625 103.773438 C 91.726562 110.0625 83.769531 114.636719 83.4375 114.828125 C 83.132812 115 82.808594 115.078125 82.488281 115.078125 Z M 82.488281 115.078125"/><path fill="#D84864" d="M 78.21875 97.421875 C 77.671875 97.421875 77.125 97.1875 76.746094 96.734375 C 75.25 94.941406 74.917969 91.96875 75.933594 89.496094 C 76.878906 87.203125 78.761719 85.761719 81.109375 85.539062 C 84.328125 85.234375 87.121094 82.222656 87.246094 80.417969 C 87.316406 79.359375 88.242188 78.539062 89.285156 78.632812 C 90.34375 78.707031 91.144531 79.617188 91.074219 80.671875 C 90.8125 84.6875 86.144531 88.90625 81.476562 89.359375 C 80.558594 89.445312 79.890625 89.980469 79.488281 90.953125 C 78.960938 92.226562 79.1875 93.667969 79.695312 94.273438 C 80.375 95.085938 80.261719 96.296875 79.453125 96.976562 C 79.089844 97.277344 78.65625 97.421875 78.21875 97.421875 Z M 107.777344 113.148438 C 107.636719 113.148438 107.492188 113.132812 107.347656 113.101562 C 106.3125 112.863281 105.667969 111.832031 105.910156 110.796875 C 106.054688 110.175781 105.746094 108.871094 104.902344 107.667969 C 104.167969 106.628906 103.222656 105.945312 102.375 105.847656 C 97.800781 105.304688 92.699219 97.238281 91.894531 93.40625 C 91.675781 92.367188 92.339844 91.351562 93.375 91.132812 C 94.421875 90.925781 95.433594 91.574219 95.652344 92.613281 C 96.367188 95.984375 100.789062 101.800781 102.828125 102.035156 C 104.800781 102.269531 106.652344 103.484375 108.042969 105.464844 C 109.457031 107.464844 110.070312 109.84375 109.652344 111.660156 C 109.441406 112.550781 108.648438 113.148438 107.777344 113.148438 Z M 96.453125 132.136719 C 95.980469 132.136719 95.503906 131.964844 95.132812 131.609375 C 94.367188 130.886719 94.332031 129.671875 95.054688 128.898438 C 97.667969 126.140625 96.09375 121.972656 93.523438 119.265625 C 91.15625 116.765625 86.917969 110.070312 88.925781 105.304688 C 89.339844 104.332031 90.464844 103.882812 91.441406 104.28125 C 92.414062 104.691406 92.875 105.816406 92.464844 106.792969 C 91.4375 109.230469 94.054688 114.242188 96.3125 116.621094 C 100.921875 121.480469 101.554688 127.605469 97.847656 131.53125 C 97.472656 131.933594 96.964844 132.136719 96.453125 132.136719 Z M 56.722656 99.53125 C 56.507812 99.53125 56.289062 99.496094 56.074219 99.421875 C 55.074219 99.0625 54.558594 97.964844 54.917969 96.96875 C 55.875 94.320312 54.257812 92.394531 48.527344 89.335938 C 45.304688 87.625 43.269531 84.683594 42.941406 81.285156 C 42.65625 78.34375 43.722656 75.507812 45.722656 73.878906 C 46.554688 73.207031 47.753906 73.335938 48.421875 74.15625 C 49.089844 74.976562 48.96875 76.183594 48.144531 76.851562 C 47.144531 77.664062 46.601562 79.261719 46.765625 80.914062 C 46.882812 82.148438 47.503906 84.445312 50.335938 85.945312 C 54.039062 87.925781 60.933594 91.601562 58.53125 98.257812 C 58.246094 99.046875 57.503906 99.53125 56.722656 99.53125 Z M 52.691406 116.984375 C 52.535156 116.984375 52.378906 116.964844 52.222656 116.929688 C 47.910156 115.851562 45.253906 111.003906 46.414062 106.351562 C 47.054688 103.796875 42.394531 98.679688 40.445312 98.109375 C 35.132812 96.566406 32.339844 90.953125 33.152344 86.882812 C 33.359375 85.84375 34.351562 85.164062 35.410156 85.375 C 36.449219 85.582031 37.121094 86.589844 36.914062 87.632812 C 36.554688 89.433594 37.820312 93.351562 41.519531 94.425781 C 45.058594 95.460938 51.410156 102.203125 50.140625 107.28125 C 49.421875 110.148438 51.15625 112.703125 53.160156 113.203125 C 54.1875 113.460938 54.8125 114.503906 54.554688 115.527344 C 54.335938 116.40625 53.550781 116.984375 52.691406 116.984375 Z M 57.453125 76.949219 C 55.316406 76.949219 53.167969 75.832031 51.5625 73.851562 C 49.765625 71.632812 49.140625 68.941406 49.929688 66.828125 C 50.304688 65.832031 51.414062 65.332031 52.402344 65.707031 C 53.398438 66.078125 53.902344 67.183594 53.527344 68.175781 C 53.230469 68.96875 53.660156 70.34375 54.546875 71.441406 C 55.289062 72.355469 56.515625 73.269531 57.777344 73.089844 C 58.855469 72.957031 59.804688 73.652344 59.960938 74.699219 C 60.121094 75.746094 59.398438 76.726562 58.351562 76.882812 C 58.050781 76.925781 57.75 76.949219 57.453125 76.949219 Z M 57.453125 76.949219"/><path fill="#D84864" d="M 50.785156 89.878906 C 50.050781 89.878906 49.304688 89.726562 48.570312 89.355469 C 47.621094 88.882812 47.238281 87.730469 47.707031 86.785156 C 48.183594 85.839844 49.332031 85.449219 50.285156 85.925781 C 51.128906 86.359375 52.707031 85.496094 54.234375 84.660156 C 56.476562 83.445312 59.023438 82.054688 61.6875 83.183594 C 62.660156 83.597656 63.121094 84.71875 62.710938 85.695312 C 62.300781 86.675781 61.175781 87.128906 60.195312 86.722656 C 59.238281 86.3125 57.625 87.191406 56.0625 88.039062 C 54.507812 88.882812 52.671875 89.878906 50.785156 89.878906 Z M 107.777344 127.535156 C 107.320312 127.535156 106.859375 127.371094 106.492188 127.039062 C 105.707031 126.328125 105.640625 125.121094 106.355469 124.332031 C 106.597656 124.058594 106.71875 123.257812 106.449219 122.304688 C 106.136719 121.195312 105.269531 119.84375 103.773438 119.394531 C 102.472656 119.003906 101.148438 119.34375 99.746094 119.703125 C 98.011719 120.144531 96.050781 120.65625 94.0625 119.660156 C 93.113281 119.1875 92.730469 118.03125 93.203125 117.085938 C 93.679688 116.136719 94.824219 115.746094 95.777344 116.226562 C 96.441406 116.550781 97.351562 116.351562 98.792969 115.984375 C 100.464844 115.558594 102.554688 115.015625 104.875 115.722656 C 107.414062 116.484375 109.382812 118.554688 110.148438 121.269531 C 110.757812 123.457031 110.402344 125.5625 109.203125 126.902344 C 108.824219 127.324219 108.300781 127.535156 107.777344 127.535156 Z M 112.191406 79.585938 C 111.441406 79.585938 110.722656 79.140625 110.417969 78.398438 C 109.125 75.265625 107.320312 73.191406 105.71875 72.996094 C 104.410156 72.855469 103.324219 73.984375 102.605469 74.964844 C 99.714844 78.90625 92.601562 78.941406 89.242188 78.410156 C 88.195312 78.246094 87.480469 77.261719 87.644531 76.214844 C 87.808594 75.167969 88.804688 74.449219 89.839844 74.621094 C 93.390625 75.179688 98.109375 74.605469 99.507812 72.695312 C 101.914062 69.421875 104.425781 68.980469 106.179688 69.1875 C 109.253906 69.5625 112.089844 72.382812 113.960938 76.9375 C 114.367188 77.914062 113.898438 79.039062 112.921875 79.4375 C 112.683594 79.546875 112.433594 79.585938 112.191406 79.585938 Z M 112.191406 79.585938"/></svg>