<svg xmlns="http://www.w3.org/2000/svg" width="375" viewBox="0 0 375 375" height="375" version="1.0"><defs><clipPath id="a"><path d="M 265 153 L 341 153 L 341 353.949219 L 265 353.949219 Z M 265 153"/></clipPath><clipPath id="b"><path d="M 270 153 L 341 153 L 341 353.949219 L 270 353.949219 Z M 270 153"/></clipPath><clipPath id="c"><path d="M 34 153 L 110 153 L 110 353.949219 L 34 353.949219 Z M 34 153"/></clipPath><clipPath id="d"><path d="M 34 153 L 105 153 L 105 353.949219 L 34 353.949219 Z M 34 153"/></clipPath></defs><path fill="#FFF" d="M 334.882812 60.148438 C 329.199219 51.496094 319.085938 44.601562 310.957031 40.132812 C 294.902344 31.296875 270.386719 21.101562 253.589844 33.074219 C 238.507812 43.820312 215.949219 68.570312 227.117188 88.1875 C 230.859375 94.75 236.859375 97.214844 242.445312 101.574219 C 248.441406 106.253906 254.015625 112.859375 257.011719 119.875 C 264.304688 136.878906 253.132812 153.5 243.449219 166.914062 C 234.4375 179.394531 222.109375 193.273438 205.972656 195.53125 C 197.59375 196.699219 186.257812 196.273438 187.222656 208.269531 C 187.578125 212.8125 190.855469 216.691406 194.761719 219.03125 C 198.667969 221.371094 203.167969 222.441406 207.570312 223.570312 C 216.152344 225.785156 223.816406 229.96875 232.496094 232.15625 C 238.398438 233.640625 244.605469 234.8125 250.5625 233.546875 C 260.011719 231.535156 267.457031 223.378906 270.152344 214.089844 C 272.847656 204.804688 271.308594 194.679688 267.511719 185.789062 C 264.871094 179.613281 261.128906 173.683594 260.617188 166.984375 C 259.476562 151.929688 274.15625 153.292969 284.046875 150.003906 C 288.917969 148.394531 293.527344 145.394531 296.03125 140.925781 C 297.777344 137.789062 298.394531 134.167969 299.511719 130.757812 C 303.128906 119.667969 316.75 116.226562 323.917969 107.972656 C 334.234375 96.03125 344.566406 74.898438 334.882812 60.148438 Z M 252.363281 197.195312 C 251.097656 199.355469 249.570312 201.75 248.9375 204.183594 C 248.46875 205.988281 248.511719 207.914062 248.03125 209.714844 C 247.082031 213.238281 244.148438 215.988281 240.808594 217.433594 C 232.222656 221.121094 219.304688 219.402344 219.46875 207.914062 C 219.539062 202.988281 222.234375 199.148438 226.363281 196.78125 C 230.160156 194.59375 252.28125 184.605469 253.710938 192.203125 C 253.738281 192.351562 253.765625 192.519531 253.78125 192.667969 C 253.90625 194.25 253.1875 195.820312 252.363281 197.195312 Z M 252.363281 197.195312"/><path fill="#FFF" d="M 226.363281 196.78125 C 229.761719 194.828125 247.851562 186.617188 252.625 190.371094 C 252.898438 189.601562 253.050781 188.789062 252.996094 187.992188 C 252.984375 187.839844 252.96875 187.675781 252.925781 187.523438 C 251.496094 179.929688 229.375 189.917969 225.578125 192.105469 C 221.449219 194.484375 218.753906 198.324219 218.683594 203.234375 C 218.65625 204.996094 218.945312 206.523438 219.46875 207.84375 C 219.578125 202.960938 222.261719 199.148438 226.363281 196.78125 Z M 226.363281 196.78125"/><path fill="#FFF" d="M 242.429688 101.5625 C 248.429688 106.238281 254 112.84375 257 119.859375 C 257.617188 121.304688 258.101562 122.75 258.457031 124.179688 C 258.210938 121.207031 257.507812 118.195312 256.214844 115.183594 C 253.214844 108.179688 247.632812 101.5625 241.644531 96.882812 C 236.0625 92.523438 230.078125 90.074219 226.320312 83.496094 C 225.359375 81.792969 224.640625 80.058594 224.160156 78.296875 C 224.367188 81.667969 225.289062 84.996094 227.105469 88.175781 C 230.847656 94.75 236.84375 97.199219 242.429688 101.5625 Z M 242.429688 101.5625"/><path fill="#FFF" d="M 269.355469 209.386719 C 266.65625 218.671875 259.214844 226.832031 249.761719 228.839844 C 243.804688 230.105469 237.617188 228.9375 231.699219 227.449219 C 223.019531 225.261719 215.371094 221.066406 206.769531 218.867188 C 202.367188 217.738281 197.855469 216.664062 193.960938 214.324219 C 190.992188 212.550781 188.390625 209.882812 187.167969 206.703125 C 187.167969 207.199219 187.167969 207.707031 187.207031 208.242188 C 187.566406 212.785156 190.839844 216.664062 194.746094 219.003906 C 198.652344 221.339844 203.152344 222.414062 207.554688 223.542969 C 216.140625 225.757812 223.804688 229.941406 232.484375 232.128906 C 238.386719 233.613281 244.589844 234.785156 250.546875 233.519531 C 260 231.507812 267.441406 223.351562 270.136719 214.0625 C 271.941406 207.871094 271.84375 201.308594 270.453125 194.980469 C 270.992188 199.824219 270.703125 204.707031 269.355469 209.386719 Z M 269.355469 209.386719"/><path fill="#FFF" d="M 337.867188 66.90625 C 338.828125 79.78125 330.988281 94.1875 323.117188 103.253906 C 315.949219 111.507812 302.316406 114.949219 298.710938 126.039062 C 297.597656 129.449219 296.980469 133.070312 295.230469 136.207031 C 292.726562 140.675781 288.121094 143.675781 283.25 145.285156 C 273.359375 148.558594 258.679688 147.199219 259.820312 162.261719 C 259.929688 163.734375 260.207031 165.167969 260.589844 166.582031 C 259.722656 151.929688 274.222656 153.222656 284.046875 149.976562 C 288.917969 148.367188 293.527344 145.367188 296.03125 140.898438 C 297.777344 137.761719 298.394531 134.140625 299.511719 130.730469 C 303.128906 119.640625 316.75 116.199219 323.917969 107.945312 C 332.75 97.75 341.566406 80.828125 337.867188 66.90625 Z M 337.867188 66.90625"/><g clip-path="url(#a)"><path fill="#FFF" d="M 283.289062 153.28125 C 282.382812 153.195312 281.460938 153.222656 280.582031 153.363281 C 271.058594 154.863281 265.363281 162.566406 265.296875 171.921875 C 265.242188 178.636719 268.363281 185.308594 273.550781 189.574219 C 277.320312 192.667969 282.050781 194.527344 285.53125 197.953125 C 297.820312 210.046875 293.375 230.738281 292.6875 246.121094 C 291.1875 279.691406 285.285156 312.863281 284.183594 346.417969 C 284.074219 349.746094 286.648438 352.566406 289.976562 352.746094 L 305.703125 353.640625 C 308.976562 353.820312 311.824219 351.398438 312.167969 348.136719 C 314.425781 326.523438 315.289062 304.800781 316.859375 283.117188 C 318.289062 263.304688 319.433594 239.984375 327.136719 221.082031 C 331.59375 210.140625 343.273438 198.40625 340.152344 186.464844 C 338.347656 179.597656 336.257812 164.382812 325.964844 166.832031 C 322.554688 167.644531 319.761719 169.96875 316.914062 172.019531 C 312.527344 175.167969 307.433594 177.839844 302.042969 177.617188 C 285.160156 176.957031 296.429688 154.53125 283.289062 153.28125 Z M 283.289062 153.28125"/></g><g clip-path="url(#b)"><path fill="#FFF" d="M 340.164062 186.464844 C 338.363281 179.597656 336.269531 164.382812 325.980469 166.832031 C 322.570312 167.644531 319.777344 169.96875 316.929688 172.019531 C 312.539062 175.167969 307.449219 177.839844 302.054688 177.617188 C 285.160156 176.945312 296.414062 154.53125 283.289062 153.28125 C 282.382812 153.195312 281.460938 153.222656 280.582031 153.363281 C 276.589844 153.996094 273.273438 155.714844 270.757812 158.191406 C 273.273438 156.085938 276.453125 154.667969 280.167969 154.203125 C 281.0625 154.089844 281.96875 154.089844 282.878906 154.214844 C 295.949219 155.921875 283.921875 177.949219 300.789062 179.199219 C 306.167969 179.597656 311.355469 177.109375 315.839844 174.109375 C 318.757812 172.167969 321.632812 169.941406 325.070312 169.253906 C 335.433594 167.160156 337 182.445312 338.554688 189.367188 C 341.265625 201.40625 329.1875 212.730469 324.34375 223.5 C 315.992188 242.117188 314.039062 265.382812 311.921875 285.140625 C 309.59375 306.738281 307.972656 328.421875 304.972656 349.953125 C 304.78125 351.34375 304.121094 352.566406 303.183594 353.488281 L 305.714844 353.628906 C 308.988281 353.804688 311.835938 351.386719 312.179688 348.125 C 314.4375 326.511719 315.304688 304.785156 316.871094 283.101562 C 318.304688 263.289062 319.445312 239.96875 327.148438 221.066406 C 331.605469 210.140625 343.289062 198.40625 340.164062 186.464844 Z M 340.164062 186.464844"/></g><path fill="#FFF" d="M 279.027344 161.164062 C 279.90625 161.023438 280.828125 160.996094 281.734375 161.082031 C 294.859375 162.332031 283.605469 184.757812 300.5 185.417969 C 305.894531 185.640625 310.984375 182.957031 315.375 179.820312 C 318.222656 177.78125 321.015625 175.445312 324.425781 174.632812 C 334.714844 172.183594 336.808594 187.398438 338.609375 194.265625 C 338.980469 195.65625 339.132812 197.042969 339.132812 198.433594 C 340.605469 194.484375 341.222656 190.480469 340.179688 186.464844 C 338.375 179.597656 336.285156 164.382812 325.992188 166.832031 C 322.582031 167.644531 319.789062 169.96875 316.941406 172.019531 C 312.554688 175.167969 307.460938 177.839844 302.070312 177.617188 C 285.175781 176.945312 296.429688 154.53125 283.304688 153.28125 C 282.394531 153.195312 281.472656 153.222656 280.59375 153.363281 C 271.113281 154.863281 265.417969 162.511719 265.308594 171.8125 C 267.605469 166.28125 272.378906 162.207031 279.027344 161.164062 Z M 279.027344 161.164062"/><path fill="#FFF" d="M 50.980469 107.945312 C 58.148438 116.199219 71.78125 119.640625 75.386719 130.730469 C 76.5 134.140625 77.121094 137.761719 78.867188 140.898438 C 81.371094 145.367188 85.980469 148.367188 90.851562 149.976562 C 100.742188 153.25 115.421875 151.890625 114.277344 166.957031 C 113.769531 173.65625 110.027344 179.585938 107.386719 185.761719 C 103.589844 194.652344 102.046875 204.789062 104.746094 214.0625 C 107.441406 223.351562 114.882812 231.507812 124.335938 233.519531 C 130.292969 234.785156 136.484375 233.613281 142.398438 232.128906 C 151.082031 229.941406 158.730469 225.746094 167.328125 223.542969 C 171.730469 222.414062 176.242188 221.339844 180.136719 219.003906 C 184.042969 216.664062 187.316406 212.785156 187.675781 208.242188 C 188.625 196.246094 177.289062 196.671875 168.925781 195.503906 C 152.785156 193.246094 140.460938 179.378906 131.449219 166.886719 C 121.761719 153.472656 110.59375 136.851562 117.882812 119.847656 C 120.882812 112.84375 126.46875 106.226562 132.453125 101.546875 C 138.039062 97.1875 144.023438 94.738281 147.777344 88.160156 C 158.949219 68.554688 136.386719 43.789062 121.308594 33.046875 C 104.511719 21.074219 79.996094 31.269531 63.941406 40.105469 C 55.808594 44.574219 45.699219 51.46875 40.015625 60.121094 C 30.316406 74.898438 40.648438 96.03125 50.980469 107.945312 Z M 121.101562 192.667969 C 121.117188 192.519531 121.128906 192.351562 121.171875 192.203125 C 122.601562 184.605469 144.722656 194.59375 148.523438 196.78125 C 152.648438 199.164062 155.34375 203 155.414062 207.914062 C 155.59375 219.402344 142.660156 221.109375 134.078125 217.433594 C 130.71875 215.988281 127.789062 213.238281 126.851562 209.714844 C 126.371094 207.914062 126.414062 206 125.945312 204.183594 C 125.3125 201.75 123.785156 199.355469 122.519531 197.195312 C 121.695312 195.820312 120.980469 194.25 121.101562 192.667969 Z M 121.101562 192.667969"/><path fill="#FFF" d="M 148.523438 196.78125 C 145.125 194.828125 127.03125 186.617188 122.257812 190.371094 C 121.984375 189.601562 121.832031 188.789062 121.886719 187.992188 C 121.902344 187.839844 121.914062 187.675781 121.957031 187.523438 C 123.386719 179.929688 145.507812 189.917969 149.304688 192.105469 C 153.433594 194.484375 156.128906 198.324219 156.199219 203.234375 C 156.226562 204.996094 155.9375 206.523438 155.414062 207.84375 C 155.304688 202.960938 152.621094 199.148438 148.523438 196.78125 Z M 148.523438 196.78125"/><path fill="#FFF" d="M 132.453125 101.5625 C 126.453125 106.238281 120.882812 112.84375 117.882812 119.859375 C 117.265625 121.304688 116.78125 122.75 116.425781 124.179688 C 116.671875 121.207031 117.375 118.195312 118.667969 115.183594 C 121.667969 108.179688 127.253906 101.5625 133.238281 96.882812 C 138.824219 92.523438 144.808594 90.074219 148.5625 83.496094 C 149.527344 81.792969 150.242188 80.058594 150.722656 78.296875 C 150.515625 81.667969 149.59375 84.996094 147.777344 88.175781 C 144.035156 94.75 138.039062 97.199219 132.453125 101.5625 Z M 132.453125 101.5625"/><path fill="#FFF" d="M 105.527344 209.386719 C 108.226562 218.671875 115.667969 226.832031 125.121094 228.839844 C 131.078125 230.105469 137.269531 228.9375 143.183594 227.449219 C 151.863281 225.261719 159.515625 221.066406 168.113281 218.867188 C 172.515625 217.738281 177.027344 216.664062 180.921875 214.324219 C 183.890625 212.550781 186.492188 209.882812 187.71875 206.703125 C 187.71875 207.199219 187.71875 207.707031 187.675781 208.242188 C 187.316406 212.785156 184.042969 216.664062 180.136719 219.003906 C 176.230469 221.339844 171.730469 222.414062 167.328125 223.542969 C 158.742188 225.757812 151.082031 229.941406 142.398438 232.128906 C 136.496094 233.613281 130.292969 234.785156 124.335938 233.519531 C 114.882812 231.507812 107.441406 223.351562 104.746094 214.0625 C 102.941406 207.871094 103.039062 201.308594 104.429688 194.980469 C 103.890625 199.824219 104.179688 204.707031 105.527344 209.386719 Z M 105.527344 209.386719"/><path fill="#FFF" d="M 37.015625 66.90625 C 36.054688 79.78125 43.894531 94.1875 51.765625 103.253906 C 58.933594 111.507812 72.566406 114.949219 76.171875 126.039062 C 77.285156 129.449219 77.902344 133.070312 79.652344 136.207031 C 82.15625 140.675781 86.765625 143.675781 91.632812 145.285156 C 101.527344 148.558594 116.207031 147.199219 115.0625 162.261719 C 114.953125 163.734375 114.679688 165.167969 114.292969 166.582031 C 115.160156 151.929688 100.660156 153.222656 90.835938 149.976562 C 85.964844 148.367188 81.355469 145.367188 78.851562 140.898438 C 77.105469 137.761719 76.488281 134.140625 75.371094 130.730469 C 71.753906 119.640625 58.132812 116.199219 50.96875 107.945312 C 42.132812 97.75 33.328125 80.828125 37.015625 66.90625 Z M 37.015625 66.90625"/><g clip-path="url(#c)"><path fill="#FFF" d="M 91.59375 153.28125 C 92.5 153.195312 93.421875 153.222656 94.304688 153.363281 C 103.824219 154.863281 109.519531 162.566406 109.585938 171.921875 C 109.644531 178.636719 106.519531 185.308594 101.332031 189.574219 C 97.5625 192.667969 92.832031 194.527344 89.351562 197.953125 C 77.066406 210.046875 81.507812 230.738281 82.195312 246.121094 C 83.695312 279.691406 89.597656 312.863281 90.699219 346.417969 C 90.808594 349.746094 88.234375 352.566406 84.90625 352.746094 L 69.183594 353.640625 C 65.90625 353.820312 63.058594 351.398438 62.714844 348.136719 C 60.460938 326.523438 59.59375 304.800781 58.023438 283.117188 C 56.59375 263.304688 55.453125 239.984375 47.746094 221.082031 C 43.289062 210.140625 31.609375 198.40625 34.734375 186.464844 C 36.535156 179.597656 38.625 164.382812 48.917969 166.832031 C 52.328125 167.644531 55.121094 169.96875 57.96875 172.019531 C 62.359375 175.167969 67.449219 177.839844 72.839844 177.617188 C 89.722656 176.957031 78.453125 154.53125 91.59375 153.28125 Z M 91.59375 153.28125"/></g><g clip-path="url(#d)"><path fill="#FFF" d="M 34.71875 186.464844 C 36.519531 179.597656 38.613281 164.382812 48.902344 166.832031 C 52.316406 167.644531 55.109375 169.96875 57.957031 172.019531 C 62.34375 175.167969 67.433594 177.839844 72.828125 177.617188 C 89.722656 176.945312 78.46875 154.53125 91.59375 153.28125 C 92.5 153.195312 93.421875 153.222656 94.304688 153.363281 C 98.292969 153.996094 101.609375 155.714844 104.125 158.191406 C 101.609375 156.085938 98.429688 154.667969 94.714844 154.203125 C 93.820312 154.089844 92.914062 154.089844 92.003906 154.214844 C 78.9375 155.921875 90.960938 177.949219 74.09375 179.199219 C 68.714844 179.597656 63.527344 177.109375 59.042969 174.109375 C 56.125 172.167969 53.25 169.941406 49.8125 169.253906 C 39.453125 167.160156 37.882812 182.445312 36.328125 189.367188 C 33.617188 201.40625 45.699219 212.730469 50.539062 223.5 C 58.890625 242.117188 60.84375 265.382812 62.964844 285.140625 C 65.289062 306.738281 66.910156 328.421875 69.910156 349.953125 C 70.105469 351.34375 70.765625 352.566406 71.699219 353.488281 L 69.183594 353.628906 C 65.90625 353.804688 63.058594 351.386719 62.714844 348.125 C 60.460938 326.511719 59.59375 304.785156 58.023438 283.101562 C 56.59375 263.289062 55.453125 239.96875 47.746094 221.066406 C 43.277344 210.140625 31.597656 198.40625 34.71875 186.464844 Z M 34.71875 186.464844"/></g><path fill="#FFF" d="M 95.859375 161.164062 C 94.976562 161.023438 94.054688 160.996094 93.148438 161.082031 C 80.023438 162.332031 91.277344 184.757812 74.382812 185.417969 C 68.988281 185.640625 63.898438 182.957031 59.511719 179.820312 C 56.664062 177.78125 53.871094 175.445312 50.457031 174.632812 C 40.167969 172.183594 38.074219 187.398438 36.273438 194.265625 C 35.902344 195.65625 35.75 197.042969 35.75 198.433594 C 34.277344 194.484375 33.660156 190.480469 34.707031 186.464844 C 36.507812 179.597656 38.597656 164.382812 48.890625 166.832031 C 52.300781 167.644531 55.09375 169.96875 57.941406 172.019531 C 62.332031 175.167969 67.421875 177.839844 72.8125 177.617188 C 89.707031 176.945312 78.453125 154.53125 91.578125 153.28125 C 92.488281 153.195312 93.410156 153.222656 94.289062 153.363281 C 103.769531 154.863281 109.464844 162.511719 109.574219 171.8125 C 107.277344 166.28125 102.503906 162.207031 95.859375 161.164062 Z M 95.859375 161.164062"/></svg>