<svg xmlns="http://www.w3.org/2000/svg" width="150" viewBox="0 0 150 150" height="150" version="1.0"><defs><clipPath id="a"><path d="M 16.460938 91 L 43 91 L 43 112 L 16.460938 112 Z M 16.460938 91"/></clipPath><clipPath id="b"><path d="M 16.460938 38 L 43 38 L 43 59 L 16.460938 59 Z M 16.460938 38"/></clipPath><clipPath id="c"><path d="M 67 114 L 83 114 L 83 140.660156 L 67 140.660156 Z M 67 114"/></clipPath><clipPath id="d"><path d="M 67 9.410156 L 83 9.410156 L 83 36 L 67 36 Z M 67 9.410156"/></clipPath><clipPath id="e"><path d="M 107 91 L 133.460938 91 L 133.460938 112 L 107 112 Z M 107 91"/></clipPath><clipPath id="f"><path d="M 107 38 L 133.460938 38 L 133.460938 59 L 107 59 Z M 107 38"/></clipPath></defs><path fill="#AF2348" d="M 34.992188 73.210938 C 34.957031 73.832031 34.957031 74.414062 34.957031 75.035156 C 34.957031 75.652344 34.957031 76.238281 34.992188 76.855469 L 26.699219 76.855469 C 26.566406 77.085938 26.410156 77.300781 26.230469 77.496094 C 26.050781 77.691406 25.855469 77.867188 25.636719 78.019531 C 25.417969 78.171875 25.1875 78.296875 24.941406 78.402344 C 24.695312 78.503906 24.441406 78.578125 24.179688 78.621094 C 23.917969 78.667969 23.65625 78.6875 23.390625 78.675781 C 23.125 78.664062 22.863281 78.621094 22.605469 78.554688 C 22.351562 78.484375 22.105469 78.390625 21.867188 78.265625 C 21.632812 78.144531 21.414062 77.996094 21.210938 77.824219 C 21.007812 77.65625 20.824219 77.464844 20.660156 77.253906 C 20.5 77.042969 20.363281 76.816406 20.25 76.574219 C 20.136719 76.332031 20.054688 76.082031 19.996094 75.824219 C 19.9375 75.5625 19.910156 75.300781 19.910156 75.035156 C 19.910156 74.769531 19.9375 74.503906 19.996094 74.246094 C 20.054688 73.984375 20.136719 73.734375 20.25 73.496094 C 20.363281 73.253906 20.5 73.027344 20.660156 72.816406 C 20.824219 72.605469 21.007812 72.414062 21.210938 72.242188 C 21.414062 72.074219 21.632812 71.925781 21.867188 71.804688 C 22.105469 71.679688 22.351562 71.585938 22.605469 71.515625 C 22.863281 71.445312 23.125 71.40625 23.390625 71.394531 C 23.65625 71.382812 23.917969 71.398438 24.179688 71.445312 C 24.441406 71.492188 24.695312 71.566406 24.941406 71.667969 C 25.1875 71.769531 25.417969 71.898438 25.636719 72.050781 C 25.855469 72.203125 26.050781 72.375 26.230469 72.574219 C 26.410156 72.769531 26.566406 72.980469 26.699219 73.210938 Z M 34.992188 73.210938"/><g clip-path="url(#a)"><path fill="#AF2348" d="M 38.558594 91.722656 C 39.582031 93.933594 40.792969 96.035156 42.199219 98.023438 L 31.429688 104.179688 C 31.429688 104.820312 31.347656 105.449219 31.183594 106.066406 C 31.015625 106.683594 30.773438 107.265625 30.453125 107.820312 C 30.136719 108.371094 29.75 108.875 29.296875 109.328125 C 28.847656 109.777344 28.34375 110.164062 27.792969 110.484375 C 27.375 110.722656 26.9375 110.921875 26.480469 111.074219 C 26.023438 111.230469 25.558594 111.339844 25.082031 111.402344 C 24.601562 111.464844 24.125 111.480469 23.644531 111.449219 C 23.164062 111.421875 22.691406 111.34375 22.222656 111.21875 C 21.757812 111.097656 21.308594 110.929688 20.875 110.71875 C 20.445312 110.507812 20.035156 110.257812 19.652344 109.964844 C 19.265625 109.671875 18.914062 109.347656 18.59375 108.988281 C 18.273438 108.628906 17.992188 108.238281 17.75 107.824219 C 17.503906 107.410156 17.308594 106.976562 17.152344 106.523438 C 16.996094 106.070312 16.886719 105.605469 16.820312 105.128906 C 16.757812 104.652344 16.742188 104.175781 16.773438 103.699219 C 16.804688 103.21875 16.882812 102.75 17.007812 102.285156 C 17.132812 101.820312 17.304688 101.375 17.519531 100.945312 C 17.734375 100.519531 17.988281 100.113281 18.28125 99.734375 C 18.578125 99.355469 18.90625 99.011719 19.269531 98.699219 C 19.632812 98.386719 20.023438 98.113281 20.441406 97.878906 C 21 97.558594 21.585938 97.320312 22.207031 97.152344 C 22.828125 96.988281 23.457031 96.90625 24.097656 96.90625 C 24.738281 96.90625 25.371094 96.988281 25.992188 97.152344 C 26.609375 97.320312 27.199219 97.558594 27.757812 97.878906 Z M 38.558594 91.722656"/></g><g clip-path="url(#b)"><path fill="#AF2348" d="M 31.429688 45.886719 L 42.199219 52.046875 C 40.792969 54.035156 39.582031 56.136719 38.558594 58.347656 L 27.757812 52.191406 C 27.199219 52.507812 26.609375 52.75 25.992188 52.914062 C 25.371094 53.078125 24.738281 53.160156 24.097656 53.160156 C 23.457031 53.160156 22.828125 53.078125 22.207031 52.914062 C 21.585938 52.75 21 52.507812 20.441406 52.191406 C 20.023438 51.957031 19.632812 51.683594 19.269531 51.371094 C 18.90625 51.058594 18.578125 50.710938 18.28125 50.332031 C 17.988281 49.953125 17.734375 49.550781 17.519531 49.121094 C 17.304688 48.691406 17.132812 48.246094 17.007812 47.785156 C 16.882812 47.320312 16.804688 46.851562 16.773438 46.371094 C 16.742188 45.890625 16.757812 45.414062 16.820312 44.941406 C 16.886719 44.464844 16.996094 44 17.152344 43.546875 C 17.308594 43.09375 17.503906 42.660156 17.75 42.246094 C 17.992188 41.828125 18.273438 41.441406 18.59375 41.082031 C 18.914062 40.722656 19.265625 40.394531 19.652344 40.105469 C 20.035156 39.8125 20.445312 39.5625 20.875 39.351562 C 21.308594 39.140625 21.757812 38.972656 22.222656 38.847656 C 22.691406 38.726562 23.164062 38.648438 23.644531 38.617188 C 24.125 38.585938 24.601562 38.601562 25.082031 38.667969 C 25.558594 38.730469 26.023438 38.839844 26.480469 38.992188 C 26.9375 39.148438 27.375 39.34375 27.792969 39.585938 C 28.34375 39.90625 28.847656 40.289062 29.296875 40.742188 C 29.75 41.195312 30.136719 41.695312 30.453125 42.25 C 30.773438 42.800781 31.015625 43.386719 31.183594 44.003906 C 31.347656 44.621094 31.429688 45.25 31.429688 45.886719 Z M 31.429688 45.886719"/></g><path fill="#AF2348" d="M 56.429688 110.554688 L 52.425781 117.441406 C 52.757812 117.988281 52.929688 118.582031 52.933594 119.222656 C 52.941406 119.863281 52.785156 120.460938 52.460938 121.011719 C 52.21875 121.433594 51.902344 121.792969 51.519531 122.089844 C 51.132812 122.386719 50.707031 122.597656 50.238281 122.726562 C 49.769531 122.851562 49.296875 122.886719 48.8125 122.828125 C 48.332031 122.765625 47.878906 122.617188 47.457031 122.378906 C 47.03125 122.140625 46.667969 121.828125 46.371094 121.445312 C 46.070312 121.058594 45.855469 120.632812 45.726562 120.160156 C 45.597656 119.691406 45.566406 119.210938 45.628906 118.726562 C 45.691406 118.246094 45.847656 117.792969 46.09375 117.371094 C 46.433594 116.820312 46.890625 116.390625 47.457031 116.078125 C 48.023438 115.769531 48.628906 115.613281 49.277344 115.621094 L 53.316406 108.699219 C 54.316406 109.378906 55.355469 110 56.429688 110.554688 Z M 56.429688 110.554688"/><path fill="#AF2348" d="M 52.425781 32.625 L 56.429688 39.511719 C 55.347656 40.070312 54.304688 40.6875 53.296875 41.371094 L 49.257812 34.449219 C 48.613281 34.453125 48.003906 34.300781 47.4375 33.988281 C 46.871094 33.679688 46.417969 33.25 46.074219 32.699219 C 45.828125 32.277344 45.675781 31.824219 45.613281 31.339844 C 45.546875 30.855469 45.582031 30.378906 45.710938 29.910156 C 45.835938 29.4375 46.050781 29.007812 46.351562 28.625 C 46.652344 28.242188 47.015625 27.929688 47.4375 27.691406 C 47.863281 27.449219 48.316406 27.300781 48.796875 27.242188 C 49.277344 27.183594 49.753906 27.214844 50.222656 27.34375 C 50.691406 27.472656 51.117188 27.683594 51.5 27.980469 C 51.886719 28.277344 52.199219 28.636719 52.441406 29.054688 C 52.769531 29.609375 52.929688 30.203125 52.925781 30.84375 C 52.921875 31.484375 52.753906 32.078125 52.425781 32.625 Z M 52.425781 32.625"/><g clip-path="url(#c)"><path fill="#AF2348" d="M 82.335938 133.328125 C 82.332031 133.808594 82.285156 134.289062 82.191406 134.761719 C 82.097656 135.234375 81.957031 135.695312 81.773438 136.140625 C 81.585938 136.585938 81.359375 137.011719 81.09375 137.414062 C 80.824219 137.8125 80.519531 138.183594 80.179688 138.527344 C 79.835938 138.867188 79.464844 139.171875 79.066406 139.441406 C 78.664062 139.707031 78.242188 139.933594 77.792969 140.121094 C 77.347656 140.304688 76.890625 140.445312 76.417969 140.539062 C 75.941406 140.632812 75.464844 140.679688 74.984375 140.679688 C 74.5 140.679688 74.023438 140.632812 73.550781 140.539062 C 73.078125 140.445312 72.617188 140.304688 72.171875 140.121094 C 71.726562 139.933594 71.300781 139.707031 70.902344 139.441406 C 70.5 139.171875 70.128906 138.867188 69.789062 138.527344 C 69.445312 138.183594 69.140625 137.8125 68.875 137.414062 C 68.605469 137.011719 68.378906 136.585938 68.195312 136.140625 C 68.007812 135.695312 67.867188 135.234375 67.773438 134.761719 C 67.679688 134.289062 67.632812 133.808594 67.632812 133.328125 C 67.636719 132.683594 67.722656 132.054688 67.894531 131.433594 C 68.066406 130.816406 68.316406 130.230469 68.640625 129.675781 C 68.964844 129.121094 69.359375 128.621094 69.816406 128.171875 C 70.277344 127.722656 70.785156 127.339844 71.34375 127.023438 L 71.34375 114.929688 C 72.542969 115.039062 73.746094 115.109375 74.984375 115.109375 C 76.21875 115.109375 77.421875 115.039062 78.621094 114.929688 L 78.621094 127.023438 C 79.183594 127.339844 79.691406 127.722656 80.148438 128.171875 C 80.609375 128.621094 81 129.121094 81.324219 129.675781 C 81.652344 130.230469 81.898438 130.816406 82.070312 131.433594 C 82.242188 132.054688 82.328125 132.683594 82.335938 133.328125 Z M 82.335938 133.328125"/></g><g clip-path="url(#d)"><path fill="#AF2348" d="M 82.335938 16.742188 C 82.328125 17.382812 82.242188 18.015625 82.070312 18.632812 C 81.898438 19.253906 81.652344 19.839844 81.324219 20.394531 C 81 20.945312 80.609375 21.449219 80.148438 21.898438 C 79.691406 22.347656 79.183594 22.730469 78.621094 23.042969 L 78.621094 23.882812 C 78.621094 23.917969 78.660156 23.957031 78.660156 24.027344 C 78.660156 24.101562 78.621094 24.136719 78.621094 24.175781 L 78.621094 35.140625 C 77.421875 35.03125 76.21875 34.957031 74.984375 34.957031 C 73.746094 34.957031 72.542969 35.03125 71.34375 35.140625 L 71.34375 24.175781 C 71.34375 24.136719 71.308594 24.101562 71.308594 24.027344 C 71.308594 23.957031 71.34375 23.917969 71.34375 23.882812 L 71.34375 23.042969 C 70.785156 22.730469 70.277344 22.347656 69.816406 21.898438 C 69.359375 21.449219 68.964844 20.945312 68.640625 20.394531 C 68.316406 19.839844 68.066406 19.253906 67.894531 18.632812 C 67.722656 18.015625 67.636719 17.382812 67.632812 16.742188 C 67.632812 16.257812 67.679688 15.78125 67.773438 15.308594 C 67.867188 14.832031 68.007812 14.375 68.195312 13.925781 C 68.378906 13.480469 68.605469 13.058594 68.875 12.65625 C 69.140625 12.253906 69.445312 11.882812 69.789062 11.542969 C 70.128906 11.199219 70.5 10.894531 70.902344 10.628906 C 71.300781 10.359375 71.726562 10.132812 72.171875 9.949219 C 72.617188 9.765625 73.078125 9.625 73.550781 9.53125 C 74.023438 9.4375 74.5 9.390625 74.984375 9.390625 C 75.464844 9.390625 75.941406 9.4375 76.417969 9.53125 C 76.890625 9.625 77.347656 9.765625 77.792969 9.949219 C 78.242188 10.132812 78.664062 10.359375 79.066406 10.628906 C 79.464844 10.894531 79.835938 11.199219 80.179688 11.542969 C 80.519531 11.882812 80.824219 12.253906 81.09375 12.65625 C 81.359375 13.058594 81.585938 13.480469 81.773438 13.925781 C 81.957031 14.375 82.097656 14.832031 82.191406 15.308594 C 82.285156 15.78125 82.332031 16.257812 82.335938 16.742188 Z M 82.335938 16.742188"/></g><path fill="#AF2348" d="M 103.875 117.386719 C 104.117188 117.808594 104.273438 118.261719 104.335938 118.746094 C 104.398438 119.230469 104.367188 119.707031 104.238281 120.179688 C 104.109375 120.648438 103.898438 121.078125 103.597656 121.460938 C 103.296875 121.847656 102.933594 122.160156 102.507812 122.398438 C 102.085938 122.636719 101.632812 122.785156 101.152344 122.84375 C 100.671875 122.90625 100.195312 122.871094 99.726562 122.742188 C 99.257812 122.617188 98.832031 122.402344 98.445312 122.105469 C 98.0625 121.808594 97.75 121.453125 97.503906 121.03125 C 97.183594 120.476562 97.023438 119.882812 97.03125 119.242188 C 97.039062 118.601562 97.207031 118.007812 97.542969 117.460938 L 93.539062 110.554688 C 94.617188 110 95.660156 109.378906 96.667969 108.699219 L 100.707031 115.621094 C 101.351562 115.621094 101.957031 115.777344 102.519531 116.089844 C 103.082031 116.40625 103.535156 116.839844 103.875 117.386719 Z M 103.875 117.386719"/><path fill="#AF2348" d="M 103.875 32.679688 C 103.53125 33.230469 103.078125 33.660156 102.507812 33.972656 C 101.941406 34.28125 101.335938 34.433594 100.6875 34.429688 L 96.648438 41.351562 C 95.644531 40.671875 94.601562 40.050781 93.519531 39.492188 L 97.523438 32.609375 C 97.191406 32.0625 97.019531 31.46875 97.011719 30.828125 C 97.007812 30.1875 97.164062 29.589844 97.488281 29.039062 C 97.730469 28.617188 98.042969 28.257812 98.429688 27.960938 C 98.8125 27.664062 99.238281 27.453125 99.707031 27.324219 C 100.175781 27.199219 100.652344 27.164062 101.132812 27.222656 C 101.617188 27.285156 102.066406 27.433594 102.492188 27.671875 C 102.917969 27.910156 103.28125 28.21875 103.582031 28.601562 C 103.886719 28.988281 104.101562 29.414062 104.230469 29.886719 C 104.359375 30.355469 104.394531 30.835938 104.332031 31.320312 C 104.269531 31.804688 104.117188 32.257812 103.875 32.679688 Z M 103.875 32.679688"/><path fill="#AF2348" d="M 114.972656 76.855469 C 115.007812 76.238281 115.007812 75.652344 115.007812 75.035156 C 115.007812 74.414062 115.007812 73.832031 114.972656 73.210938 L 123.265625 73.210938 C 123.398438 72.980469 123.554688 72.769531 123.734375 72.574219 C 123.914062 72.375 124.113281 72.203125 124.328125 72.050781 C 124.546875 71.898438 124.777344 71.769531 125.023438 71.667969 C 125.269531 71.566406 125.523438 71.492188 125.785156 71.445312 C 126.046875 71.398438 126.3125 71.382812 126.574219 71.394531 C 126.839844 71.40625 127.101562 71.445312 127.359375 71.515625 C 127.617188 71.585938 127.863281 71.679688 128.097656 71.804688 C 128.332031 71.925781 128.554688 72.074219 128.757812 72.242188 C 128.960938 72.414062 129.144531 72.605469 129.304688 72.816406 C 129.464844 73.027344 129.601562 73.253906 129.714844 73.496094 C 129.828125 73.734375 129.914062 73.984375 129.96875 74.246094 C 130.027344 74.503906 130.054688 74.769531 130.054688 75.035156 C 130.054688 75.300781 130.027344 75.5625 129.96875 75.824219 C 129.914062 76.082031 129.828125 76.332031 129.714844 76.574219 C 129.601562 76.816406 129.464844 77.042969 129.304688 77.253906 C 129.144531 77.464844 128.960938 77.65625 128.757812 77.824219 C 128.554688 77.996094 128.332031 78.144531 128.097656 78.265625 C 127.863281 78.390625 127.617188 78.484375 127.359375 78.554688 C 127.101562 78.621094 126.839844 78.664062 126.574219 78.675781 C 126.3125 78.6875 126.046875 78.667969 125.785156 78.621094 C 125.523438 78.574219 125.269531 78.503906 125.023438 78.398438 C 124.777344 78.296875 124.546875 78.171875 124.328125 78.019531 C 124.113281 77.867188 123.914062 77.691406 123.734375 77.496094 C 123.554688 77.300781 123.398438 77.085938 123.265625 76.855469 Z M 114.972656 76.855469"/><g clip-path="url(#e)"><path fill="#AF2348" d="M 132.21875 107.824219 C 131.972656 108.238281 131.691406 108.628906 131.371094 108.988281 C 131.050781 109.347656 130.699219 109.671875 130.316406 109.964844 C 129.929688 110.257812 129.523438 110.507812 129.089844 110.71875 C 128.65625 110.929688 128.207031 111.097656 127.742188 111.21875 C 127.277344 111.34375 126.804688 111.421875 126.324219 111.449219 C 125.84375 111.480469 125.363281 111.464844 124.886719 111.402344 C 124.40625 111.339844 123.941406 111.230469 123.484375 111.074219 C 123.027344 110.921875 122.589844 110.722656 122.175781 110.484375 C 121.621094 110.164062 121.121094 109.777344 120.667969 109.328125 C 120.214844 108.875 119.832031 108.371094 119.511719 107.820312 C 119.191406 107.265625 118.949219 106.683594 118.785156 106.066406 C 118.617188 105.449219 118.535156 104.820312 118.535156 104.179688 L 107.765625 98.023438 C 109.171875 96.035156 110.386719 93.933594 111.40625 91.722656 L 122.210938 97.878906 C 122.765625 97.558594 123.355469 97.320312 123.976562 97.152344 C 124.597656 96.988281 125.226562 96.90625 125.867188 96.90625 C 126.507812 96.90625 127.140625 96.988281 127.757812 97.152344 C 128.378906 97.320312 128.96875 97.558594 129.523438 97.878906 C 129.941406 98.113281 130.332031 98.386719 130.695312 98.699219 C 131.0625 99.011719 131.390625 99.355469 131.683594 99.734375 C 131.980469 100.113281 132.234375 100.519531 132.449219 100.945312 C 132.660156 101.375 132.832031 101.820312 132.957031 102.285156 C 133.082031 102.75 133.160156 103.21875 133.191406 103.699219 C 133.222656 104.175781 133.207031 104.652344 133.144531 105.128906 C 133.082031 105.605469 132.972656 106.070312 132.816406 106.523438 C 132.660156 106.976562 132.460938 107.410156 132.21875 107.824219 Z M 132.21875 107.824219"/></g><g clip-path="url(#f)"><path fill="#AF2348" d="M 111.40625 58.347656 C 110.386719 56.136719 109.171875 54.035156 107.765625 52.046875 L 118.535156 45.886719 C 118.535156 45.25 118.617188 44.621094 118.785156 44.003906 C 118.949219 43.386719 119.191406 42.800781 119.511719 42.25 C 119.832031 41.695312 120.214844 41.195312 120.667969 40.742188 C 121.121094 40.289062 121.621094 39.90625 122.175781 39.585938 C 122.589844 39.34375 123.027344 39.148438 123.484375 38.992188 C 123.941406 38.839844 124.40625 38.730469 124.886719 38.667969 C 125.363281 38.601562 125.84375 38.585938 126.324219 38.617188 C 126.804688 38.648438 127.277344 38.726562 127.742188 38.847656 C 128.207031 38.972656 128.65625 39.140625 129.089844 39.351562 C 129.523438 39.5625 129.929688 39.8125 130.316406 40.105469 C 130.699219 40.394531 131.050781 40.722656 131.371094 41.082031 C 131.691406 41.441406 131.972656 41.828125 132.21875 42.246094 C 132.460938 42.660156 132.660156 43.09375 132.816406 43.546875 C 132.972656 44 133.082031 44.464844 133.144531 44.941406 C 133.207031 45.414062 133.222656 45.890625 133.191406 46.371094 C 133.160156 46.851562 133.082031 47.320312 132.957031 47.785156 C 132.832031 48.246094 132.660156 48.691406 132.449219 49.121094 C 132.234375 49.550781 131.980469 49.953125 131.683594 50.332031 C 131.390625 50.710938 131.0625 51.058594 130.695312 51.371094 C 130.332031 51.683594 129.941406 51.957031 129.523438 52.191406 C 128.96875 52.507812 128.378906 52.75 127.757812 52.914062 C 127.140625 53.078125 126.507812 53.160156 125.867188 53.160156 C 125.226562 53.160156 124.597656 53.078125 123.976562 52.914062 C 123.355469 52.75 122.765625 52.507812 122.210938 52.191406 Z M 111.40625 58.347656"/></g><path fill="#910D36" d="M 78.621094 16.742188 C 78.621094 17.226562 78.53125 17.6875 78.34375 18.136719 C 78.160156 18.582031 77.898438 18.976562 77.554688 19.316406 C 77.214844 19.660156 76.820312 19.921875 76.375 20.109375 C 75.929688 20.292969 75.464844 20.386719 74.984375 20.386719 C 74.5 20.386719 74.035156 20.292969 73.589844 20.109375 C 73.144531 19.921875 72.75 19.660156 72.410156 19.316406 C 72.070312 18.976562 71.804688 18.582031 71.621094 18.136719 C 71.4375 17.6875 71.34375 17.226562 71.34375 16.742188 C 71.34375 16.257812 71.4375 15.792969 71.621094 15.347656 C 71.804688 14.902344 72.070312 14.507812 72.410156 14.164062 C 72.75 13.824219 73.144531 13.558594 73.589844 13.375 C 74.035156 13.191406 74.5 13.097656 74.984375 13.097656 C 75.464844 13.097656 75.929688 13.191406 76.375 13.375 C 76.820312 13.558594 77.214844 13.824219 77.554688 14.164062 C 77.898438 14.507812 78.160156 14.902344 78.34375 15.347656 C 78.53125 15.792969 78.621094 16.257812 78.621094 16.742188 Z M 78.621094 16.742188"/><path fill="#910D36" d="M 27.683594 45.886719 C 27.683594 46.371094 27.589844 46.835938 27.40625 47.28125 C 27.222656 47.730469 26.957031 48.121094 26.617188 48.464844 C 26.277344 48.804688 25.882812 49.070312 25.4375 49.253906 C 24.992188 49.4375 24.527344 49.53125 24.042969 49.53125 C 23.5625 49.53125 23.097656 49.4375 22.652344 49.253906 C 22.207031 49.070312 21.8125 48.804688 21.46875 48.464844 C 21.128906 48.121094 20.867188 47.730469 20.683594 47.28125 C 20.496094 46.835938 20.40625 46.371094 20.40625 45.886719 C 20.40625 45.40625 20.496094 44.941406 20.683594 44.492188 C 20.867188 44.046875 21.128906 43.652344 21.46875 43.3125 C 21.8125 42.96875 22.207031 42.707031 22.652344 42.523438 C 23.097656 42.335938 23.5625 42.246094 24.042969 42.246094 C 24.527344 42.246094 24.992188 42.335938 25.4375 42.523438 C 25.882812 42.707031 26.277344 42.96875 26.617188 43.3125 C 26.957031 43.652344 27.222656 44.046875 27.40625 44.492188 C 27.589844 44.941406 27.683594 45.40625 27.683594 45.886719 Z M 27.683594 45.886719"/><path fill="#910D36" d="M 27.683594 104.179688 C 27.683594 104.664062 27.589844 105.128906 27.40625 105.574219 C 27.222656 106.019531 26.957031 106.414062 26.617188 106.757812 C 26.277344 107.097656 25.882812 107.363281 25.4375 107.546875 C 24.992188 107.730469 24.527344 107.824219 24.042969 107.824219 C 23.5625 107.824219 23.097656 107.730469 22.652344 107.546875 C 22.207031 107.363281 21.8125 107.097656 21.46875 106.757812 C 21.128906 106.414062 20.867188 106.019531 20.683594 105.574219 C 20.496094 105.128906 20.40625 104.664062 20.40625 104.179688 C 20.40625 103.699219 20.496094 103.234375 20.683594 102.785156 C 20.867188 102.339844 21.128906 101.945312 21.46875 101.605469 C 21.8125 101.261719 22.207031 101 22.652344 100.816406 C 23.097656 100.628906 23.5625 100.539062 24.042969 100.539062 C 24.527344 100.539062 24.992188 100.628906 25.4375 100.816406 C 25.882812 101 26.277344 101.261719 26.617188 101.605469 C 26.957031 101.945312 27.222656 102.339844 27.40625 102.785156 C 27.589844 103.234375 27.683594 103.699219 27.683594 104.179688 Z M 27.683594 104.179688"/><path fill="#910D36" d="M 129.5625 104.179688 C 129.5625 104.664062 129.46875 105.128906 129.285156 105.574219 C 129.101562 106.019531 128.835938 106.414062 128.496094 106.757812 C 128.15625 107.097656 127.761719 107.363281 127.316406 107.546875 C 126.871094 107.730469 126.40625 107.824219 125.921875 107.824219 C 125.441406 107.824219 124.976562 107.730469 124.53125 107.546875 C 124.082031 107.363281 123.691406 107.097656 123.347656 106.757812 C 123.007812 106.414062 122.746094 106.019531 122.558594 105.574219 C 122.375 105.128906 122.28125 104.664062 122.28125 104.179688 C 122.28125 103.699219 122.375 103.234375 122.558594 102.785156 C 122.746094 102.339844 123.007812 101.945312 123.347656 101.605469 C 123.691406 101.261719 124.082031 101 124.53125 100.816406 C 124.976562 100.628906 125.441406 100.539062 125.921875 100.539062 C 126.40625 100.539062 126.871094 100.628906 127.316406 100.816406 C 127.761719 101 128.15625 101.261719 128.496094 101.605469 C 128.835938 101.945312 129.101562 102.339844 129.285156 102.785156 C 129.46875 103.234375 129.5625 103.699219 129.5625 104.179688 Z M 129.5625 104.179688"/><path fill="#910D36" d="M 129.5625 45.886719 C 129.5625 46.371094 129.46875 46.835938 129.285156 47.28125 C 129.101562 47.730469 128.835938 48.121094 128.496094 48.464844 C 128.15625 48.804688 127.761719 49.070312 127.316406 49.253906 C 126.871094 49.4375 126.40625 49.53125 125.921875 49.53125 C 125.441406 49.53125 124.976562 49.4375 124.53125 49.253906 C 124.082031 49.070312 123.691406 48.804688 123.347656 48.464844 C 123.007812 48.121094 122.746094 47.730469 122.558594 47.28125 C 122.375 46.835938 122.28125 46.371094 122.28125 45.886719 C 122.28125 45.40625 122.375 44.941406 122.558594 44.492188 C 122.746094 44.046875 123.007812 43.652344 123.347656 43.3125 C 123.691406 42.96875 124.082031 42.707031 124.53125 42.523438 C 124.976562 42.335938 125.441406 42.246094 125.921875 42.246094 C 126.40625 42.246094 126.871094 42.335938 127.316406 42.523438 C 127.761719 42.707031 128.15625 42.96875 128.496094 43.3125 C 128.835938 43.652344 129.101562 44.046875 129.285156 44.492188 C 129.46875 44.941406 129.5625 45.40625 129.5625 45.886719 Z M 129.5625 45.886719"/><path fill="#99113B" d="M 93.179688 107.640625 C 87.914062 107.175781 82.941406 105.71875 78.257812 103.269531 C 77.179688 102.710938 76.136719 102.09375 75.128906 101.410156 C 70.71875 98.59375 67.015625 95.035156 64.027344 90.738281 C 62.625 88.746094 61.410156 86.644531 60.390625 84.433594 C 58.25 79.707031 57.0625 74.753906 56.828125 69.570312 C 56.792969 68.949219 56.792969 68.367188 56.792969 67.746094 C 56.792969 67.128906 56.792969 66.546875 56.828125 65.925781 C 57.066406 60.742188 58.253906 55.789062 60.394531 51.0625 C 61.414062 48.847656 62.628906 46.75 64.035156 44.757812 C 66.71875 40.929688 69.980469 37.683594 73.820312 35.015625 C 72.992188 35.042969 72.164062 35.066406 71.347656 35.140625 C 66.085938 35.605469 61.113281 37.066406 56.433594 39.511719 C 55.351562 40.070312 54.308594 40.6875 53.304688 41.371094 C 48.890625 44.1875 45.191406 47.746094 42.203125 52.046875 C 40.796875 54.035156 39.585938 56.136719 38.5625 58.347656 C 36.421875 63.074219 35.230469 68.027344 34.992188 73.210938 C 34.957031 73.832031 34.957031 74.414062 34.957031 75.035156 C 34.957031 75.652344 34.957031 76.238281 34.992188 76.855469 C 35.230469 82.039062 36.417969 86.996094 38.558594 91.722656 C 39.582031 93.933594 40.792969 96.035156 42.199219 98.023438 C 45.1875 102.324219 48.886719 105.882812 53.296875 108.699219 C 54.304688 109.378906 55.347656 110 56.429688 110.554688 C 61.109375 113.003906 66.082031 114.460938 71.34375 114.929688 C 72.542969 115.039062 73.746094 115.109375 74.984375 115.109375 C 76.21875 115.109375 77.421875 115.039062 78.621094 114.929688 C 83.882812 114.460938 88.855469 113.003906 93.539062 110.554688 C 94.617188 110 95.660156 109.378906 96.667969 108.699219 C 97.121094 108.410156 97.546875 108.074219 97.988281 107.765625 C 97.597656 107.765625 97.214844 107.824219 96.8125 107.824219 C 95.578125 107.824219 94.375 107.75 93.179688 107.640625 Z M 93.179688 107.640625"/><path fill="#AF2348" d="M 107.765625 98.023438 C 109.171875 96.035156 110.386719 93.933594 111.40625 91.722656 C 113.546875 86.996094 114.734375 82.039062 114.972656 76.855469 C 115.007812 76.238281 115.007812 75.652344 115.007812 75.035156 C 115.007812 74.414062 115.007812 73.832031 114.972656 73.210938 C 114.734375 68.027344 113.546875 63.074219 111.40625 58.347656 C 110.386719 56.136719 109.171875 54.035156 107.765625 52.046875 C 104.777344 47.746094 101.078125 44.1875 96.667969 41.371094 C 95.660156 40.6875 94.617188 40.070312 93.539062 39.511719 C 88.855469 37.066406 83.882812 35.605469 78.621094 35.140625 C 77.421875 35.03125 76.21875 34.957031 74.984375 34.957031 C 74.582031 34.957031 74.207031 35.003906 73.8125 35.015625 C 69.976562 37.683594 66.714844 40.929688 64.027344 44.757812 C 62.625 46.75 61.410156 48.847656 60.390625 51.0625 C 58.25 55.789062 57.0625 60.742188 56.828125 65.925781 C 56.792969 66.546875 56.792969 67.128906 56.792969 67.746094 C 56.792969 68.367188 56.792969 68.949219 56.828125 69.570312 C 57.066406 74.753906 58.253906 79.707031 60.394531 84.433594 C 61.414062 86.644531 62.628906 88.746094 64.035156 90.738281 C 67.023438 95.035156 70.722656 98.59375 75.132812 101.410156 C 76.136719 102.09375 77.179688 102.710938 78.257812 103.269531 C 82.941406 105.71875 87.914062 107.175781 93.179688 107.640625 C 94.378906 107.75 95.582031 107.824219 96.816406 107.824219 C 97.21875 107.824219 97.601562 107.777344 97.992188 107.765625 C 101.828125 105.097656 105.085938 101.851562 107.765625 98.023438 Z M 107.765625 98.023438"/><path fill="#99113B" d="M 85.902344 56.816406 C 85.902344 57.296875 85.855469 57.769531 85.761719 58.238281 C 85.667969 58.707031 85.53125 59.164062 85.347656 59.605469 C 85.164062 60.046875 84.941406 60.46875 84.675781 60.867188 C 84.410156 61.265625 84.105469 61.632812 83.769531 61.96875 C 83.429688 62.308594 83.0625 62.609375 82.664062 62.875 C 82.269531 63.140625 81.847656 63.367188 81.40625 63.550781 C 80.964844 63.734375 80.511719 63.871094 80.042969 63.964844 C 79.574219 64.058594 79.101562 64.105469 78.621094 64.105469 C 78.144531 64.105469 77.671875 64.058594 77.203125 63.964844 C 76.734375 63.871094 76.277344 63.734375 75.835938 63.550781 C 75.394531 63.367188 74.976562 63.140625 74.578125 62.875 C 74.179688 62.609375 73.8125 62.308594 73.476562 61.96875 C 73.136719 61.632812 72.835938 61.265625 72.570312 60.867188 C 72.304688 60.46875 72.082031 60.046875 71.898438 59.605469 C 71.714844 59.164062 71.578125 58.707031 71.484375 58.238281 C 71.390625 57.769531 71.34375 57.296875 71.34375 56.816406 C 71.34375 56.339844 71.390625 55.867188 71.484375 55.394531 C 71.578125 54.925781 71.714844 54.472656 71.898438 54.03125 C 72.082031 53.585938 72.304688 53.167969 72.570312 52.769531 C 72.835938 52.371094 73.136719 52.003906 73.476562 51.664062 C 73.8125 51.328125 74.179688 51.023438 74.578125 50.757812 C 74.976562 50.492188 75.394531 50.269531 75.835938 50.085938 C 76.277344 49.902344 76.734375 49.765625 77.203125 49.671875 C 77.671875 49.578125 78.144531 49.53125 78.621094 49.53125 C 79.101562 49.53125 79.574219 49.578125 80.042969 49.671875 C 80.511719 49.765625 80.964844 49.902344 81.40625 50.085938 C 81.847656 50.269531 82.269531 50.492188 82.664062 50.757812 C 83.0625 51.023438 83.429688 51.328125 83.769531 51.664062 C 84.105469 52.003906 84.410156 52.371094 84.675781 52.769531 C 84.941406 53.167969 85.164062 53.585938 85.347656 54.03125 C 85.53125 54.472656 85.667969 54.925781 85.761719 55.394531 C 85.855469 55.867188 85.902344 56.339844 85.902344 56.816406 Z M 85.902344 56.816406"/><path fill="#99113B" d="M 104.09375 82.320312 C 104.09375 82.804688 104 83.269531 103.816406 83.714844 C 103.628906 84.160156 103.367188 84.554688 103.027344 84.898438 C 102.683594 85.238281 102.292969 85.503906 101.84375 85.6875 C 101.398438 85.871094 100.933594 85.964844 100.453125 85.964844 C 99.96875 85.964844 99.507812 85.871094 99.058594 85.6875 C 98.613281 85.503906 98.21875 85.238281 97.878906 84.898438 C 97.539062 84.554688 97.273438 84.160156 97.089844 83.714844 C 96.90625 83.269531 96.8125 82.804688 96.8125 82.320312 C 96.8125 81.835938 96.90625 81.375 97.089844 80.925781 C 97.273438 80.480469 97.539062 80.085938 97.878906 79.746094 C 98.21875 79.402344 98.613281 79.140625 99.058594 78.953125 C 99.507812 78.769531 99.96875 78.675781 100.453125 78.675781 C 100.933594 78.675781 101.398438 78.769531 101.84375 78.953125 C 102.292969 79.140625 102.683594 79.402344 103.027344 79.746094 C 103.367188 80.085938 103.628906 80.480469 103.816406 80.925781 C 104 81.375 104.09375 81.835938 104.09375 82.320312 Z M 104.09375 82.320312"/><path fill="#99113B" d="M 71.34375 82.320312 C 71.34375 82.804688 71.25 83.269531 71.066406 83.714844 C 70.882812 84.160156 70.621094 84.554688 70.277344 84.898438 C 69.9375 85.238281 69.542969 85.503906 69.097656 85.6875 C 68.652344 85.871094 68.1875 85.964844 67.703125 85.964844 C 67.222656 85.964844 66.757812 85.871094 66.3125 85.6875 C 65.867188 85.503906 65.472656 85.238281 65.132812 84.898438 C 64.789062 84.554688 64.527344 84.160156 64.34375 83.714844 C 64.15625 83.269531 64.066406 82.804688 64.066406 82.320312 C 64.066406 81.835938 64.15625 81.375 64.34375 80.925781 C 64.527344 80.480469 64.789062 80.085938 65.132812 79.746094 C 65.472656 79.402344 65.867188 79.140625 66.3125 78.953125 C 66.757812 78.769531 67.222656 78.675781 67.703125 78.675781 C 68.1875 78.675781 68.652344 78.769531 69.097656 78.953125 C 69.542969 79.140625 69.9375 79.402344 70.277344 79.746094 C 70.621094 80.085938 70.882812 80.480469 71.066406 80.925781 C 71.25 81.375 71.34375 81.835938 71.34375 82.320312 Z M 71.34375 82.320312"/><path fill="#910D36" d="M 78.621094 133.328125 C 78.621094 133.808594 78.53125 134.273438 78.34375 134.722656 C 78.160156 135.167969 77.898438 135.5625 77.554688 135.902344 C 77.214844 136.246094 76.820312 136.507812 76.375 136.691406 C 75.929688 136.878906 75.464844 136.96875 74.984375 136.96875 C 74.5 136.96875 74.035156 136.878906 73.589844 136.691406 C 73.144531 136.507812 72.75 136.246094 72.410156 135.902344 C 72.070312 135.5625 71.804688 135.167969 71.621094 134.722656 C 71.4375 134.273438 71.34375 133.808594 71.34375 133.328125 C 71.34375 132.84375 71.4375 132.378906 71.621094 131.933594 C 71.804688 131.488281 72.070312 131.09375 72.410156 130.75 C 72.75 130.410156 73.144531 130.144531 73.589844 129.960938 C 74.035156 129.777344 74.5 129.683594 74.984375 129.683594 C 75.464844 129.683594 75.929688 129.777344 76.375 129.960938 C 76.820312 130.144531 77.214844 130.410156 77.554688 130.75 C 77.898438 131.09375 78.160156 131.488281 78.34375 131.933594 C 78.53125 132.378906 78.621094 132.84375 78.621094 133.328125 Z M 78.621094 133.328125"/></svg>