<svg xmlns="http://www.w3.org/2000/svg" width="375" viewBox="0 0 375 375" height="375" version="1.0"><defs><clipPath id="a"><path d="M 130 214.101562 L 232 214.101562 L 232 375 L 130 375 Z M 130 214.101562"/></clipPath><clipPath id="b"><path d="M 204.464844 218 L 263.347656 218 L 263.347656 362.902344 L 204.464844 362.902344 Z M 204.464844 218"/></clipPath></defs><path fill="#FFF" d="M 204.898438 190.738281 C 203.503906 186.996094 202.363281 183.179688 201.863281 179.214844 C 201.695312 177.875 201.496094 176.476562 201.261719 175.011719 C 199.839844 166.15625 200.976562 157.074219 204.601562 148.867188 C 220.988281 111.765625 258.246094 9.226562 258.246094 9.226562 L 221.359375 -0.00390625 L 160.179688 135.242188 C 158.105469 139.828125 155.84375 144.304688 153.351562 148.675781 C 150.867188 153.050781 146.984375 161.011719 143.449219 173.089844 C 138.347656 208.820312 163.855469 210.214844 175.214844 212.558594 C 182.242188 214.007812 188.382812 212.324219 192.046875 210.828125 C 192.660156 210.578125 193.253906 210.277344 193.832031 209.953125 L 193.835938 209.960938 C 193.835938 209.960938 208.621094 203.015625 205.363281 192.113281 C 205.21875 191.636719 205.066406 191.183594 204.898438 190.738281"/><path fill="#FFF" d="M 139.355469 199.695312 C 138.09375 196.808594 132.492188 184.71875 138.679688 166.742188 C 140.046875 162.777344 139.445312 162.15625 137.917969 163.34375 C 137.917969 163.34375 137.917969 163.339844 137.917969 163.335938 C 111.652344 180.644531 123.371094 211.535156 125.144531 215.785156 C 125.15625 215.816406 125.171875 215.847656 125.1875 215.875 C 125.292969 216.136719 125.355469 216.277344 125.363281 216.285156 C 126.058594 217.78125 126.289062 218.257812 127.851562 215.835938 C 127.851562 215.835938 133.1875 209.054688 140.121094 208.4375 C 144.53125 208.042969 141.535156 204.671875 139.355469 199.695312"/><g clip-path="url(#a)"><path fill="#FFF" d="M 196.664062 272.847656 C 193.667969 262.835938 196.605469 251.996094 203.523438 244.167969 C 203.707031 243.960938 203.894531 243.753906 204.078125 243.550781 C 210.09375 237.480469 227.25 224.035156 214.871094 217.308594 C 198.632812 208.496094 200.554688 225.535156 179.6875 223.679688 C 158.816406 221.820312 135.164062 203.257812 130.992188 225.070312 C 126.816406 246.882812 153.546875 258.769531 156.859375 263.707031 C 158.277344 265.8125 195.339844 357.871094 202.242188 375.007812 L 231.664062 366.6875 L 197.316406 274.789062 C 197.078125 274.148438 196.863281 273.5 196.664062 272.847656"/></g><g clip-path="url(#b)"><path fill="#FFF" d="M 233.210938 268.953125 C 233.210938 268.941406 231.519531 257.683594 233.515625 250.769531 C 233.519531 250.765625 233.519531 250.761719 233.519531 250.761719 C 234.308594 248.382812 235.277344 244.988281 236.464844 240.109375 C 242.359375 215.832031 229.675781 215.441406 228.453125 221.582031 C 228.414062 221.757812 228.394531 221.941406 228.386719 222.136719 C 228.542969 230.035156 214.015625 244.40625 212.007812 246.355469 C 209.792969 248.503906 207.898438 250.964844 206.539062 253.734375 C 205.878906 255.085938 205.316406 256.53125 205.035156 257.910156 C 203.757812 264.140625 208.980469 265.050781 216.054688 274.152344 C 221.550781 281.21875 238.582031 337.777344 245.902344 362.664062 L 263.351562 357.730469 C 255.8125 336.367188 239.253906 289.054688 233.210938 268.953125"/></g></svg>