<?xml version="1.0" encoding="UTF-8"?><svg xmlns="http://www.w3.org/2000/svg" xmlns:xlink="http://www.w3.org/1999/xlink" contentScriptType="text/ecmascript" width="375" zoomAndPan="magnify" contentStyleType="text/css" viewBox="0 0 375 374.999991" height="374.999991" preserveAspectRatio="xMidYMid meet" version="1.0"><path fill="rgb(93.728638%, 70.588684%, 40.388489%)" d="M 330.730469 67.054688 C 348.449219 84.769531 348.449219 113.492188 330.730469 131.207031 L 131.21875 330.726562 C 113.503906 348.441406 84.78125 348.441406 67.0625 330.726562 L 44.414062 308.078125 C 26.695312 290.359375 26.695312 261.640625 44.414062 243.917969 L 243.929688 44.410156 C 261.648438 26.691406 290.367188 26.691406 308.089844 44.410156 L 330.734375 67.0625 Z M 330.730469 67.054688 " fill-opacity="1" fill-rule="nonzero"/><path fill="rgb(100%, 80.389404%, 59.21936%)" d="M 254.851562 151.21875 C 264.890625 161.253906 264.890625 177.53125 254.851562 187.566406 L 187.574219 254.839844 C 177.535156 264.878906 161.265625 264.878906 151.230469 254.839844 L 120.300781 223.917969 C 110.269531 213.875 110.269531 197.605469 120.300781 187.566406 L 187.574219 120.292969 C 197.613281 110.253906 213.886719 110.253906 223.921875 120.292969 L 254.847656 151.222656 Z M 254.851562 151.21875 " fill-opacity="1" fill-rule="nonzero"/><path fill="rgb(86.669922%, 61.959839%, 32.159424%)" d="M 55.316406 272.996094 C 55.316406 273.261719 55.289062 273.523438 55.238281 273.78125 C 55.1875 274.042969 55.109375 274.292969 55.007812 274.539062 C 54.90625 274.78125 54.785156 275.015625 54.636719 275.234375 C 54.488281 275.453125 54.324219 275.65625 54.136719 275.84375 C 53.949219 276.03125 53.746094 276.199219 53.527344 276.34375 C 53.304688 276.492188 53.074219 276.617188 52.828125 276.71875 C 52.585938 276.820312 52.332031 276.894531 52.074219 276.945312 C 51.8125 276.996094 51.550781 277.023438 51.289062 277.023438 C 51.023438 277.023438 50.761719 276.996094 50.503906 276.945312 C 50.242188 276.894531 49.992188 276.820312 49.746094 276.71875 C 49.503906 276.617188 49.269531 276.492188 49.050781 276.34375 C 48.832031 276.199219 48.628906 276.03125 48.441406 275.84375 C 48.253906 275.65625 48.085938 275.453125 47.941406 275.234375 C 47.792969 275.015625 47.667969 274.78125 47.566406 274.539062 C 47.464844 274.292969 47.390625 274.042969 47.339844 273.78125 C 47.285156 273.523438 47.261719 273.261719 47.261719 272.996094 C 47.261719 272.730469 47.285156 272.46875 47.339844 272.210938 C 47.390625 271.953125 47.464844 271.699219 47.566406 271.457031 C 47.667969 271.210938 47.792969 270.980469 47.941406 270.757812 C 48.085938 270.539062 48.253906 270.335938 48.441406 270.148438 C 48.628906 269.960938 48.832031 269.796875 49.050781 269.648438 C 49.269531 269.5 49.503906 269.378906 49.746094 269.277344 C 49.992188 269.175781 50.242188 269.097656 50.503906 269.046875 C 50.761719 268.996094 51.023438 268.96875 51.289062 268.96875 C 51.550781 268.96875 51.8125 268.996094 52.074219 269.046875 C 52.332031 269.097656 52.585938 269.175781 52.828125 269.277344 C 53.074219 269.378906 53.304688 269.5 53.527344 269.648438 C 53.746094 269.796875 53.949219 269.960938 54.136719 270.148438 C 54.324219 270.335938 54.488281 270.539062 54.636719 270.757812 C 54.785156 270.980469 54.90625 271.210938 55.007812 271.457031 C 55.109375 271.699219 55.1875 271.953125 55.238281 272.210938 C 55.289062 272.46875 55.316406 272.730469 55.316406 272.996094 Z M 55.316406 272.996094 " fill-opacity="1" fill-rule="nonzero"/><path fill="rgb(86.669922%, 61.959839%, 32.159424%)" d="M 72.265625 256.03125 C 72.265625 256.296875 72.238281 256.558594 72.1875 256.816406 C 72.136719 257.078125 72.058594 257.328125 71.957031 257.574219 C 71.855469 257.816406 71.734375 258.050781 71.585938 258.269531 C 71.4375 258.488281 71.273438 258.691406 71.085938 258.878906 C 70.898438 259.066406 70.695312 259.234375 70.476562 259.378906 C 70.253906 259.527344 70.023438 259.652344 69.777344 259.753906 C 69.535156 259.855469 69.28125 259.929688 69.023438 259.980469 C 68.765625 260.035156 68.503906 260.058594 68.238281 260.058594 C 67.972656 260.058594 67.710938 260.035156 67.453125 259.980469 C 67.191406 259.929688 66.941406 259.855469 66.695312 259.753906 C 66.453125 259.652344 66.21875 259.527344 66 259.378906 C 65.78125 259.234375 65.578125 259.066406 65.390625 258.878906 C 65.203125 258.691406 65.035156 258.488281 64.890625 258.269531 C 64.742188 258.050781 64.617188 257.816406 64.515625 257.574219 C 64.417969 257.328125 64.339844 257.078125 64.289062 256.816406 C 64.238281 256.558594 64.210938 256.296875 64.210938 256.03125 C 64.210938 255.765625 64.238281 255.503906 64.289062 255.246094 C 64.339844 254.988281 64.417969 254.734375 64.515625 254.492188 C 64.617188 254.246094 64.742188 254.015625 64.890625 253.792969 C 65.035156 253.574219 65.203125 253.371094 65.390625 253.183594 C 65.578125 252.996094 65.78125 252.832031 66 252.683594 C 66.21875 252.535156 66.453125 252.414062 66.695312 252.3125 C 66.941406 252.210938 67.191406 252.132812 67.453125 252.082031 C 67.710938 252.03125 67.972656 252.003906 68.238281 252.003906 C 68.503906 252.003906 68.765625 252.03125 69.023438 252.082031 C 69.28125 252.132812 69.535156 252.210938 69.777344 252.3125 C 70.023438 252.414062 70.253906 252.535156 70.476562 252.683594 C 70.695312 252.832031 70.898438 252.996094 71.085938 253.183594 C 71.273438 253.371094 71.4375 253.574219 71.585938 253.792969 C 71.734375 254.015625 71.855469 254.246094 71.957031 254.492188 C 72.058594 254.734375 72.136719 254.988281 72.1875 255.246094 C 72.238281 255.503906 72.265625 255.765625 72.265625 256.03125 Z M 72.265625 256.03125 " fill-opacity="1" fill-rule="nonzero"/><path fill="rgb(86.669922%, 61.959839%, 32.159424%)" d="M 89.222656 239.082031 C 89.222656 239.347656 89.195312 239.609375 89.144531 239.867188 C 89.09375 240.128906 89.015625 240.378906 88.914062 240.625 C 88.816406 240.867188 88.691406 241.097656 88.542969 241.320312 C 88.398438 241.539062 88.230469 241.742188 88.042969 241.929688 C 87.855469 242.117188 87.652344 242.285156 87.433594 242.429688 C 87.210938 242.578125 86.980469 242.703125 86.734375 242.800781 C 86.492188 242.902344 86.238281 242.980469 85.980469 243.03125 C 85.722656 243.082031 85.460938 243.109375 85.195312 243.109375 C 84.929688 243.109375 84.667969 243.082031 84.410156 243.03125 C 84.148438 242.980469 83.898438 242.902344 83.652344 242.800781 C 83.410156 242.703125 83.179688 242.578125 82.957031 242.429688 C 82.738281 242.285156 82.535156 242.117188 82.347656 241.929688 C 82.160156 241.742188 81.992188 241.539062 81.847656 241.320312 C 81.699219 241.097656 81.574219 240.867188 81.476562 240.625 C 81.375 240.378906 81.296875 240.128906 81.246094 239.867188 C 81.195312 239.609375 81.167969 239.347656 81.167969 239.082031 C 81.167969 238.816406 81.195312 238.554688 81.246094 238.296875 C 81.296875 238.039062 81.375 237.785156 81.476562 237.539062 C 81.574219 237.296875 81.699219 237.066406 81.847656 236.84375 C 81.992188 236.625 82.160156 236.421875 82.347656 236.234375 C 82.535156 236.046875 82.738281 235.878906 82.957031 235.734375 C 83.179688 235.585938 83.410156 235.460938 83.652344 235.363281 C 83.898438 235.261719 84.148438 235.183594 84.410156 235.132812 C 84.667969 235.082031 84.929688 235.054688 85.195312 235.054688 C 85.460938 235.054688 85.722656 235.082031 85.980469 235.132812 C 86.238281 235.183594 86.492188 235.261719 86.734375 235.363281 C 86.980469 235.460938 87.210938 235.585938 87.433594 235.734375 C 87.652344 235.878906 87.855469 236.046875 88.042969 236.234375 C 88.230469 236.421875 88.398438 236.625 88.542969 236.84375 C 88.691406 237.066406 88.816406 237.296875 88.914062 237.539062 C 89.015625 237.785156 89.09375 238.039062 89.144531 238.296875 C 89.195312 238.554688 89.222656 238.816406 89.222656 239.082031 Z M 89.222656 239.082031 " fill-opacity="1" fill-rule="nonzero"/><path fill="rgb(86.669922%, 61.959839%, 32.159424%)" d="M 72.265625 289.945312 C 72.265625 290.210938 72.238281 290.472656 72.1875 290.730469 C 72.136719 290.992188 72.058594 291.242188 71.957031 291.488281 C 71.855469 291.730469 71.734375 291.964844 71.585938 292.183594 C 71.4375 292.402344 71.273438 292.605469 71.085938 292.792969 C 70.898438 292.980469 70.695312 293.148438 70.476562 293.296875 C 70.253906 293.441406 70.023438 293.566406 69.777344 293.667969 C 69.535156 293.769531 69.28125 293.84375 69.023438 293.894531 C 68.765625 293.949219 68.503906 293.972656 68.238281 293.972656 C 67.972656 293.972656 67.710938 293.949219 67.453125 293.894531 C 67.191406 293.84375 66.941406 293.769531 66.695312 293.667969 C 66.453125 293.566406 66.21875 293.441406 66 293.296875 C 65.78125 293.148438 65.578125 292.980469 65.390625 292.792969 C 65.203125 292.605469 65.035156 292.402344 64.890625 292.183594 C 64.742188 291.964844 64.617188 291.730469 64.515625 291.488281 C 64.417969 291.242188 64.339844 290.992188 64.289062 290.730469 C 64.238281 290.472656 64.210938 290.210938 64.210938 289.945312 C 64.210938 289.683594 64.238281 289.421875 64.289062 289.160156 C 64.339844 288.902344 64.417969 288.648438 64.515625 288.40625 C 64.617188 288.160156 64.742188 287.929688 64.890625 287.710938 C 65.035156 287.488281 65.203125 287.285156 65.390625 287.097656 C 65.578125 286.910156 65.78125 286.746094 66 286.597656 C 66.21875 286.453125 66.453125 286.328125 66.695312 286.226562 C 66.941406 286.125 67.191406 286.046875 67.453125 285.996094 C 67.710938 285.945312 67.972656 285.917969 68.238281 285.917969 C 68.503906 285.917969 68.765625 285.945312 69.023438 285.996094 C 69.28125 286.046875 69.535156 286.125 69.777344 286.226562 C 70.023438 286.328125 70.253906 286.453125 70.476562 286.597656 C 70.695312 286.746094 70.898438 286.910156 71.085938 287.097656 C 71.273438 287.285156 71.4375 287.488281 71.585938 287.710938 C 71.734375 287.929688 71.855469 288.160156 71.957031 288.40625 C 72.058594 288.648438 72.136719 288.902344 72.1875 289.160156 C 72.238281 289.421875 72.265625 289.683594 72.265625 289.945312 Z M 72.265625 289.945312 " fill-opacity="1" fill-rule="nonzero"/><path fill="rgb(86.669922%, 61.959839%, 32.159424%)" d="M 89.222656 272.996094 C 89.222656 273.261719 89.195312 273.523438 89.144531 273.78125 C 89.09375 274.042969 89.015625 274.292969 88.914062 274.539062 C 88.816406 274.78125 88.691406 275.015625 88.542969 275.234375 C 88.398438 275.453125 88.230469 275.65625 88.042969 275.84375 C 87.855469 276.03125 87.652344 276.199219 87.433594 276.34375 C 87.210938 276.492188 86.980469 276.617188 86.734375 276.71875 C 86.492188 276.820312 86.238281 276.894531 85.980469 276.945312 C 85.722656 276.996094 85.460938 277.023438 85.195312 277.023438 C 84.929688 277.023438 84.667969 276.996094 84.410156 276.945312 C 84.148438 276.894531 83.898438 276.820312 83.652344 276.71875 C 83.410156 276.617188 83.179688 276.492188 82.957031 276.34375 C 82.738281 276.199219 82.535156 276.03125 82.347656 275.84375 C 82.160156 275.65625 81.992188 275.453125 81.847656 275.234375 C 81.699219 275.015625 81.574219 274.78125 81.476562 274.539062 C 81.375 274.292969 81.296875 274.042969 81.246094 273.78125 C 81.195312 273.523438 81.167969 273.261719 81.167969 272.996094 C 81.167969 272.730469 81.195312 272.46875 81.246094 272.210938 C 81.296875 271.953125 81.375 271.699219 81.476562 271.457031 C 81.574219 271.210938 81.699219 270.980469 81.847656 270.757812 C 81.992188 270.539062 82.160156 270.335938 82.347656 270.148438 C 82.535156 269.960938 82.738281 269.796875 82.957031 269.648438 C 83.179688 269.5 83.410156 269.378906 83.652344 269.277344 C 83.898438 269.175781 84.148438 269.097656 84.410156 269.046875 C 84.667969 268.996094 84.929688 268.96875 85.195312 268.96875 C 85.460938 268.96875 85.722656 268.996094 85.980469 269.046875 C 86.238281 269.097656 86.492188 269.175781 86.734375 269.277344 C 86.980469 269.378906 87.210938 269.5 87.433594 269.648438 C 87.652344 269.796875 87.855469 269.960938 88.042969 270.148438 C 88.230469 270.335938 88.398438 270.539062 88.542969 270.757812 C 88.691406 270.980469 88.816406 271.210938 88.914062 271.457031 C 89.015625 271.699219 89.09375 271.953125 89.144531 272.210938 C 89.195312 272.46875 89.222656 272.730469 89.222656 272.996094 Z M 89.222656 272.996094 " fill-opacity="1" fill-rule="nonzero"/><path fill="rgb(86.669922%, 61.959839%, 32.159424%)" d="M 106.171875 256.03125 C 106.171875 256.296875 106.144531 256.558594 106.09375 256.816406 C 106.042969 257.078125 105.96875 257.328125 105.867188 257.574219 C 105.765625 257.816406 105.640625 258.050781 105.492188 258.269531 C 105.347656 258.488281 105.179688 258.691406 104.992188 258.878906 C 104.804688 259.066406 104.601562 259.234375 104.382812 259.378906 C 104.164062 259.527344 103.929688 259.652344 103.6875 259.753906 C 103.441406 259.855469 103.191406 259.929688 102.929688 259.980469 C 102.671875 260.035156 102.410156 260.058594 102.144531 260.058594 C 101.878906 260.058594 101.617188 260.035156 101.359375 259.980469 C 101.101562 259.929688 100.847656 259.855469 100.605469 259.753906 C 100.359375 259.652344 100.128906 259.527344 99.90625 259.378906 C 99.6875 259.234375 99.484375 259.066406 99.296875 258.878906 C 99.109375 258.691406 98.945312 258.488281 98.796875 258.269531 C 98.648438 258.050781 98.527344 257.816406 98.425781 257.574219 C 98.324219 257.328125 98.246094 257.078125 98.195312 256.816406 C 98.144531 256.558594 98.117188 256.296875 98.117188 256.03125 C 98.117188 255.765625 98.144531 255.503906 98.195312 255.246094 C 98.246094 254.988281 98.324219 254.734375 98.425781 254.492188 C 98.527344 254.246094 98.648438 254.015625 98.796875 253.792969 C 98.945312 253.574219 99.109375 253.371094 99.296875 253.183594 C 99.484375 252.996094 99.6875 252.832031 99.90625 252.683594 C 100.128906 252.535156 100.359375 252.414062 100.605469 252.3125 C 100.847656 252.210938 101.101562 252.132812 101.359375 252.082031 C 101.617188 252.03125 101.878906 252.003906 102.144531 252.003906 C 102.410156 252.003906 102.671875 252.03125 102.929688 252.082031 C 103.191406 252.132812 103.441406 252.210938 103.6875 252.3125 C 103.929688 252.414062 104.164062 252.535156 104.382812 252.683594 C 104.601562 252.832031 104.804688 252.996094 104.992188 253.183594 C 105.179688 253.371094 105.347656 253.574219 105.492188 253.792969 C 105.640625 254.015625 105.765625 254.246094 105.867188 254.492188 C 105.96875 254.734375 106.042969 254.988281 106.09375 255.246094 C 106.144531 255.503906 106.171875 255.765625 106.171875 256.03125 Z M 106.171875 256.03125 " fill-opacity="1" fill-rule="nonzero"/><path fill="rgb(86.669922%, 61.959839%, 32.159424%)" d="M 89.222656 306.894531 C 89.222656 307.160156 89.195312 307.421875 89.144531 307.683594 C 89.09375 307.941406 89.015625 308.191406 88.914062 308.4375 C 88.816406 308.683594 88.691406 308.914062 88.542969 309.132812 C 88.398438 309.355469 88.230469 309.558594 88.042969 309.742188 C 87.855469 309.929688 87.652344 310.097656 87.433594 310.246094 C 87.210938 310.390625 86.980469 310.515625 86.734375 310.617188 C 86.492188 310.71875 86.238281 310.792969 85.980469 310.847656 C 85.722656 310.898438 85.460938 310.921875 85.195312 310.921875 C 84.929688 310.921875 84.667969 310.898438 84.410156 310.847656 C 84.148438 310.792969 83.898438 310.71875 83.652344 310.617188 C 83.410156 310.515625 83.179688 310.390625 82.957031 310.246094 C 82.738281 310.097656 82.535156 309.929688 82.347656 309.742188 C 82.160156 309.558594 81.992188 309.355469 81.847656 309.132812 C 81.699219 308.914062 81.574219 308.683594 81.476562 308.4375 C 81.375 308.191406 81.296875 307.941406 81.246094 307.683594 C 81.195312 307.421875 81.167969 307.160156 81.167969 306.894531 C 81.167969 306.632812 81.195312 306.371094 81.246094 306.109375 C 81.296875 305.851562 81.375 305.601562 81.476562 305.355469 C 81.574219 305.109375 81.699219 304.878906 81.847656 304.660156 C 81.992188 304.4375 82.160156 304.234375 82.347656 304.050781 C 82.535156 303.863281 82.738281 303.695312 82.957031 303.546875 C 83.179688 303.402344 83.410156 303.277344 83.652344 303.175781 C 83.898438 303.074219 84.148438 303 84.410156 302.945312 C 84.667969 302.894531 84.929688 302.871094 85.195312 302.871094 C 85.460938 302.871094 85.722656 302.894531 85.980469 302.945312 C 86.238281 303 86.492188 303.074219 86.734375 303.175781 C 86.980469 303.277344 87.210938 303.402344 87.433594 303.546875 C 87.652344 303.695312 87.855469 303.863281 88.042969 304.050781 C 88.230469 304.234375 88.398438 304.4375 88.542969 304.660156 C 88.691406 304.878906 88.816406 305.109375 88.914062 305.355469 C 89.015625 305.601562 89.09375 305.851562 89.144531 306.109375 C 89.195312 306.371094 89.222656 306.632812 89.222656 306.894531 Z M 89.222656 306.894531 " fill-opacity="1" fill-rule="nonzero"/><path fill="rgb(86.669922%, 61.959839%, 32.159424%)" d="M 106.171875 289.945312 C 106.171875 290.210938 106.144531 290.472656 106.09375 290.730469 C 106.042969 290.992188 105.96875 291.242188 105.867188 291.488281 C 105.765625 291.730469 105.640625 291.964844 105.492188 292.183594 C 105.347656 292.402344 105.179688 292.605469 104.992188 292.792969 C 104.804688 292.980469 104.601562 293.148438 104.382812 293.296875 C 104.164062 293.441406 103.929688 293.566406 103.6875 293.667969 C 103.441406 293.769531 103.191406 293.84375 102.929688 293.894531 C 102.671875 293.949219 102.410156 293.972656 102.144531 293.972656 C 101.878906 293.972656 101.617188 293.949219 101.359375 293.894531 C 101.101562 293.84375 100.847656 293.769531 100.605469 293.667969 C 100.359375 293.566406 100.128906 293.441406 99.90625 293.296875 C 99.6875 293.148438 99.484375 292.980469 99.296875 292.792969 C 99.109375 292.605469 98.945312 292.402344 98.796875 292.183594 C 98.648438 291.964844 98.527344 291.730469 98.425781 291.488281 C 98.324219 291.242188 98.246094 290.992188 98.195312 290.730469 C 98.144531 290.472656 98.117188 290.210938 98.117188 289.945312 C 98.117188 289.683594 98.144531 289.421875 98.195312 289.160156 C 98.246094 288.902344 98.324219 288.648438 98.425781 288.40625 C 98.527344 288.160156 98.648438 287.929688 98.796875 287.710938 C 98.945312 287.488281 99.109375 287.285156 99.296875 287.097656 C 99.484375 286.910156 99.6875 286.746094 99.90625 286.597656 C 100.128906 286.453125 100.359375 286.328125 100.605469 286.226562 C 100.847656 286.125 101.101562 286.046875 101.359375 285.996094 C 101.617188 285.945312 101.878906 285.917969 102.144531 285.917969 C 102.410156 285.917969 102.671875 285.945312 102.929688 285.996094 C 103.191406 286.046875 103.441406 286.125 103.6875 286.226562 C 103.929688 286.328125 104.164062 286.453125 104.382812 286.597656 C 104.601562 286.746094 104.804688 286.910156 104.992188 287.097656 C 105.179688 287.285156 105.347656 287.488281 105.492188 287.710938 C 105.640625 287.929688 105.765625 288.160156 105.867188 288.40625 C 105.96875 288.648438 106.042969 288.902344 106.09375 289.160156 C 106.144531 289.421875 106.171875 289.683594 106.171875 289.945312 Z M 106.171875 289.945312 " fill-opacity="1" fill-rule="nonzero"/><path fill="rgb(86.669922%, 61.959839%, 32.159424%)" d="M 123.128906 272.996094 C 123.128906 273.261719 123.105469 273.523438 123.050781 273.78125 C 123 274.042969 122.925781 274.292969 122.824219 274.539062 C 122.722656 274.78125 122.597656 275.015625 122.449219 275.234375 C 122.304688 275.453125 122.136719 275.65625 121.949219 275.84375 C 121.761719 276.03125 121.558594 276.199219 121.339844 276.34375 C 121.121094 276.492188 120.886719 276.617188 120.644531 276.71875 C 120.398438 276.820312 120.148438 276.894531 119.886719 276.945312 C 119.628906 276.996094 119.367188 277.023438 119.101562 277.023438 C 118.839844 277.023438 118.574219 276.996094 118.316406 276.945312 C 118.058594 276.894531 117.804688 276.820312 117.5625 276.71875 C 117.316406 276.617188 117.085938 276.492188 116.863281 276.34375 C 116.644531 276.199219 116.441406 276.03125 116.253906 275.84375 C 116.066406 275.65625 115.902344 275.453125 115.753906 275.234375 C 115.605469 275.015625 115.484375 274.78125 115.382812 274.539062 C 115.28125 274.292969 115.203125 274.042969 115.152344 273.78125 C 115.101562 273.523438 115.074219 273.261719 115.074219 272.996094 C 115.074219 272.730469 115.101562 272.46875 115.152344 272.210938 C 115.203125 271.953125 115.28125 271.699219 115.382812 271.457031 C 115.484375 271.210938 115.605469 270.980469 115.753906 270.757812 C 115.902344 270.539062 116.066406 270.335938 116.253906 270.148438 C 116.441406 269.960938 116.644531 269.796875 116.863281 269.648438 C 117.085938 269.5 117.316406 269.378906 117.5625 269.277344 C 117.804688 269.175781 118.058594 269.097656 118.316406 269.046875 C 118.574219 268.996094 118.839844 268.96875 119.101562 268.96875 C 119.367188 268.96875 119.628906 268.996094 119.886719 269.046875 C 120.148438 269.097656 120.398438 269.175781 120.644531 269.277344 C 120.886719 269.378906 121.121094 269.5 121.339844 269.648438 C 121.558594 269.796875 121.761719 269.960938 121.949219 270.148438 C 122.136719 270.335938 122.304688 270.539062 122.449219 270.757812 C 122.597656 270.980469 122.722656 271.210938 122.824219 271.457031 C 122.925781 271.699219 123 271.953125 123.050781 272.210938 C 123.105469 272.46875 123.128906 272.730469 123.128906 272.996094 Z M 123.128906 272.996094 " fill-opacity="1" fill-rule="nonzero"/><path fill="rgb(86.669922%, 61.959839%, 32.159424%)" d="M 106.171875 323.847656 C 106.171875 324.109375 106.144531 324.371094 106.09375 324.632812 C 106.042969 324.890625 105.96875 325.144531 105.867188 325.386719 C 105.765625 325.632812 105.640625 325.863281 105.492188 326.082031 C 105.347656 326.304688 105.179688 326.507812 104.992188 326.695312 C 104.804688 326.878906 104.601562 327.046875 104.382812 327.195312 C 104.164062 327.339844 103.929688 327.464844 103.6875 327.566406 C 103.441406 327.667969 103.191406 327.746094 102.929688 327.796875 C 102.671875 327.847656 102.410156 327.875 102.144531 327.875 C 101.878906 327.875 101.617188 327.847656 101.359375 327.796875 C 101.101562 327.746094 100.847656 327.667969 100.605469 327.566406 C 100.359375 327.464844 100.128906 327.339844 99.90625 327.195312 C 99.6875 327.046875 99.484375 326.878906 99.296875 326.695312 C 99.109375 326.507812 98.945312 326.304688 98.796875 326.082031 C 98.648438 325.863281 98.527344 325.632812 98.425781 325.386719 C 98.324219 325.144531 98.246094 324.890625 98.195312 324.632812 C 98.144531 324.371094 98.117188 324.109375 98.117188 323.847656 C 98.117188 323.582031 98.144531 323.320312 98.195312 323.0625 C 98.246094 322.800781 98.324219 322.550781 98.425781 322.304688 C 98.527344 322.0625 98.648438 321.828125 98.796875 321.609375 C 98.945312 321.390625 99.109375 321.1875 99.296875 321 C 99.484375 320.8125 99.6875 320.644531 99.90625 320.496094 C 100.128906 320.351562 100.359375 320.226562 100.605469 320.125 C 100.847656 320.023438 101.101562 319.949219 101.359375 319.898438 C 101.617188 319.84375 101.878906 319.820312 102.144531 319.820312 C 102.410156 319.820312 102.671875 319.84375 102.929688 319.898438 C 103.191406 319.949219 103.441406 320.023438 103.6875 320.125 C 103.929688 320.226562 104.164062 320.351562 104.382812 320.496094 C 104.601562 320.644531 104.804688 320.8125 104.992188 321 C 105.179688 321.1875 105.347656 321.390625 105.492188 321.609375 C 105.640625 321.828125 105.765625 322.0625 105.867188 322.304688 C 105.96875 322.550781 106.042969 322.800781 106.09375 323.0625 C 106.144531 323.320312 106.171875 323.582031 106.171875 323.847656 Z M 106.171875 323.847656 " fill-opacity="1" fill-rule="nonzero"/><path fill="rgb(86.669922%, 61.959839%, 32.159424%)" d="M 123.128906 306.894531 C 123.128906 307.160156 123.105469 307.421875 123.050781 307.683594 C 123 307.941406 122.925781 308.191406 122.824219 308.4375 C 122.722656 308.683594 122.597656 308.914062 122.449219 309.132812 C 122.304688 309.355469 122.136719 309.558594 121.949219 309.742188 C 121.761719 309.929688 121.558594 310.097656 121.339844 310.246094 C 121.121094 310.390625 120.886719 310.515625 120.644531 310.617188 C 120.398438 310.71875 120.148438 310.792969 119.886719 310.847656 C 119.628906 310.898438 119.367188 310.921875 119.101562 310.921875 C 118.839844 310.921875 118.574219 310.898438 118.316406 310.847656 C 118.058594 310.792969 117.804688 310.71875 117.5625 310.617188 C 117.316406 310.515625 117.085938 310.390625 116.863281 310.246094 C 116.644531 310.097656 116.441406 309.929688 116.253906 309.742188 C 116.066406 309.558594 115.902344 309.355469 115.753906 309.132812 C 115.605469 308.914062 115.484375 308.683594 115.382812 308.4375 C 115.28125 308.191406 115.203125 307.941406 115.152344 307.683594 C 115.101562 307.421875 115.074219 307.160156 115.074219 306.894531 C 115.074219 306.632812 115.101562 306.371094 115.152344 306.109375 C 115.203125 305.851562 115.28125 305.601562 115.382812 305.355469 C 115.484375 305.109375 115.605469 304.878906 115.753906 304.660156 C 115.902344 304.4375 116.066406 304.234375 116.253906 304.050781 C 116.441406 303.863281 116.644531 303.695312 116.863281 303.546875 C 117.085938 303.402344 117.316406 303.277344 117.5625 303.175781 C 117.804688 303.074219 118.058594 303 118.316406 302.945312 C 118.574219 302.894531 118.839844 302.871094 119.101562 302.871094 C 119.367188 302.871094 119.628906 302.894531 119.886719 302.945312 C 120.148438 303 120.398438 303.074219 120.644531 303.175781 C 120.886719 303.277344 121.121094 303.402344 121.339844 303.546875 C 121.558594 303.695312 121.761719 303.863281 121.949219 304.050781 C 122.136719 304.234375 122.304688 304.4375 122.449219 304.660156 C 122.597656 304.878906 122.722656 305.109375 122.824219 305.355469 C 122.925781 305.601562 123 305.851562 123.050781 306.109375 C 123.105469 306.371094 123.128906 306.632812 123.128906 306.894531 Z M 123.128906 306.894531 " fill-opacity="1" fill-rule="nonzero"/><path fill="rgb(86.669922%, 61.959839%, 32.159424%)" d="M 140.078125 289.945312 C 140.078125 290.210938 140.054688 290.472656 140 290.730469 C 139.949219 290.992188 139.875 291.242188 139.773438 291.488281 C 139.671875 291.730469 139.546875 291.964844 139.402344 292.183594 C 139.253906 292.402344 139.085938 292.605469 138.898438 292.792969 C 138.710938 292.980469 138.507812 293.148438 138.289062 293.296875 C 138.070312 293.441406 137.835938 293.566406 137.59375 293.667969 C 137.347656 293.769531 137.097656 293.84375 136.839844 293.894531 C 136.578125 293.949219 136.316406 293.972656 136.050781 293.972656 C 135.789062 293.972656 135.527344 293.949219 135.265625 293.894531 C 135.007812 293.84375 134.753906 293.769531 134.511719 293.667969 C 134.265625 293.566406 134.035156 293.441406 133.816406 293.296875 C 133.59375 293.148438 133.390625 292.980469 133.203125 292.792969 C 133.019531 292.605469 132.851562 292.402344 132.703125 292.183594 C 132.558594 291.964844 132.433594 291.730469 132.332031 291.488281 C 132.230469 291.242188 132.152344 290.992188 132.101562 290.730469 C 132.050781 290.472656 132.023438 290.210938 132.023438 289.945312 C 132.023438 289.683594 132.050781 289.421875 132.101562 289.160156 C 132.152344 288.902344 132.230469 288.648438 132.332031 288.40625 C 132.433594 288.160156 132.558594 287.929688 132.703125 287.710938 C 132.851562 287.488281 133.019531 287.285156 133.203125 287.097656 C 133.390625 286.910156 133.59375 286.746094 133.816406 286.597656 C 134.035156 286.453125 134.265625 286.328125 134.511719 286.226562 C 134.753906 286.125 135.007812 286.046875 135.265625 285.996094 C 135.527344 285.945312 135.789062 285.917969 136.050781 285.917969 C 136.316406 285.917969 136.578125 285.945312 136.835938 285.996094 C 137.097656 286.046875 137.347656 286.125 137.59375 286.226562 C 137.835938 286.328125 138.070312 286.453125 138.289062 286.597656 C 138.507812 286.746094 138.710938 286.910156 138.898438 287.097656 C 139.085938 287.285156 139.253906 287.488281 139.402344 287.710938 C 139.546875 287.929688 139.671875 288.160156 139.773438 288.40625 C 139.875 288.648438 139.949219 288.902344 140 289.160156 C 140.054688 289.421875 140.078125 289.683594 140.078125 289.945312 Z M 140.078125 289.945312 " fill-opacity="1" fill-rule="nonzero"/><path fill="rgb(86.669922%, 61.959839%, 32.159424%)" d="M 243.117188 85.1875 C 243.117188 85.453125 243.089844 85.714844 243.039062 85.972656 C 242.988281 86.234375 242.910156 86.484375 242.808594 86.730469 C 242.707031 86.972656 242.585938 87.207031 242.4375 87.425781 C 242.292969 87.644531 242.125 87.847656 241.9375 88.035156 C 241.75 88.222656 241.546875 88.390625 241.328125 88.535156 C 241.105469 88.683594 240.875 88.808594 240.628906 88.910156 C 240.386719 89.007812 240.132812 89.085938 239.875 89.136719 C 239.617188 89.1875 239.355469 89.214844 239.089844 89.214844 C 238.824219 89.214844 238.5625 89.1875 238.304688 89.136719 C 238.042969 89.085938 237.792969 89.007812 237.546875 88.910156 C 237.304688 88.808594 237.070312 88.683594 236.851562 88.535156 C 236.632812 88.390625 236.429688 88.222656 236.242188 88.035156 C 236.054688 87.847656 235.886719 87.644531 235.742188 87.425781 C 235.59375 87.207031 235.46875 86.972656 235.367188 86.730469 C 235.269531 86.484375 235.191406 86.234375 235.140625 85.972656 C 235.089844 85.714844 235.0625 85.453125 235.0625 85.1875 C 235.0625 84.921875 235.089844 84.660156 235.140625 84.402344 C 235.191406 84.144531 235.269531 83.890625 235.367188 83.648438 C 235.46875 83.402344 235.59375 83.171875 235.742188 82.949219 C 235.886719 82.730469 236.054688 82.527344 236.242188 82.339844 C 236.429688 82.152344 236.632812 81.984375 236.851562 81.839844 C 237.070312 81.691406 237.304688 81.570312 237.546875 81.46875 C 237.792969 81.367188 238.042969 81.289062 238.304688 81.238281 C 238.5625 81.1875 238.824219 81.160156 239.089844 81.160156 C 239.355469 81.160156 239.617188 81.1875 239.875 81.238281 C 240.132812 81.289062 240.386719 81.367188 240.628906 81.46875 C 240.875 81.570312 241.105469 81.691406 241.328125 81.839844 C 241.546875 81.984375 241.75 82.152344 241.9375 82.339844 C 242.125 82.527344 242.292969 82.730469 242.4375 82.949219 C 242.585938 83.171875 242.707031 83.402344 242.808594 83.648438 C 242.910156 83.890625 242.988281 84.144531 243.039062 84.402344 C 243.089844 84.660156 243.117188 84.921875 243.117188 85.1875 Z M 243.117188 85.1875 " fill-opacity="1" fill-rule="nonzero"/><path fill="rgb(86.669922%, 61.959839%, 32.159424%)" d="M 260.066406 68.238281 C 260.066406 68.503906 260.039062 68.765625 259.988281 69.023438 C 259.9375 69.28125 259.859375 69.535156 259.761719 69.777344 C 259.660156 70.023438 259.535156 70.253906 259.386719 70.476562 C 259.242188 70.695312 259.074219 70.898438 258.886719 71.085938 C 258.699219 71.273438 258.496094 71.4375 258.277344 71.585938 C 258.058594 71.734375 257.824219 71.855469 257.582031 71.957031 C 257.335938 72.058594 257.085938 72.136719 256.824219 72.1875 C 256.566406 72.238281 256.304688 72.265625 256.039062 72.265625 C 255.773438 72.265625 255.511719 72.238281 255.253906 72.1875 C 254.996094 72.136719 254.742188 72.058594 254.5 71.957031 C 254.253906 71.855469 254.023438 71.734375 253.800781 71.585938 C 253.582031 71.4375 253.378906 71.273438 253.191406 71.085938 C 253.003906 70.898438 252.839844 70.695312 252.691406 70.476562 C 252.542969 70.253906 252.421875 70.023438 252.320312 69.777344 C 252.21875 69.535156 252.140625 69.28125 252.089844 69.023438 C 252.039062 68.765625 252.011719 68.503906 252.011719 68.238281 C 252.011719 67.972656 252.039062 67.710938 252.089844 67.453125 C 252.140625 67.191406 252.21875 66.941406 252.320312 66.695312 C 252.421875 66.453125 252.542969 66.21875 252.691406 66 C 252.839844 65.78125 253.003906 65.578125 253.191406 65.390625 C 253.378906 65.203125 253.582031 65.035156 253.800781 64.890625 C 254.023438 64.742188 254.253906 64.617188 254.5 64.515625 C 254.742188 64.417969 254.996094 64.339844 255.253906 64.289062 C 255.511719 64.238281 255.773438 64.210938 256.039062 64.210938 C 256.304688 64.210938 256.566406 64.238281 256.824219 64.289062 C 257.085938 64.339844 257.335938 64.417969 257.582031 64.515625 C 257.824219 64.617188 258.058594 64.742188 258.277344 64.890625 C 258.496094 65.035156 258.699219 65.203125 258.886719 65.390625 C 259.074219 65.578125 259.242188 65.78125 259.386719 66 C 259.535156 66.21875 259.660156 66.453125 259.761719 66.695312 C 259.859375 66.941406 259.9375 67.191406 259.988281 67.453125 C 260.039062 67.710938 260.066406 67.972656 260.066406 68.238281 Z M 260.066406 68.238281 " fill-opacity="1" fill-rule="nonzero"/><path fill="rgb(86.669922%, 61.959839%, 32.159424%)" d="M 277.023438 51.28125 C 277.023438 51.546875 276.996094 51.808594 276.945312 52.066406 C 276.894531 52.324219 276.820312 52.578125 276.71875 52.820312 C 276.617188 53.066406 276.492188 53.296875 276.34375 53.519531 C 276.199219 53.738281 276.03125 53.941406 275.84375 54.128906 C 275.65625 54.316406 275.453125 54.480469 275.234375 54.628906 C 275.015625 54.777344 274.78125 54.898438 274.539062 55 C 274.292969 55.101562 274.042969 55.179688 273.78125 55.230469 C 273.523438 55.28125 273.261719 55.308594 272.996094 55.308594 C 272.730469 55.308594 272.46875 55.28125 272.210938 55.230469 C 271.953125 55.179688 271.699219 55.101562 271.457031 55 C 271.210938 54.898438 270.980469 54.777344 270.757812 54.628906 C 270.539062 54.480469 270.335938 54.316406 270.148438 54.128906 C 269.960938 53.941406 269.796875 53.738281 269.648438 53.519531 C 269.5 53.296875 269.378906 53.066406 269.277344 52.820312 C 269.175781 52.578125 269.097656 52.324219 269.046875 52.066406 C 268.996094 51.808594 268.96875 51.546875 268.96875 51.28125 C 268.96875 51.015625 268.996094 50.753906 269.046875 50.496094 C 269.097656 50.234375 269.175781 49.984375 269.277344 49.738281 C 269.378906 49.496094 269.5 49.261719 269.648438 49.042969 C 269.796875 48.824219 269.960938 48.621094 270.148438 48.433594 C 270.335938 48.246094 270.539062 48.078125 270.757812 47.933594 C 270.980469 47.785156 271.210938 47.660156 271.457031 47.558594 C 271.699219 47.457031 271.953125 47.382812 272.210938 47.332031 C 272.46875 47.28125 272.730469 47.253906 272.996094 47.253906 C 273.261719 47.253906 273.523438 47.28125 273.78125 47.332031 C 274.042969 47.382812 274.292969 47.457031 274.539062 47.558594 C 274.78125 47.660156 275.015625 47.785156 275.234375 47.933594 C 275.453125 48.078125 275.65625 48.246094 275.84375 48.433594 C 276.03125 48.621094 276.199219 48.824219 276.34375 49.042969 C 276.492188 49.261719 276.617188 49.496094 276.71875 49.738281 C 276.820312 49.984375 276.894531 50.234375 276.945312 50.496094 C 276.996094 50.753906 277.023438 51.015625 277.023438 51.28125 Z M 277.023438 51.28125 " fill-opacity="1" fill-rule="nonzero"/><path fill="rgb(86.669922%, 61.959839%, 32.159424%)" d="M 260.066406 102.144531 C 260.066406 102.410156 260.039062 102.671875 259.988281 102.929688 C 259.9375 103.191406 259.859375 103.441406 259.761719 103.6875 C 259.660156 103.929688 259.535156 104.164062 259.386719 104.382812 C 259.242188 104.601562 259.074219 104.804688 258.886719 104.992188 C 258.699219 105.179688 258.496094 105.347656 258.277344 105.492188 C 258.058594 105.640625 257.824219 105.765625 257.582031 105.867188 C 257.335938 105.96875 257.085938 106.042969 256.824219 106.09375 C 256.566406 106.144531 256.304688 106.171875 256.039062 106.171875 C 255.773438 106.171875 255.511719 106.144531 255.253906 106.09375 C 254.996094 106.042969 254.742188 105.96875 254.5 105.867188 C 254.253906 105.765625 254.023438 105.640625 253.800781 105.492188 C 253.582031 105.347656 253.378906 105.179688 253.191406 104.992188 C 253.003906 104.804688 252.839844 104.601562 252.691406 104.382812 C 252.542969 104.164062 252.421875 103.929688 252.320312 103.6875 C 252.21875 103.441406 252.140625 103.191406 252.089844 102.929688 C 252.039062 102.671875 252.011719 102.410156 252.011719 102.144531 C 252.011719 101.878906 252.039062 101.617188 252.089844 101.359375 C 252.140625 101.101562 252.21875 100.847656 252.320312 100.605469 C 252.421875 100.359375 252.542969 100.128906 252.691406 99.90625 C 252.839844 99.6875 253.003906 99.484375 253.191406 99.296875 C 253.378906 99.109375 253.582031 98.945312 253.800781 98.796875 C 254.023438 98.648438 254.253906 98.527344 254.5 98.425781 C 254.742188 98.324219 254.996094 98.246094 255.253906 98.195312 C 255.511719 98.144531 255.773438 98.117188 256.039062 98.117188 C 256.304688 98.117188 256.566406 98.144531 256.824219 98.195312 C 257.085938 98.246094 257.335938 98.324219 257.582031 98.425781 C 257.824219 98.527344 258.058594 98.648438 258.277344 98.796875 C 258.496094 98.945312 258.699219 99.109375 258.886719 99.296875 C 259.074219 99.484375 259.242188 99.6875 259.386719 99.90625 C 259.535156 100.128906 259.660156 100.359375 259.761719 100.605469 C 259.859375 100.847656 259.9375 101.101562 259.988281 101.359375 C 260.039062 101.617188 260.066406 101.878906 260.066406 102.144531 Z M 260.066406 102.144531 " fill-opacity="1" fill-rule="nonzero"/><path fill="rgb(86.669922%, 61.959839%, 32.159424%)" d="M 277.023438 85.1875 C 277.023438 85.453125 276.996094 85.714844 276.945312 85.972656 C 276.894531 86.234375 276.820312 86.484375 276.71875 86.730469 C 276.617188 86.972656 276.492188 87.207031 276.34375 87.425781 C 276.199219 87.644531 276.03125 87.847656 275.84375 88.035156 C 275.65625 88.222656 275.453125 88.390625 275.234375 88.535156 C 275.015625 88.683594 274.78125 88.808594 274.539062 88.910156 C 274.292969 89.007812 274.042969 89.085938 273.78125 89.136719 C 273.523438 89.1875 273.261719 89.214844 272.996094 89.214844 C 272.730469 89.214844 272.46875 89.1875 272.210938 89.136719 C 271.953125 89.085938 271.699219 89.007812 271.457031 88.910156 C 271.210938 88.808594 270.980469 88.683594 270.757812 88.535156 C 270.539062 88.390625 270.335938 88.222656 270.148438 88.035156 C 269.960938 87.847656 269.796875 87.644531 269.648438 87.425781 C 269.5 87.207031 269.378906 86.972656 269.277344 86.730469 C 269.175781 86.484375 269.097656 86.234375 269.046875 85.972656 C 268.996094 85.714844 268.96875 85.453125 268.96875 85.1875 C 268.96875 84.921875 268.996094 84.660156 269.046875 84.402344 C 269.097656 84.144531 269.175781 83.890625 269.277344 83.648438 C 269.378906 83.402344 269.5 83.171875 269.648438 82.949219 C 269.796875 82.730469 269.960938 82.527344 270.148438 82.339844 C 270.335938 82.152344 270.539062 81.984375 270.757812 81.839844 C 270.980469 81.691406 271.210938 81.570312 271.457031 81.46875 C 271.699219 81.367188 271.953125 81.289062 272.210938 81.238281 C 272.46875 81.1875 272.730469 81.160156 272.996094 81.160156 C 273.261719 81.160156 273.523438 81.1875 273.78125 81.238281 C 274.042969 81.289062 274.292969 81.367188 274.539062 81.46875 C 274.78125 81.570312 275.015625 81.691406 275.234375 81.839844 C 275.453125 81.984375 275.65625 82.152344 275.84375 82.339844 C 276.03125 82.527344 276.199219 82.730469 276.34375 82.949219 C 276.492188 83.171875 276.617188 83.402344 276.71875 83.648438 C 276.820312 83.890625 276.894531 84.144531 276.945312 84.402344 C 276.996094 84.660156 277.023438 84.921875 277.023438 85.1875 Z M 277.023438 85.1875 " fill-opacity="1" fill-rule="nonzero"/><path fill="rgb(86.669922%, 61.959839%, 32.159424%)" d="M 293.972656 68.238281 C 293.972656 68.503906 293.949219 68.765625 293.894531 69.023438 C 293.84375 69.28125 293.769531 69.535156 293.667969 69.777344 C 293.566406 70.023438 293.441406 70.253906 293.296875 70.476562 C 293.148438 70.695312 292.980469 70.898438 292.792969 71.085938 C 292.605469 71.273438 292.402344 71.4375 292.183594 71.585938 C 291.964844 71.734375 291.730469 71.855469 291.488281 71.957031 C 291.242188 72.058594 290.992188 72.136719 290.730469 72.1875 C 290.472656 72.238281 290.210938 72.265625 289.945312 72.265625 C 289.683594 72.265625 289.421875 72.238281 289.160156 72.1875 C 288.902344 72.136719 288.648438 72.058594 288.40625 71.957031 C 288.160156 71.855469 287.929688 71.734375 287.710938 71.585938 C 287.488281 71.4375 287.285156 71.273438 287.097656 71.085938 C 286.910156 70.898438 286.746094 70.695312 286.597656 70.476562 C 286.453125 70.253906 286.328125 70.023438 286.226562 69.777344 C 286.125 69.535156 286.046875 69.28125 285.996094 69.023438 C 285.945312 68.765625 285.917969 68.503906 285.917969 68.238281 C 285.917969 67.972656 285.945312 67.710938 285.996094 67.453125 C 286.046875 67.191406 286.125 66.941406 286.226562 66.695312 C 286.328125 66.453125 286.453125 66.21875 286.597656 66 C 286.746094 65.78125 286.910156 65.578125 287.097656 65.390625 C 287.285156 65.203125 287.488281 65.035156 287.710938 64.890625 C 287.929688 64.742188 288.160156 64.617188 288.40625 64.515625 C 288.648438 64.417969 288.902344 64.339844 289.160156 64.289062 C 289.421875 64.238281 289.683594 64.210938 289.945312 64.210938 C 290.210938 64.210938 290.472656 64.238281 290.730469 64.289062 C 290.992188 64.339844 291.242188 64.417969 291.488281 64.515625 C 291.730469 64.617188 291.964844 64.742188 292.183594 64.890625 C 292.402344 65.035156 292.605469 65.203125 292.792969 65.390625 C 292.980469 65.578125 293.148438 65.78125 293.296875 66 C 293.441406 66.21875 293.566406 66.453125 293.667969 66.695312 C 293.769531 66.941406 293.84375 67.191406 293.894531 67.453125 C 293.949219 67.710938 293.972656 67.972656 293.972656 68.238281 Z M 293.972656 68.238281 " fill-opacity="1" fill-rule="nonzero"/><path fill="rgb(86.669922%, 61.959839%, 32.159424%)" d="M 277.023438 119.09375 C 277.023438 119.359375 276.996094 119.621094 276.945312 119.878906 C 276.894531 120.140625 276.820312 120.390625 276.71875 120.636719 C 276.617188 120.878906 276.492188 121.113281 276.34375 121.332031 C 276.199219 121.550781 276.03125 121.753906 275.84375 121.941406 C 275.65625 122.128906 275.453125 122.296875 275.234375 122.441406 C 275.015625 122.589844 274.78125 122.714844 274.539062 122.816406 C 274.292969 122.917969 274.042969 122.992188 273.78125 123.042969 C 273.523438 123.097656 273.261719 123.121094 272.996094 123.121094 C 272.730469 123.121094 272.46875 123.097656 272.210938 123.042969 C 271.953125 122.992188 271.699219 122.917969 271.457031 122.816406 C 271.210938 122.714844 270.980469 122.589844 270.757812 122.441406 C 270.539062 122.296875 270.335938 122.128906 270.148438 121.941406 C 269.960938 121.753906 269.796875 121.550781 269.648438 121.332031 C 269.5 121.113281 269.378906 120.878906 269.277344 120.636719 C 269.175781 120.390625 269.097656 120.140625 269.046875 119.878906 C 268.996094 119.621094 268.96875 119.359375 268.96875 119.09375 C 268.96875 118.832031 268.996094 118.570312 269.046875 118.308594 C 269.097656 118.050781 269.175781 117.796875 269.277344 117.554688 C 269.378906 117.308594 269.5 117.078125 269.648438 116.859375 C 269.796875 116.636719 269.960938 116.433594 270.148438 116.246094 C 270.335938 116.058594 270.539062 115.894531 270.757812 115.746094 C 270.980469 115.601562 271.210938 115.476562 271.457031 115.375 C 271.699219 115.273438 271.953125 115.195312 272.210938 115.144531 C 272.46875 115.09375 272.730469 115.066406 272.996094 115.066406 C 273.261719 115.066406 273.523438 115.09375 273.78125 115.144531 C 274.042969 115.195312 274.292969 115.273438 274.539062 115.375 C 274.78125 115.476562 275.015625 115.601562 275.234375 115.746094 C 275.453125 115.894531 275.65625 116.058594 275.84375 116.246094 C 276.03125 116.433594 276.199219 116.636719 276.34375 116.859375 C 276.492188 117.078125 276.617188 117.308594 276.71875 117.554688 C 276.820312 117.796875 276.894531 118.050781 276.945312 118.308594 C 276.996094 118.570312 277.023438 118.832031 277.023438 119.09375 Z M 277.023438 119.09375 " fill-opacity="1" fill-rule="nonzero"/><path fill="rgb(86.669922%, 61.959839%, 32.159424%)" d="M 293.972656 102.144531 C 293.972656 102.410156 293.949219 102.671875 293.894531 102.929688 C 293.84375 103.191406 293.769531 103.441406 293.667969 103.6875 C 293.566406 103.929688 293.441406 104.164062 293.296875 104.382812 C 293.148438 104.601562 292.980469 104.804688 292.792969 104.992188 C 292.605469 105.179688 292.402344 105.347656 292.183594 105.492188 C 291.964844 105.640625 291.730469 105.765625 291.488281 105.867188 C 291.242188 105.96875 290.992188 106.042969 290.730469 106.09375 C 290.472656 106.144531 290.210938 106.171875 289.945312 106.171875 C 289.683594 106.171875 289.421875 106.144531 289.160156 106.09375 C 288.902344 106.042969 288.648438 105.96875 288.40625 105.867188 C 288.160156 105.765625 287.929688 105.640625 287.710938 105.492188 C 287.488281 105.347656 287.285156 105.179688 287.097656 104.992188 C 286.910156 104.804688 286.746094 104.601562 286.597656 104.382812 C 286.453125 104.164062 286.328125 103.929688 286.226562 103.6875 C 286.125 103.441406 286.046875 103.191406 285.996094 102.929688 C 285.945312 102.671875 285.917969 102.410156 285.917969 102.144531 C 285.917969 101.878906 285.945312 101.617188 285.996094 101.359375 C 286.046875 101.101562 286.125 100.847656 286.226562 100.605469 C 286.328125 100.359375 286.453125 100.128906 286.597656 99.90625 C 286.746094 99.6875 286.910156 99.484375 287.097656 99.296875 C 287.285156 99.109375 287.488281 98.945312 287.710938 98.796875 C 287.929688 98.648438 288.160156 98.527344 288.40625 98.425781 C 288.648438 98.324219 288.902344 98.246094 289.160156 98.195312 C 289.421875 98.144531 289.683594 98.117188 289.945312 98.117188 C 290.210938 98.117188 290.472656 98.144531 290.730469 98.195312 C 290.992188 98.246094 291.242188 98.324219 291.488281 98.425781 C 291.730469 98.527344 291.964844 98.648438 292.183594 98.796875 C 292.402344 98.945312 292.605469 99.109375 292.792969 99.296875 C 292.980469 99.484375 293.148438 99.6875 293.296875 99.90625 C 293.441406 100.128906 293.566406 100.359375 293.667969 100.605469 C 293.769531 100.847656 293.84375 101.101562 293.894531 101.359375 C 293.949219 101.617188 293.972656 101.878906 293.972656 102.144531 Z M 293.972656 102.144531 " fill-opacity="1" fill-rule="nonzero"/><path fill="rgb(86.669922%, 61.959839%, 32.159424%)" d="M 310.929688 85.1875 C 310.929688 85.453125 310.90625 85.714844 310.851562 85.972656 C 310.800781 86.234375 310.726562 86.484375 310.625 86.730469 C 310.523438 86.972656 310.398438 87.207031 310.253906 87.425781 C 310.105469 87.644531 309.9375 87.847656 309.75 88.035156 C 309.5625 88.222656 309.359375 88.390625 309.140625 88.535156 C 308.921875 88.683594 308.6875 88.808594 308.445312 88.910156 C 308.199219 89.007812 307.949219 89.085938 307.691406 89.136719 C 307.429688 89.1875 307.167969 89.214844 306.902344 89.214844 C 306.640625 89.214844 306.378906 89.1875 306.117188 89.136719 C 305.859375 89.085938 305.605469 89.007812 305.363281 88.910156 C 305.117188 88.808594 304.886719 88.683594 304.667969 88.535156 C 304.445312 88.390625 304.242188 88.222656 304.054688 88.035156 C 303.871094 87.847656 303.703125 87.644531 303.554688 87.425781 C 303.410156 87.207031 303.285156 86.972656 303.183594 86.730469 C 303.082031 86.484375 303.003906 86.234375 302.953125 85.972656 C 302.902344 85.714844 302.875 85.453125 302.875 85.1875 C 302.875 84.921875 302.902344 84.660156 302.953125 84.402344 C 303.003906 84.144531 303.082031 83.890625 303.183594 83.648438 C 303.285156 83.402344 303.410156 83.171875 303.554688 82.949219 C 303.703125 82.730469 303.871094 82.527344 304.054688 82.339844 C 304.242188 82.152344 304.445312 81.984375 304.667969 81.839844 C 304.886719 81.691406 305.117188 81.570312 305.363281 81.46875 C 305.605469 81.367188 305.859375 81.289062 306.117188 81.238281 C 306.378906 81.1875 306.640625 81.160156 306.902344 81.160156 C 307.167969 81.160156 307.429688 81.1875 307.691406 81.238281 C 307.949219 81.289062 308.199219 81.367188 308.445312 81.46875 C 308.6875 81.570312 308.921875 81.691406 309.140625 81.839844 C 309.359375 81.984375 309.5625 82.152344 309.75 82.339844 C 309.9375 82.527344 310.105469 82.730469 310.253906 82.949219 C 310.398438 83.171875 310.523438 83.402344 310.625 83.648438 C 310.726562 83.890625 310.800781 84.144531 310.851562 84.402344 C 310.90625 84.660156 310.929688 84.921875 310.929688 85.1875 Z M 310.929688 85.1875 " fill-opacity="1" fill-rule="nonzero"/><path fill="rgb(86.669922%, 61.959839%, 32.159424%)" d="M 293.972656 136.050781 C 293.972656 136.316406 293.949219 136.578125 293.894531 136.839844 C 293.84375 137.097656 293.769531 137.347656 293.667969 137.59375 C 293.566406 137.835938 293.441406 138.070312 293.296875 138.289062 C 293.148438 138.507812 292.980469 138.710938 292.792969 138.898438 C 292.605469 139.085938 292.402344 139.253906 292.183594 139.402344 C 291.964844 139.546875 291.730469 139.671875 291.488281 139.773438 C 291.242188 139.875 290.992188 139.949219 290.730469 140.003906 C 290.472656 140.054688 290.210938 140.078125 289.945312 140.078125 C 289.683594 140.078125 289.421875 140.054688 289.160156 140.003906 C 288.902344 139.949219 288.648438 139.875 288.40625 139.773438 C 288.160156 139.671875 287.929688 139.546875 287.710938 139.402344 C 287.488281 139.253906 287.285156 139.085938 287.097656 138.898438 C 286.910156 138.710938 286.746094 138.507812 286.597656 138.289062 C 286.453125 138.070312 286.328125 137.835938 286.226562 137.59375 C 286.125 137.347656 286.046875 137.097656 285.996094 136.839844 C 285.945312 136.578125 285.917969 136.316406 285.917969 136.050781 C 285.917969 135.789062 285.945312 135.527344 285.996094 135.265625 C 286.046875 135.007812 286.125 134.753906 286.226562 134.511719 C 286.328125 134.265625 286.453125 134.035156 286.597656 133.816406 C 286.746094 133.59375 286.910156 133.390625 287.097656 133.203125 C 287.285156 133.019531 287.488281 132.851562 287.710938 132.703125 C 287.929688 132.558594 288.160156 132.433594 288.40625 132.332031 C 288.648438 132.230469 288.902344 132.152344 289.160156 132.101562 C 289.421875 132.050781 289.683594 132.023438 289.945312 132.023438 C 290.210938 132.023438 290.472656 132.050781 290.730469 132.101562 C 290.992188 132.152344 291.242188 132.230469 291.488281 132.332031 C 291.730469 132.433594 291.964844 132.558594 292.183594 132.703125 C 292.402344 132.851562 292.605469 133.019531 292.792969 133.203125 C 292.980469 133.390625 293.148438 133.59375 293.296875 133.816406 C 293.441406 134.035156 293.566406 134.265625 293.667969 134.511719 C 293.769531 134.753906 293.84375 135.007812 293.894531 135.265625 C 293.949219 135.527344 293.972656 135.789062 293.972656 136.050781 Z M 293.972656 136.050781 " fill-opacity="1" fill-rule="nonzero"/><path fill="rgb(86.669922%, 61.959839%, 32.159424%)" d="M 310.929688 119.09375 C 310.929688 119.359375 310.90625 119.621094 310.851562 119.878906 C 310.800781 120.140625 310.726562 120.390625 310.625 120.636719 C 310.523438 120.878906 310.398438 121.113281 310.253906 121.332031 C 310.105469 121.550781 309.9375 121.753906 309.75 121.941406 C 309.5625 122.128906 309.359375 122.296875 309.140625 122.441406 C 308.921875 122.589844 308.6875 122.714844 308.445312 122.816406 C 308.199219 122.917969 307.949219 122.992188 307.691406 123.042969 C 307.429688 123.097656 307.167969 123.121094 306.902344 123.121094 C 306.640625 123.121094 306.378906 123.097656 306.117188 123.042969 C 305.859375 122.992188 305.605469 122.917969 305.363281 122.816406 C 305.117188 122.714844 304.886719 122.589844 304.667969 122.441406 C 304.445312 122.296875 304.242188 122.128906 304.054688 121.941406 C 303.871094 121.753906 303.703125 121.550781 303.554688 121.332031 C 303.410156 121.113281 303.285156 120.878906 303.183594 120.636719 C 303.082031 120.390625 303.003906 120.140625 302.953125 119.878906 C 302.902344 119.621094 302.875 119.359375 302.875 119.09375 C 302.875 118.832031 302.902344 118.570312 302.953125 118.308594 C 303.003906 118.050781 303.082031 117.796875 303.183594 117.554688 C 303.285156 117.308594 303.410156 117.078125 303.554688 116.859375 C 303.703125 116.636719 303.871094 116.433594 304.054688 116.246094 C 304.242188 116.058594 304.445312 115.894531 304.667969 115.746094 C 304.886719 115.601562 305.117188 115.476562 305.363281 115.375 C 305.605469 115.273438 305.859375 115.195312 306.117188 115.144531 C 306.378906 115.09375 306.640625 115.066406 306.902344 115.066406 C 307.167969 115.066406 307.429688 115.09375 307.691406 115.144531 C 307.949219 115.195312 308.199219 115.273438 308.445312 115.375 C 308.6875 115.476562 308.921875 115.601562 309.140625 115.746094 C 309.359375 115.894531 309.5625 116.058594 309.75 116.246094 C 309.9375 116.433594 310.105469 116.636719 310.253906 116.859375 C 310.398438 117.078125 310.523438 117.308594 310.625 117.554688 C 310.726562 117.796875 310.800781 118.050781 310.851562 118.308594 C 310.90625 118.570312 310.929688 118.832031 310.929688 119.09375 Z M 310.929688 119.09375 " fill-opacity="1" fill-rule="nonzero"/><path fill="rgb(86.669922%, 61.959839%, 32.159424%)" d="M 327.878906 102.144531 C 327.878906 102.410156 327.855469 102.671875 327.804688 102.929688 C 327.75 103.191406 327.675781 103.441406 327.574219 103.6875 C 327.472656 103.929688 327.347656 104.164062 327.203125 104.382812 C 327.054688 104.601562 326.886719 104.804688 326.703125 104.992188 C 326.515625 105.179688 326.3125 105.347656 326.089844 105.492188 C 325.871094 105.640625 325.640625 105.765625 325.394531 105.867188 C 325.152344 105.96875 324.898438 106.042969 324.640625 106.09375 C 324.378906 106.144531 324.117188 106.171875 323.855469 106.171875 C 323.589844 106.171875 323.328125 106.144531 323.066406 106.09375 C 322.808594 106.042969 322.558594 105.96875 322.3125 105.867188 C 322.066406 105.765625 321.835938 105.640625 321.617188 105.492188 C 321.398438 105.347656 321.191406 105.179688 321.007812 104.992188 C 320.820312 104.804688 320.652344 104.601562 320.503906 104.382812 C 320.359375 104.164062 320.234375 103.929688 320.132812 103.6875 C 320.03125 103.441406 319.957031 103.191406 319.902344 102.929688 C 319.851562 102.671875 319.828125 102.410156 319.828125 102.144531 C 319.828125 101.878906 319.851562 101.617188 319.902344 101.359375 C 319.957031 101.101562 320.03125 100.847656 320.132812 100.605469 C 320.234375 100.359375 320.359375 100.128906 320.503906 99.90625 C 320.652344 99.6875 320.820312 99.484375 321.007812 99.296875 C 321.191406 99.109375 321.398438 98.945312 321.617188 98.796875 C 321.835938 98.648438 322.066406 98.527344 322.3125 98.425781 C 322.558594 98.324219 322.808594 98.246094 323.066406 98.195312 C 323.328125 98.144531 323.589844 98.117188 323.855469 98.117188 C 324.117188 98.117188 324.378906 98.144531 324.640625 98.195312 C 324.898438 98.246094 325.152344 98.324219 325.394531 98.425781 C 325.640625 98.527344 325.871094 98.648438 326.089844 98.796875 C 326.3125 98.945312 326.515625 99.109375 326.703125 99.296875 C 326.886719 99.484375 327.054688 99.6875 327.203125 99.90625 C 327.347656 100.128906 327.472656 100.359375 327.574219 100.605469 C 327.675781 100.847656 327.75 101.101562 327.804688 101.359375 C 327.855469 101.617188 327.878906 101.878906 327.878906 102.144531 Z M 327.878906 102.144531 " fill-opacity="1" fill-rule="nonzero"/></svg>