<svg xmlns="http://www.w3.org/2000/svg" width="150" viewBox="0 0 150 150" height="150" version="1.0"><defs><clipPath id="a"><path d="M 15 20.144531 L 135 20.144531 L 135 123 L 15 123 Z M 15 20.144531"/></clipPath><clipPath id="b"><path d="M 76 20.144531 L 135 20.144531 L 135 123 L 76 123 Z M 76 20.144531"/></clipPath></defs><path fill="#E56D64" d="M 66.949219 91.363281 C 66.136719 100.230469 66.007812 104.339844 62.90625 113.945312 C 58.996094 126.058594 44.722656 129.640625 32.511719 128.171875 C 25.296875 127.300781 18.796875 124.664062 15.574219 120.984375 C 3.125 106.742188 8.242188 81.496094 12.019531 74.242188 C 16.648438 65.355469 19.023438 59.351562 22.679688 49.597656 C 25.789062 41.316406 33.5 29.460938 42.550781 26.074219 C 44.160156 25.472656 45.8125 25.140625 47.488281 25.140625 C 50.578125 25.140625 53.042969 25.925781 55.046875 27.226562 C 59.710938 30.234375 61.867188 36.054688 63.570312 41.679688 C 66.007812 49.714844 66.496094 71.863281 66.496094 71.863281 C 67.453125 79.421875 67.46875 85.621094 66.949219 91.363281"/><path fill="#F68270" d="M 56.710938 91.363281 C 55.902344 100.230469 55.769531 104.339844 52.667969 113.945312 C 49.828125 122.738281 41.527344 127.039062 32.511719 128.171875 C 25.296875 127.300781 18.796875 124.664062 15.574219 120.984375 C 3.125 106.742188 8.242188 81.496094 12.019531 74.242188 C 16.648438 65.355469 19.023438 59.351562 22.679688 49.597656 C 25.789062 41.316406 33.5 29.460938 42.550781 26.074219 C 43.363281 26.386719 44.117188 26.773438 44.8125 27.226562 C 49.476562 30.234375 51.632812 36.054688 53.335938 41.679688 C 55.769531 49.714844 56.261719 71.863281 56.261719 71.863281 C 57.21875 79.421875 57.230469 85.621094 56.710938 91.363281"/><path fill="#D35E5D" d="M 82.960938 91.363281 C 83.773438 100.230469 83.902344 104.339844 87.003906 113.945312 C 90.914062 126.058594 105.183594 129.640625 117.394531 128.171875 C 124.609375 127.300781 131.109375 124.664062 134.335938 120.984375 C 146.785156 106.742188 141.667969 81.496094 137.886719 74.242188 C 133.257812 65.355469 130.882812 59.351562 127.226562 49.597656 C 124.121094 41.316406 116.40625 29.460938 107.355469 26.074219 C 105.746094 25.472656 104.097656 25.140625 102.421875 25.140625 C 99.328125 25.140625 96.863281 25.925781 94.863281 27.226562 C 90.199219 30.234375 88.039062 36.054688 86.335938 41.679688 C 83.902344 49.714844 83.414062 71.863281 83.414062 71.863281 C 82.457031 79.421875 82.441406 85.621094 82.960938 91.363281"/><path fill="#E56D64" d="M 93.195312 91.363281 C 94.007812 100.230469 94.140625 104.339844 97.238281 113.945312 C 100.082031 122.738281 108.378906 127.039062 117.394531 128.171875 C 124.609375 127.300781 131.109375 124.664062 134.335938 120.984375 C 146.785156 106.742188 141.667969 81.496094 137.886719 74.242188 C 133.257812 65.355469 130.882812 59.351562 127.226562 49.597656 C 124.121094 41.316406 116.40625 29.460938 107.355469 26.074219 C 106.546875 26.386719 105.792969 26.773438 105.097656 27.226562 C 100.433594 30.234375 98.277344 36.054688 96.574219 41.679688 C 94.140625 49.714844 93.648438 71.863281 93.648438 71.863281 C 92.691406 79.421875 92.675781 85.621094 93.195312 91.363281"/><g clip-path="url(#a)"><path fill="#CE3928" d="M 133.910156 95.605469 L 131 96.890625 L 132.851562 98.761719 C 132.851562 98.804688 132.835938 99.460938 132.007812 99.460938 L 129.222656 96.882812 C 129.222656 96.882812 123.234375 96.199219 121.09375 95.847656 C 121.09375 95.847656 122.535156 97.914062 123.332031 98.609375 C 124.121094 99.292969 125.398438 100.574219 125.398438 100.574219 C 125.398438 100.574219 125.488281 101.566406 124.632812 101.332031 L 122.585938 99.335938 C 122.585938 99.335938 121.867188 101.601562 122.140625 102.601562 C 122.140625 102.601562 120.992188 103.273438 120.507812 102.355469 C 120.507812 102.355469 120.699219 99.636719 121.300781 98.761719 C 121.300781 98.761719 119.59375 96.4375 119.132812 95.261719 C 119.132812 95.261719 112.847656 91.238281 110.457031 89.824219 C 110.566406 91.480469 110.59375 93.027344 110.464844 94.136719 C 110.464844 94.136719 113.753906 101.199219 118.257812 103.390625 C 122.769531 105.582031 123.375 106.0625 123.375 106.0625 L 131.785156 106.0625 C 131.785156 106.0625 132.636719 106.398438 131.785156 107.042969 L 124.625 107.042969 L 128.921875 110.417969 C 128.921875 110.417969 129.011719 111.511719 127.734375 111.058594 C 127.734375 111.058594 123.625 107.859375 122.25 107.128906 C 120.882812 106.398438 117.199219 104.941406 116.386719 103.757812 C 116.386719 103.757812 119.785156 110.328125 120.152344 110.78125 C 120.515625 111.242188 126.367188 114.980469 126.730469 115.804688 C 127.097656 116.625 126.546875 116.808594 125.722656 116.539062 C 124.902344 116.261719 121.429688 113.519531 120.515625 113.066406 C 120.515625 113.066406 121.066406 116.539062 120.882812 117.355469 C 120.699219 118.179688 119.875 117.902344 119.691406 116.902344 C 119.507812 115.894531 119.238281 111.878906 118.777344 111.058594 C 118.324219 110.234375 115.304688 104.488281 114.574219 103.84375 C 113.839844 103.207031 110.464844 98.730469 109.914062 97.453125 C 109.914062 97.453125 107.671875 104.851562 107.875 107.589844 C 108.085938 110.328125 114.851562 116.988281 115.582031 117.355469 C 115.582031 117.355469 115.765625 118.449219 114.300781 118.363281 C 114.300781 118.363281 112.015625 116.261719 110.917969 114.980469 C 110.917969 114.980469 111.195312 118.632812 111.101562 119.277344 C 111.101562 119.277344 110.003906 120.371094 109.636719 119.277344 L 109.453125 113.15625 C 109.453125 113.15625 107.445312 110.511719 107.078125 109.597656 C 107.078125 109.597656 106.078125 115.625 106.261719 117.265625 L 108.269531 121.554688 C 108.269531 121.554688 107.90625 122.5625 107.171875 121.554688 L 105.347656 118.265625 L 103.335938 120.640625 C 103.335938 120.640625 102.507812 120.734375 102.421875 119.726562 L 105.164062 116.171875 C 105.164062 116.171875 105.347656 109.050781 105.527344 106.496094 C 105.527344 106.496094 103.242188 108.40625 102.507812 109.417969 C 101.777344 110.417969 100.410156 112.058594 100.410156 112.058594 C 100.410156 112.058594 99.25 112.273438 99.433594 111.242188 L 101.566406 108.621094 C 101.566406 108.621094 98.824219 108.015625 97.667969 108.4375 C 97.667969 108.4375 96.757812 107.160156 97.785156 106.496094 C 97.785156 106.496094 101.019531 106.429688 102.113281 107.042969 C 102.113281 107.042969 104.675781 104.785156 106.011719 104.121094 C 106.011719 104.121094 107.125 98.761719 107.875 95.234375 C 107.875 95.234375 108.714844 84.292969 103.394531 77.894531 C 102.371094 79.144531 101.484375 80.53125 101.046875 81.964844 C 99.511719 86.921875 99.109375 87.617188 99.109375 87.617188 L 100.433594 96.21875 C 100.433594 96.21875 100.222656 97.148438 99.433594 96.375 L 98.304688 89.054688 L 95.519531 93.976562 C 95.519531 93.976562 94.417969 94.242188 94.671875 92.859375 C 94.671875 92.859375 97.3125 88.15625 97.839844 86.636719 C 98.371094 85.132812 99.285156 81.152344 100.359375 80.125 C 99.996094 80.386719 94.160156 84.636719 93.765625 85.066406 C 93.355469 85.515625 90.441406 92.078125 89.648438 92.582031 C 88.875 93.085938 88.597656 92.554688 88.742188 91.667969 C 88.902344 90.785156 91.15625 86.820312 91.476562 85.804688 C 91.273438 85.863281 87.980469 86.90625 87.140625 86.851562 C 86.269531 86.792969 86.425781 85.898438 87.417969 85.558594 C 88.425781 85.214844 92.5 84.300781 93.269531 83.703125 C 94.042969 83.109375 99.460938 79.117188 100 78.269531 C 100.214844 77.933594 100.96875 77.09375 101.871094 76.144531 C 96.859375 70.269531 84.859375 59.054688 76.316406 57.785156 C 75.84375 57.710938 75.394531 57.671875 74.953125 57.667969 C 66.371094 57.820312 53.320312 69.949219 48.035156 76.144531 C 48.941406 77.09375 49.695312 77.933594 49.90625 78.269531 C 50.449219 79.117188 55.863281 83.109375 56.640625 83.703125 C 57.40625 84.300781 61.480469 85.214844 62.488281 85.558594 C 63.484375 85.898438 63.636719 86.792969 62.765625 86.851562 C 61.925781 86.90625 58.636719 85.863281 58.429688 85.804688 C 58.753906 86.820312 61.003906 90.785156 61.164062 91.667969 C 61.3125 92.554688 61.035156 93.085938 60.257812 92.582031 C 59.46875 92.078125 56.554688 85.515625 56.144531 85.066406 C 55.746094 84.636719 49.914062 80.386719 49.546875 80.125 C 50.621094 81.152344 51.539062 85.132812 52.070312 86.636719 C 52.597656 88.15625 55.238281 92.859375 55.238281 92.859375 C 55.492188 94.242188 54.390625 93.976562 54.390625 93.976562 L 51.601562 89.054688 L 50.476562 96.375 C 49.6875 97.148438 49.476562 96.21875 49.476562 96.21875 L 50.796875 87.617188 C 50.796875 87.617188 50.394531 86.921875 48.863281 81.964844 C 48.421875 80.53125 47.539062 79.144531 46.515625 77.894531 C 41.191406 84.292969 42.03125 95.234375 42.03125 95.234375 C 42.785156 98.761719 43.898438 104.121094 43.898438 104.121094 C 45.234375 104.785156 47.792969 107.042969 47.792969 107.042969 C 48.890625 106.429688 52.121094 106.496094 52.121094 106.496094 C 53.152344 107.160156 52.238281 108.4375 52.238281 108.4375 C 51.082031 108.015625 48.34375 108.621094 48.34375 108.621094 L 50.476562 111.242188 C 50.660156 112.273438 49.496094 112.058594 49.496094 112.058594 C 49.496094 112.058594 48.128906 110.417969 47.398438 109.417969 C 46.667969 108.40625 44.378906 106.496094 44.378906 106.496094 C 44.5625 109.050781 44.746094 116.171875 44.746094 116.171875 L 47.488281 119.726562 C 47.398438 120.734375 46.574219 120.640625 46.574219 120.640625 L 44.5625 118.265625 L 42.734375 121.554688 C 42.003906 122.5625 41.636719 121.554688 41.636719 121.554688 L 43.648438 117.265625 C 43.832031 115.625 42.832031 109.597656 42.832031 109.597656 C 42.464844 110.511719 40.453125 113.15625 40.453125 113.15625 L 40.269531 119.277344 C 39.90625 120.371094 38.808594 119.277344 38.808594 119.277344 C 38.714844 118.632812 38.992188 114.980469 38.992188 114.980469 C 37.894531 116.261719 35.605469 118.363281 35.605469 118.363281 C 34.144531 118.449219 34.328125 117.355469 34.328125 117.355469 C 35.058594 116.988281 41.820312 110.328125 42.03125 107.589844 C 42.238281 104.851562 39.992188 97.453125 39.992188 97.453125 C 39.445312 98.730469 36.066406 103.207031 35.335938 103.84375 C 34.605469 104.488281 31.585938 110.234375 31.132812 111.058594 C 30.671875 111.878906 30.402344 115.894531 30.21875 116.902344 C 30.035156 117.902344 29.210938 118.179688 29.027344 117.355469 C 28.84375 116.539062 29.390625 113.066406 29.390625 113.066406 C 28.480469 113.519531 25.003906 116.261719 24.1875 116.539062 C 23.359375 116.808594 22.8125 116.625 23.179688 115.804688 C 23.542969 114.980469 29.390625 111.242188 29.757812 110.78125 C 30.121094 110.328125 33.523438 103.757812 33.523438 103.757812 C 32.710938 104.941406 29.027344 106.398438 27.660156 107.128906 C 26.285156 107.859375 22.175781 111.058594 22.175781 111.058594 C 20.898438 111.511719 20.984375 110.417969 20.984375 110.417969 L 25.285156 107.042969 L 18.125 107.042969 C 17.269531 106.398438 18.125 106.0625 18.125 106.0625 L 26.535156 106.0625 C 26.535156 106.0625 27.140625 105.582031 31.652344 103.390625 C 36.15625 101.199219 39.445312 94.136719 39.445312 94.136719 C 39.3125 93.027344 39.34375 91.480469 39.453125 89.824219 C 37.0625 91.238281 30.773438 95.261719 30.773438 95.261719 C 30.3125 96.4375 28.609375 98.761719 28.609375 98.761719 C 29.210938 99.636719 29.398438 102.355469 29.398438 102.355469 C 28.917969 103.273438 27.769531 102.601562 27.769531 102.601562 C 28.039062 101.601562 27.324219 99.335938 27.324219 99.335938 L 25.277344 101.332031 C 24.421875 101.566406 24.507812 100.574219 24.507812 100.574219 C 24.507812 100.574219 25.789062 99.292969 26.578125 98.609375 C 27.375 97.914062 28.8125 95.847656 28.8125 95.847656 C 26.671875 96.199219 20.683594 96.882812 20.683594 96.882812 L 17.898438 99.460938 C 17.074219 99.460938 17.058594 98.804688 17.058594 98.761719 L 18.910156 96.890625 L 16 95.605469 C 15.09375 95.066406 15.917969 94.6875 15.917969 94.6875 L 19.675781 96.050781 C 21.078125 96.082031 26.078125 94.78125 26.078125 94.78125 C 25.285156 94.539062 22.898438 93.050781 22.898438 93.050781 L 17.730469 93.363281 C 16.78125 93.136719 17.621094 92.128906 17.621094 92.128906 C 18.15625 92.007812 21.253906 91.960938 21.253906 91.960938 C 20.09375 91.136719 18.148438 89.371094 18.148438 89.371094 C 17.964844 88.148438 18.902344 88.214844 18.902344 88.214844 C 19.257812 88.808594 25.386719 93.984375 27.710938 93.953125 C 28.363281 93.949219 37.0625 88.457031 39.679688 87.074219 C 40.058594 83.386719 40.636719 79.925781 40.636719 79.925781 C 38.441406 80.570312 31.496094 80.019531 31.496094 80.019531 C 24.089844 81.386719 21.261719 84.953125 21.261719 84.953125 C 20.617188 85.402344 20.164062 84.953125 20.164062 84.953125 C 21.445312 81.386719 29.671875 79.246094 29.671875 79.246094 C 22.996094 78.664062 19.703125 72.71875 19.703125 72.71875 C 19.617188 71.988281 20.53125 72.351562 20.53125 72.351562 C 25.003906 78.464844 31.585938 77.917969 35.972656 78.09375 C 40.359375 78.269531 42.492188 75.640625 42.492188 75.640625 C 44.722656 71.789062 47.179688 68.242188 49.644531 65.042969 C 46.046875 63.453125 40.085938 61.484375 40.085938 61.484375 C 38.84375 62.347656 35.613281 63.507812 35.613281 63.507812 C 35.613281 64.78125 33.992188 67.597656 33.992188 67.597656 C 32.902344 68.183594 32.214844 66.75 32.214844 66.75 C 33.148438 65.941406 33.945312 63.222656 33.945312 63.222656 L 30.582031 63.835938 C 29.589844 63.496094 30.34375 62.574219 30.34375 62.574219 C 30.34375 62.574219 32.460938 62.164062 33.699219 62.011719 C 34.949219 61.851562 37.75 60.761719 37.75 60.761719 C 35.402344 59.683594 29.011719 56.382812 29.011719 56.382812 L 24.539062 57.066406 C 23.683594 56.503906 24.171875 55.820312 24.171875 55.820312 L 27.25 55.199219 L 25.230469 51.992188 C 24.699219 50.851562 25.765625 51.019531 25.765625 51.019531 L 28.582031 54.882812 C 29.949219 55.839844 35.761719 57.878906 35.761719 57.878906 C 35.132812 57.113281 33.765625 54.058594 33.765625 54.058594 L 28.441406 50.917969 C 27.652344 50.0625 29.152344 49.632812 29.152344 49.632812 C 29.75 49.851562 32.675781 51.757812 32.859375 51.875 C 32.273438 50.28125 31.519531 47.246094 31.519531 47.246094 C 32.148438 45.914062 33.03125 46.609375 33.03125 46.609375 C 33.003906 47.433594 35.605469 56.636719 37.925781 58.148438 C 40.25 59.667969 47.890625 61.28125 47.890625 61.28125 C 47.019531 60.179688 44.703125 55.023438 44.496094 54.066406 C 44.285156 53.109375 40.664062 47.648438 40.152344 46.851562 C 39.648438 46.039062 36.226562 43.847656 35.429688 43.199219 C 34.632812 42.554688 34.789062 41.6875 35.605469 41.929688 C 36.417969 42.160156 39.226562 44.332031 39.226562 44.332031 C 39.261719 43.308594 38.539062 38.914062 38.675781 38.050781 C 38.84375 37.1875 39.277344 36.800781 39.816406 37.519531 C 40.375 38.246094 40.832031 45.222656 41.066406 45.769531 C 41.28125 46.296875 45.199219 52.125 45.445312 52.488281 C 44.796875 51.1875 45.308594 47.246094 45.324219 45.691406 C 45.335938 44.117188 44.503906 38.941406 44.503906 38.941406 C 44.722656 37.589844 45.660156 38.195312 45.660156 38.195312 L 46.550781 43.636719 L 50.03125 37.3125 C 51.019531 36.875 50.894531 37.789062 50.894531 37.789062 L 46.808594 45.214844 C 46.808594 45.214844 46.9375 45.980469 46.691406 51.027344 C 46.433594 56.074219 51.082031 62.414062 51.082031 62.414062 C 51.230469 62.472656 51.390625 62.542969 51.558594 62.625 C 59.183594 53.261719 66.3125 47.523438 66.3125 47.523438 L 65.582031 20.136719 L 84.328125 20.136719 L 83.597656 47.523438 C 83.597656 47.523438 90.726562 53.261719 98.347656 62.625 C 98.519531 62.542969 98.679688 62.472656 98.824219 62.414062 C 98.824219 62.414062 103.472656 56.074219 103.21875 51.027344 C 102.96875 45.980469 103.101562 45.214844 103.101562 45.214844 L 99.015625 37.789062 C 99.015625 37.789062 98.890625 36.875 99.878906 37.3125 L 103.355469 43.636719 L 104.25 38.195312 C 104.25 38.195312 105.183594 37.589844 105.40625 38.941406 C 105.40625 38.941406 104.570312 44.117188 104.585938 45.691406 C 104.601562 47.246094 105.113281 51.1875 104.460938 52.488281 C 104.710938 52.125 108.628906 46.296875 108.839844 45.769531 C 109.074219 45.222656 109.535156 38.246094 110.089844 37.519531 C 110.632812 36.800781 111.0625 37.1875 111.230469 38.050781 C 111.371094 38.914062 110.648438 43.308594 110.683594 44.332031 C 110.683594 44.332031 113.488281 42.160156 114.300781 41.929688 C 115.121094 41.6875 115.273438 42.554688 114.476562 43.199219 C 113.679688 43.847656 110.257812 46.039062 109.753906 46.851562 C 109.242188 47.648438 105.625 53.109375 105.410156 54.066406 C 105.207031 55.023438 102.890625 60.179688 102.019531 61.28125 C 102.019531 61.28125 109.660156 59.667969 111.984375 58.148438 C 114.300781 56.636719 116.90625 47.433594 116.875 46.609375 C 116.875 46.609375 117.761719 45.914062 118.390625 47.246094 C 118.390625 47.246094 117.636719 50.28125 117.050781 51.875 C 117.234375 51.757812 120.15625 49.851562 120.757812 49.632812 C 120.757812 49.632812 122.257812 50.0625 121.464844 50.917969 L 116.144531 54.058594 C 116.144531 54.058594 114.777344 57.113281 114.148438 57.878906 C 114.148438 57.878906 119.960938 55.839844 121.328125 54.882812 L 124.144531 51.019531 C 124.144531 51.019531 125.210938 50.851562 124.675781 51.992188 L 122.660156 55.199219 L 125.738281 55.820312 C 125.738281 55.820312 126.226562 56.503906 125.371094 57.066406 L 120.898438 56.382812 C 120.898438 56.382812 114.507812 59.683594 112.160156 60.761719 C 112.160156 60.761719 114.960938 61.851562 116.210938 62.011719 C 117.445312 62.164062 119.566406 62.574219 119.566406 62.574219 C 119.566406 62.574219 120.320312 63.496094 119.324219 63.835938 L 115.960938 63.222656 C 115.960938 63.222656 116.757812 65.941406 117.695312 66.75 C 117.695312 66.75 117.007812 68.183594 115.917969 67.597656 C 115.917969 67.597656 114.292969 64.78125 114.292969 63.507812 C 114.292969 63.507812 111.0625 62.347656 109.820312 61.484375 C 109.820312 61.484375 103.863281 63.453125 100.265625 65.042969 C 102.730469 68.242188 105.183594 71.789062 107.414062 75.640625 C 107.414062 75.640625 109.550781 78.269531 113.9375 78.09375 C 118.324219 77.917969 124.902344 78.464844 129.378906 72.351562 C 129.378906 72.351562 130.289062 71.988281 130.203125 72.71875 C 130.203125 72.71875 126.914062 78.664062 120.238281 79.246094 C 120.238281 79.246094 128.464844 81.386719 129.742188 84.953125 C 129.742188 84.953125 129.289062 85.402344 128.648438 84.953125 C 128.648438 84.953125 125.816406 81.386719 118.410156 80.019531 C 118.410156 80.019531 111.464844 80.570312 109.273438 79.925781 C 109.273438 79.925781 109.847656 83.386719 110.230469 87.074219 C 112.847656 88.457031 121.546875 93.949219 122.199219 93.953125 C 124.523438 93.984375 130.648438 88.808594 131.007812 88.214844 C 131.007812 88.214844 131.945312 88.148438 131.761719 89.371094 C 131.761719 89.371094 129.816406 91.136719 128.652344 91.960938 C 128.652344 91.960938 131.753906 92.007812 132.289062 92.128906 C 132.289062 92.128906 133.128906 93.136719 132.175781 93.363281 L 127.007812 93.050781 C 127.007812 93.050781 124.625 94.539062 123.828125 94.78125 C 123.828125 94.78125 128.828125 96.082031 130.234375 96.050781 L 133.988281 94.6875 C 133.988281 94.6875 134.816406 95.066406 133.910156 95.605469"/></g><g clip-path="url(#b)"><path fill="#A12720" d="M 133.910156 95.605469 L 131 96.890625 L 132.851562 98.761719 C 132.851562 98.804688 132.835938 99.460938 132.007812 99.460938 L 129.222656 96.882812 C 129.222656 96.882812 123.234375 96.199219 121.09375 95.847656 C 121.09375 95.847656 122.535156 97.914062 123.332031 98.609375 C 124.121094 99.292969 125.398438 100.574219 125.398438 100.574219 C 125.398438 100.574219 125.488281 101.566406 124.632812 101.332031 L 122.585938 99.335938 C 122.585938 99.335938 121.867188 101.601562 122.140625 102.601562 C 122.140625 102.601562 120.992188 103.273438 120.507812 102.355469 C 120.507812 102.355469 120.699219 99.636719 121.300781 98.761719 C 121.300781 98.761719 119.59375 96.4375 119.132812 95.261719 C 119.132812 95.261719 112.847656 91.238281 110.457031 89.824219 C 110.566406 91.480469 110.59375 93.027344 110.464844 94.136719 C 110.464844 94.136719 113.753906 101.199219 118.257812 103.390625 C 122.769531 105.582031 123.375 106.0625 123.375 106.0625 L 131.785156 106.0625 C 131.785156 106.0625 132.636719 106.398438 131.785156 107.042969 L 124.625 107.042969 L 128.921875 110.417969 C 128.921875 110.417969 129.011719 111.511719 127.734375 111.058594 C 127.734375 111.058594 123.625 107.859375 122.25 107.128906 C 120.882812 106.398438 117.199219 104.941406 116.386719 103.757812 C 116.386719 103.757812 119.785156 110.328125 120.152344 110.78125 C 120.515625 111.242188 126.367188 114.980469 126.730469 115.804688 C 127.097656 116.625 126.546875 116.808594 125.722656 116.539062 C 124.902344 116.261719 121.429688 113.519531 120.515625 113.066406 C 120.515625 113.066406 121.066406 116.539062 120.882812 117.355469 C 120.699219 118.179688 119.875 117.902344 119.691406 116.902344 C 119.507812 115.894531 119.238281 111.878906 118.777344 111.058594 C 118.324219 110.234375 115.304688 104.488281 114.574219 103.84375 C 113.839844 103.207031 110.464844 98.730469 109.914062 97.453125 C 109.914062 97.453125 107.671875 104.851562 107.875 107.589844 C 108.085938 110.328125 114.851562 116.988281 115.582031 117.355469 C 115.582031 117.355469 115.765625 118.449219 114.300781 118.363281 C 114.300781 118.363281 112.015625 116.261719 110.917969 114.980469 C 110.917969 114.980469 111.195312 118.632812 111.101562 119.277344 C 111.101562 119.277344 110.003906 120.371094 109.636719 119.277344 L 109.453125 113.15625 C 109.453125 113.15625 107.445312 110.511719 107.078125 109.597656 C 107.078125 109.597656 106.078125 115.625 106.261719 117.265625 L 108.269531 121.554688 C 108.269531 121.554688 107.90625 122.5625 107.171875 121.554688 L 105.347656 118.265625 L 103.335938 120.640625 C 103.335938 120.640625 102.507812 120.734375 102.421875 119.726562 L 105.164062 116.171875 C 105.164062 116.171875 105.347656 109.050781 105.527344 106.496094 C 105.527344 106.496094 103.242188 108.40625 102.507812 109.417969 C 101.777344 110.417969 100.410156 112.058594 100.410156 112.058594 C 100.410156 112.058594 99.25 112.273438 99.433594 111.242188 L 101.566406 108.621094 C 101.566406 108.621094 98.824219 108.015625 97.667969 108.4375 C 97.667969 108.4375 96.757812 107.160156 97.785156 106.496094 C 97.785156 106.496094 101.019531 106.429688 102.113281 107.042969 C 102.113281 107.042969 104.675781 104.785156 106.011719 104.121094 C 106.011719 104.121094 107.125 98.761719 107.875 95.234375 C 107.875 95.234375 108.714844 84.292969 103.394531 77.894531 C 102.371094 79.144531 101.484375 80.53125 101.046875 81.964844 C 99.511719 86.921875 99.109375 87.617188 99.109375 87.617188 L 100.433594 96.21875 C 100.433594 96.21875 100.222656 97.148438 99.433594 96.375 L 98.304688 89.054688 L 95.519531 93.976562 C 95.519531 93.976562 94.417969 94.242188 94.671875 92.859375 C 94.671875 92.859375 97.3125 88.15625 97.839844 86.636719 C 98.371094 85.132812 99.285156 81.152344 100.359375 80.125 C 99.996094 80.386719 94.160156 84.636719 93.765625 85.066406 C 93.355469 85.515625 90.441406 92.078125 89.648438 92.582031 C 88.875 93.085938 88.597656 92.554688 88.742188 91.667969 C 88.902344 90.785156 91.15625 86.820312 91.476562 85.804688 C 91.273438 85.863281 87.980469 86.90625 87.140625 86.851562 C 86.269531 86.792969 86.425781 85.898438 87.417969 85.558594 C 88.425781 85.214844 92.5 84.300781 93.269531 83.703125 C 94.042969 83.109375 99.460938 79.117188 100 78.269531 C 100.214844 77.933594 100.96875 77.09375 101.871094 76.144531 C 96.859375 70.269531 84.859375 59.054688 76.316406 57.785156 C 78.113281 37.664062 77.695312 26.367188 76.878906 20.136719 L 84.328125 20.136719 L 83.597656 47.523438 C 83.597656 47.523438 90.726562 53.261719 98.347656 62.625 C 98.519531 62.542969 98.679688 62.472656 98.824219 62.414062 C 98.824219 62.414062 103.472656 56.074219 103.21875 51.027344 C 102.96875 45.980469 103.101562 45.214844 103.101562 45.214844 L 99.015625 37.789062 C 99.015625 37.789062 98.890625 36.875 99.878906 37.3125 L 103.355469 43.636719 L 104.25 38.195312 C 104.25 38.195312 105.183594 37.589844 105.40625 38.941406 C 105.40625 38.941406 104.570312 44.117188 104.585938 45.691406 C 104.601562 47.246094 105.113281 51.1875 104.460938 52.488281 C 104.710938 52.125 108.628906 46.296875 108.839844 45.769531 C 109.074219 45.222656 109.535156 38.246094 110.089844 37.519531 C 110.632812 36.800781 111.0625 37.1875 111.230469 38.050781 C 111.371094 38.914062 110.648438 43.308594 110.683594 44.332031 C 110.683594 44.332031 113.488281 42.160156 114.300781 41.929688 C 115.121094 41.6875 115.273438 42.554688 114.476562 43.199219 C 113.679688 43.847656 110.257812 46.039062 109.753906 46.851562 C 109.242188 47.648438 105.625 53.109375 105.410156 54.066406 C 105.207031 55.023438 102.890625 60.179688 102.019531 61.28125 C 102.019531 61.28125 109.660156 59.667969 111.984375 58.148438 C 114.300781 56.636719 116.90625 47.433594 116.875 46.609375 C 116.875 46.609375 117.761719 45.914062 118.390625 47.246094 C 118.390625 47.246094 117.636719 50.28125 117.050781 51.875 C 117.234375 51.757812 120.15625 49.851562 120.757812 49.632812 C 120.757812 49.632812 122.257812 50.0625 121.464844 50.917969 L 116.144531 54.058594 C 116.144531 54.058594 114.777344 57.113281 114.148438 57.878906 C 114.148438 57.878906 119.960938 55.839844 121.328125 54.882812 L 124.144531 51.019531 C 124.144531 51.019531 125.210938 50.851562 124.675781 51.992188 L 122.660156 55.199219 L 125.738281 55.820312 C 125.738281 55.820312 126.226562 56.503906 125.371094 57.066406 L 120.898438 56.382812 C 120.898438 56.382812 114.507812 59.683594 112.160156 60.761719 C 112.160156 60.761719 114.960938 61.851562 116.210938 62.011719 C 117.445312 62.164062 119.566406 62.574219 119.566406 62.574219 C 119.566406 62.574219 120.320312 63.496094 119.324219 63.835938 L 115.960938 63.222656 C 115.960938 63.222656 116.757812 65.941406 117.695312 66.75 C 117.695312 66.75 117.007812 68.183594 115.917969 67.597656 C 115.917969 67.597656 114.292969 64.78125 114.292969 63.507812 C 114.292969 63.507812 111.0625 62.347656 109.820312 61.484375 C 109.820312 61.484375 103.863281 63.453125 100.265625 65.042969 C 102.730469 68.242188 105.183594 71.789062 107.414062 75.640625 C 107.414062 75.640625 109.550781 78.269531 113.9375 78.09375 C 118.324219 77.917969 124.902344 78.464844 129.378906 72.351562 C 129.378906 72.351562 130.289062 71.988281 130.203125 72.71875 C 130.203125 72.71875 126.914062 78.664062 120.238281 79.246094 C 120.238281 79.246094 128.464844 81.386719 129.742188 84.953125 C 129.742188 84.953125 129.289062 85.402344 128.648438 84.953125 C 128.648438 84.953125 125.816406 81.386719 118.410156 80.019531 C 118.410156 80.019531 111.464844 80.570312 109.273438 79.925781 C 109.273438 79.925781 109.847656 83.386719 110.230469 87.074219 C 112.847656 88.457031 121.546875 93.949219 122.199219 93.953125 C 124.523438 93.984375 130.648438 88.808594 131.007812 88.214844 C 131.007812 88.214844 131.945312 88.148438 131.761719 89.371094 C 131.761719 89.371094 129.816406 91.136719 128.652344 91.960938 C 128.652344 91.960938 131.753906 92.007812 132.289062 92.128906 C 132.289062 92.128906 133.128906 93.136719 132.175781 93.363281 L 127.007812 93.050781 C 127.007812 93.050781 124.625 94.539062 123.828125 94.78125 C 123.828125 94.78125 128.828125 96.082031 130.234375 96.050781 L 133.988281 94.6875 C 133.988281 94.6875 134.816406 95.066406 133.910156 95.605469"/></g></svg>