<?xml version="1.0" encoding="UTF-8"?><svg xmlns="http://www.w3.org/2000/svg" xmlns:xlink="http://www.w3.org/1999/xlink" contentScriptType="text/ecmascript" width="375" zoomAndPan="magnify" contentStyleType="text/css" viewBox="0 0 375 374.999991" height="374.999991" preserveAspectRatio="xMidYMid meet" version="1.0"><defs><clipPath id="clip-0"><path d="M 12 34.277344 L 320 34.277344 L 320 341.027344 L 12 341.027344 Z M 12 34.277344 " clip-rule="nonzero"/></clipPath></defs><g clip-path="url(#clip-0)"><path fill="rgb(100%, 100%, 100%)" d="M 309.664062 133.097656 C 304.378906 133.097656 300.089844 137.382812 300.089844 142.683594 L 300.089844 302.683594 C 300.089844 313.265625 291.507812 321.855469 280.9375 321.855469 L 51.125 321.855469 C 40.5625 321.855469 31.976562 313.265625 31.976562 302.683594 L 31.976562 72.621094 C 31.976562 62.054688 40.5625 53.449219 51.125 53.449219 L 280.9375 53.449219 C 288.394531 53.449219 295.234375 57.847656 298.335938 64.644531 C 300.527344 69.457031 306.226562 71.554688 311.03125 69.359375 C 315.839844 67.15625 317.957031 61.460938 315.753906 56.648438 C 309.53125 43.054688 295.863281 34.277344 280.9375 34.277344 L 51.125 34.277344 C 30.003906 34.277344 12.824219 51.480469 12.824219 72.621094 L 12.824219 302.683594 C 12.824219 323.835938 30.003906 341.027344 51.125 341.027344 L 280.9375 341.027344 C 302.070312 341.027344 319.238281 323.835938 319.238281 302.683594 L 319.238281 142.683594 C 319.238281 137.382812 314.949219 133.097656 309.664062 133.097656 Z M 309.664062 133.097656 " fill-opacity="1" fill-rule="nonzero"/></g><path fill="rgb(100%, 100%, 100%)" d="M 353.5 77.132812 C 353.480469 77.132812 353.453125 77.132812 353.421875 77.132812 C 271.648438 84.363281 196.894531 129.40625 152.136719 198.097656 L 102.449219 140.640625 C 93.785156 130.625 77.277344 129.40625 67.269531 138.109375 C 56.878906 147.113281 55.742188 162.917969 64.734375 173.328125 L 151.21875 273.320312 C 152.136719 274.375 153.457031 274.988281 154.835938 274.988281 C 155.027344 274.988281 155.203125 274.96875 155.394531 274.949219 C 156.953125 274.75 158.34375 273.828125 159.078125 272.417969 C 201.957031 191.082031 272.183594 126.597656 356.824219 90.871094 C 360.433594 89.335938 362.15625 85.136719 360.613281 81.484375 C 359.542969 78.851562 356.976562 77.132812 353.5 77.132812 Z M 353.5 77.132812 " fill-opacity="1" fill-rule="nonzero"/></svg>