<svg xmlns="http://www.w3.org/2000/svg" width="375" viewBox="0 0 375 375" height="375" version="1.0"><defs><clipPath id="a"><path d="M 56.054688 54 L 319.304688 54 L 319.304688 368.851562 L 56.054688 368.851562 Z M 56.054688 54"/></clipPath><clipPath id="b"><path d="M 110 5.851562 L 265 5.851562 L 265 105 L 110 105 Z M 110 5.851562"/></clipPath></defs><path fill="#C16B05" d="M 298.839844 364.820312 L 76.519531 364.820312 C 67.589844 364.820312 60.351562 357.597656 60.351562 348.6875 L 60.351562 74.417969 C 60.351562 65.511719 67.589844 58.285156 76.519531 58.285156 L 298.839844 58.285156 C 307.765625 58.285156 315.007812 65.511719 315.007812 74.417969 L 315.007812 348.6875 C 315.007812 357.597656 307.765625 364.820312 298.839844 364.820312 Z M 298.839844 364.820312"/><g clip-path="url(#a)"><path d="M 298.839844 368.851562 L 76.519531 368.851562 C 65.375 368.851562 56.308594 359.804688 56.308594 348.6875 L 56.308594 74.417969 C 56.308594 63.300781 65.375 54.253906 76.519531 54.253906 L 298.839844 54.253906 C 309.984375 54.253906 319.050781 63.300781 319.050781 74.417969 L 319.050781 348.6875 C 319.050781 359.804688 309.984375 368.851562 298.839844 368.851562 Z M 76.519531 62.320312 C 69.832031 62.320312 64.390625 67.746094 64.390625 74.417969 L 64.390625 348.6875 C 64.390625 355.359375 69.832031 360.785156 76.519531 360.785156 L 298.839844 360.785156 C 305.527344 360.785156 310.964844 355.359375 310.964844 348.6875 L 310.964844 74.417969 C 310.964844 67.746094 305.527344 62.320312 298.839844 62.320312 Z M 76.519531 62.320312"/></g><path fill="#FFF" d="M 288.734375 344.652344 L 86.625 344.652344 C 84.390625 344.652344 82.582031 342.847656 82.582031 340.621094 L 82.582031 84.503906 C 82.582031 82.273438 84.390625 80.46875 86.625 80.46875 L 288.734375 80.46875 C 290.964844 80.46875 292.773438 82.273438 292.773438 84.503906 L 292.773438 340.621094 C 292.773438 342.847656 290.964844 344.652344 288.734375 344.652344 Z M 288.734375 344.652344"/><path d="M 288.734375 348.6875 L 86.625 348.6875 C 82.164062 348.6875 78.539062 345.070312 78.539062 340.621094 L 78.539062 84.503906 C 78.539062 80.054688 82.164062 76.4375 86.625 76.4375 L 288.734375 76.4375 C 293.191406 76.4375 296.816406 80.054688 296.816406 84.503906 L 296.816406 340.621094 C 296.816406 345.070312 293.191406 348.6875 288.734375 348.6875 Z M 86.625 84.503906 L 86.625 340.621094 L 288.734375 340.621094 L 288.730469 84.503906 L 86.621094 84.503906 Z M 86.625 84.503906"/><path fill="#BCBCBC" d="M 248.3125 40.136719 L 217.996094 40.136719 C 217.996094 23.4375 204.414062 9.886719 187.679688 9.886719 C 170.945312 9.886719 157.363281 23.4375 157.363281 40.136719 L 127.046875 40.136719 C 120.347656 40.136719 114.917969 45.554688 114.917969 52.238281 L 114.917969 100.636719 L 260.4375 100.636719 L 260.4375 52.238281 C 260.4375 45.554688 255.007812 40.136719 248.3125 40.136719 Z M 248.3125 40.136719"/><g clip-path="url(#b)"><path d="M 264.480469 104.667969 L 110.878906 104.667969 L 110.878906 52.238281 C 110.878906 43.339844 118.132812 36.101562 127.046875 36.101562 L 153.558594 36.101562 C 155.5625 19.09375 170.097656 5.851562 187.679688 5.851562 C 205.257812 5.851562 219.796875 19.09375 221.800781 36.101562 L 248.3125 36.101562 C 257.226562 36.101562 264.480469 43.339844 264.480469 52.238281 Z M 118.960938 96.601562 L 256.394531 96.601562 L 256.394531 52.238281 C 256.394531 47.789062 252.769531 44.167969 248.3125 44.167969 L 213.953125 44.167969 L 213.953125 40.136719 C 213.953125 25.679688 202.164062 13.917969 187.679688 13.917969 C 173.191406 13.917969 161.40625 25.679688 161.40625 40.136719 L 161.40625 44.167969 L 127.046875 44.167969 C 122.585938 44.167969 118.960938 47.789062 118.960938 52.238281 Z M 118.960938 96.601562"/></g><path fill="#BCBCBC" d="M 198.289062 40.640625 C 198.289062 41.335938 198.222656 42.023438 198.085938 42.707031 C 197.949219 43.386719 197.75 44.050781 197.480469 44.691406 C 197.214844 45.335938 196.886719 45.945312 196.5 46.523438 C 196.113281 47.101562 195.675781 47.636719 195.179688 48.128906 C 194.6875 48.617188 194.152344 49.058594 193.574219 49.445312 C 192.996094 49.828125 192.382812 50.15625 191.738281 50.421875 C 191.09375 50.6875 190.433594 50.890625 189.75 51.023438 C 189.066406 51.160156 188.375 51.226562 187.679688 51.226562 C 186.980469 51.226562 186.292969 51.160156 185.609375 51.023438 C 184.925781 50.890625 184.261719 50.6875 183.617188 50.421875 C 182.972656 50.15625 182.363281 49.828125 181.785156 49.445312 C 181.203125 49.058594 180.667969 48.617188 180.175781 48.128906 C 179.683594 47.636719 179.242188 47.101562 178.855469 46.523438 C 178.46875 45.945312 178.140625 45.335938 177.875 44.691406 C 177.609375 44.050781 177.40625 43.386719 177.273438 42.707031 C 177.136719 42.023438 177.066406 41.335938 177.066406 40.640625 C 177.066406 39.945312 177.136719 39.257812 177.273438 38.574219 C 177.40625 37.894531 177.609375 37.230469 177.875 36.589844 C 178.140625 35.945312 178.46875 35.335938 178.855469 34.757812 C 179.242188 34.179688 179.683594 33.644531 180.175781 33.152344 C 180.667969 32.664062 181.203125 32.222656 181.785156 31.835938 C 182.363281 31.449219 182.972656 31.125 183.617188 30.859375 C 184.261719 30.59375 184.925781 30.390625 185.609375 30.257812 C 186.292969 30.121094 186.980469 30.054688 187.679688 30.054688 C 188.375 30.054688 189.066406 30.121094 189.75 30.257812 C 190.433594 30.390625 191.09375 30.59375 191.738281 30.859375 C 192.382812 31.125 192.996094 31.449219 193.574219 31.835938 C 194.152344 32.222656 194.6875 32.664062 195.179688 33.152344 C 195.675781 33.644531 196.113281 34.179688 196.5 34.757812 C 196.886719 35.335938 197.214844 35.945312 197.480469 36.589844 C 197.75 37.230469 197.949219 37.894531 198.085938 38.574219 C 198.222656 39.257812 198.289062 39.945312 198.289062 40.640625 Z M 198.289062 40.640625"/><path d="M 187.679688 55.261719 C 179.597656 55.261719 173.027344 48.703125 173.027344 40.640625 C 173.027344 32.578125 179.597656 26.019531 187.679688 26.019531 C 195.757812 26.019531 202.332031 32.578125 202.332031 40.640625 C 202.332031 48.703125 195.757812 55.261719 187.679688 55.261719 Z M 187.679688 34.085938 C 184.058594 34.085938 181.109375 37.027344 181.109375 40.640625 C 181.109375 44.253906 184.058594 47.195312 187.679688 47.195312 C 191.300781 47.195312 194.246094 44.253906 194.246094 40.640625 C 194.246094 37.027344 191.300781 34.085938 187.679688 34.085938 Z M 187.679688 34.085938"/><path d="M 110.878906 155.085938 L 240.226562 155.085938 L 240.226562 163.152344 L 110.878906 163.152344 Z M 110.878906 155.085938"/><path d="M 110.878906 181.304688 L 209.910156 181.304688 L 209.910156 189.371094 L 110.878906 189.371094 Z M 110.878906 181.304688"/><path d="M 110.878906 207.519531 L 240.226562 207.519531 L 240.226562 215.585938 L 110.878906 215.585938 Z M 110.878906 207.519531"/><path d="M 110.878906 233.738281 L 209.910156 233.738281 L 209.910156 241.804688 L 110.878906 241.804688 Z M 110.878906 233.738281"/><path d="M 110.878906 259.953125 L 240.226562 259.953125 L 240.226562 268.019531 L 110.878906 268.019531 Z M 110.878906 259.953125"/></svg>