<svg xmlns="http://www.w3.org/2000/svg" width="375" viewBox="0 0 375 375" height="375" version="1.0"><defs><clipPath id="a"><path d="M 17.132812 17.132812 L 262 17.132812 L 262 262 L 17.132812 262 Z M 17.132812 17.132812"/></clipPath><clipPath id="b"><path d="M 236 239 L 363 239 L 363 365.882812 L 236 365.882812 Z M 236 239"/></clipPath></defs><g clip-path="url(#a)"><path fill="#FFF" d="M 139.285156 57.28125 C 184.550781 57.28125 221.242188 93.96875 221.242188 139.210938 C 221.242188 184.492188 184.550781 221.207031 139.285156 221.207031 C 94.019531 221.207031 57.332031 184.5 57.332031 139.210938 C 57.332031 93.96875 94.019531 57.28125 139.285156 57.28125 M 139.285156 17.132812 C 71.964844 17.132812 17.179688 71.914062 17.179688 139.210938 C 17.179688 206.558594 71.964844 261.3125 139.28125 261.3125 C 206.609375 261.3125 261.371094 206.554688 261.371094 139.210938 C 261.371094 71.914062 206.609375 17.132812 139.285156 17.132812 Z M 139.285156 17.132812"/></g><g clip-path="url(#b)"><path fill="#FFF" d="M 329.113281 365.851562 C 320.535156 365.851562 312.007812 362.59375 305.464844 356.050781 L 246.089844 296.660156 C 233.015625 283.605469 233.015625 262.460938 246.089844 249.359375 C 259.164062 236.296875 280.316406 236.296875 293.390625 249.359375 L 352.769531 308.757812 C 365.84375 321.824219 365.84375 342.984375 352.769531 356.050781 C 346.234375 362.59375 337.699219 365.851562 329.113281 365.851562 Z M 329.113281 365.851562"/></g><path fill="#FFF" d="M 233.734375 208.664062 L 266.359375 241.269531 L 237.976562 269.671875 L 205.351562 237.0625 Z M 233.734375 208.664062"/></svg>