<?xml version="1.0" encoding="UTF-8"?><svg xmlns="http://www.w3.org/2000/svg" xmlns:xlink="http://www.w3.org/1999/xlink" contentScriptType="text/ecmascript" width="375" zoomAndPan="magnify" contentStyleType="text/css" viewBox="0 0 375 374.999991" height="374.999991" preserveAspectRatio="xMidYMid meet" version="1.0"><defs><clipPath id="clip-0"><path d="M 81 10 L 295.285156 10 L 295.285156 365 L 81 365 Z M 81 10 " clip-rule="nonzero"/></clipPath><clipPath id="clip-1"><path d="M 42.917969 4.195312 L 332.417969 4.195312 L 332.417969 370.945312 L 42.917969 370.945312 Z M 42.917969 4.195312 " clip-rule="nonzero"/></clipPath></defs><g clip-path="url(#clip-0)"><path fill="rgb(100%, 100%, 100%)" d="M 171.503906 364.996094 L 202.972656 364.996094 C 210.105469 364.996094 215.980469 359.125 215.980469 351.996094 L 215.980469 321.808594 L 222.695312 320.132812 C 275.980469 306.714844 295.285156 269.816406 295.285156 242.5625 C 295.285156 191.832031 251.644531 170.867188 208.847656 157.03125 C 168.566406 143.613281 155.980469 135.648438 155.980469 123.910156 C 155.980469 113.425781 168.148438 102.523438 195.839844 102.523438 C 226.050781 102.523438 245.351562 111.328125 253.324219 115.101562 C 255.003906 115.941406 257.101562 116.359375 258.777344 116.359375 C 263.8125 116.359375 268.429688 113.425781 270.527344 108.8125 L 283.113281 82.398438 C 284.792969 79.464844 284.792969 75.691406 283.535156 72.335938 C 282.277344 68.984375 279.757812 66.46875 276.820312 64.789062 C 261.714844 57.660156 245.351562 53.050781 226.890625 50.953125 L 219.335938 50.113281 L 219.335938 23.28125 C 219.335938 16.152344 213.464844 10.285156 206.328125 10.285156 L 175.28125 10.285156 C 168.148438 10.285156 162.273438 16.152344 162.273438 23.28125 L 162.273438 52.628906 L 155.558594 54.308594 C 111.921875 65.210938 86.328125 92.882812 86.328125 128.101562 C 86.328125 174.640625 132.480469 195.605469 177.796875 209.859375 C 219.757812 223.277344 225.210938 235.4375 225.210938 245.082031 C 225.210938 260.175781 205.492188 271.074219 178.636719 271.074219 C 155.558594 271.074219 131.222656 265.207031 112.761719 255.5625 C 110.664062 254.722656 108.566406 253.886719 106.46875 253.886719 C 105.207031 253.886719 103.53125 254.304688 102.273438 254.722656 C 98.914062 255.980469 95.976562 258.496094 94.71875 261.851562 L 82.550781 288.683594 C 80.035156 294.972656 82.132812 302.101562 88.003906 305.457031 C 103.109375 314.261719 126.1875 320.96875 150.105469 323.484375 L 158.078125 324.324219 L 158.078125 351.996094 C 158.078125 359.125 163.953125 364.996094 171.503906 364.996094 Z M 171.503906 364.996094 " fill-opacity="1" fill-rule="nonzero"/></g><path fill="rgb(48.629761%, 81.17981%, 98.429871%)" d="M 86.175781 17.464844 C 69.265625 17.464844 56.078125 30.925781 56.078125 47.539062 L 56.078125 327.359375 C 56.078125 344.257812 69.265625 357.429688 86.175781 357.429688 L 250.703125 357.429688 C 250.703125 353.707031 250.417969 349.699219 250.417969 345.6875 C 250.417969 341.394531 250.417969 336.808594 250.988281 332.226562 C 251.5625 327.359375 252.710938 322.777344 254.429688 318.480469 C 256.148438 313.898438 258.730469 309.886719 261.882812 306.449219 C 264.460938 303.585938 267.328125 301.007812 270.480469 298.71875 C 273.0625 296.714844 275.925781 295.28125 279.082031 293.847656 C 283.667969 291.84375 288.539062 290.414062 293.699219 289.554688 C 299.144531 288.695312 304.589844 288.40625 309.464844 288.695312 C 312.902344 288.695312 316.054688 288.980469 319.496094 289.265625 L 319.496094 47.539062 C 319.496094 30.640625 306.023438 17.464844 289.398438 17.464844 Z M 86.175781 17.464844 " fill-opacity="1" fill-rule="nonzero"/><g clip-path="url(#clip-1)"><path fill="rgb(0%, 0%, 0%)" d="M 86.175781 4.292969 C 62.097656 4.292969 42.894531 23.765625 42.894531 47.824219 L 42.894531 327.644531 C 42.894531 351.703125 62.386719 370.894531 86.460938 370.894531 L 257.871094 370.894531 C 265.894531 370.894531 272.199219 366.023438 279.652344 360.007812 C 287.105469 353.996094 295.417969 346.261719 302.871094 338.242188 C 310.609375 330.222656 317.488281 321.917969 322.648438 314.757812 C 325.226562 311.320312 327.519531 308.167969 329.242188 305.304688 C 330.960938 302.441406 332.394531 300.722656 332.394531 296.425781 L 332.394531 47.824219 C 332.394531 23.765625 312.902344 4.292969 289.113281 4.292969 Z M 86.175781 17.464844 L 288.824219 17.464844 C 305.738281 17.464844 318.921875 30.925781 318.921875 47.539062 L 318.921875 289.265625 C 315.769531 288.980469 312.617188 288.980469 308.890625 288.695312 C 304.015625 288.695312 298.859375 288.695312 293.125 289.554688 C 287.964844 290.414062 283.09375 291.84375 278.507812 293.847656 C 275.355469 295.28125 272.488281 296.714844 269.90625 298.71875 C 266.753906 301.007812 263.886719 303.585938 261.308594 306.449219 C 258.15625 309.886719 255.863281 314.183594 253.855469 318.480469 C 252.136719 322.777344 250.988281 327.359375 250.417969 332.226562 C 249.84375 337.097656 249.84375 341.394531 249.84375 345.6875 C 249.84375 349.699219 250.128906 353.421875 250.128906 357.433594 L 86.175781 357.433594 C 69.265625 357.433594 56.078125 343.96875 56.078125 327.359375 L 56.078125 47.539062 C 56.078125 30.925781 69.265625 17.464844 86.175781 17.464844 Z M 303.15625 302.15625 C 305.738281 302.15625 308.316406 302.15625 311.183594 302.15625 C 312.328125 302.15625 313.761719 302.15625 314.621094 302.441406 C 313.761719 303.875 312.902344 305.019531 311.757812 306.738281 C 306.882812 313.324219 300.003906 321.34375 292.839844 329.078125 C 285.671875 336.808594 277.648438 344.257812 271.054688 349.699219 C 268.476562 351.703125 265.894531 353.421875 263.601562 354.566406 C 263.601562 351.988281 263.316406 348.265625 263.316406 345.976562 C 263.316406 341.964844 263.316406 337.957031 263.886719 333.945312 C 264.175781 330.222656 265.035156 327.074219 266.183594 323.921875 C 267.613281 320.773438 269.335938 317.90625 271.339844 315.328125 C 273.0625 313.324219 275.066406 311.320312 277.359375 309.886719 C 279.367188 308.457031 281.375 307.308594 283.667969 306.449219 C 287.105469 305.019531 290.832031 303.875 294.84375 303.300781 C 297.996094 302.441406 300.578125 302.15625 303.15625 302.15625 Z M 303.15625 302.15625 " fill-opacity="1" fill-rule="nonzero"/></g><path fill="rgb(0%, 0%, 0%)" d="M 93.339844 205.0625 C 89.617188 205.347656 86.75 208.5 87.035156 211.9375 C 87.324219 215.660156 90.476562 218.523438 93.914062 218.238281 L 280.800781 218.238281 C 284.527344 218.523438 287.679688 215.660156 287.679688 211.9375 C 287.964844 208.214844 285.097656 205.0625 281.375 205.0625 C 281.085938 205.0625 281.085938 205.0625 280.800781 205.0625 L 93.914062 205.0625 C 93.914062 205.0625 93.628906 205.0625 93.339844 205.0625 Z M 93.339844 205.0625 " fill-opacity="1" fill-rule="nonzero"/><path fill="rgb(0%, 0%, 0%)" d="M 93.914062 156.660156 C 90.1875 156.375 87.035156 159.238281 87.035156 162.960938 C 86.75 166.683594 89.617188 169.835938 93.339844 169.835938 C 93.628906 169.835938 93.628906 169.835938 93.914062 169.835938 L 280.800781 169.835938 C 284.527344 170.121094 287.679688 167.257812 287.679688 163.535156 C 287.964844 159.8125 285.097656 156.660156 281.375 156.660156 C 281.085938 156.660156 281.085938 156.660156 280.800781 156.660156 Z M 93.914062 156.660156 " fill-opacity="1" fill-rule="nonzero"/><path fill="rgb(0%, 0%, 0%)" d="M 267.613281 239.71875 C 259.015625 239.71875 251.5625 245.445312 248.695312 253.179688 L 210 253.179688 C 207.136719 253.179688 204.84375 254.898438 203.695312 257.476562 L 189.9375 294.421875 L 171.878906 249.167969 C 170.734375 246.59375 168.441406 244.875 165.574219 245.160156 C 162.992188 245.160156 160.699219 246.878906 159.554688 249.167969 L 146.367188 280.960938 L 134.332031 256.902344 C 133.183594 254.613281 130.890625 253.179688 128.3125 253.179688 L 93.914062 253.179688 C 90.1875 252.894531 87.035156 255.757812 87.035156 259.480469 C 87.035156 263.203125 89.617188 266.355469 93.339844 266.355469 C 93.628906 266.355469 93.914062 266.355469 93.914062 266.355469 L 124.296875 266.355469 L 140.921875 299.863281 C 142.640625 303.015625 146.65625 304.445312 149.808594 302.726562 C 151.242188 301.867188 152.386719 300.722656 152.960938 299.292969 L 165.574219 268.933594 L 184.492188 314.757812 C 185.925781 318.195312 189.652344 319.914062 193.089844 318.480469 C 194.808594 317.90625 196.242188 316.476562 196.816406 314.46875 L 214.875 265.78125 L 248.695312 265.78125 C 251.5625 273.515625 259.015625 279.242188 267.613281 279.242188 C 278.792969 279.242188 287.679688 270.078125 287.679688 259.195312 C 287.679688 248.597656 278.507812 239.433594 267.613281 239.71875 Z M 267.613281 252.894531 C 271.339844 252.894531 274.492188 255.757812 274.492188 259.765625 C 274.492188 263.777344 271.628906 266.640625 267.613281 266.640625 C 263.886719 266.640625 260.734375 263.777344 260.734375 259.765625 C 260.734375 255.757812 263.601562 252.894531 267.613281 252.894531 Z M 267.613281 252.894531 " fill-opacity="1" fill-rule="nonzero"/><path fill="rgb(0%, 0%, 0%)" d="M 206.5625 60.425781 C 202.835938 60.425781 199.96875 63.292969 199.96875 67.015625 C 199.96875 70.738281 202.835938 73.601562 206.5625 73.601562 L 280.800781 73.601562 C 284.527344 73.601562 287.394531 70.738281 287.394531 67.015625 C 287.394531 63.292969 284.527344 60.425781 280.800781 60.425781 Z M 206.5625 60.425781 " fill-opacity="1" fill-rule="nonzero"/><path fill="rgb(99.609375%, 99.609375%, 99.609375%)" d="M 108.53125 56.417969 C 103.945312 56.417969 100.507812 59.855469 100.507812 64.152344 L 100.507812 100.8125 C 100.507812 105.394531 103.945312 108.832031 108.53125 108.832031 L 152.960938 108.832031 C 157.546875 108.832031 160.988281 105.394531 160.988281 100.8125 L 160.988281 64.152344 C 160.988281 59.566406 157.546875 56.417969 152.960938 56.417969 Z M 108.53125 56.417969 " fill-opacity="1" fill-rule="nonzero"/><path fill="rgb(0%, 0%, 0%)" d="M 130.605469 63.292969 C 130.316406 63.292969 130.03125 63.292969 130.03125 63.292969 C 126.589844 63.578125 124.011719 66.730469 124.011719 69.878906 L 124.011719 75.894531 L 117.992188 75.894531 C 114.265625 75.894531 111.398438 78.757812 111.113281 82.480469 C 111.113281 86.203125 113.980469 89.066406 117.707031 89.355469 C 117.707031 89.355469 117.707031 89.355469 117.992188 89.355469 L 124.011719 89.355469 L 124.011719 95.371094 C 123.726562 99.09375 126.589844 102.242188 130.316406 102.242188 C 134.042969 102.53125 137.195312 99.664062 137.195312 95.941406 C 137.195312 95.65625 137.195312 95.371094 137.195312 95.371094 L 137.195312 89.355469 L 143.214844 89.355469 C 146.941406 89.355469 149.808594 86.492188 150.09375 82.765625 C 150.09375 79.042969 147.230469 76.179688 143.503906 75.894531 C 143.503906 75.894531 143.503906 75.894531 143.214844 75.894531 L 137.195312 75.894531 L 137.195312 69.878906 C 137.484375 66.441406 134.617188 63.292969 130.605469 63.292969 C 130.890625 63.292969 130.890625 63.292969 130.605469 63.292969 Z M 130.605469 63.292969 " fill-opacity="1" fill-rule="nonzero"/><path fill="rgb(0%, 0%, 0%)" d="M 108.53125 42.957031 C 96.78125 42.957031 87.324219 52.40625 87.324219 64.152344 L 87.324219 100.8125 C 87.324219 112.554688 96.78125 122.003906 108.53125 122.003906 L 152.960938 122.003906 C 164.714844 122.003906 174.171875 112.554688 174.171875 100.8125 L 174.171875 64.152344 C 174.171875 52.40625 164.714844 42.957031 152.960938 42.957031 Z M 108.53125 56.417969 L 152.960938 56.417969 C 157.546875 56.417969 160.988281 59.855469 160.988281 64.152344 L 160.988281 100.8125 C 160.988281 105.394531 157.546875 108.832031 152.960938 108.832031 L 108.53125 108.832031 C 103.945312 108.832031 100.507812 105.394531 100.507812 100.8125 L 100.507812 64.152344 C 100.792969 59.855469 103.945312 56.417969 108.53125 56.417969 Z M 108.53125 56.417969 " fill-opacity="1" fill-rule="nonzero"/><path fill="rgb(0%, 0%, 0%)" d="M 205.988281 108.832031 C 202.261719 109.117188 199.394531 112.265625 199.683594 115.703125 C 199.96875 119.425781 202.835938 122.003906 206.5625 122.003906 L 280.800781 122.003906 C 284.527344 122.292969 287.679688 119.425781 287.679688 115.703125 C 287.964844 111.980469 285.097656 108.832031 281.375 108.832031 C 281.085938 108.832031 281.085938 108.832031 280.800781 108.832031 L 206.5625 108.832031 C 206.273438 108.542969 206.273438 108.542969 205.988281 108.832031 Z M 205.988281 108.832031 " fill-opacity="1" fill-rule="nonzero"/><path fill="rgb(98.039246%, 48.239136%, 32.159424%)" d="M 267.613281 252.894531 C 263.886719 252.894531 260.734375 255.757812 260.734375 259.765625 C 260.734375 263.488281 263.601562 266.640625 267.613281 266.640625 C 271.339844 266.640625 274.492188 263.777344 274.492188 259.765625 C 274.207031 255.757812 271.339844 252.894531 267.613281 252.894531 Z M 267.613281 252.894531 " fill-opacity="1" fill-rule="nonzero"/><path fill="rgb(15.289307%, 67.059326%, 97.648621%)" d="M 303.15625 302.15625 C 300.578125 302.15625 297.996094 302.441406 295.132812 302.726562 C 291.117188 303.300781 287.390625 304.445312 283.953125 305.878906 C 281.660156 307.023438 279.652344 308.167969 277.648438 309.316406 C 275.355469 311.035156 273.347656 312.753906 271.628906 314.757812 C 269.335938 317.335938 267.613281 320.199219 266.46875 323.347656 C 265.320312 326.5 264.460938 329.648438 264.175781 333.375 C 263.886719 337.667969 263.601562 341.679688 263.601562 345.402344 C 263.601562 347.695312 263.601562 351.417969 263.886719 353.996094 C 266.183594 352.847656 268.761719 351.128906 271.339844 349.125 C 278.21875 343.683594 285.960938 336.238281 293.125 328.503906 C 300.292969 320.773438 307.171875 312.753906 312.042969 306.164062 C 313.191406 304.445312 314.050781 303.300781 314.910156 301.867188 C 313.761719 301.867188 312.617188 301.582031 311.46875 301.582031 C 308.601562 302.15625 306.023438 301.867188 303.15625 302.15625 Z M 303.15625 302.15625 " fill-opacity="1" fill-rule="nonzero"/><path fill="rgb(15.289307%, 67.059326%, 97.648621%)" d="M 56.078125 318.195312 L 56.078125 327.644531 C 56.078125 344.542969 69.265625 357.71875 86.175781 357.71875 L 250.703125 357.71875 C 250.703125 353.996094 250.417969 349.984375 250.417969 345.976562 C 250.417969 345.6875 250.417969 345.402344 250.417969 344.828125 L 86.175781 344.828125 C 70.410156 344.828125 57.800781 333.375 56.078125 318.195312 Z M 56.078125 318.195312 " fill-opacity="1" fill-rule="nonzero"/><path fill="rgb(99.609375%, 100%, 98.429871%)" d="M 277.359375 17.464844 C 294.273438 17.464844 307.457031 30.925781 307.457031 47.539062 L 307.457031 288.695312 C 308.03125 288.695312 308.601562 288.695312 308.890625 288.695312 C 312.328125 288.695312 315.484375 288.980469 318.921875 289.265625 L 318.921875 47.539062 C 318.921875 30.640625 305.449219 17.464844 288.824219 17.464844 Z M 277.359375 17.464844 " fill-opacity="1" fill-rule="nonzero"/></svg>