<?xml version="1.0" encoding="UTF-8"?><svg xmlns="http://www.w3.org/2000/svg" xmlns:xlink="http://www.w3.org/1999/xlink" contentScriptType="text/ecmascript" width="375" zoomAndPan="magnify" contentStyleType="text/css" viewBox="0 0 375 374.999991" height="374.999991" preserveAspectRatio="xMidYMid meet" version="1.0"><defs><clipPath id="clip-0"><path d="M 81 10 L 295.285156 10 L 295.285156 365 L 81 365 Z M 81 10 " clip-rule="nonzero"/></clipPath><clipPath id="clip-1"><path d="M 47.046875 0 L 328.296875 0 L 328.296875 375 L 47.046875 375 Z M 47.046875 0 " clip-rule="nonzero"/></clipPath></defs><g clip-path="url(#clip-0)"><path fill="rgb(100%, 100%, 100%)" d="M 171.503906 364.996094 L 202.972656 364.996094 C 210.105469 364.996094 215.980469 359.125 215.980469 351.996094 L 215.980469 321.808594 L 222.695312 320.132812 C 275.980469 306.714844 295.285156 269.816406 295.285156 242.5625 C 295.285156 191.832031 251.644531 170.867188 208.847656 157.03125 C 168.566406 143.613281 155.980469 135.648438 155.980469 123.910156 C 155.980469 113.425781 168.148438 102.523438 195.839844 102.523438 C 226.050781 102.523438 245.351562 111.328125 253.324219 115.101562 C 255.003906 115.941406 257.101562 116.359375 258.777344 116.359375 C 263.8125 116.359375 268.429688 113.425781 270.527344 108.8125 L 283.113281 82.398438 C 284.792969 79.464844 284.792969 75.691406 283.535156 72.335938 C 282.277344 68.984375 279.757812 66.46875 276.820312 64.789062 C 261.714844 57.660156 245.351562 53.050781 226.890625 50.953125 L 219.335938 50.113281 L 219.335938 23.28125 C 219.335938 16.152344 213.464844 10.285156 206.328125 10.285156 L 175.28125 10.285156 C 168.148438 10.285156 162.273438 16.152344 162.273438 23.28125 L 162.273438 52.628906 L 155.558594 54.308594 C 111.921875 65.210938 86.328125 92.882812 86.328125 128.101562 C 86.328125 174.640625 132.480469 195.605469 177.796875 209.859375 C 219.757812 223.277344 225.210938 235.4375 225.210938 245.082031 C 225.210938 260.175781 205.492188 271.074219 178.636719 271.074219 C 155.558594 271.074219 131.222656 265.207031 112.761719 255.5625 C 110.664062 254.722656 108.566406 253.886719 106.46875 253.886719 C 105.207031 253.886719 103.53125 254.304688 102.273438 254.722656 C 98.914062 255.980469 95.976562 258.496094 94.71875 261.851562 L 82.550781 288.683594 C 80.035156 294.972656 82.132812 302.101562 88.003906 305.457031 C 103.109375 314.261719 126.1875 320.96875 150.105469 323.484375 L 158.078125 324.324219 L 158.078125 351.996094 C 158.078125 359.125 163.953125 364.996094 171.503906 364.996094 Z M 171.503906 364.996094 " fill-opacity="1" fill-rule="nonzero"/></g><path fill="rgb(76.078796%, 54.119873%, 39.608765%)" d="M 316.925781 372.257812 L 64.511719 372.257812 C 61.710938 369.953125 58.578125 368.058594 55.53125 366.085938 C 54.789062 365.589844 54.046875 365.097656 53.304688 364.605469 C 53.304688 364.605469 53.222656 364.605469 53.222656 364.523438 C 52.894531 364.273438 52.648438 364.027344 52.398438 363.78125 C 52.234375 363.617188 51.410156 362.710938 51.082031 362.464844 C 50.917969 362.136719 50.175781 360.820312 50.09375 360.492188 C 50.011719 360.242188 49.847656 359.914062 49.683594 359.667969 L 49.683594 57.375 C 53.554688 53.261719 58.742188 50.136719 63.4375 46.761719 L 314.785156 46.761719 C 315.855469 49.148438 317.914062 51.042969 320.46875 51.699219 C 320.46875 51.699219 320.550781 51.78125 320.550781 51.78125 C 321.953125 53.179688 323.1875 54.578125 324.421875 56.058594 C 324.835938 56.554688 325.246094 57.046875 325.660156 57.542969 L 325.660156 363.371094 C 324.339844 364.6875 323.023438 366.003906 321.789062 367.238281 C 320.222656 368.800781 318.492188 370.445312 316.925781 372.257812 Z M 316.925781 372.257812 " fill-opacity="1" fill-rule="nonzero"/><path fill="rgb(100%, 100%, 100%)" d="M 292.292969 348.808594 L 85.765625 348.808594 C 85.1875 348.148438 84.445312 347.65625 83.621094 347.324219 C 79.585938 345.597656 76.125 342.964844 72.417969 340.742188 L 72.417969 80.167969 C 75.878906 76.21875 80.164062 72.515625 85.1875 70.953125 C 85.269531 70.953125 85.351562 70.871094 85.351562 70.871094 L 290.480469 70.871094 C 290.648438 71.117188 290.8125 71.28125 291.058594 71.445312 C 294.765625 75.066406 298.804688 78.359375 303.167969 81.238281 L 303.167969 338.359375 C 302.757812 338.6875 302.425781 338.933594 302.097656 339.34375 C 301.191406 340.414062 300.367188 341.566406 299.542969 342.71875 C 299.378906 342.882812 299.296875 343.128906 299.132812 343.292969 C 299.050781 343.375 299.050781 343.375 298.96875 343.457031 C 296.085938 344.117188 293.449219 346.089844 292.292969 348.808594 Z M 292.292969 348.808594 " fill-opacity="1" fill-rule="nonzero"/><path fill="rgb(61.569214%, 61.569214%, 61.569214%)" d="M 240.3125 33.761719 L 215.269531 33.761719 C 215.351562 32.777344 215.433594 31.707031 215.433594 30.636719 C 215.433594 15.332031 202.992188 2.824219 187.589844 2.824219 C 172.265625 2.824219 159.742188 15.25 159.742188 30.636719 C 159.742188 31.707031 159.824219 32.691406 159.90625 33.761719 L 134.863281 33.761719 C 127.449219 33.761719 121.351562 39.851562 121.351562 47.257812 L 121.351562 69.636719 C 121.351562 77.042969 127.449219 83.128906 134.863281 83.128906 L 240.3125 83.128906 C 247.726562 83.128906 253.824219 77.042969 253.824219 69.636719 L 253.824219 47.175781 C 253.824219 39.769531 247.726562 33.761719 240.3125 33.761719 Z M 187.671875 45.199219 C 180.257812 45.199219 174.160156 39.191406 174.160156 31.707031 C 174.160156 24.21875 180.171875 18.210938 187.671875 18.210938 C 195.085938 18.210938 201.179688 24.21875 201.179688 31.707031 C 201.179688 39.191406 195.085938 45.199219 187.671875 45.199219 Z M 187.671875 45.199219 " fill-opacity="1" fill-rule="nonzero"/><g clip-path="url(#clip-1)"><path fill="rgb(18.818665%, 18.429565%, 18.429565%)" d="M 308.769531 44.128906 L 256.128906 44.128906 C 254.648438 36.726562 248.136719 31.046875 240.3125 31.046875 L 218.152344 31.046875 C 218.152344 30.882812 218.152344 30.71875 218.152344 30.554688 C 218.152344 13.769531 204.476562 0.109375 187.671875 0.109375 C 170.863281 0.109375 157.1875 13.769531 157.1875 30.554688 C 157.1875 30.71875 157.1875 30.882812 157.1875 31.046875 L 135.027344 31.046875 C 127.203125 31.046875 120.613281 36.726562 119.210938 44.128906 L 66.570312 44.128906 C 55.777344 44.128906 47.046875 52.851562 47.046875 63.628906 L 47.046875 355.472656 C 47.046875 366.167969 55.777344 374.890625 66.570312 374.890625 L 308.769531 374.890625 C 319.5625 374.890625 328.296875 366.167969 328.296875 355.390625 L 328.296875 63.628906 C 328.296875 52.851562 319.5625 44.128906 308.769531 44.128906 Z M 124.15625 47.175781 C 124.15625 41.25 129.015625 36.394531 134.945312 36.394531 L 162.957031 36.394531 L 162.625 33.433594 C 162.542969 32.445312 162.460938 31.460938 162.460938 30.636719 C 162.460938 16.8125 173.746094 5.542969 187.589844 5.542969 C 201.429688 5.542969 212.714844 16.8125 212.714844 30.636719 C 212.714844 31.542969 212.632812 32.445312 212.550781 33.433594 L 212.21875 36.394531 L 240.230469 36.394531 C 246.160156 36.394531 251.023438 41.25 251.023438 47.175781 L 251.023438 69.636719 C 251.023438 75.558594 246.160156 80.414062 240.230469 80.414062 L 135.027344 80.414062 C 129.015625 80.414062 124.15625 75.558594 124.15625 69.636719 Z M 135.027344 85.679688 L 240.3125 85.679688 C 248.054688 85.679688 254.5625 80.167969 256.128906 72.925781 L 286.445312 72.925781 C 294.273438 72.925781 300.617188 79.261719 300.617188 87.078125 L 300.617188 331.859375 C 300.617188 339.675781 294.273438 346.007812 286.445312 346.007812 L 88.894531 346.007812 C 81.070312 346.007812 74.726562 339.675781 74.726562 331.859375 L 74.726562 87.160156 C 74.726562 79.34375 81.070312 73.007812 88.894531 73.007812 L 119.210938 73.007812 C 120.777344 80.25 127.285156 85.679688 135.027344 85.679688 Z M 323.023438 355.390625 C 323.023438 363.207031 316.679688 369.539062 308.851562 369.539062 L 66.652344 369.539062 C 58.824219 369.539062 52.484375 363.207031 52.484375 355.390625 L 52.484375 63.628906 C 52.484375 55.8125 58.824219 49.476562 66.652344 49.476562 L 118.964844 49.476562 L 118.964844 67.660156 L 88.894531 67.660156 C 78.101562 67.660156 69.371094 76.382812 69.371094 87.160156 L 69.371094 331.941406 C 69.371094 342.71875 78.101562 351.441406 88.894531 351.441406 L 286.527344 351.441406 C 297.320312 351.441406 306.050781 342.71875 306.050781 331.941406 L 306.050781 87.160156 C 306.050781 76.382812 297.320312 67.660156 286.527344 67.660156 L 256.542969 67.660156 L 256.542969 49.394531 L 308.851562 49.394531 C 316.679688 49.394531 323.023438 55.730469 323.023438 63.546875 Z M 187.671875 47.832031 C 196.566406 47.832031 203.816406 40.59375 203.816406 31.707031 C 203.816406 22.820312 196.566406 15.578125 187.671875 15.578125 C 178.773438 15.578125 171.523438 22.820312 171.523438 31.707031 C 171.523438 40.59375 178.773438 47.832031 187.671875 47.832031 Z M 187.671875 20.925781 C 193.601562 20.925781 198.460938 25.78125 198.460938 31.707031 C 198.460938 37.628906 193.683594 42.484375 187.671875 42.484375 C 181.65625 42.484375 176.878906 37.628906 176.878906 31.707031 C 176.878906 25.78125 181.738281 20.925781 187.671875 20.925781 Z M 138.902344 137.1875 C 138.902344 135.707031 140.054688 134.554688 141.535156 134.554688 L 278.042969 134.554688 C 279.527344 134.554688 280.679688 135.707031 280.679688 137.1875 C 280.679688 138.667969 279.527344 139.820312 278.042969 139.820312 L 141.535156 139.820312 C 140.136719 139.820312 138.902344 138.667969 138.902344 137.1875 Z M 114.269531 122.789062 L 104.21875 122.789062 C 99.027344 122.789062 94.828125 126.984375 94.828125 132.167969 L 94.828125 142.207031 C 94.828125 147.390625 99.027344 151.585938 104.21875 151.585938 L 114.269531 151.585938 C 119.457031 151.585938 123.660156 147.390625 123.660156 142.207031 L 123.660156 132.167969 C 123.660156 126.984375 119.457031 122.789062 114.269531 122.789062 Z M 118.386719 142.207031 C 118.386719 144.425781 116.574219 146.320312 114.269531 146.320312 L 104.21875 146.320312 C 101.992188 146.320312 100.097656 144.507812 100.097656 142.207031 L 100.097656 132.167969 C 100.097656 129.945312 101.910156 128.054688 104.21875 128.054688 L 114.269531 128.054688 C 116.492188 128.054688 118.386719 129.863281 118.386719 132.167969 Z M 138.902344 188.941406 C 138.902344 187.457031 140.054688 186.308594 141.535156 186.308594 L 278.042969 186.308594 C 279.527344 186.308594 280.679688 187.457031 280.679688 188.941406 C 280.679688 190.421875 279.527344 191.574219 278.042969 191.574219 L 141.535156 191.574219 C 140.136719 191.574219 138.902344 190.421875 138.902344 188.941406 Z M 114.269531 174.542969 L 104.21875 174.542969 C 99.027344 174.542969 94.828125 178.738281 94.828125 183.921875 L 94.828125 193.957031 C 94.828125 199.140625 99.027344 203.339844 104.21875 203.339844 L 114.269531 203.339844 C 119.457031 203.339844 123.660156 199.140625 123.660156 193.957031 L 123.660156 183.921875 C 123.660156 178.738281 119.457031 174.542969 114.269531 174.542969 Z M 118.386719 193.957031 C 118.386719 196.179688 116.574219 198.074219 114.269531 198.074219 L 104.21875 198.074219 C 101.992188 198.074219 100.097656 196.261719 100.097656 193.957031 L 100.097656 183.921875 C 100.097656 181.699219 101.910156 179.808594 104.21875 179.808594 L 114.269531 179.808594 C 116.492188 179.808594 118.386719 181.617188 118.386719 183.921875 Z M 138.902344 240.691406 C 138.902344 239.210938 140.054688 238.058594 141.535156 238.058594 L 278.042969 238.058594 C 279.527344 238.058594 280.679688 239.210938 280.679688 240.691406 C 280.679688 242.175781 279.527344 243.324219 278.042969 243.324219 L 141.535156 243.324219 C 140.136719 243.324219 138.902344 242.175781 138.902344 240.691406 Z M 114.269531 226.292969 L 104.21875 226.292969 C 99.027344 226.292969 94.828125 230.492188 94.828125 235.675781 L 94.828125 245.710938 C 94.828125 250.894531 99.027344 255.089844 104.21875 255.089844 L 114.269531 255.089844 C 119.457031 255.089844 123.660156 250.894531 123.660156 245.710938 L 123.660156 235.675781 C 123.660156 230.492188 119.457031 226.292969 114.269531 226.292969 Z M 118.386719 245.710938 C 118.386719 247.933594 116.574219 249.824219 114.269531 249.824219 L 104.21875 249.824219 C 101.992188 249.824219 100.097656 248.015625 100.097656 245.710938 L 100.097656 235.675781 C 100.097656 233.453125 101.910156 231.558594 104.21875 231.558594 L 114.269531 231.558594 C 116.492188 231.558594 118.386719 233.371094 118.386719 235.675781 Z M 138.902344 292.445312 C 138.902344 290.964844 140.054688 289.8125 141.535156 289.8125 L 278.042969 289.8125 C 279.527344 289.8125 280.679688 290.964844 280.679688 292.445312 C 280.679688 293.925781 279.527344 295.078125 278.042969 295.078125 L 141.535156 295.078125 C 140.136719 295.078125 138.902344 293.925781 138.902344 292.445312 Z M 114.269531 278.046875 L 104.21875 278.046875 C 99.027344 278.046875 94.828125 282.242188 94.828125 287.425781 L 94.828125 297.464844 C 94.828125 302.648438 99.027344 306.84375 104.21875 306.84375 L 114.269531 306.84375 C 119.457031 306.84375 123.660156 302.648438 123.660156 297.464844 L 123.660156 287.425781 C 123.660156 282.242188 119.457031 278.046875 114.269531 278.046875 Z M 118.386719 297.464844 C 118.386719 299.6875 116.574219 301.578125 114.269531 301.578125 L 104.21875 301.578125 C 101.992188 301.578125 100.097656 299.769531 100.097656 297.464844 L 100.097656 287.425781 C 100.097656 285.207031 101.910156 283.3125 104.21875 283.3125 L 114.269531 283.3125 C 116.492188 283.3125 118.386719 285.125 118.386719 287.425781 Z M 118.386719 297.464844 " fill-opacity="1" fill-rule="nonzero"/></g></svg>