<?xml version="1.0" encoding="UTF-8"?><svg xmlns="http://www.w3.org/2000/svg" xmlns:xlink="http://www.w3.org/1999/xlink" contentScriptType="text/ecmascript" width="150" zoomAndPan="magnify" contentStyleType="text/css" viewBox="0 0 150 149.999998" height="149.999998" preserveAspectRatio="xMidYMid meet" version="1.0"><defs><clipPath id="clip-0"><path d="M 12.195312 12.195312 L 138.195312 12.195312 L 138.195312 138.195312 L 12.195312 138.195312 Z M 12.195312 12.195312 " clip-rule="nonzero"/></clipPath></defs><path fill="rgb(76.078796%, 87.449646%, 96.469116%)" d="M 119.292969 33.195312 C 117.519531 33.195312 115.8125 33.472656 114.207031 33.984375 C 114.769531 32.421875 115.09375 30.746094 115.09375 28.992188 C 115.09375 20.875 108.511719 14.292969 100.394531 14.292969 C 92.273438 14.292969 85.695312 20.875 85.695312 28.992188 C 85.695312 33.589844 87.804688 37.6875 91.105469 40.382812 L 70.992188 60.492188 L 81.492188 58.394531 L 75.195312 75.195312 L 70.992188 68.894531 L 63.292969 75.195312 L 56.289062 75.195312 L 41.269531 90.214844 C 38.640625 86.230469 34.128906 83.59375 28.992188 83.59375 C 20.875 83.59375 14.292969 90.175781 14.292969 98.292969 C 14.292969 106.410156 20.875 112.992188 28.992188 112.992188 C 30.207031 112.992188 31.382812 112.828125 32.511719 112.550781 C 31.605469 114.617188 31.09375 116.894531 31.09375 119.292969 C 31.09375 128.570312 38.617188 136.09375 47.894531 136.09375 C 57.171875 136.09375 64.695312 128.570312 64.695312 119.292969 C 64.695312 115.1875 63.21875 111.429688 60.773438 108.515625 L 107.414062 61.875 C 110.453125 64.914062 114.65625 66.792969 119.292969 66.792969 C 128.570312 66.792969 136.09375 59.269531 136.09375 49.992188 C 136.09375 40.714844 128.570312 33.195312 119.292969 33.195312 Z M 119.292969 33.195312 " fill-opacity="1" fill-rule="nonzero"/><path fill="rgb(96.469116%, 85.488892%, 76.078796%)" d="M 43.695312 56.292969 L 43.695312 66.792969 L 56.292969 64.695312 Z M 43.695312 56.292969 " fill-opacity="1" fill-rule="nonzero"/><g clip-path="url(#clip-0)"><path fill="rgb(0%, 0%, 0%)" d="M 119.292969 31.09375 C 118.539062 31.09375 117.785156 31.136719 117.039062 31.226562 C 117.144531 30.488281 117.195312 29.738281 117.195312 28.992188 C 117.195312 19.730469 109.65625 12.195312 100.394531 12.195312 C 91.128906 12.195312 83.59375 19.730469 83.59375 28.992188 C 83.59375 33.28125 85.210938 37.335938 88.089844 40.429688 L 69.507812 59.007812 C 68.851562 59.664062 68.703125 60.667969 69.140625 61.484375 C 69.578125 62.300781 70.496094 62.75 71.40625 62.554688 L 78.199219 61.195312 L 74.664062 70.621094 L 72.738281 67.730469 C 72.410156 67.242188 71.886719 66.90625 71.300781 66.820312 C 70.707031 66.738281 70.121094 66.894531 69.660156 67.269531 L 62.542969 73.09375 L 56.292969 73.09375 C 55.734375 73.09375 55.199219 73.3125 54.804688 73.707031 L 41.46875 87.050781 C 38.308594 83.53125 33.800781 81.492188 28.992188 81.492188 C 19.730469 81.492188 12.195312 89.03125 12.195312 98.292969 C 12.195312 107.554688 19.730469 115.09375 28.992188 115.09375 C 29.152344 115.09375 29.308594 115.089844 29.46875 115.085938 C 29.152344 116.457031 28.992188 117.867188 28.992188 119.292969 C 28.992188 129.714844 37.472656 138.195312 47.894531 138.195312 C 58.316406 138.195312 66.792969 129.714844 66.792969 119.292969 C 66.792969 115.515625 65.652344 111.820312 63.546875 108.710938 L 107.496094 64.761719 C 110.835938 67.441406 114.953125 68.894531 119.292969 68.894531 C 129.714844 68.894531 138.195312 60.414062 138.195312 49.992188 C 138.195312 39.570312 129.714844 31.09375 119.292969 31.09375 Z M 81.675781 84.640625 L 59.289062 107.03125 C 58.519531 107.796875 58.460938 109.027344 59.160156 109.863281 C 61.375 112.503906 62.59375 115.855469 62.59375 119.292969 C 62.59375 127.398438 55.996094 133.992188 47.894531 133.992188 C 39.789062 133.992188 33.195312 127.398438 33.195312 119.292969 C 33.195312 117.253906 33.609375 115.273438 34.433594 113.398438 C 34.753906 112.664062 34.632812 111.8125 34.121094 111.199219 C 33.605469 110.589844 32.785156 110.320312 32.011719 110.511719 C 30.980469 110.765625 29.96875 110.894531 28.992188 110.894531 C 22.042969 110.894531 16.394531 105.242188 16.394531 98.292969 C 16.394531 91.34375 22.042969 85.695312 28.992188 85.695312 C 33.238281 85.695312 37.171875 87.816406 39.515625 91.375 C 39.863281 91.898438 40.429688 92.242188 41.054688 92.304688 C 41.695312 92.355469 42.308594 92.148438 42.753906 91.703125 L 57.160156 77.292969 L 63.292969 77.292969 C 63.777344 77.292969 64.246094 77.125 64.621094 76.820312 L 70.527344 71.984375 L 73.4375 76.34375 C 73.4375 76.34375 73.441406 76.347656 73.441406 76.351562 L 73.445312 76.355469 L 73.449219 76.355469 C 73.566406 76.535156 73.710938 76.699219 73.886719 76.835938 C 74.601562 77.40625 75.601562 77.445312 76.359375 76.941406 L 84.613281 71.441406 Z M 119.292969 64.695312 C 115.367188 64.695312 111.675781 63.164062 108.898438 60.386719 C 108.078125 59.566406 106.75 59.566406 105.929688 60.386719 L 87.207031 79.109375 L 89.84375 67.25 C 90.03125 66.414062 89.691406 65.546875 88.980469 65.0625 C 88.621094 64.816406 88.207031 64.695312 87.792969 64.695312 C 87.386719 64.695312 86.980469 64.8125 86.628906 65.046875 L 79.445312 69.835938 L 83.457031 59.128906 C 83.726562 58.414062 83.585938 57.613281 83.089844 57.03125 C 82.597656 56.449219 81.824219 56.191406 81.078125 56.332031 L 77.382812 57.074219 L 92.585938 41.867188 C 93.003906 41.449219 93.226562 40.871094 93.199219 40.277344 C 93.167969 39.6875 92.890625 39.132812 92.429688 38.757812 C 89.484375 36.347656 87.792969 32.789062 87.792969 28.992188 C 87.792969 22.042969 93.445312 16.394531 100.394531 16.394531 C 107.34375 16.394531 112.992188 22.042969 112.992188 28.992188 C 112.992188 30.429688 112.738281 31.867188 112.234375 33.269531 C 111.960938 34.023438 112.140625 34.863281 112.699219 35.4375 C 113.253906 36.015625 114.089844 36.226562 114.84375 35.984375 C 116.28125 35.523438 117.777344 35.292969 119.292969 35.292969 C 127.398438 35.292969 133.992188 41.890625 133.992188 49.992188 C 133.992188 58.097656 127.398438 64.695312 119.292969 64.695312 Z M 119.292969 64.695312 " fill-opacity="1" fill-rule="nonzero"/></g><path fill="rgb(0%, 0%, 0%)" d="M 65.308594 90.507812 L 73.710938 82.109375 L 76.679688 85.078125 L 68.277344 93.476562 Z M 65.308594 90.507812 " fill-opacity="1" fill-rule="nonzero"/><path fill="rgb(0%, 0%, 0%)" d="M 90.507812 61.109375 L 96.808594 54.808594 L 99.777344 57.777344 L 93.480469 64.078125 Z M 90.507812 61.109375 " fill-opacity="1" fill-rule="nonzero"/><path fill="rgb(0%, 0%, 0%)" d="M 42.703125 54.441406 C 42.019531 54.804688 41.59375 55.519531 41.59375 56.292969 L 41.59375 66.792969 C 41.59375 67.410156 41.863281 67.996094 42.335938 68.394531 C 42.71875 68.71875 43.199219 68.894531 43.695312 68.894531 C 43.808594 68.894531 43.921875 68.882812 44.039062 68.863281 L 56.636719 66.765625 C 57.488281 66.625 58.167969 65.976562 58.34375 65.132812 C 58.523438 64.292969 58.175781 63.425781 57.457031 62.945312 L 44.855469 54.546875 C 44.214844 54.117188 43.382812 54.074219 42.703125 54.441406 Z M 45.792969 60.214844 L 50.710938 63.496094 L 45.792969 64.3125 Z M 45.792969 60.214844 " fill-opacity="1" fill-rule="nonzero"/><path fill="rgb(0%, 0%, 0%)" d="M 56.292969 45.792969 L 60.492188 45.792969 L 60.492188 52.09375 L 56.292969 52.09375 Z M 56.292969 45.792969 " fill-opacity="1" fill-rule="nonzero"/><path fill="rgb(0%, 0%, 0%)" d="M 67.410156 48.507812 L 71.609375 44.308594 L 74.578125 47.277344 L 70.378906 51.476562 Z M 67.410156 48.507812 " fill-opacity="1" fill-rule="nonzero"/></svg>