<?xml version="1.0" encoding="UTF-8"?><svg xmlns="http://www.w3.org/2000/svg" xmlns:xlink="http://www.w3.org/1999/xlink" contentScriptType="text/ecmascript" width="375" zoomAndPan="magnify" contentStyleType="text/css" viewBox="0 0 375 374.999991" height="374.999991" preserveAspectRatio="xMidYMid meet" version="1.0"><defs><clipPath id="clip-0"><path d="M 3.804688 6.84375 L 365.304688 6.84375 L 365.304688 368.34375 L 3.804688 368.34375 Z M 3.804688 6.84375 " clip-rule="nonzero"/></clipPath></defs><g clip-path="url(#clip-0)"><path fill="rgb(23.139954%, 53.329468%, 76.469421%)" d="M 365.304688 328.175781 C 365.304688 350.359375 347.320312 368.34375 325.136719 368.34375 L 43.96875 368.34375 C 21.789062 368.34375 3.804688 350.359375 3.804688 328.175781 L 3.804688 47.007812 C 3.804688 24.828125 21.789062 6.84375 43.96875 6.84375 L 325.136719 6.84375 C 347.320312 6.84375 365.304688 24.828125 365.304688 47.007812 Z M 365.304688 328.175781 " fill-opacity="1" fill-rule="nonzero"/></g><path fill="rgb(100%, 100%, 100%)" d="M 100.332031 68.054688 L 89.078125 68.054688 C 79.917969 68.054688 76.101562 61.378906 76.101562 54.890625 C 76.101562 48.214844 80.875 41.726562 89.078125 41.726562 L 116.167969 41.726562 C 124.375 41.726562 128.953125 47.640625 128.953125 55.273438 L 128.953125 163.824219 C 128.953125 173.363281 122.847656 178.695312 114.644531 178.695312 C 106.4375 178.695312 100.332031 173.351562 100.332031 163.824219 Z M 151.835938 235.019531 C 151.835938 247.027344 146.6875 257.523438 136.191406 264.199219 C 149.929688 270.496094 159.46875 283.28125 159.46875 298.34375 C 159.46875 321.238281 138.480469 340.496094 111.390625 340.496094 C 83.152344 340.496094 65.609375 319.710938 65.609375 304.636719 C 65.609375 297.207031 73.433594 291.863281 80.300781 291.863281 C 93.265625 291.863281 90.222656 314.1875 111.769531 314.1875 C 121.691406 314.1875 129.707031 306.554688 129.707031 296.445312 C 129.707031 269.734375 97.269531 289.386719 97.269531 266.882812 C 97.269531 246.847656 124.363281 260.394531 124.363281 239.214844 C 124.363281 231.964844 119.210938 226.433594 110.625 226.433594 C 92.5 226.433594 94.980469 245.132812 82.007812 245.132812 C 74.183594 245.132812 69.605469 238.070312 69.605469 231.011719 C 69.605469 216.140625 90.019531 200.113281 111.199219 200.113281 C 138.671875 200.105469 151.835938 220.128906 151.835938 235.019531 Z M 286.125 152.367188 C 294.519531 152.367188 300.988281 156.183594 300.988281 164.957031 C 300.988281 173.734375 294.519531 177.550781 287.257812 177.550781 L 223.535156 177.550781 C 215.148438 177.550781 208.671875 173.734375 208.671875 164.957031 C 208.671875 160.953125 211.144531 157.519531 213.0625 155.226562 C 228.898438 136.339844 246.058594 119.179688 260.546875 98.191406 C 263.992188 93.230469 267.238281 87.316406 267.238281 80.449219 C 267.238281 72.625 261.3125 65.757812 253.5 65.757812 C 231.558594 65.757812 242.050781 96.664062 223.734375 96.664062 C 214.578125 96.664062 209.808594 90.179688 209.808594 82.738281 C 209.808594 58.699219 231.175781 39.4375 254.644531 39.4375 C 278.101562 39.4375 296.988281 54.890625 296.988281 79.113281 C 296.988281 105.632812 267.425781 131.953125 251.210938 152.367188 Z M 216.496094 308.273438 C 207.148438 308.273438 203.140625 301.976562 203.140625 297.015625 C 203.140625 292.820312 204.667969 290.53125 205.820312 288.621094 L 248.550781 211.171875 C 252.746094 203.539062 258.089844 200.105469 268.007812 200.105469 C 279.074219 200.105469 289.941406 207.164062 289.941406 224.527344 L 289.941406 283.089844 L 293.183594 283.089844 C 300.625 283.089844 306.539062 288.050781 306.539062 295.679688 C 306.539062 303.3125 300.625 308.273438 293.183594 308.273438 L 289.941406 308.273438 L 289.941406 324.480469 C 289.941406 334.59375 285.945312 339.371094 276.214844 339.371094 C 266.484375 339.371094 262.476562 334.59375 262.476562 324.480469 L 262.476562 308.273438 Z M 262.464844 229.867188 L 262.085938 229.867188 L 236.339844 283.089844 L 262.476562 283.089844 L 262.476562 229.867188 Z M 262.464844 229.867188 " fill-opacity="1" fill-rule="nonzero"/></svg>