<svg xmlns="http://www.w3.org/2000/svg" width="150" viewBox="0 0 150 150" height="150" version="1.0"><defs><clipPath id="a"><path d="M 2.953125 59 L 146.953125 59 L 146.953125 127 L 2.953125 127 Z M 2.953125 59"/></clipPath><clipPath id="b"><path d="M 2.953125 25 L 146.953125 25 L 146.953125 50 L 2.953125 50 Z M 2.953125 25"/></clipPath></defs><g clip-path="url(#a)"><path fill="#34D399" d="M 2.953125 59.605469 L 2.953125 101.660156 C 2.953125 114.90625 13.730469 126.894531 26.953125 126.894531 L 122.953125 126.894531 C 136.191406 126.894531 146.953125 114.90625 146.953125 101.660156 L 146.953125 59.605469 Z M 22.152344 78.828125 L 46.152344 78.828125 L 46.152344 83.636719 L 22.152344 83.636719 Z M 70.152344 98.054688 L 22.152344 98.054688 L 22.152344 88.441406 L 70.152344 88.441406 Z M 70.152344 98.054688"/></g><g clip-path="url(#b)"><path fill="#34D399" d="M 122.953125 25.960938 L 26.953125 25.960938 C 13.722656 25.960938 2.953125 35.570312 2.953125 49.992188 L 146.953125 49.992188 C 146.953125 35.570312 136.191406 25.960938 122.953125 25.960938 Z M 122.953125 25.960938"/></g></svg>