<svg xmlns="http://www.w3.org/2000/svg" width="150" viewBox="0 0 150 150" height="150" version="1.0"><defs><clipPath id="a"><path d="M 4.945312 29 L 133 29 L 133 145.195312 L 4.945312 145.195312 Z M 4.945312 29"/></clipPath><clipPath id="b"><path d="M 88 4.945312 L 145.195312 4.945312 L 145.195312 66 L 88 66 Z M 88 4.945312"/></clipPath><clipPath id="c"><path d="M 4.945312 4.945312 L 145.195312 4.945312 L 145.195312 145.195312 L 4.945312 145.195312 Z M 4.945312 4.945312"/></clipPath></defs><g clip-path="url(#a)"><path fill="#4A148C" d="M 37.335938 145.195312 C 19.304688 145.195312 4.945312 130.503906 4.945312 112.804688 C 4.945312 87.425781 20.304688 81.75 36.335938 76.074219 C 44.683594 73.066406 53.699219 70.0625 61.714844 63.71875 C 67.722656 59.375 73.066406 54.035156 78.410156 48.355469 C 85.421875 40.675781 90.765625 36.335938 91.765625 35 C 92.433594 33.996094 101.117188 29.992188 101.785156 30.660156 C 101.785156 30.660156 115.808594 25.984375 125.160156 35 C 134.511719 44.015625 131.839844 60.710938 131.839844 61.714844 C 128.5 96.441406 85.089844 145.195312 37.335938 145.195312 Z M 37.335938 145.195312"/></g><g clip-path="url(#b)"><path fill="#4CAF50" d="M 138.515625 4.945312 L 145.195312 11.625 C 145.195312 11.625 137.847656 24.3125 131.839844 31.660156 C 136.511719 37.671875 142.191406 47.6875 135.179688 65.054688 C 128.164062 63.050781 121.820312 48.355469 121.820312 48.355469 C 121.820312 48.355469 117.8125 53.367188 105.125 55.035156 C 104.121094 42.679688 108.464844 38.339844 108.464844 38.339844 C 108.464844 38.339844 93.101562 39.675781 88.429688 35 C 88.429688 35 97.777344 17.300781 121.820312 24.980469 C 131.171875 18.304688 138.515625 4.945312 138.515625 4.945312 Z M 138.515625 4.945312"/></g><g clip-path="url(#c)"><path stroke-linecap="round" transform="matrix(3.33929 0 0 3.33929 -5.072 -5.072)" fill="none" d="M 7.000538 35.00054 C 7.000538 35.00054 6.400438 31.500539 12.000204 28.999537 C 17.599971 26.499704 23.999871 24.300506 28.999537 18.000037" stroke="#9575CD" stroke-width="2" stroke-miterlimit="10"/></g></svg>