<?xml version="1.0" encoding="UTF-8"?><svg xmlns="http://www.w3.org/2000/svg" xmlns:xlink="http://www.w3.org/1999/xlink" contentScriptType="text/ecmascript" width="375" zoomAndPan="magnify" contentStyleType="text/css" viewBox="0 0 375 374.999991" height="374.999991" preserveAspectRatio="xMidYMid meet" version="1.0"><defs><clipPath id="clip-0"><path d="M 15.957031 165 L 67 165 L 67 226 L 15.957031 226 Z M 15.957031 165 " clip-rule="nonzero"/></clipPath></defs><path fill="rgb(88.62915%, 40.388489%, 42.749023%)" d="M 215.882812 309.425781 L 215.882812 344.234375 C 218.363281 344.070312 220.824219 343.871094 223.25 343.589844 C 226.160156 356.40625 230.46875 373.675781 232.914062 374.71875 L 275.039062 374.71875 C 275.039062 374.71875 283.164062 373.199219 293.144531 317.996094 C 293.375 315.074219 293.160156 312.21875 292.597656 309.425781 L 215.882812 309.425781 " fill-opacity="1" fill-rule="nonzero"/><path fill="rgb(88.62915%, 40.388489%, 42.749023%)" d="M 114.425781 309.425781 L 114.425781 344.234375 C 116.902344 344.070312 119.363281 343.871094 121.792969 343.589844 C 124.683594 356.40625 128.996094 373.675781 131.457031 374.71875 L 173.578125 374.71875 C 173.578125 374.71875 181.707031 373.199219 191.683594 317.996094 C 191.914062 315.074219 191.699219 312.21875 191.121094 309.425781 L 114.425781 309.425781 " fill-opacity="1" fill-rule="nonzero"/><g clip-path="url(#clip-0)"><path fill="rgb(96.859741%, 57.649231%, 55.688477%)" d="M 47.40625 200.132812 C 39.363281 194.054688 44.75 167.007812 54.710938 172.820312 C 65.496094 179.113281 47.40625 200.132812 47.40625 200.132812 Z M 54.710938 204.625 C 54.710938 204.625 78.117188 173.003906 54.710938 165.902344 C 44.21875 162.714844 37.496094 172.441406 36.175781 182.726562 C 34.871094 192.949219 41.230469 202.757812 41.230469 202.757812 C 25.304688 209.429688 15.957031 191.445312 15.957031 191.445312 C 21.574219 221.5 47.40625 213.042969 47.40625 213.042969 C 54.710938 228.203125 66.503906 225.394531 66.503906 225.394531 L 66.503906 215.289062 C 57.519531 212.484375 54.710938 204.625 54.710938 204.625 " fill-opacity="1" fill-rule="nonzero"/></g><path fill="rgb(96.859741%, 57.649231%, 55.688477%)" d="M 364.902344 277.210938 C 364.902344 277.210938 369.957031 228.382812 364.902344 225.578125 C 359.847656 222.753906 358.160156 230.828125 358.160156 230.828125 L 330.757812 215.753906 C 329.714844 207.644531 327.71875 199.800781 324.84375 192.273438 C 324.84375 192.273438 336.6875 121.550781 324.84375 121.550781 C 314.898438 121.53125 295.570312 130.730469 281.382812 138.261719 C 258.253906 122.195312 228.835938 112.566406 196.789062 112.566406 C 122.355469 112.566406 62.011719 164.515625 62.011719 228.582031 C 62.011719 262.21875 78.644531 292.5 105.222656 313.6875 C 115.53125 373.113281 124.074219 374.71875 124.074219 374.71875 L 166.195312 374.71875 C 168.671875 373.660156 173.050781 356.058594 175.941406 343.210938 C 182.746094 344.121094 189.703125 344.597656 196.789062 344.597656 C 202.851562 344.597656 208.8125 344.25 214.644531 343.589844 C 217.535156 356.40625 221.863281 373.675781 224.308594 374.71875 L 266.433594 374.71875 C 266.433594 374.71875 274.558594 373.199219 284.535156 317.996094 C 284.535156 317.996094 363.183594 298.742188 364.902344 277.210938 " fill-opacity="1" fill-rule="nonzero"/><path fill="rgb(98.039246%, 72.938538%, 54.119873%)" d="M 323.71875 140.078125 L 302.9375 158.882812 L 318.664062 182.726562 Z M 323.71875 140.078125 " fill-opacity="1" fill-rule="nonzero"/><path fill="rgb(39.99939%, 19.219971%, 19.60907%)" d="M 320.367188 215.140625 C 320.367188 220.921875 317.210938 225.609375 313.328125 225.609375 C 309.429688 225.609375 306.277344 220.921875 306.277344 215.140625 C 306.277344 209.363281 309.429688 204.671875 313.328125 204.671875 C 317.210938 204.671875 320.367188 209.363281 320.367188 215.140625 " fill-opacity="1" fill-rule="nonzero"/><path fill="rgb(94.119263%, 52.159119%, 52.159119%)" d="M 363.398438 281.785156 C 315.527344 287.464844 132.941406 301.105469 69.625 190.058594 C 64.703125 202.113281 62.011719 215.074219 62.011719 228.582031 C 62.011719 262.21875 78.644531 292.5 105.222656 313.6875 C 115.53125 373.113281 124.074219 374.71875 124.074219 374.71875 L 166.195312 374.71875 C 168.671875 373.660156 173.050781 356.058594 175.941406 343.210938 C 182.746094 344.121094 189.703125 344.597656 196.789062 344.597656 C 202.851562 344.597656 208.8125 344.25 214.644531 343.589844 C 217.535156 356.40625 221.863281 373.675781 224.308594 374.71875 L 266.433594 374.71875 C 266.433594 374.71875 274.558594 373.199219 284.535156 317.996094 C 284.535156 317.996094 352.332031 301.386719 363.398438 281.785156 " fill-opacity="1" fill-rule="nonzero"/><path stroke-linecap="butt" transform="matrix(0.165189, 0, 0, -0.165123, -159.639683, 538.552237)" fill="none" stroke-linejoin="miter" d="M 1965.096885 2461.993956 C 1965.096885 2461.993956 2150.892615 2516.404036 2395.711655 2461.993956 " stroke="rgb(79.998779%, 28.62854%, 29.40979%)" stroke-width="47.596001" stroke-opacity="1" stroke-miterlimit="10"/><path fill="rgb(96.469116%, 56.079102%, 20.388794%)" d="M 227.25 101.074219 C 227.25 115.820312 215.289062 127.773438 200.539062 127.773438 C 185.785156 127.773438 173.828125 115.820312 173.828125 101.074219 C 173.828125 86.3125 185.785156 74.375 200.539062 74.375 C 215.289062 74.375 227.25 86.3125 227.25 101.074219 " fill-opacity="1" fill-rule="nonzero"/><path fill="rgb(98.039246%, 73.329163%, 20.388794%)" d="M 221.238281 101.074219 C 221.238281 112.5 211.96875 121.765625 200.539062 121.765625 C 189.105469 121.765625 179.839844 112.5 179.839844 101.074219 C 179.839844 89.648438 189.105469 80.367188 200.539062 80.367188 C 211.96875 80.367188 221.238281 89.648438 221.238281 101.074219 " fill-opacity="1" fill-rule="nonzero"/><path stroke-linecap="round" transform="matrix(0.165189, 0, 0, -0.165123, -159.639683, 538.552237)" fill="none" stroke-linejoin="miter" d="M 2222.307036 2691.888372 C 2222.307036 2691.888372 2219.989615 2718.69125 2184.708053 2721.293471 C 2156.591581 2723.398905 2139.802098 2713.510464 2136.798908 2694.703502 C 2136.798908 2694.703502 2132.802538 2667.900624 2149.592021 2659.289637 C 2169.290105 2648.999035 2224.009632 2647.697924 2224.600811 2611.408767 C 2224.600811 2611.408767 2226.799997 2579.093911 2181.799452 2579.093911 C 2181.799452 2579.093911 2138.406915 2577.911083 2136.207729 2604.99784 " stroke="rgb(96.469116%, 56.079102%, 20.388794%)" stroke-width="20.768" stroke-opacity="1" stroke-miterlimit="10"/><path stroke-linecap="round" transform="matrix(0.165189, 0, 0, -0.165123, -159.639683, 538.552237)" fill="none" stroke-linejoin="miter" d="M 2161.699367 2744.689806 L 2161.699367 2719.803108 " stroke="rgb(96.469116%, 56.079102%, 20.388794%)" stroke-width="20.768" stroke-opacity="1" stroke-miterlimit="10"/><path stroke-linecap="round" transform="matrix(0.165189, 0, 0, -0.165123, -159.639683, 538.552237)" fill="none" stroke-linejoin="miter" d="M 2193.410208 2744.689806 L 2193.410208 2719.803108 " stroke="rgb(96.469116%, 56.079102%, 20.388794%)" stroke-width="20.768" stroke-opacity="1" stroke-miterlimit="10"/><path stroke-linecap="round" transform="matrix(0.165189, 0, 0, -0.165123, -159.639683, 538.552237)" fill="none" stroke-linejoin="miter" d="M 2164.489732 2579.093911 L 2164.489732 2554.301839 " stroke="rgb(96.469116%, 56.079102%, 20.388794%)" stroke-width="20.768" stroke-opacity="1" stroke-miterlimit="10"/><path stroke-linecap="round" transform="matrix(0.165189, 0, 0, -0.165123, -159.639683, 538.552237)" fill="none" stroke-linejoin="miter" d="M 2196.200572 2579.093911 L 2196.200572 2554.301839 " stroke="rgb(96.469116%, 56.079102%, 20.388794%)" stroke-width="20.768" stroke-opacity="1" stroke-miterlimit="10"/><path fill="rgb(96.469116%, 56.079102%, 20.388794%)" d="M 266.21875 53.667969 C 266.21875 68.414062 254.257812 80.367188 239.507812 80.367188 C 224.753906 80.367188 212.796875 68.414062 212.796875 53.667969 C 212.796875 38.921875 224.753906 26.96875 239.507812 26.96875 C 254.257812 26.96875 266.21875 38.921875 266.21875 53.667969 " fill-opacity="1" fill-rule="nonzero"/><path fill="rgb(98.039246%, 73.329163%, 20.388794%)" d="M 260.203125 53.667969 C 260.203125 65.109375 250.9375 74.375 239.507812 74.375 C 228.074219 74.375 218.808594 65.109375 218.808594 53.667969 C 218.808594 42.242188 228.074219 32.976562 239.507812 32.976562 C 250.9375 32.976562 260.203125 42.242188 260.203125 53.667969 " fill-opacity="1" fill-rule="nonzero"/><path stroke-linecap="round" transform="matrix(0.165189, 0, 0, -0.165123, -159.639683, 538.552237)" fill="none" stroke-linejoin="miter" d="M 2458.211097 2978.889715 C 2458.211097 2978.889715 2455.893676 3005.692593 2420.588467 3008.294814 C 2392.495642 3010.400248 2375.706159 3000.488151 2372.702969 2981.704845 C 2372.702969 2981.704845 2368.7066 2954.901966 2385.496083 2946.29098 C 2405.194166 2936.095004 2459.890046 2934.699267 2460.504872 2898.41011 C 2460.504872 2898.41011 2462.704058 2866.095253 2417.703514 2866.095253 C 2417.703514 2866.095253 2374.310976 2864.888769 2372.088143 2891.999183 " stroke="rgb(96.469116%, 56.079102%, 20.388794%)" stroke-width="20.768" stroke-opacity="1" stroke-miterlimit="10"/><path stroke-linecap="round" transform="matrix(0.165189, 0, 0, -0.165123, -159.639683, 538.552237)" fill="none" stroke-linejoin="miter" d="M 2397.603428 3031.596522 L 2397.603428 3006.804451 " stroke="rgb(96.469116%, 56.079102%, 20.388794%)" stroke-width="20.768" stroke-opacity="1" stroke-miterlimit="10"/><path stroke-linecap="round" transform="matrix(0.165189, 0, 0, -0.165123, -159.639683, 538.552237)" fill="none" stroke-linejoin="miter" d="M 2429.290622 3031.596522 L 2429.290622 3006.804451 " stroke="rgb(96.469116%, 56.079102%, 20.388794%)" stroke-width="20.768" stroke-opacity="1" stroke-miterlimit="10"/><path stroke-linecap="round" transform="matrix(0.165189, 0, 0, -0.165123, -159.639683, 538.552237)" fill="none" stroke-linejoin="miter" d="M 2400.393793 2866.095253 L 2400.393793 2841.303182 " stroke="rgb(96.469116%, 56.079102%, 20.388794%)" stroke-width="20.768" stroke-opacity="1" stroke-miterlimit="10"/><path stroke-linecap="round" transform="matrix(0.165189, 0, 0, -0.165123, -159.639683, 538.552237)" fill="none" stroke-linejoin="miter" d="M 2432.104634 2866.095253 L 2432.104634 2841.303182 " stroke="rgb(96.469116%, 56.079102%, 20.388794%)" stroke-width="20.768" stroke-opacity="1" stroke-miterlimit="10"/><path fill="rgb(96.469116%, 56.079102%, 20.388794%)" d="M 209.160156 26.96875 C 209.160156 41.710938 197.203125 53.667969 182.449219 53.667969 C 167.699219 53.667969 155.753906 41.710938 155.753906 26.96875 C 155.753906 12.222656 167.699219 0.273438 182.449219 0.273438 C 197.203125 0.273438 209.160156 12.222656 209.160156 26.96875 " fill-opacity="1" fill-rule="nonzero"/><path fill="rgb(98.039246%, 73.329163%, 20.388794%)" d="M 203.148438 26.96875 C 203.148438 38.394531 193.898438 47.671875 182.449219 47.671875 C 171.019531 47.671875 161.753906 38.394531 161.753906 26.96875 C 161.753906 15.539062 171.019531 6.277344 182.449219 6.277344 C 193.898438 6.277344 203.148438 15.539062 203.148438 26.96875 " fill-opacity="1" fill-rule="nonzero"/><path stroke-linecap="round" transform="matrix(0.165189, 0, 0, -0.165123, -159.639683, 538.552237)" fill="none" stroke-linejoin="miter" d="M 2112.797042 3140.605934 C 2112.797042 3140.605934 2110.503267 3167.408813 2075.198058 3170.011034 C 2047.105233 3172.211094 2030.292103 3162.20437 2027.288914 3143.397408 C 2027.288914 3143.397408 2023.410779 3116.59453 2040.105674 3108.0072 C 2059.803758 3097.692941 2114.499637 3096.39183 2115.090816 3060.102673 C 2115.090816 3060.102673 2117.290002 3027.811473 2072.289458 3027.811473 C 2072.289458 3027.811473 2028.991509 3026.604989 2026.792323 3053.810029 " stroke="rgb(96.469116%, 56.079102%, 20.388794%)" stroke-width="20.768" stroke-opacity="1" stroke-miterlimit="10"/><path stroke-linecap="round" transform="matrix(0.165189, 0, 0, -0.165123, -159.639683, 538.552237)" fill="none" stroke-linejoin="miter" d="M 2052.189372 3193.407368 L 2052.189372 3168.497014 " stroke="rgb(96.469116%, 56.079102%, 20.388794%)" stroke-width="20.768" stroke-opacity="1" stroke-miterlimit="10"/><path stroke-linecap="round" transform="matrix(0.165189, 0, 0, -0.165123, -159.639683, 538.552237)" fill="none" stroke-linejoin="miter" d="M 2083.900213 3193.407368 L 2083.900213 3168.497014 " stroke="rgb(96.469116%, 56.079102%, 20.388794%)" stroke-width="20.768" stroke-opacity="1" stroke-miterlimit="10"/><path stroke-linecap="round" transform="matrix(0.165189, 0, 0, -0.165123, -159.639683, 538.552237)" fill="none" stroke-linejoin="miter" d="M 2055.097973 3027.811473 L 2055.097973 3002.995746 " stroke="rgb(96.469116%, 56.079102%, 20.388794%)" stroke-width="20.768" stroke-opacity="1" stroke-miterlimit="10"/><path stroke-linecap="round" transform="matrix(0.165189, 0, 0, -0.165123, -159.639683, 538.552237)" fill="none" stroke-linejoin="miter" d="M 2086.808814 3027.811473 L 2086.808814 3002.995746 " stroke="rgb(96.469116%, 56.079102%, 20.388794%)" stroke-width="20.768" stroke-opacity="1" stroke-miterlimit="10"/></svg>