<svg xmlns="http://www.w3.org/2000/svg" width="150" viewBox="0 0 150 150" height="150" version="1.0"><defs><clipPath id="a"><path d="M 11.078125 11.078125 L 138.578125 11.078125 L 138.578125 138.578125 L 11.078125 138.578125 Z M 11.078125 11.078125"/></clipPath></defs><g clip-path="url(#a)"><path fill="#BF6952" d="M 129.867188 93.238281 C 131.15625 87.648438 130.730469 81.667969 128.246094 75.71875 C 125.84375 69.964844 121.703125 65.414062 116.660156 62.355469 C 117.789062 58.136719 117.488281 53.589844 115.511719 49.074219 C 112.535156 42.277344 106.09375 37.738281 98.824219 36.460938 C 99.707031 34.433594 99.992188 31.894531 98.953125 28.785156 C 95.410156 18.160156 81.246094 25.242188 70.621094 11.082031 C 61.976562 16.265625 60.101562 23.972656 60.425781 30.511719 C 51.851562 31.972656 46.96875 33.828125 46.96875 33.828125 L 46.96875 33.835938 C 42.152344 35.785156 38.746094 40.503906 38.746094 46.027344 C 38.746094 49.140625 39.871094 51.960938 41.675781 54.214844 L 39.226562 55.128906 L 39.230469 55.140625 C 30.976562 58.222656 25.152344 65.679688 25.152344 74.402344 C 25.152344 78.109375 26.214844 81.582031 28.054688 84.59375 C 18.058594 89.089844 11.078125 98.84375 11.078125 110.242188 C 11.078125 125.890625 24.148438 138.578125 40.273438 138.578125 C 51.851562 138.578125 63.503906 136.085938 74.03125 132.679688 C 81.972656 136.363281 94.199219 138.578125 112.605469 138.578125 C 126.949219 138.578125 138.578125 126.949219 138.578125 112.605469 C 138.578125 104.898438 135.203125 97.996094 129.867188 93.238281 Z M 129.867188 93.238281"/></g><path fill="#F5F8FA" d="M 71.285156 65.972656 C 71.285156 67.019531 71.207031 68.054688 71.046875 69.082031 C 70.886719 70.109375 70.652344 71.105469 70.339844 72.070312 C 70.03125 73.039062 69.648438 73.957031 69.195312 74.828125 C 68.742188 75.695312 68.230469 76.503906 67.65625 77.242188 C 67.078125 77.980469 66.453125 78.644531 65.777344 79.222656 C 65.097656 79.804688 64.386719 80.296875 63.632812 80.695312 C 62.882812 81.097656 62.105469 81.398438 61.308594 81.605469 C 60.507812 81.808594 59.703125 81.910156 58.890625 81.910156 C 58.074219 81.910156 57.269531 81.808594 56.472656 81.605469 C 55.671875 81.398438 54.898438 81.097656 54.144531 80.695312 C 53.394531 80.296875 52.679688 79.804688 52.003906 79.222656 C 51.324219 78.644531 50.699219 77.980469 50.125 77.242188 C 49.546875 76.503906 49.035156 75.695312 48.582031 74.828125 C 48.128906 73.957031 47.75 73.039062 47.4375 72.070312 C 47.125 71.105469 46.890625 70.109375 46.730469 69.082031 C 46.574219 68.054688 46.492188 67.019531 46.492188 65.972656 C 46.492188 64.925781 46.574219 63.890625 46.730469 62.863281 C 46.890625 61.835938 47.125 60.839844 47.4375 59.875 C 47.75 58.90625 48.128906 57.988281 48.582031 57.117188 C 49.035156 56.25 49.546875 55.441406 50.125 54.703125 C 50.699219 53.964844 51.324219 53.300781 52.003906 52.722656 C 52.679688 52.140625 53.394531 51.648438 54.144531 51.25 C 54.898438 50.847656 55.671875 50.546875 56.472656 50.339844 C 57.269531 50.136719 58.074219 50.035156 58.890625 50.035156 C 59.703125 50.035156 60.507812 50.136719 61.308594 50.339844 C 62.105469 50.546875 62.882812 50.847656 63.632812 51.25 C 64.386719 51.648438 65.097656 52.140625 65.777344 52.722656 C 66.453125 53.300781 67.078125 53.964844 67.65625 54.703125 C 68.230469 55.441406 68.742188 56.25 69.195312 57.117188 C 69.648438 57.988281 70.03125 58.90625 70.339844 59.875 C 70.652344 60.839844 70.886719 61.835938 71.046875 62.863281 C 71.207031 63.890625 71.285156 64.925781 71.285156 65.972656 Z M 71.285156 65.972656"/><path fill="#F5F8FA" d="M 106.703125 65.972656 C 106.703125 67.019531 106.621094 68.054688 106.464844 69.082031 C 106.304688 70.109375 106.070312 71.105469 105.757812 72.070312 C 105.445312 73.039062 105.066406 73.957031 104.613281 74.828125 C 104.160156 75.695312 103.648438 76.503906 103.070312 77.242188 C 102.496094 77.980469 101.871094 78.644531 101.191406 79.222656 C 100.515625 79.804688 99.800781 80.296875 99.050781 80.695312 C 98.296875 81.097656 97.523438 81.398438 96.722656 81.605469 C 95.925781 81.808594 95.121094 81.910156 94.304688 81.910156 C 93.492188 81.910156 92.6875 81.808594 91.886719 81.605469 C 91.089844 81.398438 90.3125 81.097656 89.5625 80.695312 C 88.808594 80.296875 88.097656 79.804688 87.417969 79.222656 C 86.742188 78.644531 86.117188 77.980469 85.539062 77.242188 C 84.964844 76.503906 84.453125 75.695312 84 74.828125 C 83.546875 73.957031 83.164062 73.039062 82.855469 72.070312 C 82.542969 71.105469 82.308594 70.109375 82.148438 69.082031 C 81.988281 68.054688 81.910156 67.019531 81.910156 65.972656 C 81.910156 64.925781 81.988281 63.890625 82.148438 62.863281 C 82.308594 61.835938 82.542969 60.839844 82.855469 59.875 C 83.164062 58.90625 83.546875 57.988281 84 57.117188 C 84.453125 56.25 84.964844 55.441406 85.539062 54.703125 C 86.117188 53.964844 86.742188 53.300781 87.417969 52.722656 C 88.097656 52.140625 88.808594 51.648438 89.5625 51.25 C 90.3125 50.847656 91.089844 50.546875 91.886719 50.339844 C 92.6875 50.136719 93.492188 50.035156 94.304688 50.035156 C 95.121094 50.035156 95.925781 50.136719 96.722656 50.339844 C 97.523438 50.546875 98.296875 50.847656 99.050781 51.25 C 99.800781 51.648438 100.515625 52.140625 101.191406 52.722656 C 101.871094 53.300781 102.496094 53.964844 103.070312 54.703125 C 103.648438 55.441406 104.160156 56.25 104.613281 57.117188 C 105.066406 57.988281 105.445312 58.90625 105.757812 59.875 C 106.070312 60.839844 106.304688 61.835938 106.464844 62.863281 C 106.621094 63.890625 106.703125 64.925781 106.703125 65.972656 Z M 106.703125 65.972656"/><path fill="#292F33" d="M 67.742188 65.972656 C 67.742188 66.554688 67.699219 67.128906 67.609375 67.699219 C 67.515625 68.269531 67.382812 68.824219 67.203125 69.359375 C 67.027344 69.898438 66.808594 70.410156 66.550781 70.890625 C 66.292969 71.375 65.996094 71.824219 65.667969 72.234375 C 65.339844 72.644531 64.980469 73.011719 64.59375 73.335938 C 64.207031 73.65625 63.800781 73.929688 63.371094 74.152344 C 62.941406 74.375 62.5 74.542969 62.042969 74.65625 C 61.585938 74.769531 61.125 74.828125 60.660156 74.828125 C 60.195312 74.828125 59.734375 74.769531 59.277344 74.65625 C 58.820312 74.542969 58.378906 74.375 57.949219 74.152344 C 57.519531 73.929688 57.113281 73.65625 56.726562 73.335938 C 56.339844 73.011719 55.980469 72.644531 55.652344 72.234375 C 55.324219 71.824219 55.027344 71.375 54.769531 70.890625 C 54.511719 70.410156 54.292969 69.898438 54.117188 69.359375 C 53.9375 68.824219 53.804688 68.269531 53.714844 67.699219 C 53.621094 67.128906 53.578125 66.554688 53.578125 65.972656 C 53.578125 65.390625 53.621094 64.816406 53.714844 64.246094 C 53.804688 63.675781 53.9375 63.121094 54.117188 62.585938 C 54.292969 62.046875 54.511719 61.535156 54.769531 61.054688 C 55.027344 60.570312 55.324219 60.121094 55.652344 59.710938 C 55.980469 59.300781 56.339844 58.933594 56.726562 58.609375 C 57.113281 58.289062 57.519531 58.015625 57.949219 57.792969 C 58.378906 57.570312 58.820312 57.402344 59.277344 57.289062 C 59.734375 57.175781 60.195312 57.117188 60.660156 57.117188 C 61.125 57.117188 61.585938 57.175781 62.042969 57.289062 C 62.5 57.402344 62.941406 57.570312 63.371094 57.792969 C 63.800781 58.015625 64.207031 58.289062 64.59375 58.609375 C 64.980469 58.933594 65.339844 59.300781 65.667969 59.710938 C 65.996094 60.121094 66.292969 60.570312 66.550781 61.054688 C 66.808594 61.535156 67.027344 62.046875 67.203125 62.585938 C 67.382812 63.121094 67.515625 63.675781 67.609375 64.246094 C 67.699219 64.816406 67.742188 65.390625 67.742188 65.972656 Z M 67.742188 65.972656"/><path fill="#292F33" d="M 99.617188 65.972656 C 99.617188 66.554688 99.574219 67.128906 99.484375 67.699219 C 99.390625 68.269531 99.257812 68.824219 99.078125 69.359375 C 98.902344 69.898438 98.683594 70.410156 98.425781 70.890625 C 98.167969 71.375 97.871094 71.824219 97.542969 72.234375 C 97.214844 72.644531 96.855469 73.011719 96.46875 73.335938 C 96.082031 73.65625 95.675781 73.929688 95.246094 74.152344 C 94.816406 74.375 94.375 74.542969 93.917969 74.65625 C 93.460938 74.769531 93 74.828125 92.535156 74.828125 C 92.070312 74.828125 91.609375 74.769531 91.152344 74.65625 C 90.695312 74.542969 90.253906 74.375 89.824219 74.152344 C 89.394531 73.929688 88.988281 73.65625 88.601562 73.335938 C 88.214844 73.011719 87.855469 72.644531 87.527344 72.234375 C 87.199219 71.824219 86.902344 71.375 86.644531 70.890625 C 86.386719 70.410156 86.167969 69.898438 85.992188 69.359375 C 85.8125 68.824219 85.679688 68.269531 85.589844 67.699219 C 85.496094 67.128906 85.453125 66.554688 85.453125 65.972656 C 85.453125 65.390625 85.496094 64.816406 85.589844 64.246094 C 85.679688 63.675781 85.8125 63.121094 85.992188 62.585938 C 86.167969 62.046875 86.386719 61.535156 86.644531 61.054688 C 86.902344 60.570312 87.199219 60.121094 87.527344 59.710938 C 87.855469 59.300781 88.214844 58.933594 88.601562 58.609375 C 88.988281 58.289062 89.394531 58.015625 89.824219 57.792969 C 90.253906 57.570312 90.695312 57.402344 91.152344 57.289062 C 91.609375 57.175781 92.070312 57.117188 92.535156 57.117188 C 93 57.117188 93.460938 57.175781 93.917969 57.289062 C 94.375 57.402344 94.816406 57.570312 95.246094 57.792969 C 95.675781 58.015625 96.082031 58.289062 96.46875 58.609375 C 96.855469 58.933594 97.214844 59.300781 97.542969 59.710938 C 97.871094 60.121094 98.167969 60.570312 98.425781 61.054688 C 98.683594 61.535156 98.902344 62.046875 99.078125 62.585938 C 99.257812 63.121094 99.390625 63.675781 99.484375 64.246094 C 99.574219 64.816406 99.617188 65.390625 99.617188 65.972656 Z M 99.617188 65.972656"/><path fill="#292F33" d="M 44.535156 99.246094 C 43.664062 97.5 44.546875 96.078125 46.492188 96.078125 L 110.242188 96.078125 C 112.191406 96.078125 113.074219 97.5 112.203125 99.246094 C 112.203125 99.246094 103.160156 117.328125 78.367188 117.328125 C 53.578125 117.328125 44.535156 99.246094 44.535156 99.246094 Z M 44.535156 99.246094"/><path fill="#F2ABBA" d="M 78.367188 103.160156 C 68.554688 103.160156 60.105469 106.425781 56.085938 111.148438 C 61.367188 114.53125 68.640625 117.328125 78.367188 117.328125 C 88.097656 117.328125 95.371094 114.53125 100.652344 111.148438 C 96.632812 106.425781 88.183594 103.160156 78.367188 103.160156 Z M 78.367188 103.160156"/></svg>