<?xml version="1.0" encoding="UTF-8"?><svg xmlns="http://www.w3.org/2000/svg" xmlns:xlink="http://www.w3.org/1999/xlink" contentScriptType="text/ecmascript" width="150" zoomAndPan="magnify" contentStyleType="text/css" viewBox="0 0 150 149.999998" height="149.999998" preserveAspectRatio="xMidYMid meet" version="1.0"><defs><clipPath id="clip-0"><path d="M 7 17 L 144.734375 17 L 144.734375 135 L 7 135 Z M 7 17 " clip-rule="nonzero"/></clipPath></defs><g clip-path="url(#clip-0)"><path fill="rgb(0%, 0%, 0%)" d="M 143.371094 19.765625 C 142.074219 18.851562 139.734375 18.324219 138.878906 18.097656 C 126.992188 14.996094 114.054688 20.992188 110.09375 32.9375 C 106.414062 44.042969 109.46875 59.710938 94.511719 62.804688 C 93.183594 63.082031 91.683594 63.324219 90.355469 63.160156 C 89.589844 58.207031 89.90625 52.9375 89.601562 47.921875 C 88.574219 31.128906 93.332031 30.089844 98.390625 24.132812 C 99.421875 22.917969 102.359375 20.863281 102.300781 19.226562 C 102.1875 16.179688 88.957031 18.601562 86.828125 18.789062 C 82.574219 19.167969 78.84375 20.152344 74.980469 19.445312 C 66.1875 17.832031 67.242188 18.011719 64.472656 17.761719 C 60.742188 17.421875 58.320312 16.996094 56.746094 17.519531 C 55.753906 17.847656 55.214844 18.464844 54.347656 18.796875 C 55.472656 21.085938 58.289062 22.453125 60.132812 24.125 C 67.042969 30.386719 68.386719 40.433594 69.003906 49.648438 C 69.207031 52.671875 69.835938 56.738281 69.109375 59.703125 C 68.4375 62.441406 66.28125 61.476562 63.863281 61.476562 C 60.539062 61.484375 57.28125 60.597656 54.84375 58.25 C 50.136719 53.726562 49.398438 46.140625 48.035156 40.113281 C 46.375 32.738281 43.867188 26.085938 36.628906 22.570312 C 28.738281 18.738281 18.761719 19.300781 11.582031 23.023438 C 10.644531 23.507812 5.273438 26.324219 8.261719 27.53125 C 8.683594 27.699219 10.890625 27.246094 11.582031 27.25 C 13.757812 27.257812 15.933594 27.140625 18.101562 27.367188 C 23.570312 27.9375 27.550781 30.90625 29.859375 35.910156 C 33.558594 43.933594 32.410156 53.097656 35.113281 61.386719 C 39.15625 73.78125 53.15625 82.511719 64.46875 76.472656 C 66.574219 75.347656 67.511719 73.363281 69.472656 72.371094 C 70.015625 79.976562 69.152344 88.070312 68.375 95.625 C 67.644531 102.726562 68.210938 110.324219 65.144531 116.964844 C 63.742188 120.007812 61.703125 122.714844 59.382812 125.117188 C 57.421875 127.148438 54.597656 128.613281 52.820312 130.746094 C 49.28125 134.984375 57.851562 134.980469 60.25 134.75 C 65.621094 134.234375 70.609375 132.042969 75.917969 131.339844 C 79.597656 130.851562 83.488281 131.828125 87.101562 132.4375 C 90.605469 133.03125 94.296875 134.328125 97.851562 134.398438 C 99.375 134.429688 103.707031 134.542969 102.796875 131.917969 C 102.40625 130.804688 100.046875 129.804688 99.132812 128.976562 C 97.910156 127.863281 96.75 126.675781 95.671875 125.421875 C 93.894531 123.347656 91.105469 120.195312 90.527344 117.445312 C 89.808594 114.003906 90.910156 109.238281 91.039062 105.703125 C 91.324219 97.847656 91.449219 89.984375 91.28125 82.125 C 91.242188 80.203125 91.066406 78.246094 91.140625 76.332031 C 101.910156 81.046875 115.644531 75.859375 122.242188 66.328125 C 129.011719 56.546875 126.242188 44.308594 129.453125 33.457031 C 130.664062 29.371094 132.859375 25.289062 136.988281 23.582031 C 138.703125 22.875 142.671875 23.4375 143.761719 22.207031 C 144.660156 21.195312 144.257812 20.390625 143.371094 19.765625 " fill-opacity="1" fill-rule="nonzero"/></g></svg>