<?xml version="1.0" encoding="UTF-8"?><svg xmlns="http://www.w3.org/2000/svg" xmlns:xlink="http://www.w3.org/1999/xlink" contentScriptType="text/ecmascript" width="150" zoomAndPan="magnify" contentStyleType="text/css" viewBox="0 0 150 149.999998" height="149.999998" preserveAspectRatio="xMidYMid meet" version="1.0"><defs><clipPath id="clip-0"><path d="M 28.574219 2.03125 L 121.574219 2.03125 L 121.574219 113 L 28.574219 113 Z M 28.574219 2.03125 " clip-rule="nonzero"/></clipPath><clipPath id="clip-1"><path d="M 55 121 L 82 121 L 82 148.28125 L 55 148.28125 Z M 55 121 " clip-rule="nonzero"/></clipPath></defs><g clip-path="url(#clip-0)"><path fill="rgb(0%, 0%, 0%)" d="M 68.429688 112.820312 C 61.09375 112.820312 55.144531 106.867188 55.144531 99.527344 L 55.144531 81.800781 C 55.144531 74.460938 61.09375 68.507812 68.429688 68.507812 C 71.101562 68.484375 95.003906 64.078125 95.003906 46.355469 C 95.003906 37.492188 86.144531 28.632812 72.859375 28.632812 C 62.050781 28.632812 55.144531 37.492188 55.144531 41.925781 C 55.144531 49.265625 49.199219 55.21875 41.859375 55.21875 C 34.519531 55.21875 28.574219 49.265625 28.574219 41.925781 C 28.574219 20.308594 48.855469 2.046875 72.859375 2.046875 C 108.289062 2.046875 121.574219 28.550781 121.574219 50.785156 C 121.574219 69.152344 111.488281 83.1875 93.171875 90.308594 C 89.1875 91.863281 85.246094 92.910156 81.714844 93.621094 L 81.714844 99.527344 C 81.714844 106.867188 75.769531 112.820312 68.429688 112.820312 Z M 68.429688 112.820312 " fill-opacity="1" fill-rule="nonzero"/></g><g clip-path="url(#clip-1)"><path fill="rgb(0%, 0%, 0%)" d="M 81.714844 134.972656 C 81.714844 135.847656 81.632812 136.710938 81.460938 137.566406 C 81.289062 138.421875 81.039062 139.253906 80.703125 140.058594 C 80.371094 140.867188 79.960938 141.632812 79.476562 142.359375 C 78.992188 143.082031 78.441406 143.753906 77.824219 144.371094 C 77.207031 144.988281 76.535156 145.539062 75.8125 146.027344 C 75.085938 146.511719 74.320312 146.921875 73.515625 147.253906 C 72.707031 147.589844 71.878906 147.839844 71.023438 148.011719 C 70.167969 148.179688 69.304688 148.265625 68.429688 148.265625 C 67.558594 148.265625 66.695312 148.179688 65.839844 148.011719 C 64.984375 147.839844 64.152344 147.589844 63.347656 147.253906 C 62.539062 146.921875 61.773438 146.511719 61.050781 146.027344 C 60.324219 145.539062 59.652344 144.988281 59.035156 144.371094 C 58.417969 143.753906 57.867188 143.082031 57.382812 142.359375 C 56.898438 141.632812 56.488281 140.867188 56.15625 140.058594 C 55.824219 139.253906 55.570312 138.421875 55.398438 137.566406 C 55.230469 136.710938 55.144531 135.847656 55.144531 134.972656 C 55.144531 134.101562 55.230469 133.234375 55.398438 132.378906 C 55.570312 131.523438 55.824219 130.691406 56.15625 129.886719 C 56.488281 129.078125 56.898438 128.3125 57.382812 127.589844 C 57.867188 126.863281 58.417969 126.191406 59.035156 125.574219 C 59.652344 124.957031 60.324219 124.40625 61.050781 123.921875 C 61.773438 123.4375 62.539062 123.027344 63.347656 122.691406 C 64.152344 122.359375 64.984375 122.105469 65.839844 121.9375 C 66.695312 121.765625 67.558594 121.679688 68.429688 121.679688 C 69.304688 121.679688 70.167969 121.765625 71.023438 121.9375 C 71.878906 122.105469 72.707031 122.359375 73.515625 122.691406 C 74.320312 123.027344 75.085938 123.4375 75.8125 123.921875 C 76.535156 124.40625 77.207031 124.957031 77.824219 125.574219 C 78.441406 126.191406 78.992188 126.863281 79.476562 127.589844 C 79.960938 128.3125 80.371094 129.078125 80.703125 129.886719 C 81.039062 130.691406 81.289062 131.523438 81.460938 132.378906 C 81.632812 133.234375 81.714844 134.101562 81.714844 134.972656 Z M 81.714844 134.972656 " fill-opacity="1" fill-rule="nonzero"/></g></svg>