<svg xmlns="http://www.w3.org/2000/svg" width="375" viewBox="0 0 375 375" height="375" version="1.0"><defs><clipPath id="a"><path d="M 42.691406 6 L 329 6 L 329 369 L 42.691406 369 Z M 42.691406 6"/></clipPath><clipPath id="b"><path d="M 42.691406 149 L 100 149 L 100 264 L 42.691406 264 Z M 42.691406 149"/></clipPath><clipPath id="c"><path d="M 58 4.199219 L 332.191406 4.199219 L 332.191406 210 L 58 210 Z M 58 4.199219"/></clipPath><clipPath id="d"><path d="M 135 4.199219 L 332.191406 4.199219 L 332.191406 210 L 135 210 Z M 135 4.199219"/></clipPath></defs><g clip-path="url(#a)"><path fill="#FFCC80" d="M 99.972656 178.042969 L 99.972656 168.511719 L 214.25 168.511719 L 214.25 34.972656 C 214.257812 24.433594 224.683594 6.488281 243.730469 6.488281 C 262.777344 6.488281 271.242188 25.441406 271.242188 34.972656 C 271.242188 44.503906 271.242188 197.101562 271.242188 197.101562 C 271.242188 197.101562 305.765625 219.035156 319.011719 235.226562 C 330.761719 248.503906 332.257812 265.164062 319.011719 282.878906 L 293.375 319.535156 C 265.425781 347.507812 237.246094 368.660156 197.527344 368.660156 L 132.015625 368.660156 C 83.449219 368.660156 42.832031 329.992188 42.832031 281.414062 C 42.832031 281.414062 42.832031 235.378906 42.832031 178.042969 Z M 99.972656 178.042969"/></g><path fill="#FFCC80" d="M 214.238281 236.046875 C 214.238281 251.332031 201.382812 263.820312 185.667969 263.820312 C 169.945312 263.820312 157.101562 251.324219 157.101562 236.046875 L 157.101562 167.671875 C 157.101562 152.394531 169.945312 139.917969 185.667969 139.917969 C 201.382812 139.917969 214.238281 152.402344 214.238281 167.671875 Z M 214.238281 236.046875"/><path fill="#FFCC80" d="M 157.101562 236.046875 C 157.101562 251.332031 144.246094 263.820312 128.53125 263.820312 C 112.808594 263.820312 99.960938 251.324219 99.960938 236.046875 L 99.960938 167.671875 C 99.960938 152.394531 112.808594 139.917969 128.53125 139.917969 C 144.246094 139.917969 157.101562 152.402344 157.101562 167.671875 Z M 157.101562 236.046875"/><g clip-path="url(#b)"><path fill="#FFCC80" d="M 99.960938 236.046875 C 99.960938 251.332031 87.105469 263.820312 71.394531 263.820312 C 55.671875 263.820312 42.824219 251.324219 42.824219 236.046875 L 42.824219 177.203125 C 42.824219 161.925781 55.671875 149.449219 71.394531 149.449219 C 87.105469 149.449219 99.960938 161.933594 99.960938 177.203125 Z M 99.960938 236.046875"/></g><path fill="#FFEBEE" d="M 262.757812 36.03125 C 262.644531 24.863281 254.054688 15.902344 243.511719 16.015625 C 233 16.140625 224.5625 25.308594 224.683594 36.441406 C 224.800781 47.613281 262.882812 47.191406 262.757812 36.03125"/><path fill="#F2A25A" d="M 271.375 282.878906 L 271.375 197.101562 C 271.375 197.101562 285.777344 206.300781 299.515625 217.164062 Z M 271.375 282.878906"/><g clip-path="url(#c)"><path transform="matrix(9.52303 0 0 9.53084 -52.54 -41.168)" fill="none" d="M 31.014086 12.50011 C 31.014086 12.50011 26.894958 14.999808 25.513848 14.999808 C 24.133149 14.999808 23.01415 13.880908 23.01415 12.50011 C 23.01415 11.118904 24.133149 10.000003 25.513848 10.000003 C 26.894958 10.000003 31.014086 12.50011 31.014086 12.50011 Z M 31.014086 12.50011" stroke="#FF3D00" stroke-width="2"/></g><g clip-path="url(#d)"><path transform="matrix(9.52303 0 0 9.53084 -52.54 -41.168)" fill="none" d="M 31.014086 12.50011 C 31.014086 12.50011 35.132804 14.999808 36.513914 14.999808 C 37.895024 14.999808 39.014022 13.880908 39.014022 12.50011 C 39.014022 11.118904 37.895024 10.000003 36.513914 10.000003 C 35.132804 10.000003 31.014086 12.50011 31.014086 12.50011 Z M 31.014086 12.50011" stroke="#FF3D00" stroke-width="2"/></g></svg>