<svg xmlns="http://www.w3.org/2000/svg" width="375" viewBox="0 0 375 375" height="375" version="1.0"><defs><clipPath id="a"><path d="M 114 83 L 358.214844 83 L 358.214844 367.816406 L 114 367.816406 Z M 114 83"/></clipPath><clipPath id="b"><path d="M 18 107 L 129 107 L 129 367.816406 L 18 367.816406 Z M 18 107"/></clipPath></defs><g clip-path="url(#a)"><path fill="#FFF" d="M 251.121094 336.929688 C 250.636719 337.0625 250.152344 337.128906 249.671875 337.128906 C 247.320312 337.128906 245.164062 335.570312 244.496094 333.199219 C 244.261719 332.34375 244.003906 331.480469 243.730469 330.601562 C 242.84375 327.769531 244.425781 324.757812 247.257812 323.871094 C 250.089844 322.988281 253.105469 324.5625 253.988281 327.394531 C 254.296875 328.382812 254.582031 329.351562 254.851562 330.308594 C 255.648438 333.167969 253.976562 336.132812 251.121094 336.929688 Z M 349 127.925781 C 344.613281 123.820312 338.855469 119.148438 332.136719 115.398438 C 326.640625 112.332031 319.671875 114.132812 316.242188 119.40625 C 307.980469 132.097656 289.890625 154.964844 262.816406 162.886719 C 257.421875 164.464844 251.972656 164.757812 246.792969 163.957031 C 240.476562 162.984375 233.992188 163.683594 228.265625 166.507812 C 228.144531 166.570312 228.027344 166.628906 227.910156 166.691406 C 220.8125 170.277344 215.464844 176.515625 212.414062 183.855469 C 205.425781 200.652344 203.972656 218.035156 208.140625 235.703125 C 210.003906 243.601562 213.402344 251.347656 218.246094 258.726562 C 223.851562 267.28125 234.53125 284.1875 243.152344 301.460938 C 244.355469 303.878906 243.699219 306.902344 241.46875 308.421875 C 240.515625 309.070312 239.457031 309.375 238.414062 309.375 C 236.441406 309.375 234.539062 308.28125 233.601562 306.394531 C 225.21875 289.566406 214.746094 273 209.253906 264.621094 C 203.726562 256.191406 199.832031 247.292969 197.679688 238.171875 C 192.339844 215.527344 195.410156 192.527344 206.492188 171.214844 C 206.558594 171.074219 206.632812 170.9375 206.707031 170.800781 C 207.566406 169.171875 208.460938 167.558594 209.40625 165.953125 C 214.675781 154.535156 215 139.597656 214.554688 130.347656 C 214.363281 126.472656 213.484375 122.648438 211.8125 119.148438 C 211.804688 119.128906 211.792969 119.105469 211.78125 119.089844 C 205.300781 105.570312 193.316406 83.558594 151.632812 83.625 C 151.632812 83.625 141.328125 83.464844 128.488281 87.875 C 120.109375 90.753906 117.992188 101.726562 124.714844 107.5 C 134.988281 116.324219 145.816406 132.566406 142.273438 160.910156 C 142.273438 160.910156 138.386719 187.984375 118.695312 202.554688 C 115.988281 204.5625 114.265625 207.738281 114.484375 211.101562 C 114.769531 215.511719 117.953125 219.050781 122.15625 219.914062 C 132.738281 222.085938 171.8125 245.957031 190.105469 270.710938 C 190.105469 270.710938 216.691406 305.394531 228.25 349.015625 C 231.175781 360.050781 241.0625 367.792969 252.476562 367.792969 L 333.296875 367.792969 C 347.042969 367.792969 358.191406 356.652344 358.191406 342.90625 L 358.191406 149.277344 C 358.191406 141.199219 354.898438 133.449219 349 127.925781"/></g><path fill="#FFF" d="M 260.785156 37.164062 C 241.976562 31.082031 128.058594 3.363281 75.445312 38.78125 C 57.769531 50.683594 59.710938 77.304688 78.851562 86.671875 C 89.347656 91.808594 101.996094 89.894531 110.347656 81.71875 C 113.789062 78.355469 118.125 74.839844 123.503906 71.660156 C 134.167969 62.375 155.21875 48.46875 188.980469 44.144531 C 192.101562 43.75 194.9375 46.109375 195.035156 49.335938 C 195.117188 52.117188 192.925781 54.46875 190.167969 54.828125 C 184.890625 55.507812 179.960938 56.453125 175.359375 57.589844 C 173.59375 58.023438 173.832031 60.605469 175.644531 60.710938 C 179.511719 60.945312 183.550781 61.363281 187.78125 61.992188 C 187.78125 61.992188 297.6875 81.886719 343.132812 69.757812 C 349.492188 68.0625 354.144531 62.363281 354.179688 55.78125 C 354.222656 46.945312 346.421875 40.179688 337.679688 41.382812 C 322.148438 43.523438 296.777344 44.917969 266.378906 38.675781 C 264.488281 38.285156 262.625 37.757812 260.785156 37.164062"/><g clip-path="url(#b)"><path fill="#FFF" d="M 120.792969 124.953125 C 120.792969 124.953125 118.824219 121.84375 114.128906 117.816406 C 105.839844 110.703125 95.359375 107.023438 84.714844 107.023438 C 81.96875 107.023438 76.191406 108.234375 71.652344 109.296875 C 69.328125 109.839844 68.964844 112.972656 71.089844 114.054688 C 74.328125 115.707031 77.628906 117.125 80.917969 118.183594 C 83.542969 119.027344 85.261719 121.683594 84.722656 124.386719 C 84.195312 127.011719 81.917969 128.726562 79.449219 128.726562 C 78.910156 128.726562 78.359375 128.644531 77.816406 128.472656 C 66.238281 124.792969 54.867188 117.460938 45.808594 110.46875 C 44.558594 109.503906 43.015625 108.996094 41.4375 108.996094 L 41.410156 108.996094 C 41.367188 108.996094 41.320312 108.996094 41.269531 108.996094 C 24.054688 109.054688 13.183594 127.585938 21.414062 142.710938 C 24.621094 148.609375 28.515625 156.207031 31.949219 164.175781 C 35.996094 173.5625 38.097656 183.671875 38.097656 193.894531 L 38.097656 360.703125 C 38.097656 364.621094 41.273438 367.792969 45.191406 367.792969 L 73.75 367.792969 C 77.875 367.792969 81.128906 364.296875 80.828125 360.183594 C 79.183594 337.78125 76.023438 270.460938 92.15625 219.625 C 96.414062 206.21875 103.785156 194.027344 113.457031 183.808594 C 124.089844 172.570312 137.746094 151.003906 120.792969 124.953125"/></g></svg>