<svg xmlns="http://www.w3.org/2000/svg" xmlns:xlink="http://www.w3.org/1999/xlink" width="150" viewBox="0 0 150 150" height="150" version="1.0"><defs><clipPath id="a"><path d="M 28.046875 9.007812 L 121.664062 9.007812 L 121.664062 141.007812 L 28.046875 141.007812 Z M 28.046875 9.007812"/></clipPath><clipPath id="b"><path d="M 74.890625 18.863281 C 84.824219 18.863281 96.960938 0.679688 114.300781 13.726562 C 131.640625 26.769531 112.722656 63.140625 112.722656 63.140625 C 112.722656 63.140625 105.464844 76.429688 112.328125 91.605469 C 121.617188 112.136719 112.949219 141.023438 98.253906 141.023438 C 83.5625 141.023438 99.71875 94.371094 74.890625 94.371094 C 50.066406 94.371094 66.222656 141.023438 51.527344 141.023438 C 36.835938 141.023438 28.164062 112.136719 37.453125 91.605469 C 44.320312 76.429688 37.058594 63.140625 37.058594 63.140625 C 37.058594 63.140625 18.144531 26.769531 35.484375 13.726562 C 52.824219 0.679688 64.957031 18.863281 74.890625 18.863281 Z M 74.890625 18.863281"/></clipPath><clipPath id="c"><path d="M 74.890625 18.863281 C 84.824219 18.863281 96.960938 0.679688 114.300781 13.726562 C 131.640625 26.769531 112.722656 63.140625 112.722656 63.140625 C 112.722656 63.140625 105.464844 76.429688 112.328125 91.605469 C 121.617188 112.136719 112.949219 141.023438 98.253906 141.023438 C 83.5625 141.023438 99.71875 94.371094 74.890625 94.371094 C 50.066406 94.371094 66.222656 141.023438 51.527344 141.023438 C 36.835938 141.023438 28.164062 112.136719 37.453125 91.605469 C 44.320312 76.429688 37.058594 63.140625 37.058594 63.140625 C 37.058594 63.140625 18.144531 26.769531 35.484375 13.726562 C 52.824219 0.679688 64.957031 18.863281 74.890625 18.863281"/></clipPath><clipPath id="e"><path d="M 30.109375 11.214844 L 119.601562 11.214844 L 119.601562 138.824219 L 30.109375 138.824219 Z M 30.109375 11.214844"/></clipPath><clipPath id="f"><path d="M 98.253906 138.824219 C 96.882812 138.824219 95.464844 138.328125 94.410156 134.742188 C 93.464844 131.53125 93.175781 126.945312 92.871094 122.09375 C 92.027344 108.765625 90.980469 92.171875 74.890625 92.171875 C 58.800781 92.171875 57.753906 108.765625 56.914062 122.09375 C 56.605469 126.949219 56.316406 131.53125 55.371094 134.742188 C 54.316406 138.328125 52.898438 138.824219 51.527344 138.824219 C 46.773438 138.824219 43.382812 135.097656 41.375 131.972656 C 35.75 123.214844 33.164062 106.410156 39.453125 92.515625 C 46.601562 76.707031 39.472656 62.988281 38.996094 62.109375 C 38.554688 61.253906 21.269531 27.167969 36.800781 15.484375 C 40.621094 12.609375 44.34375 11.214844 48.183594 11.214844 C 53.59375 11.214844 58.429688 13.945312 63.101562 16.585938 C 67.175781 18.890625 71.023438 21.0625 74.890625 21.0625 C 78.761719 21.0625 82.609375 18.890625 86.679688 16.585938 C 91.355469 13.945312 96.1875 11.214844 101.601562 11.214844 C 105.441406 11.214844 109.164062 12.609375 112.984375 15.484375 C 116.445312 18.089844 118.535156 22.039062 119.191406 27.226562 C 119.746094 31.601562 119.304688 36.847656 117.878906 42.8125 C 115.457031 52.957031 110.996094 61.699219 110.785156 62.109375 C 110.316406 62.984375 103.179688 76.703125 110.332031 92.515625 C 116.617188 106.410156 114.03125 123.214844 108.40625 131.972656 C 106.402344 135.097656 103.011719 138.824219 98.253906 138.824219 Z M 98.253906 138.824219"/></clipPath><clipPath id="g"><path d="M 98.253906 138.824219 C 96.882812 138.824219 95.464844 138.328125 94.410156 134.742188 C 93.464844 131.53125 93.175781 126.945312 92.871094 122.09375 C 92.027344 108.765625 90.980469 92.171875 74.890625 92.171875 C 58.800781 92.171875 57.753906 108.765625 56.914062 122.09375 C 56.605469 126.949219 56.316406 131.53125 55.371094 134.742188 C 54.316406 138.328125 52.898438 138.824219 51.527344 138.824219 C 46.773438 138.824219 43.382812 135.097656 41.375 131.972656 C 35.75 123.214844 33.164062 106.410156 39.453125 92.515625 C 46.601562 76.707031 39.472656 62.988281 38.996094 62.109375 C 38.554688 61.253906 21.269531 27.167969 36.800781 15.484375 C 40.621094 12.609375 44.34375 11.214844 48.183594 11.214844 C 53.59375 11.214844 58.429688 13.945312 63.101562 16.585938 C 67.175781 18.890625 71.023438 21.0625 74.890625 21.0625 C 78.761719 21.0625 82.609375 18.890625 86.679688 16.585938 C 91.355469 13.945312 96.1875 11.214844 101.601562 11.214844 C 105.441406 11.214844 109.164062 12.609375 112.984375 15.484375 C 116.445312 18.089844 118.535156 22.039062 119.191406 27.226562 C 119.746094 31.601562 119.304688 36.847656 117.878906 42.8125 C 115.457031 52.957031 110.996094 61.699219 110.785156 62.109375 C 110.316406 62.984375 103.179688 76.703125 110.332031 92.515625 C 116.617188 106.410156 114.03125 123.214844 108.40625 131.972656 C 106.402344 135.097656 103.011719 138.824219 98.253906 138.824219"/></clipPath><clipPath id="i"><path d="M 39.394531 35.269531 L 110.316406 35.269531 L 110.316406 137.484375 L 39.394531 137.484375 Z M 39.394531 35.269531"/></clipPath><clipPath id="j"><path d="M 74.890625 90.839844 C 80.953125 90.839844 89.050781 93.058594 93.1875 103.632812 C 95.613281 109.835938 96.09375 117.464844 96.515625 124.199219 C 96.746094 127.84375 96.726562 131.34375 96.726562 133.800781 C 96.726562 136.820312 97.820312 137.484375 98.484375 137.484375 C 101.640625 137.484375 104.125 134.203125 105.335938 132.320312 C 110.507812 124.265625 112.546875 108.617188 107.003906 96.363281 C 107.003906 96.363281 99.003906 68.476562 105.539062 51.917969 C 112.070312 35.359375 99.804688 32.023438 91.78125 38.808594 C 83.574219 45.75 78.804688 47.390625 74.890625 47.390625 C 70.980469 47.390625 66.210938 45.75 58 38.808594 C 49.976562 32.023438 37.710938 35.359375 44.246094 51.917969 C 50.78125 68.476562 42.78125 96.363281 42.78125 96.363281 C 37.238281 108.617188 39.273438 124.265625 44.449219 132.320312 C 45.65625 134.203125 48.140625 137.484375 51.296875 137.484375 C 51.960938 137.484375 53.058594 136.820312 53.058594 133.800781 C 53.058594 131.34375 53.035156 127.84375 53.265625 124.199219 C 53.691406 117.464844 54.171875 109.835938 56.597656 103.632812 C 60.734375 93.058594 68.828125 90.839844 74.890625 90.839844 Z M 74.890625 90.839844"/></clipPath><clipPath id="k"><path d="M 74.890625 90.839844 C 80.953125 90.839844 89.050781 93.058594 93.1875 103.632812 C 95.613281 109.835938 96.09375 117.464844 96.515625 124.199219 C 96.746094 127.84375 96.726562 131.34375 96.726562 133.800781 C 96.726562 136.820312 97.820312 137.484375 98.484375 137.484375 C 101.640625 137.484375 104.125 134.203125 105.335938 132.320312 C 110.507812 124.265625 112.546875 108.617188 107.003906 96.363281 C 107.003906 96.363281 99.003906 68.476562 105.539062 51.917969 C 112.070312 35.359375 99.804688 32.023438 91.78125 38.808594 C 83.574219 45.75 78.804688 47.390625 74.890625 47.390625 C 70.980469 47.390625 66.210938 45.75 58 38.808594 C 49.976562 32.023438 37.710938 35.359375 44.246094 51.917969 C 50.78125 68.476562 42.78125 96.363281 42.78125 96.363281 C 37.238281 108.617188 39.273438 124.265625 44.449219 132.320312 C 45.65625 134.203125 48.140625 137.484375 51.296875 137.484375 C 51.960938 137.484375 53.058594 136.820312 53.058594 133.800781 C 53.058594 131.34375 53.035156 127.84375 53.265625 124.199219 C 53.691406 117.464844 54.171875 109.835938 56.597656 103.632812 C 60.734375 93.058594 68.828125 90.839844 74.890625 90.839844"/></clipPath><clipPath id="m"><path d="M 40.167969 36.238281 L 109.800781 36.238281 L 109.800781 136.75 L 40.167969 136.75 Z M 40.167969 36.238281"/></clipPath><clipPath id="n"><path d="M 98.484375 136.75 C 98.070312 136.75 97.457031 135.964844 97.457031 133.800781 L 97.457031 133.199219 C 97.457031 130.808594 97.460938 127.53125 97.246094 124.152344 C 96.820312 117.367188 96.332031 109.675781 93.867188 103.367188 C 89.578125 92.40625 81.179688 90.105469 74.890625 90.105469 C 68.601562 90.105469 60.203125 92.40625 55.917969 103.367188 C 53.449219 109.675781 52.964844 117.367188 52.535156 124.152344 C 52.320312 127.53125 52.324219 130.808594 52.324219 133.199219 L 52.324219 133.800781 C 52.324219 135.964844 51.710938 136.75 51.296875 136.75 C 48.707031 136.75 46.476562 134.125 45.0625 131.921875 C 39.996094 124.035156 38.003906 108.691406 43.445312 96.667969 L 43.46875 96.617188 L 43.480469 96.566406 C 43.8125 95.417969 51.476562 68.246094 44.925781 51.648438 C 42.738281 46.109375 42.550781 41.5625 44.386719 38.847656 C 45.527344 37.164062 47.4375 36.238281 49.761719 36.238281 C 52.34375 36.238281 55.175781 37.378906 57.53125 39.371094 C 64.785156 45.503906 69.976562 48.121094 74.890625 48.121094 C 79.804688 48.121094 85 45.503906 92.253906 39.371094 C 94.605469 37.378906 97.4375 36.238281 100.023438 36.238281 C 102.347656 36.238281 104.253906 37.164062 105.394531 38.847656 C 107.234375 41.5625 107.042969 46.109375 104.859375 51.648438 C 98.308594 68.246094 105.972656 95.417969 106.300781 96.566406 L 106.316406 96.617188 L 106.335938 96.667969 C 111.777344 108.691406 109.785156 124.035156 104.71875 131.921875 C 103.304688 134.125 101.078125 136.75 98.484375 136.75 Z M 98.484375 136.75"/></clipPath><clipPath id="o"><path d="M 98.484375 136.75 C 98.070312 136.75 97.457031 135.964844 97.457031 133.800781 L 97.457031 133.199219 C 97.457031 130.808594 97.460938 127.53125 97.246094 124.152344 C 96.820312 117.367188 96.332031 109.675781 93.867188 103.367188 C 89.578125 92.40625 81.179688 90.105469 74.890625 90.105469 C 68.601562 90.105469 60.203125 92.40625 55.917969 103.367188 C 53.449219 109.675781 52.964844 117.367188 52.535156 124.152344 C 52.320312 127.53125 52.324219 130.808594 52.324219 133.199219 L 52.324219 133.800781 C 52.324219 135.964844 51.710938 136.75 51.296875 136.75 C 48.707031 136.75 46.476562 134.125 45.0625 131.921875 C 39.996094 124.035156 38.003906 108.691406 43.445312 96.667969 L 43.46875 96.617188 L 43.480469 96.566406 C 43.8125 95.417969 51.476562 68.246094 44.925781 51.648438 C 42.738281 46.109375 42.550781 41.5625 44.386719 38.847656 C 45.527344 37.164062 47.4375 36.238281 49.761719 36.238281 C 52.34375 36.238281 55.175781 37.378906 57.53125 39.371094 C 64.785156 45.503906 69.976562 48.121094 74.890625 48.121094 C 79.804688 48.121094 85 45.503906 92.253906 39.371094 C 94.605469 37.378906 97.4375 36.238281 100.023438 36.238281 C 102.347656 36.238281 104.253906 37.164062 105.394531 38.847656 C 107.234375 41.5625 107.042969 46.109375 104.859375 51.648438 C 98.308594 68.246094 105.972656 95.417969 106.300781 96.566406 L 106.316406 96.617188 L 106.335938 96.667969 C 111.777344 108.691406 109.785156 124.035156 104.71875 131.921875 C 103.304688 134.125 101.078125 136.75 98.484375 136.75"/></clipPath><clipPath id="q"><path d="M 42.746094 47.726562 L 107 47.726562 L 107 136.015625 L 42.746094 136.015625 Z M 42.746094 47.726562"/></clipPath><clipPath id="r"><path d="M 74.890625 89.371094 C 81.410156 89.371094 90.109375 91.753906 94.546875 103.097656 C 97.054688 109.511719 97.546875 117.265625 97.976562 124.105469 C 98.191406 127.507812 98.1875 133.800781 98.1875 133.800781 C 98.1875 135.332031 98.121094 136.015625 98.613281 136.015625 C 100.34375 135.941406 101.046875 134.597656 102.613281 131.683594 C 106.96875 123.601562 109.371094 108.457031 103.40625 96.96875 C 99.304688 89.070312 93.558594 79.046875 99.980469 62.132812 C 101.667969 57.691406 102.292969 52.523438 100.59375 50.015625 C 99.59375 48.539062 97.902344 47.726562 95.824219 47.726562 C 93.410156 47.726562 90.75 48.804688 88.527344 50.683594 C 81.128906 56.941406 80.605469 66.960938 74.890625 66.960938 C 69.175781 66.960938 68.652344 56.941406 61.253906 50.683594 C 59.03125 48.804688 56.371094 47.726562 53.957031 47.726562 C 51.882812 47.726562 50.1875 48.539062 49.1875 50.015625 C 47.492188 52.523438 48.113281 57.691406 49.800781 62.132812 C 56.226562 79.046875 50.480469 89.070312 46.375 96.96875 C 40.410156 108.457031 42.8125 123.601562 47.167969 131.683594 C 48.738281 134.597656 49.4375 135.941406 51.171875 136.015625 C 51.664062 136.015625 51.597656 135.332031 51.597656 133.800781 C 51.597656 133.800781 51.589844 127.507812 51.804688 124.105469 C 52.238281 117.265625 52.726562 109.511719 55.234375 103.097656 C 59.675781 91.753906 68.375 89.371094 74.890625 89.371094 Z M 74.890625 89.371094"/></clipPath><clipPath id="s"><path d="M 74.890625 89.371094 C 81.410156 89.371094 90.109375 91.753906 94.546875 103.097656 C 97.054688 109.511719 97.546875 117.265625 97.976562 124.105469 C 98.191406 127.507812 98.1875 133.800781 98.1875 133.800781 C 98.1875 135.332031 98.121094 136.015625 98.613281 136.015625 C 100.34375 135.941406 101.046875 134.597656 102.613281 131.683594 C 106.96875 123.601562 109.371094 108.457031 103.40625 96.96875 C 99.304688 89.070312 93.558594 79.046875 99.980469 62.132812 C 101.667969 57.691406 102.292969 52.523438 100.59375 50.015625 C 99.59375 48.539062 97.902344 47.726562 95.824219 47.726562 C 93.410156 47.726562 90.75 48.804688 88.527344 50.683594 C 81.128906 56.941406 80.605469 66.960938 74.890625 66.960938 C 69.175781 66.960938 68.652344 56.941406 61.253906 50.683594 C 59.03125 48.804688 56.371094 47.726562 53.957031 47.726562 C 51.882812 47.726562 50.1875 48.539062 49.1875 50.015625 C 47.492188 52.523438 48.113281 57.691406 49.800781 62.132812 C 56.226562 79.046875 50.480469 89.070312 46.375 96.96875 C 40.410156 108.457031 42.8125 123.601562 47.167969 131.683594 C 48.738281 134.597656 49.4375 135.941406 51.171875 136.015625 C 51.664062 136.015625 51.597656 135.332031 51.597656 133.800781 C 51.597656 133.800781 51.589844 127.507812 51.804688 124.105469 C 52.238281 117.265625 52.726562 109.511719 55.234375 103.097656 C 59.675781 91.753906 68.375 89.371094 74.890625 89.371094"/></clipPath><clipPath id="u"><path d="M 43.519531 48.460938 L 106.449219 48.460938 L 106.449219 135.238281 L 43.519531 135.238281 Z M 43.519531 48.460938"/></clipPath><clipPath id="v"><path d="M 98.925781 135.238281 C 98.914062 134.992188 98.914062 134.632812 98.917969 134.300781 C 98.917969 134.144531 98.917969 133.976562 98.917969 133.800781 C 98.917969 133.738281 98.921875 127.449219 98.707031 124.058594 C 98.273438 117.164062 97.78125 109.351562 95.226562 102.832031 C 90.640625 91.101562 81.636719 88.640625 74.890625 88.640625 C 68.148438 88.640625 59.144531 91.101562 54.554688 102.832031 C 52.003906 109.351562 51.511719 117.164062 51.074219 124.058594 C 50.863281 127.449219 50.863281 133.738281 50.863281 133.800781 C 50.863281 133.976562 50.867188 134.144531 50.867188 134.300781 C 50.867188 134.632812 50.871094 134.992188 50.855469 135.238281 C 49.847656 135.03125 49.269531 134.039062 47.878906 131.457031 L 47.8125 131.335938 C 43.253906 122.878906 41.429688 108.082031 47.023438 97.308594 L 47.433594 96.523438 C 51.613281 88.511719 56.816406 78.535156 50.484375 61.871094 C 48.699219 57.167969 48.414062 52.460938 49.792969 50.425781 C 50.652344 49.160156 52.132812 48.460938 53.957031 48.460938 C 56.203125 48.460938 58.691406 49.476562 60.785156 51.246094 C 64.0625 54.015625 65.941406 57.546875 67.601562 60.660156 C 69.613281 64.433594 71.351562 67.695312 74.890625 67.695312 C 78.429688 67.695312 80.167969 64.433594 82.179688 60.660156 C 83.839844 57.546875 85.722656 54.015625 89 51.246094 C 91.09375 49.476562 93.582031 48.460938 95.824219 48.460938 C 97.652344 48.460938 99.128906 49.160156 99.988281 50.425781 C 101.367188 52.460938 101.085938 57.167969 99.296875 61.871094 C 92.96875 78.535156 98.171875 88.511719 102.347656 96.523438 L 102.757812 97.308594 C 108.351562 108.082031 106.527344 122.878906 101.972656 131.335938 L 101.90625 131.457031 C 100.515625 134.039062 99.933594 135.03125 98.925781 135.238281 Z M 98.925781 135.238281"/></clipPath><clipPath id="w"><path d="M 98.925781 135.238281 C 98.914062 134.992188 98.914062 134.632812 98.917969 134.300781 C 98.917969 134.144531 98.917969 133.976562 98.917969 133.800781 C 98.917969 133.738281 98.921875 127.449219 98.707031 124.058594 C 98.273438 117.164062 97.78125 109.351562 95.226562 102.832031 C 90.640625 91.101562 81.636719 88.640625 74.890625 88.640625 C 68.148438 88.640625 59.144531 91.101562 54.554688 102.832031 C 52.003906 109.351562 51.511719 117.164062 51.074219 124.058594 C 50.863281 127.449219 50.863281 133.738281 50.863281 133.800781 C 50.863281 133.976562 50.867188 134.144531 50.867188 134.300781 C 50.867188 134.632812 50.871094 134.992188 50.855469 135.238281 C 49.847656 135.03125 49.269531 134.039062 47.878906 131.457031 L 47.8125 131.335938 C 43.253906 122.878906 41.429688 108.082031 47.023438 97.308594 L 47.433594 96.523438 C 51.613281 88.511719 56.816406 78.535156 50.484375 61.871094 C 48.699219 57.167969 48.414062 52.460938 49.792969 50.425781 C 50.652344 49.160156 52.132812 48.460938 53.957031 48.460938 C 56.203125 48.460938 58.691406 49.476562 60.785156 51.246094 C 64.0625 54.015625 65.941406 57.546875 67.601562 60.660156 C 69.613281 64.433594 71.351562 67.695312 74.890625 67.695312 C 78.429688 67.695312 80.167969 64.433594 82.179688 60.660156 C 83.839844 57.546875 85.722656 54.015625 89 51.246094 C 91.09375 49.476562 93.582031 48.460938 95.824219 48.460938 C 97.652344 48.460938 99.128906 49.160156 99.988281 50.425781 C 101.367188 52.460938 101.085938 57.167969 99.296875 61.871094 C 92.96875 78.535156 98.171875 88.511719 102.347656 96.523438 L 102.757812 97.308594 C 108.351562 108.082031 106.527344 122.878906 101.972656 131.335938 L 101.90625 131.457031 C 100.515625 134.039062 99.933594 135.03125 98.925781 135.238281"/></clipPath><linearGradient x1="0" gradientTransform="matrix(0 -132.0093 131.5911 0 74.891 141.023)" xmlns:xlink="http://www.w3.org/1999/xlink" y1="0" x2="1" gradientUnits="userSpaceOnUse" y2="0" xlink:type="simple" xlink:actuate="onLoad" id="d" xlink:show="other"><stop stop-color="#FCFCFC" offset="0"/><stop stop-color="#FBFBFB" offset=".031"/><stop stop-color="#FBFBFB" offset=".047"/><stop stop-color="#FAFAFA" offset=".063"/><stop stop-color="#FAFAFA" offset=".078"/><stop stop-color="#F9F9F9" offset=".094"/><stop stop-color="#F8F8F8" offset=".125"/><stop stop-color="#F7F7F7" offset=".141"/><stop stop-color="#F6F6F6" offset=".156"/><stop stop-color="#F6F5F6" offset=".172"/><stop stop-color="#F5F5F5" offset=".188"/><stop stop-color="#F4F4F4" offset=".203"/><stop stop-color="#F4F3F3" offset=".219"/><stop stop-color="#F3F3F3" offset=".234"/><stop stop-color="#F2F2F2" offset=".25"/><stop stop-color="#F2F1F1" offset=".281"/><stop stop-color="#F1F1F1" offset=".297"/><stop stop-color="#F0F0F0" offset=".313"/><stop stop-color="#F0EFEF" offset=".328"/><stop stop-color="#EFEFEF" offset=".344"/><stop stop-color="#EEE" offset=".359"/><stop stop-color="#EDEDED" offset=".375"/><stop stop-color="#EDECED" offset=".391"/><stop stop-color="#ECECEC" offset=".406"/><stop stop-color="#EBEBEB" offset=".422"/><stop stop-color="#EBEAEA" offset=".438"/><stop stop-color="#EAEAEA" offset=".453"/><stop stop-color="#E9E9E9" offset=".469"/><stop stop-color="#E9E8E8" offset=".484"/><stop stop-color="#E8E8E8" offset=".5"/><stop stop-color="#E7E7E7" offset=".516"/><stop stop-color="#E7E6E6" offset=".531"/><stop stop-color="#E7E6E6" offset=".547"/><stop stop-color="#E6E5E6" offset=".563"/><stop stop-color="#E5E5E5" offset=".578"/><stop stop-color="#E5E4E4" offset=".594"/><stop stop-color="#E4E3E4" offset=".609"/><stop stop-color="#E3E3E3" offset=".625"/><stop stop-color="#E3E2E2" offset=".641"/><stop stop-color="#E2E1E1" offset=".656"/><stop stop-color="#E1E1E1" offset=".672"/><stop stop-color="#E0E0E0" offset=".688"/><stop stop-color="#E0DFDF" offset=".703"/><stop stop-color="#DFDFDF" offset=".719"/><stop stop-color="#DEDEDE" offset=".734"/><stop stop-color="#DEDDDD" offset=".75"/><stop stop-color="#DDDCDD" offset=".766"/><stop stop-color="#DDDCDC" offset=".781"/><stop stop-color="#DCDCDC" offset=".797"/><stop stop-color="#DCDBDB" offset=".813"/><stop stop-color="#DBDADB" offset=".828"/><stop stop-color="#DADADA" offset=".844"/><stop stop-color="#DAD9D9" offset=".859"/><stop stop-color="#D9D8D8" offset=".875"/><stop stop-color="#D8D8D8" offset=".891"/><stop stop-color="#D8D7D7" offset=".906"/><stop stop-color="#D7D6D6" offset=".922"/><stop stop-color="#D6D5D6" offset=".938"/><stop stop-color="#D6D5D5" offset=".953"/><stop stop-color="#D5D4D4" offset=".969"/><stop stop-color="#D4D3D4" offset=".984"/><stop stop-color="#D3D3D3" offset="1"/></linearGradient><linearGradient x1="0" gradientTransform="matrix(0 -127.60896 127.20469 0 74.882 138.822)" xmlns:xlink="http://www.w3.org/1999/xlink" y1="0" x2="1" gradientUnits="userSpaceOnUse" y2="0" xlink:type="simple" xlink:actuate="onLoad" id="h" xlink:show="other"><stop stop-color="#D3D2D2" offset="0"/><stop stop-color="#D3D2D2" offset=".016"/><stop stop-color="#D3D3D3" offset=".023"/><stop stop-color="#D4D3D3" offset=".031"/><stop stop-color="#D4D3D3" offset=".047"/><stop stop-color="#D5D4D4" offset=".063"/><stop stop-color="#D5D4D5" offset=".07"/><stop stop-color="#D6D5D5" offset=".078"/><stop stop-color="#D6D5D5" offset=".094"/><stop stop-color="#D7D6D6" offset=".102"/><stop stop-color="#D7D6D7" offset=".109"/><stop stop-color="#D7D6D7" offset=".125"/><stop stop-color="#D8D7D7" offset=".141"/><stop stop-color="#D8D8D8" offset=".148"/><stop stop-color="#D9D8D9" offset=".156"/><stop stop-color="#DAD8D9" offset=".172"/><stop stop-color="#DAD9D9" offset=".188"/><stop stop-color="#DADADA" offset=".195"/><stop stop-color="#DBDADB" offset=".203"/><stop stop-color="#DCDBDB" offset=".219"/><stop stop-color="#DCDBDB" offset=".227"/><stop stop-color="#DCDCDC" offset=".234"/><stop stop-color="#DDDCDD" offset=".25"/><stop stop-color="#DEDDDD" offset=".266"/><stop stop-color="#DEDDDD" offset=".273"/><stop stop-color="#DEDEDE" offset=".281"/><stop stop-color="#DFDEDE" offset=".297"/><stop stop-color="#DFDFDF" offset=".313"/><stop stop-color="#E0DFDF" offset=".328"/><stop stop-color="#E0E0E0" offset=".344"/><stop stop-color="#E1E0E0" offset=".352"/><stop stop-color="#E1E1E1" offset=".359"/><stop stop-color="#E1E1E1" offset=".375"/><stop stop-color="#E2E2E2" offset=".391"/><stop stop-color="#E3E2E2" offset=".398"/><stop stop-color="#E3E3E3" offset=".406"/><stop stop-color="#E3E3E3" offset=".422"/><stop stop-color="#E4E4E4" offset=".438"/><stop stop-color="#E5E4E4" offset=".445"/><stop stop-color="#E5E5E5" offset=".453"/><stop stop-color="#E5E5E5" offset=".469"/><stop stop-color="#E6E6E6" offset=".477"/><stop stop-color="#E7E6E6" offset=".484"/><stop stop-color="#E7E7E7" offset=".5"/><stop stop-color="#E8E7E8" offset=".516"/><stop stop-color="#E8E7E8" offset=".523"/><stop stop-color="#E9E8E8" offset=".531"/><stop stop-color="#E9E9E9" offset=".547"/><stop stop-color="#EAE9EA" offset=".563"/><stop stop-color="#EAE9EA" offset=".57"/><stop stop-color="#EAEAEA" offset=".578"/><stop stop-color="#EBEBEB" offset=".594"/><stop stop-color="#EBEBEB" offset=".625"/><stop stop-color="#ECECEC" offset=".641"/><stop stop-color="#EDEDED" offset=".648"/><stop stop-color="#EEEDED" offset=".656"/><stop stop-color="#EEEDED" offset=".672"/><stop stop-color="#EEE" offset=".688"/><stop stop-color="#EFEFEF" offset=".695"/><stop stop-color="#F0EFEF" offset=".703"/><stop stop-color="#F0EFEF" offset=".719"/><stop stop-color="#F0F0F0" offset=".727"/><stop stop-color="#F1F1F1" offset=".734"/><stop stop-color="#F1F1F1" offset=".75"/><stop stop-color="#F2F1F1" offset=".766"/><stop stop-color="#F2F2F2" offset=".773"/><stop stop-color="#F3F3F3" offset=".781"/><stop stop-color="#F4F4F4" offset=".813"/><stop stop-color="#F4F4F4" offset=".82"/><stop stop-color="#F5F5F5" offset=".828"/><stop stop-color="#F5F5F5" offset=".844"/><stop stop-color="#F5F5F5" offset=".852"/><stop stop-color="#F6F6F6" offset=".859"/><stop stop-color="#F7F7F7" offset=".875"/><stop stop-color="#F7F7F7" offset=".891"/><stop stop-color="#F7F7F7" offset=".898"/><stop stop-color="#F8F8F8" offset=".906"/><stop stop-color="#F9F9F9" offset=".938"/><stop stop-color="#F9F9F9" offset=".945"/><stop stop-color="#FAFAFA" offset=".953"/><stop stop-color="#FAFAFA" offset=".969"/><stop stop-color="#FBFAFA" offset=".977"/><stop stop-color="#FBFBFB" offset=".984"/><stop stop-color="#FBFBFB" offset="1"/></linearGradient><linearGradient x1="0" gradientTransform="matrix(0 -101.97789 101.65481 0 74.891 137.484)" xmlns:xlink="http://www.w3.org/1999/xlink" y1="0" x2="1.002" gradientUnits="userSpaceOnUse" y2="0" xlink:type="simple" xlink:actuate="onLoad" id="l" xlink:show="other"><stop stop-color="#F08695" offset="0"/><stop stop-color="#F08694" offset=".031"/><stop stop-color="#F08593" offset=".047"/><stop stop-color="#F08493" offset=".063"/><stop stop-color="#F08493" offset=".078"/><stop stop-color="#EF8392" offset=".094"/><stop stop-color="#EF8291" offset=".102"/><stop stop-color="#EF8191" offset=".109"/><stop stop-color="#EF8190" offset=".125"/><stop stop-color="#EF8190" offset=".141"/><stop stop-color="#EF808F" offset=".148"/><stop stop-color="#EF808F" offset=".156"/><stop stop-color="#EF7F8E" offset=".172"/><stop stop-color="#EE7E8D" offset=".188"/><stop stop-color="#EE7D8D" offset=".203"/><stop stop-color="#EE7D8C" offset=".219"/><stop stop-color="#EE7C8B" offset=".227"/><stop stop-color="#EE7C8B" offset=".234"/><stop stop-color="#EE7B8A" offset=".25"/><stop stop-color="#EE7A8A" offset=".266"/><stop stop-color="#ED7A89" offset=".281"/><stop stop-color="#ED7988" offset=".289"/><stop stop-color="#ED7988" offset=".297"/><stop stop-color="#ED7887" offset=".313"/><stop stop-color="#ED7787" offset=".328"/><stop stop-color="#ED7786" offset=".344"/><stop stop-color="#EC7685" offset=".359"/><stop stop-color="#EC7685" offset=".367"/><stop stop-color="#EC7585" offset=".375"/><stop stop-color="#EC7484" offset=".391"/><stop stop-color="#EC7483" offset=".406"/><stop stop-color="#EC7483" offset=".414"/><stop stop-color="#EC7383" offset=".422"/><stop stop-color="#EC7282" offset=".438"/><stop stop-color="#EB7181" offset=".453"/><stop stop-color="#EB7180" offset=".469"/><stop stop-color="#EB7080" offset=".484"/><stop stop-color="#EB7080" offset=".492"/><stop stop-color="#EB6F7F" offset=".5"/><stop stop-color="#EB6E7E" offset=".531"/><stop stop-color="#EB6D7D" offset=".547"/><stop stop-color="#EA6D7D" offset=".563"/><stop stop-color="#EA6C7C" offset=".594"/><stop stop-color="#EA6B7B" offset=".609"/><stop stop-color="#EA6A7A" offset=".617"/><stop stop-color="#EA6A7A" offset=".625"/><stop stop-color="#EA697A" offset=".641"/><stop stop-color="#E96979" offset=".656"/><stop stop-color="#E96878" offset=".664"/><stop stop-color="#E96878" offset=".672"/><stop stop-color="#E96778" offset=".688"/><stop stop-color="#E96677" offset=".703"/><stop stop-color="#E96676" offset=".719"/><stop stop-color="#E96576" offset=".734"/><stop stop-color="#E86475" offset=".75"/><stop stop-color="#E86475" offset=".766"/><stop stop-color="#E86374" offset=".781"/><stop stop-color="#E86273" offset=".797"/><stop stop-color="#E86173" offset=".813"/><stop stop-color="#E86172" offset=".828"/><stop stop-color="#E76071" offset=".844"/><stop stop-color="#E75F71" offset=".859"/><stop stop-color="#E75F70" offset=".875"/><stop stop-color="#E75F70" offset=".883"/><stop stop-color="#E75E70" offset=".891"/><stop stop-color="#E75D6F" offset=".906"/><stop stop-color="#E75C6E" offset=".938"/><stop stop-color="#E65B6D" offset=".953"/><stop stop-color="#E65A6C" offset=".969"/><stop stop-color="#E65A6C" offset=".984"/><stop stop-color="#E6596C" offset="1"/></linearGradient><linearGradient x1="0" gradientTransform="matrix(0 -100.51119 100.19276 0 74.891 136.75)" xmlns:xlink="http://www.w3.org/1999/xlink" y1="0" x2="1" gradientUnits="userSpaceOnUse" y2="0" xlink:type="simple" xlink:actuate="onLoad" id="p" xlink:show="other"><stop stop-color="#E6596B" offset="0"/><stop stop-color="#E6596B" offset=".016"/><stop stop-color="#E6596B" offset=".023"/><stop stop-color="#E65A6C" offset=".031"/><stop stop-color="#E65B6D" offset=".063"/><stop stop-color="#E65B6D" offset=".07"/><stop stop-color="#E75C6E" offset=".078"/><stop stop-color="#E75C6E" offset=".094"/><stop stop-color="#E75C6E" offset=".102"/><stop stop-color="#E75D6F" offset=".109"/><stop stop-color="#E75E6F" offset=".125"/><stop stop-color="#E75E6F" offset=".141"/><stop stop-color="#E75E70" offset=".148"/><stop stop-color="#E75F71" offset=".156"/><stop stop-color="#E86071" offset=".188"/><stop stop-color="#E86072" offset=".195"/><stop stop-color="#E86172" offset=".203"/><stop stop-color="#E86172" offset=".219"/><stop stop-color="#E86273" offset=".227"/><stop stop-color="#E86374" offset=".234"/><stop stop-color="#E86374" offset=".25"/><stop stop-color="#E86375" offset=".266"/><stop stop-color="#E86475" offset=".273"/><stop stop-color="#E96575" offset=".281"/><stop stop-color="#E96576" offset=".297"/><stop stop-color="#E96577" offset=".313"/><stop stop-color="#E96677" offset=".32"/><stop stop-color="#E96777" offset=".328"/><stop stop-color="#E96778" offset=".344"/><stop stop-color="#E96778" offset=".352"/><stop stop-color="#E96879" offset=".359"/><stop stop-color="#EA6979" offset=".375"/><stop stop-color="#EA6A79" offset=".391"/><stop stop-color="#EA6A7A" offset=".398"/><stop stop-color="#EA6A7B" offset=".406"/><stop stop-color="#EA6B7B" offset=".422"/><stop stop-color="#EA6C7B" offset=".438"/><stop stop-color="#EA6C7C" offset=".453"/><stop stop-color="#EA6C7C" offset=".469"/><stop stop-color="#EA6D7D" offset=".477"/><stop stop-color="#EB6E7E" offset=".484"/><stop stop-color="#EB6E7E" offset=".5"/><stop stop-color="#EB6F7E" offset=".516"/><stop stop-color="#EB6F7F" offset=".523"/><stop stop-color="#EB7080" offset=".531"/><stop stop-color="#EB7080" offset=".547"/><stop stop-color="#EB7181" offset=".563"/><stop stop-color="#EB7181" offset=".57"/><stop stop-color="#EC7282" offset=".578"/><stop stop-color="#EC7282" offset=".594"/><stop stop-color="#EC7382" offset=".602"/><stop stop-color="#EC7483" offset=".609"/><stop stop-color="#EC7484" offset=".625"/><stop stop-color="#EC7584" offset=".641"/><stop stop-color="#EC7584" offset=".648"/><stop stop-color="#EC7685" offset=".656"/><stop stop-color="#EC7685" offset=".672"/><stop stop-color="#ED7786" offset=".688"/><stop stop-color="#ED7787" offset=".695"/><stop stop-color="#ED7887" offset=".703"/><stop stop-color="#ED7987" offset=".719"/><stop stop-color="#ED7988" offset=".727"/><stop stop-color="#ED7989" offset=".734"/><stop stop-color="#ED7A89" offset=".75"/><stop stop-color="#ED7A89" offset=".766"/><stop stop-color="#EE7B8A" offset=".773"/><stop stop-color="#EE7C8B" offset=".781"/><stop stop-color="#EE7C8B" offset=".813"/><stop stop-color="#EE7D8C" offset=".82"/><stop stop-color="#EE7E8D" offset=".828"/><stop stop-color="#EE7E8E" offset=".844"/><stop stop-color="#EE7F8E" offset=".852"/><stop stop-color="#EF7F8E" offset=".859"/><stop stop-color="#EF808F" offset=".875"/><stop stop-color="#EF8190" offset=".891"/><stop stop-color="#EF8190" offset=".898"/><stop stop-color="#EF8191" offset=".906"/><stop stop-color="#EF8291" offset=".922"/><stop stop-color="#EF8392" offset=".938"/><stop stop-color="#EF8392" offset=".945"/><stop stop-color="#F08493" offset=".953"/><stop stop-color="#F08493" offset=".969"/><stop stop-color="#F08493" offset=".977"/><stop stop-color="#F08594" offset=".984"/><stop stop-color="#F08594" offset="1"/></linearGradient><linearGradient x1="0" gradientTransform="matrix(0 -88.28683 88.00713 0 74.891 136.014)" xmlns:xlink="http://www.w3.org/1999/xlink" y1="0" x2="1" gradientUnits="userSpaceOnUse" y2="0" xlink:type="simple" xlink:actuate="onLoad" id="t" xlink:show="other"><stop stop-color="#F9ABD3" offset="0"/><stop stop-color="#F9ABD3" offset=".016"/><stop stop-color="#F9ABD3" offset=".023"/><stop stop-color="#F9AAD3" offset=".031"/><stop stop-color="#F9AAD2" offset=".047"/><stop stop-color="#F9A9D2" offset=".063"/><stop stop-color="#F8A8D1" offset=".078"/><stop stop-color="#F8A8D1" offset=".094"/><stop stop-color="#F8A7D1" offset=".102"/><stop stop-color="#F8A6D0" offset=".109"/><stop stop-color="#F8A5D0" offset=".125"/><stop stop-color="#F8A4D0" offset=".141"/><stop stop-color="#F8A4CF" offset=".148"/><stop stop-color="#F8A3CF" offset=".156"/><stop stop-color="#F8A2CF" offset=".172"/><stop stop-color="#F8A1CE" offset=".188"/><stop stop-color="#F8A1CD" offset=".195"/><stop stop-color="#F8A0CD" offset=".203"/><stop stop-color="#F8A0CD" offset=".219"/><stop stop-color="#F89FCD" offset=".234"/><stop stop-color="#F89FCC" offset=".25"/><stop stop-color="#F89ECB" offset=".266"/><stop stop-color="#F89DCB" offset=".273"/><stop stop-color="#F89CCB" offset=".281"/><stop stop-color="#F89CCA" offset=".297"/><stop stop-color="#F89BCA" offset=".313"/><stop stop-color="#F79ACA" offset=".32"/><stop stop-color="#F799C9" offset=".328"/><stop stop-color="#F798C9" offset=".344"/><stop stop-color="#F798C9" offset=".352"/><stop stop-color="#F797C8" offset=".359"/><stop stop-color="#F796C8" offset=".375"/><stop stop-color="#F796C8" offset=".391"/><stop stop-color="#F795C7" offset=".406"/><stop stop-color="#F794C6" offset=".422"/><stop stop-color="#F793C6" offset=".438"/><stop stop-color="#F793C6" offset=".453"/><stop stop-color="#F792C5" offset=".469"/><stop stop-color="#F791C5" offset=".477"/><stop stop-color="#F790C5" offset=".484"/><stop stop-color="#F790C5" offset=".5"/><stop stop-color="#F78FC4" offset=".516"/><stop stop-color="#F78EC3" offset=".523"/><stop stop-color="#F78DC3" offset=".531"/><stop stop-color="#F78DC3" offset=".563"/><stop stop-color="#F68CC2" offset=".57"/><stop stop-color="#F68BC2" offset=".578"/><stop stop-color="#F68AC2" offset=".594"/><stop stop-color="#F68AC1" offset=".602"/><stop stop-color="#F689C1" offset=".609"/><stop stop-color="#F688C1" offset=".625"/><stop stop-color="#F687C0" offset=".641"/><stop stop-color="#F687C0" offset=".648"/><stop stop-color="#F686BF" offset=".656"/><stop stop-color="#F685BE" offset=".688"/><stop stop-color="#F685BE" offset=".695"/><stop stop-color="#F684BE" offset=".703"/><stop stop-color="#F684BD" offset=".719"/><stop stop-color="#F683BD" offset=".734"/><stop stop-color="#F683BC" offset=".75"/><stop stop-color="#F682BC" offset=".766"/><stop stop-color="#F681BC" offset=".773"/><stop stop-color="#F680BC" offset=".781"/><stop stop-color="#F67FBB" offset=".797"/><stop stop-color="#F57EBB" offset=".813"/><stop stop-color="#F57EBB" offset=".82"/><stop stop-color="#F57DBA" offset=".828"/><stop stop-color="#F57CB9" offset=".844"/><stop stop-color="#F57CB9" offset=".859"/><stop stop-color="#F57BB9" offset=".875"/><stop stop-color="#F57AB8" offset=".891"/><stop stop-color="#F57AB8" offset=".906"/><stop stop-color="#F579B8" offset=".922"/><stop stop-color="#F578B8" offset=".938"/><stop stop-color="#F577B7" offset=".945"/><stop stop-color="#F576B6" offset=".953"/><stop stop-color="#F576B6" offset=".969"/><stop stop-color="#F575B6" offset=".977"/><stop stop-color="#F574B5" offset=".984"/><stop stop-color="#F574B5" offset="1"/></linearGradient><linearGradient x1="0" gradientTransform="matrix(0 -86.77926 86.50434 0 74.891 135.24)" xmlns:xlink="http://www.w3.org/1999/xlink" y1="0" x2="1" gradientUnits="userSpaceOnUse" y2="0" xlink:type="simple" xlink:actuate="onLoad" id="x" xlink:show="other"><stop stop-color="#F13F93" offset="0"/><stop stop-color="#F13F93" offset=".016"/><stop stop-color="#F14094" offset=".02"/><stop stop-color="#F14194" offset=".023"/><stop stop-color="#F14194" offset=".031"/><stop stop-color="#F14294" offset=".039"/><stop stop-color="#F14395" offset=".047"/><stop stop-color="#F14495" offset=".055"/><stop stop-color="#F14596" offset=".063"/><stop stop-color="#F14696" offset=".066"/><stop stop-color="#F14697" offset=".07"/><stop stop-color="#F14797" offset=".078"/><stop stop-color="#F14797" offset=".086"/><stop stop-color="#F14798" offset=".094"/><stop stop-color="#F14898" offset=".102"/><stop stop-color="#F14999" offset=".105"/><stop stop-color="#F14999" offset=".109"/><stop stop-color="#F1499A" offset=".117"/><stop stop-color="#F14A9A" offset=".125"/><stop stop-color="#F24B9A" offset=".133"/><stop stop-color="#F24C9B" offset=".141"/><stop stop-color="#F24E9B" offset=".145"/><stop stop-color="#F24E9B" offset=".148"/><stop stop-color="#F24F9C" offset=".156"/><stop stop-color="#F2509C" offset=".164"/><stop stop-color="#F2519D" offset=".172"/><stop stop-color="#F2529D" offset=".188"/><stop stop-color="#F2529E" offset=".191"/><stop stop-color="#F2539E" offset=".195"/><stop stop-color="#F2539E" offset=".203"/><stop stop-color="#F2549F" offset=".211"/><stop stop-color="#F2559F" offset=".219"/><stop stop-color="#F256A0" offset=".227"/><stop stop-color="#F257A0" offset=".234"/><stop stop-color="#F258A0" offset=".242"/><stop stop-color="#F358A1" offset=".25"/><stop stop-color="#F359A1" offset=".258"/><stop stop-color="#F35AA2" offset=".266"/><stop stop-color="#F35BA2" offset=".27"/><stop stop-color="#F35BA3" offset=".273"/><stop stop-color="#F35CA3" offset=".281"/><stop stop-color="#F35DA3" offset=".289"/><stop stop-color="#F35EA4" offset=".297"/><stop stop-color="#F35EA4" offset=".305"/><stop stop-color="#F35FA5" offset=".313"/><stop stop-color="#F35FA5" offset=".316"/><stop stop-color="#F360A6" offset=".32"/><stop stop-color="#F360A6" offset=".328"/><stop stop-color="#F361A7" offset=".336"/><stop stop-color="#F362A7" offset=".344"/><stop stop-color="#F363A8" offset=".352"/><stop stop-color="#F364A8" offset=".355"/><stop stop-color="#F365A8" offset=".359"/><stop stop-color="#F465A8" offset=".367"/><stop stop-color="#F466A9" offset=".375"/><stop stop-color="#F466AA" offset=".383"/><stop stop-color="#F467AA" offset=".391"/><stop stop-color="#F469AB" offset=".395"/><stop stop-color="#F469AB" offset=".398"/><stop stop-color="#F46AAB" offset=".406"/><stop stop-color="#F46BAB" offset=".414"/><stop stop-color="#F46CAC" offset=".422"/><stop stop-color="#F46CAC" offset=".438"/><stop stop-color="#F46DAD" offset=".441"/><stop stop-color="#F46EAD" offset=".445"/><stop stop-color="#F46EAD" offset=".453"/><stop stop-color="#F46FAE" offset=".461"/><stop stop-color="#F470AE" offset=".469"/><stop stop-color="#F470AF" offset=".477"/><stop stop-color="#F571AF" offset=".48"/><stop stop-color="#F572B0" offset=".484"/><stop stop-color="#F573B0" offset=".492"/><stop stop-color="#F574B1" offset=".5"/><stop stop-color="#F575B1" offset=".508"/><stop stop-color="#F575B1" offset=".516"/><stop stop-color="#F576B2" offset=".52"/><stop stop-color="#F576B2" offset=".523"/><stop stop-color="#F577B3" offset=".531"/><stop stop-color="#F578B3" offset=".539"/><stop stop-color="#F579B4" offset=".547"/><stop stop-color="#F579B5" offset=".555"/><stop stop-color="#F57AB5" offset=".563"/><stop stop-color="#F57BB5" offset=".57"/><stop stop-color="#F57BB6" offset=".578"/><stop stop-color="#F57CB7" offset=".586"/><stop stop-color="#F57DB7" offset=".594"/><stop stop-color="#F57EB8" offset=".602"/><stop stop-color="#F67FB8" offset=".605"/><stop stop-color="#F680B8" offset=".609"/><stop stop-color="#F681B9" offset=".617"/><stop stop-color="#F682B9" offset=".625"/><stop stop-color="#F683BA" offset=".633"/><stop stop-color="#F684BA" offset=".641"/><stop stop-color="#F684BA" offset=".645"/><stop stop-color="#F684BB" offset=".648"/><stop stop-color="#F685BB" offset=".656"/><stop stop-color="#F686BB" offset=".664"/><stop stop-color="#F686BC" offset=".672"/><stop stop-color="#F687BC" offset=".68"/><stop stop-color="#F688BD" offset=".688"/><stop stop-color="#F689BD" offset=".691"/><stop stop-color="#F68ABE" offset=".695"/><stop stop-color="#F68ABE" offset=".703"/><stop stop-color="#F68ABE" offset=".711"/><stop stop-color="#F68BBF" offset=".719"/><stop stop-color="#F68CBF" offset=".727"/><stop stop-color="#F78DC0" offset=".73"/><stop stop-color="#F78DC0" offset=".734"/><stop stop-color="#F78EC1" offset=".742"/><stop stop-color="#F78FC1" offset=".75"/><stop stop-color="#F790C2" offset=".758"/><stop stop-color="#F791C3" offset=".766"/><stop stop-color="#F792C3" offset=".77"/><stop stop-color="#F792C3" offset=".773"/><stop stop-color="#F792C4" offset=".781"/><stop stop-color="#F793C4" offset=".789"/><stop stop-color="#F793C5" offset=".797"/><stop stop-color="#F794C5" offset=".805"/><stop stop-color="#F795C5" offset=".813"/><stop stop-color="#F796C6" offset=".816"/><stop stop-color="#F797C7" offset=".82"/><stop stop-color="#F797C7" offset=".828"/><stop stop-color="#F798C7" offset=".836"/><stop stop-color="#F799C8" offset=".844"/><stop stop-color="#F799C8" offset=".852"/><stop stop-color="#F89BC8" offset=".855"/><stop stop-color="#F89BC9" offset=".859"/><stop stop-color="#F89CC9" offset=".867"/><stop stop-color="#F89DCA" offset=".875"/><stop stop-color="#F89ECA" offset=".883"/><stop stop-color="#F89FCB" offset=".891"/><stop stop-color="#F8A0CC" offset=".898"/><stop stop-color="#F8A0CD" offset=".906"/><stop stop-color="#F8A1CD" offset=".914"/><stop stop-color="#F8A1CE" offset=".922"/><stop stop-color="#F8A2CE" offset=".93"/><stop stop-color="#F8A3CF" offset=".938"/><stop stop-color="#F8A4CF" offset=".941"/><stop stop-color="#F8A5CF" offset=".945"/><stop stop-color="#F8A6D0" offset=".953"/><stop stop-color="#F8A7D0" offset=".961"/><stop stop-color="#F8A8D1" offset=".969"/><stop stop-color="#F8A8D1" offset=".977"/><stop stop-color="#F9A9D2" offset=".98"/><stop stop-color="#F9A9D2" offset=".984"/><stop stop-color="#F9AAD2" offset=".992"/><stop stop-color="#F9ABD3" offset="1"/></linearGradient></defs><g clip-path="url(#a)"><g clip-path="url(#b)"><g clip-path="url(#c)"><path fill="url(#d)" d="M 28.046875 141.007812 L 121.664062 141.007812 L 121.664062 9.007812 L 28.046875 9.007812 Z M 28.046875 141.007812"/></g></g></g><g clip-path="url(#e)"><g clip-path="url(#f)"><g clip-path="url(#g)"><path fill="url(#h)" d="M 30.109375 138.824219 L 119.601562 138.824219 L 119.601562 11.214844 L 30.109375 11.214844 Z M 30.109375 138.824219"/></g></g></g><g clip-path="url(#i)"><g clip-path="url(#j)"><g clip-path="url(#k)"><path fill="url(#l)" d="M 39.394531 137.484375 L 110.316406 137.484375 L 110.316406 35.269531 L 39.394531 35.269531 Z M 39.394531 137.484375"/></g></g></g><g clip-path="url(#m)"><g clip-path="url(#n)"><g clip-path="url(#o)"><path fill="url(#p)" d="M 40.167969 136.75 L 109.800781 136.75 L 109.800781 36.238281 L 40.167969 36.238281 Z M 40.167969 136.75"/></g></g></g><g clip-path="url(#q)"><g clip-path="url(#r)"><g clip-path="url(#s)"><path fill="url(#t)" d="M 42.746094 136.015625 L 107.222656 136.015625 L 107.222656 47.726562 L 42.746094 47.726562 Z M 42.746094 136.015625"/></g></g></g><g clip-path="url(#u)"><g clip-path="url(#v)"><g clip-path="url(#w)"><path fill="url(#x)" d="M 43.519531 135.238281 L 106.449219 135.238281 L 106.449219 48.460938 L 43.519531 48.460938 Z M 43.519531 135.238281"/></g></g></g><path fill="#6EC8F1" d="M 49.960938 133.839844 C 49.878906 133.839844 49.800781 133.800781 49.75 133.726562 C 49.726562 133.695312 47.429688 130.289062 46.292969 125.425781 C 45.238281 120.925781 44.988281 114.21875 49.757812 107.8125 C 56.101562 99.292969 54.371094 89.742188 54.351562 89.648438 C 54.308594 89.414062 53.304688 83.925781 55.847656 80.851562 C 56.9375 79.53125 58.515625 78.863281 60.535156 78.863281 C 67.730469 78.863281 69.167969 72.152344 69.179688 72.085938 C 69.210938 71.945312 69.34375 71.851562 69.484375 71.882812 C 69.625 71.910156 69.714844 72.046875 69.6875 72.1875 C 69.671875 72.257812 68.148438 79.378906 60.535156 79.378906 C 58.675781 79.378906 57.230469 79.984375 56.242188 81.179688 C 53.855469 84.074219 54.847656 89.496094 54.859375 89.550781 C 54.878906 89.648438 56.648438 99.421875 50.167969 108.125 C 41.265625 120.082031 50.085938 133.304688 50.175781 133.4375 C 50.257812 133.554688 50.226562 133.714844 50.109375 133.796875 C 50.0625 133.824219 50.011719 133.839844 49.960938 133.839844"/><path fill="#6EC8F1" d="M 75.238281 87.335938 C 75.21875 87.335938 75.203125 87.332031 75.1875 87.332031 C 75.046875 87.300781 74.957031 87.167969 74.984375 87.027344 C 74.988281 87.003906 75.414062 84.769531 74.226562 83.570312 C 73.492188 82.832031 72.289062 82.617188 70.644531 82.933594 C 68.792969 83.285156 67.257812 83.027344 66.082031 82.164062 C 64.269531 80.832031 63.984375 78.566406 63.972656 78.46875 C 63.957031 78.328125 64.058594 78.199219 64.199219 78.183594 C 64.34375 78.164062 64.46875 78.265625 64.484375 78.410156 C 64.488281 78.429688 64.761719 80.554688 66.390625 81.75 C 67.445312 82.523438 68.84375 82.75 70.546875 82.425781 C 72.371094 82.074219 73.734375 82.339844 74.59375 83.207031 C 75.972656 84.605469 75.511719 87.023438 75.488281 87.128906 C 75.464844 87.25 75.359375 87.335938 75.238281 87.335938"/><path fill="#6EC8F1" d="M 71.242188 78.855469 C 68.832031 78.855469 66.78125 76.980469 66.6875 76.894531 C 66.582031 76.796875 66.574219 76.632812 66.671875 76.527344 C 66.769531 76.421875 66.933594 76.414062 67.035156 76.511719 C 67.058594 76.535156 69.367188 78.644531 71.792969 78.300781 C 73.085938 78.121094 74.199219 77.273438 75.101562 75.785156 C 75.171875 75.664062 75.332031 75.625 75.453125 75.699219 C 75.578125 75.773438 75.613281 75.929688 75.542969 76.054688 C 74.554688 77.683594 73.316406 78.609375 71.863281 78.816406 C 71.65625 78.84375 71.445312 78.855469 71.242188 78.855469"/><path fill="#6EC8F1" d="M 71.496094 78.855469 C 71.421875 78.855469 71.347656 78.824219 71.296875 78.757812 C 68.84375 75.722656 71.773438 73.191406 71.804688 73.167969 C 71.914062 73.074219 72.074219 73.089844 72.167969 73.199219 C 72.257812 73.308594 72.246094 73.46875 72.136719 73.5625 C 72.03125 73.652344 69.566406 75.796875 71.699219 78.433594 C 71.785156 78.546875 71.769531 78.707031 71.660156 78.796875 C 71.613281 78.835938 71.554688 78.855469 71.496094 78.855469"/><path fill="#6EC8F1" d="M 73.5625 83.078125 C 73.449219 83.078125 73.347656 83.007812 73.316406 82.894531 C 73.273438 82.757812 73.347656 82.613281 73.484375 82.570312 C 73.570312 82.546875 75.515625 81.894531 75.515625 78.992188 C 75.515625 78.847656 75.632812 78.734375 75.773438 78.734375 C 75.917969 78.734375 76.03125 78.847656 76.03125 78.992188 C 76.03125 82.292969 73.660156 83.058594 73.636719 83.066406 C 73.613281 83.074219 73.585938 83.078125 73.5625 83.078125"/><path fill="#ED1A45" d="M 49.230469 128.582031 C 49.226562 128.582031 49.226562 128.578125 49.222656 128.578125 C 49.078125 128.574219 48.96875 128.453125 48.972656 128.3125 C 48.980469 128.183594 49.453125 115.675781 46.496094 107.628906 C 43.980469 100.773438 50.21875 95.097656 55.230469 90.535156 C 56.359375 89.503906 57.429688 88.53125 58.332031 87.609375 C 63.273438 82.554688 61.332031 76.304688 59.191406 74.082031 C 57.546875 72.375 56.859375 69.445312 57.660156 67.554688 C 58.046875 66.636719 58.949219 65.539062 61.027344 65.539062 C 61.171875 65.539062 61.285156 65.65625 61.285156 65.796875 C 61.285156 65.941406 61.171875 66.054688 61.027344 66.054688 C 59.605469 66.054688 58.601562 66.644531 58.132812 67.757812 C 57.417969 69.445312 58.074219 72.175781 59.5625 73.722656 C 62.28125 76.546875 63.492188 83.070312 58.699219 87.96875 C 57.785156 88.90625 56.710938 89.882812 55.574219 90.917969 C 50.679688 95.375 44.585938 100.921875 46.980469 107.449219 C 49.972656 115.59375 49.496094 128.207031 49.488281 128.332031 C 49.484375 128.472656 49.371094 128.582031 49.230469 128.582031"/><path fill="#ED1A45" d="M 57.785156 71.199219 C 57.773438 71.199219 57.761719 71.199219 57.75 71.195312 C 57.605469 71.175781 57.507812 71.042969 57.53125 70.902344 C 57.667969 69.949219 58.097656 69.199219 58.8125 68.671875 C 60.445312 67.46875 62.964844 67.851562 63.070312 67.871094 C 63.210938 67.890625 63.304688 68.023438 63.285156 68.164062 C 63.261719 68.304688 63.128906 68.402344 62.988281 68.382812 C 62.964844 68.378906 60.574219 68.015625 59.117188 69.089844 C 58.519531 69.535156 58.15625 70.167969 58.039062 70.976562 C 58.019531 71.105469 57.910156 71.199219 57.785156 71.199219"/><path fill="#ED1A45" d="M 58.203125 72.394531 C 58.15625 72.394531 58.113281 72.382812 58.070312 72.355469 C 57.949219 72.28125 57.910156 72.121094 57.984375 72 C 59.414062 69.671875 62.167969 70.984375 62.195312 70.996094 C 62.324219 71.058594 62.378906 71.214844 62.316406 71.34375 C 62.253906 71.472656 62.097656 71.523438 61.972656 71.460938 C 61.875 71.417969 59.605469 70.34375 58.425781 72.269531 C 58.375 72.351562 58.292969 72.394531 58.203125 72.394531"/><path fill="#ED1A45" d="M 60.144531 68.570312 C 60.109375 68.570312 60.074219 68.5625 60.039062 68.546875 C 59.910156 68.488281 59.851562 68.335938 59.910156 68.207031 C 59.945312 68.121094 60.859375 66.097656 62.472656 66.097656 C 62.613281 66.097656 62.730469 66.214844 62.730469 66.359375 C 62.730469 66.5 62.613281 66.617188 62.472656 66.617188 C 61.191406 66.617188 60.386719 68.398438 60.378906 68.414062 C 60.335938 68.511719 60.242188 68.570312 60.144531 68.570312"/><path fill="#F9AB0C" d="M 48.285156 127.113281 C 48.191406 127.113281 48.101562 127.0625 48.054688 126.972656 C 47.992188 126.84375 41.628906 113.898438 49.234375 102.714844 C 51.109375 99.957031 53.039062 97.664062 54.738281 95.640625 C 60.003906 89.378906 63.183594 85.597656 57.460938 77.40625 C 53.402344 71.597656 54.109375 65.640625 55.417969 61.667969 C 56.832031 57.375 59.234375 54.40625 59.257812 54.378906 C 59.351562 54.269531 59.511719 54.25 59.621094 54.34375 C 59.734375 54.433594 59.75 54.597656 59.660156 54.707031 C 59.636719 54.734375 57.285156 57.640625 55.902344 61.84375 C 54.0625 67.457031 54.726562 72.59375 57.882812 77.109375 C 63.835938 85.628906 60.375 89.746094 55.132812 95.972656 C 53.4375 97.988281 51.519531 100.269531 49.660156 103.003906 C 42.222656 113.941406 48.453125 126.613281 48.515625 126.738281 C 48.582031 126.867188 48.53125 127.023438 48.402344 127.085938 C 48.363281 127.105469 48.324219 127.113281 48.285156 127.113281"/><path fill="#F9AB0C" d="M 56.226562 60.480469 C 56.21875 60.480469 56.207031 60.480469 56.195312 60.476562 C 56.054688 60.460938 55.953125 60.332031 55.96875 60.191406 C 56.445312 56.117188 54.519531 54.988281 54.4375 54.941406 C 54.3125 54.871094 54.269531 54.714844 54.335938 54.589844 C 54.40625 54.464844 54.5625 54.421875 54.683594 54.488281 C 54.777344 54.539062 57 55.804688 56.484375 60.25 C 56.46875 60.382812 56.355469 60.480469 56.226562 60.480469"/><path fill="#F9AB0C" d="M 58.605469 58.605469 C 57.714844 58.605469 57.132812 58.1875 57.121094 58.179688 C 57.007812 58.097656 56.984375 57.933594 57.066406 57.820312 C 57.152344 57.703125 57.3125 57.679688 57.429688 57.761719 C 57.496094 57.8125 59.113281 58.941406 61.117188 56.738281 C 61.210938 56.632812 61.375 56.625 61.480469 56.722656 C 61.585938 56.820312 61.59375 56.984375 61.496094 57.089844 C 60.410156 58.285156 59.390625 58.605469 58.605469 58.605469"/><path fill="#F9AB0C" d="M 55.269531 63.34375 C 55.253906 63.34375 55.238281 63.34375 55.21875 63.339844 C 55.078125 63.3125 54.988281 63.175781 55.019531 63.035156 C 55.039062 62.933594 55.550781 60.578125 59.292969 60.621094 C 60.480469 60.636719 61.363281 60.355469 61.925781 59.789062 C 62.5625 59.148438 62.554688 58.363281 62.554688 58.355469 C 62.554688 58.214844 62.667969 58.097656 62.808594 58.09375 C 62.8125 58.09375 62.8125 58.09375 62.816406 58.09375 C 62.957031 58.09375 63.070312 58.207031 63.074219 58.347656 C 63.074219 58.390625 63.082031 59.359375 62.292969 60.15625 C 61.628906 60.824219 60.621094 61.160156 59.289062 61.140625 C 55.980469 61.105469 55.527344 63.117188 55.523438 63.136719 C 55.5 63.261719 55.390625 63.34375 55.269531 63.34375"/><path fill="#F9AB0C" d="M 63.011719 63.898438 C 62.703125 63.898438 59.535156 63.832031 58.234375 61.027344 C 58.175781 60.894531 58.230469 60.742188 58.359375 60.683594 C 58.488281 60.621094 58.640625 60.679688 58.703125 60.808594 C 59.898438 63.386719 62.996094 63.390625 63.027344 63.382812 C 63.171875 63.382812 63.285156 63.496094 63.285156 63.636719 C 63.289062 63.78125 63.175781 63.898438 63.03125 63.898438 C 63.027344 63.898438 63.023438 63.898438 63.011719 63.898438"/><path fill="#F9AB0C" d="M 55.859375 61.332031 C 55.660156 61.332031 54.957031 61.289062 54.398438 60.761719 C 53.921875 60.308594 53.683594 59.640625 53.683594 58.769531 C 53.683594 56.550781 52.425781 56.050781 51.984375 56.050781 C 51.839844 56.050781 51.726562 55.9375 51.726562 55.792969 C 51.726562 55.648438 51.839844 55.535156 51.984375 55.535156 C 52.558594 55.535156 54.199219 56.128906 54.199219 58.769531 C 54.199219 59.492188 54.382812 60.035156 54.75 60.382812 C 55.238281 60.84375 55.878906 60.8125 55.882812 60.8125 C 56.027344 60.804688 56.148438 60.914062 56.15625 61.058594 C 56.164062 61.199219 56.054688 61.320312 55.914062 61.328125 C 55.910156 61.328125 55.890625 61.332031 55.859375 61.332031"/><path fill="#6EC8F1" d="M 99.832031 133.839844 C 99.78125 133.839844 99.730469 133.824219 99.683594 133.796875 C 99.570312 133.714844 99.539062 133.554688 99.617188 133.4375 C 99.699219 133.320312 107.503906 121.601562 99.625 111.019531 C 93.867188 103.289062 95.445312 94.609375 95.460938 94.519531 C 95.46875 94.472656 96.34375 89.671875 94.234375 87.121094 C 93.367188 86.066406 92.09375 85.535156 90.453125 85.535156 C 83.675781 85.535156 82.320312 79.195312 82.308594 79.132812 C 82.277344 78.992188 82.371094 78.855469 82.507812 78.828125 C 82.648438 78.800781 82.785156 78.890625 82.8125 79.027344 C 82.863281 79.273438 84.105469 85.015625 90.453125 85.015625 C 92.253906 85.015625 93.664062 85.613281 94.632812 86.789062 C 96.898438 89.53125 96.007812 94.410156 95.96875 94.617188 C 95.949219 94.703125 94.421875 103.167969 100.039062 110.707031 C 104.273438 116.398438 104.050781 122.355469 103.113281 126.355469 C 102.105469 130.671875 100.0625 133.699219 100.042969 133.726562 C 99.996094 133.800781 99.914062 133.839844 99.832031 133.839844"/><path fill="#6EC8F1" d="M 80.957031 85.070312 C 80.773438 85.070312 80.589844 85.058594 80.402344 85.035156 C 79.105469 84.851562 78 84.023438 77.117188 82.570312 C 77.042969 82.449219 77.082031 82.289062 77.207031 82.214844 C 77.328125 82.140625 77.484375 82.179688 77.558594 82.300781 C 78.355469 83.617188 79.335938 84.363281 80.472656 84.519531 C 82.617188 84.820312 84.648438 82.960938 84.667969 82.941406 C 84.769531 82.84375 84.933594 82.851562 85.03125 82.957031 C 85.128906 83.0625 85.121094 83.222656 85.015625 83.320312 C 84.933594 83.398438 83.105469 85.070312 80.957031 85.070312"/><path fill="#6EC8F1" d="M 80.730469 85.070312 C 80.671875 85.070312 80.617188 85.050781 80.570312 85.011719 C 80.457031 84.921875 80.441406 84.757812 80.53125 84.648438 C 82.402344 82.332031 80.238281 80.445312 80.144531 80.367188 C 80.035156 80.277344 80.023438 80.113281 80.113281 80.003906 C 80.207031 79.894531 80.367188 79.878906 80.476562 79.972656 C 80.503906 79.996094 83.125 82.257812 80.929688 84.972656 C 80.878906 85.039062 80.804688 85.070312 80.730469 85.070312"/><path fill="#F9AB0C" d="M 101.050781 127.113281 C 101.011719 127.113281 100.972656 127.105469 100.933594 127.085938 C 100.808594 127.023438 100.753906 126.867188 100.820312 126.738281 C 100.882812 126.613281 107.109375 113.933594 99.675781 103.003906 C 97.816406 100.269531 95.898438 97.988281 94.203125 95.972656 C 88.960938 89.746094 85.5 85.628906 91.453125 77.109375 C 98.992188 66.324219 89.769531 54.820312 89.675781 54.707031 C 89.585938 54.597656 89.601562 54.433594 89.714844 54.34375 C 89.824219 54.25 89.984375 54.269531 90.078125 54.378906 C 90.101562 54.40625 92.503906 57.375 93.917969 61.667969 C 95.226562 65.640625 95.933594 71.597656 91.875 77.40625 C 86.152344 85.597656 89.332031 89.378906 94.597656 95.640625 C 96.296875 97.664062 98.226562 99.957031 100.101562 102.714844 C 107.707031 113.898438 101.34375 126.84375 101.28125 126.972656 C 101.234375 127.0625 101.144531 127.113281 101.050781 127.113281"/><path fill="#F9AB0C" d="M 93.109375 60.480469 C 92.980469 60.480469 92.871094 60.382812 92.851562 60.25 C 92.335938 55.804688 94.558594 54.539062 94.652344 54.488281 C 94.777344 54.421875 94.933594 54.464844 95 54.59375 C 95.070312 54.714844 95.023438 54.875 94.898438 54.941406 C 94.816406 54.988281 92.890625 56.121094 93.367188 60.191406 C 93.382812 60.332031 93.28125 60.460938 93.140625 60.476562 C 93.128906 60.480469 93.117188 60.480469 93.109375 60.480469"/><path fill="#F9AB0C" d="M 90.730469 58.605469 C 89.945312 58.605469 88.925781 58.285156 87.839844 57.089844 C 87.742188 56.984375 87.75 56.820312 87.855469 56.722656 C 87.960938 56.625 88.125 56.632812 88.21875 56.738281 C 90.234375 58.957031 91.890625 57.777344 91.90625 57.765625 C 92.023438 57.679688 92.183594 57.703125 92.269531 57.820312 C 92.351562 57.933594 92.328125 58.097656 92.214844 58.179688 C 92.203125 58.1875 91.621094 58.605469 90.730469 58.605469"/><path fill="#F9AB0C" d="M 94.066406 63.34375 C 93.945312 63.34375 93.839844 63.261719 93.8125 63.140625 C 93.792969 63.050781 93.339844 61.105469 90.046875 61.140625 C 88.714844 61.15625 87.707031 60.824219 87.042969 60.15625 C 86.253906 59.359375 86.261719 58.390625 86.261719 58.347656 C 86.265625 58.207031 86.378906 58.09375 86.519531 58.09375 C 86.523438 58.09375 86.523438 58.09375 86.527344 58.09375 C 86.667969 58.097656 86.78125 58.214844 86.777344 58.355469 C 86.777344 58.363281 86.78125 59.160156 87.414062 59.796875 C 87.976562 60.359375 88.859375 60.636719 90.042969 60.621094 C 90.078125 60.621094 90.113281 60.621094 90.144531 60.621094 C 93.785156 60.621094 94.296875 62.933594 94.320312 63.035156 C 94.347656 63.175781 94.257812 63.3125 94.117188 63.339844 C 94.097656 63.34375 94.082031 63.34375 94.066406 63.34375"/><path fill="#F9AB0C" d="M 86.324219 63.898438 C 86.3125 63.898438 86.308594 63.898438 86.304688 63.898438 C 86.160156 63.898438 86.046875 63.78125 86.050781 63.636719 C 86.050781 63.496094 86.164062 63.378906 86.308594 63.382812 C 86.34375 63.378906 89.4375 63.386719 90.632812 60.808594 C 90.695312 60.679688 90.847656 60.621094 90.976562 60.683594 C 91.105469 60.742188 91.160156 60.894531 91.101562 61.027344 C 89.800781 63.828125 86.632812 63.898438 86.324219 63.898438"/><path fill="#F9AB0C" d="M 93.476562 61.332031 C 93.445312 61.332031 93.425781 61.328125 93.421875 61.328125 C 93.28125 61.320312 93.171875 61.199219 93.179688 61.058594 C 93.1875 60.914062 93.308594 60.808594 93.449219 60.8125 C 93.460938 60.8125 94.109375 60.835938 94.589844 60.378906 C 94.953125 60.03125 95.136719 59.488281 95.136719 58.769531 C 95.136719 56.128906 96.777344 55.535156 97.351562 55.535156 C 97.496094 55.535156 97.609375 55.648438 97.609375 55.792969 C 97.609375 55.9375 97.496094 56.050781 97.351562 56.050781 C 96.910156 56.050781 95.652344 56.550781 95.652344 58.769531 C 95.652344 59.640625 95.414062 60.308594 94.9375 60.761719 C 94.378906 61.289062 93.675781 61.332031 93.476562 61.332031"/><path fill="#ED1A45" d="M 100.105469 128.582031 C 99.964844 128.582031 99.851562 128.472656 99.847656 128.332031 C 99.839844 128.207031 99.363281 115.59375 102.355469 107.449219 C 104.75 100.921875 98.65625 95.375 93.761719 90.917969 C 92.625 89.882812 91.550781 88.90625 90.636719 87.96875 C 85.84375 83.070312 87.054688 76.546875 89.773438 73.722656 C 91.261719 72.175781 91.917969 69.445312 91.203125 67.757812 C 90.734375 66.644531 89.730469 66.054688 88.308594 66.054688 C 88.164062 66.054688 88.050781 65.941406 88.050781 65.796875 C 88.050781 65.65625 88.164062 65.539062 88.308594 65.539062 C 90.386719 65.539062 91.289062 66.636719 91.675781 67.554688 C 92.476562 69.445312 91.789062 72.375 90.144531 74.082031 C 88.007812 76.304688 86.0625 82.554688 91.003906 87.609375 C 91.90625 88.53125 92.976562 89.503906 94.105469 90.535156 C 99.117188 95.097656 105.355469 100.773438 102.839844 107.628906 C 99.882812 115.679688 100.355469 128.183594 100.363281 128.3125 C 100.367188 128.453125 100.257812 128.574219 100.113281 128.578125 C 100.113281 128.578125 100.109375 128.582031 100.105469 128.582031"/><path fill="#ED1A45" d="M 91.550781 71.199219 C 91.425781 71.199219 91.316406 71.105469 91.296875 70.976562 C 91.179688 70.167969 90.816406 69.53125 90.214844 69.089844 C 88.757812 68.011719 86.371094 68.378906 86.347656 68.382812 C 86.207031 68.402344 86.074219 68.308594 86.050781 68.164062 C 86.03125 68.023438 86.125 67.890625 86.265625 67.871094 C 86.371094 67.851562 88.894531 67.46875 90.523438 68.671875 C 91.238281 69.199219 91.667969 69.949219 91.804688 70.902344 C 91.828125 71.042969 91.730469 71.175781 91.585938 71.195312 C 91.574219 71.199219 91.5625 71.199219 91.550781 71.199219"/><path fill="#ED1A45" d="M 91.132812 72.394531 C 91.042969 72.394531 90.960938 72.351562 90.910156 72.269531 C 89.730469 70.34375 87.460938 71.417969 87.363281 71.460938 C 87.238281 71.523438 87.082031 71.472656 87.019531 71.34375 C 86.957031 71.214844 87.011719 71.058594 87.140625 70.996094 C 87.167969 70.984375 89.921875 69.671875 91.351562 72 C 91.425781 72.121094 91.386719 72.28125 91.265625 72.355469 C 91.222656 72.382812 91.179688 72.394531 91.132812 72.394531"/><path fill="#ED1A45" d="M 89.191406 68.570312 C 89.09375 68.570312 89 68.511719 88.957031 68.414062 C 88.949219 68.398438 88.140625 66.617188 86.863281 66.617188 C 86.722656 66.617188 86.605469 66.5 86.605469 66.359375 C 86.605469 66.214844 86.722656 66.097656 86.863281 66.097656 C 88.476562 66.097656 89.390625 68.121094 89.429688 68.207031 C 89.484375 68.335938 89.425781 68.488281 89.296875 68.546875 C 89.261719 68.5625 89.226562 68.570312 89.191406 68.570312"/><path fill="#ED1A45" d="M 85.765625 77.558594 C 85.648438 77.558594 85.527344 77.554688 85.40625 77.542969 C 83.953125 77.414062 82.585938 76.496094 81.339844 74.8125 C 77.832031 70.066406 76.152344 70.066406 74.667969 70.066406 C 74.527344 70.066406 74.410156 69.949219 74.410156 69.808594 C 74.410156 69.664062 74.527344 69.546875 74.667969 69.546875 C 76.191406 69.546875 78.089844 69.546875 81.753906 74.503906 C 82.90625 76.0625 84.152344 76.910156 85.453125 77.027344 C 87.09375 77.171875 88.265625 76.089844 88.277344 76.078125 C 88.378906 75.980469 88.542969 75.984375 88.640625 76.089844 C 88.738281 76.191406 88.734375 76.355469 88.628906 76.453125 C 88.578125 76.503906 87.4375 77.558594 85.765625 77.558594"/><path fill="#ED1A45" d="M 78.796875 71.761719 C 78.71875 71.761719 78.636719 71.722656 78.585938 71.652344 C 78.503906 71.535156 78.535156 71.371094 78.648438 71.289062 C 78.648438 71.289062 79.300781 70.738281 79.300781 68.308594 C 79.300781 65.507812 82.335938 64.25 82.464844 64.199219 C 82.597656 64.144531 82.746094 64.210938 82.800781 64.339844 C 82.851562 64.476562 82.789062 64.625 82.65625 64.679688 C 82.628906 64.691406 79.816406 65.859375 79.816406 68.308594 C 79.816406 71.027344 79.035156 71.652344 78.945312 71.714844 C 78.898438 71.746094 78.847656 71.761719 78.796875 71.761719"/><path fill="#ED1A45" d="M 80.695312 73.8125 C 80.578125 73.8125 80.472656 73.730469 80.445312 73.609375 C 80.421875 73.511719 79.902344 71.136719 80.910156 70.140625 C 81.011719 70.039062 81.175781 70.039062 81.273438 70.144531 C 81.375 70.246094 81.375 70.410156 81.273438 70.507812 C 80.605469 71.167969 80.8125 72.890625 80.949219 73.496094 C 80.976562 73.636719 80.890625 73.773438 80.75 73.804688 C 80.734375 73.808594 80.714844 73.8125 80.695312 73.8125"/><path fill="#ED1A45" d="M 75.320312 72.394531 C 75.179688 72.394531 75.0625 72.277344 75.0625 72.136719 C 75.0625 70.613281 76.417969 70.117188 77.136719 70.066406 C 77.28125 70.054688 77.402344 70.164062 77.414062 70.304688 C 77.421875 70.449219 77.316406 70.570312 77.175781 70.582031 C 77.105469 70.585938 75.578125 70.722656 75.578125 72.136719 C 75.578125 72.277344 75.460938 72.394531 75.320312 72.394531"/><path fill="#ED1A45" d="M 79.566406 68.316406 C 79.523438 68.316406 79.476562 68.304688 79.4375 68.28125 C 79.3125 68.210938 79.269531 68.054688 79.34375 67.929688 C 80.210938 66.421875 83.222656 67.054688 83.351562 67.082031 C 83.488281 67.109375 83.578125 67.25 83.546875 67.386719 C 83.519531 67.527344 83.382812 67.617188 83.242188 67.585938 C 82.472656 67.421875 80.355469 67.207031 79.789062 68.1875 C 79.742188 68.269531 79.65625 68.316406 79.566406 68.316406"/></svg>